<svg width="112" height="112" viewBox="0 0 112 112" fill="none" xmlns="http://www.w3.org/2000/svg">
<rect width="112" height="112" rx="11.2" fill="url(#paint0_linear_324_4403)"/>
<path fill-rule="evenodd" clip-rule="evenodd" d="M60.7391 34.8612C61.5516 33.209 60.3491 31.2775 58.5079 31.2775H44.415C43.4673 31.2775 42.602 31.8162 42.1838 32.6666L39.8866 37.3376C39.074 38.9898 40.2766 40.9213 42.1178 40.9213H56.2107C57.1584 40.9213 58.0237 40.3826 58.4419 39.5322L60.7391 34.8612ZM56.5399 47.5841C56.9582 46.7337 57.8234 46.195 58.7711 46.195H72.8641C74.7053 46.195 75.9078 48.1265 75.0952 49.7787L74.2816 51.433C73.4691 53.0852 74.6716 55.0167 76.5128 55.0167H87.543C89.3842 55.0167 90.5867 56.9482 89.7741 58.6004L87.4769 63.2714C87.0587 64.1218 86.1934 64.6605 85.2458 64.6605H69.6491C68.7015 64.6605 67.8362 65.1992 67.418 66.0496L64.4734 72.0369C64.0552 72.8873 63.1899 73.426 62.2422 73.426H47.1945C46.2468 73.426 45.3816 73.9647 44.9633 74.8151L42.0207 80.7985C41.6025 81.6489 40.7372 82.1876 39.7895 82.1876H25.6966C23.8554 82.1876 22.6529 80.2561 23.4654 78.6039L25.7626 73.9329C26.1808 73.0825 27.0461 72.5438 27.9938 72.5438H43.0415C43.9892 72.5438 44.8545 72.0051 45.2727 71.1547L46.7041 68.2442C47.5166 66.592 46.3141 64.6605 44.4729 64.6605H34.4575C32.6163 64.6605 31.4138 62.729 32.2264 61.0768L34.5236 56.4058C34.9418 55.5554 35.8071 55.0167 36.7547 55.0167H51.3366C52.2843 55.0167 53.1495 54.478 53.5678 53.6276L56.5399 47.5841ZM53.7538 57.2279C54.1721 56.3775 55.0373 55.8388 55.985 55.8388H67.504C69.3452 55.8388 70.5478 57.7703 69.7352 59.4225L68.2743 62.3931C67.8561 63.2435 66.9908 63.7822 66.0431 63.7822H54.5241C52.6829 63.7822 51.4804 61.8507 52.2929 60.1985L53.7538 57.2279Z" fill="white"/>
<defs>
<linearGradient id="paint0_linear_324_4403" x1="374.847" y1="103.814" x2="58.9315" y2="103.814" gradientUnits="userSpaceOnUse">
<stop stop-color="#7185E1"/>
<stop offset="0.43" stop-color="#6F3DA1"/>
<stop offset="1" stop-color="#392E6D"/>
</linearGradient>
</defs>
</svg>
