<svg width="274" height="274" viewBox="0 0 274 274" fill="none" xmlns="http://www.w3.org/2000/svg">
<rect width="274" height="274" rx="54.6798" fill="url(#paint0_linear_1515_5611)"/>
<rect width="274" height="274" rx="40" fill="#655DC3"/>
<rect x="25" y="25" width="65" height="39" rx="19.5" fill="white" fill-opacity="0.21"/>
<path d="M39.3047 38.5938V41.9219H41.6328V38.5938H43.2109V42.4844H44.8516V37.5312H46.5078V50.7344H44.8516V43.9219H43.2109V47.9688H37.6641V38.5938H39.3047ZM39.3047 46.5469H41.6328V43.3125H39.3047V46.5469ZM49.4141 37.2656V51.3906H47.7422V37.2656H49.4141ZM62.8047 37.2656V51.4062H61.0547V37.2656H62.8047ZM55.1953 38.2969C57.3203 38.2969 58.8672 40.2344 58.8828 43.2812C58.8672 46.3594 57.3203 48.2812 55.1953 48.2812C53.0547 48.2812 51.5078 46.3594 51.5078 43.2812C51.5078 40.2344 53.0547 38.2969 55.1953 38.2969ZM55.1953 39.8594C53.9922 39.8594 53.1797 41.125 53.1797 43.2812C53.1797 45.4531 53.9922 46.7188 55.1953 46.7188C56.3828 46.7188 57.1953 45.4531 57.1953 43.2812C57.1953 41.125 56.3828 39.8594 55.1953 39.8594ZM72.1797 39.2031C72.1797 41.3906 74.3203 43.5781 77.2734 44.0938L76.4922 45.5469C74.125 45.0469 72.1875 43.6172 71.2734 41.7188C70.3359 43.6016 68.3984 45.0391 66.0391 45.5469L65.2734 44.0938C68.1953 43.5625 70.3203 41.375 70.3359 39.2031V38.1562H72.1797V39.2031ZM77.7891 48.1562V49.5938H64.8828V48.1562H77.7891Z" fill="white"/>
<path d="M35.1836 101.902H38.0938V97.7422H40.0664V102.605H42.1172V96.4141H44.1875V112.918H42.1172V104.402H40.0664V109.461H33.1328V97.7422H35.1836V101.902ZM38.0938 107.684V103.641H35.1836V107.684H38.0938ZM47.8203 113.738H45.7305V96.082H47.8203V113.738ZM64.5586 113.758H62.3711V96.082H64.5586V113.758ZM55.0469 97.3711C55.9323 97.3711 56.7201 97.6283 57.4102 98.1426C58.1068 98.6504 58.6536 99.3763 59.0508 100.32C59.4479 101.258 59.6497 102.352 59.6562 103.602C59.6497 104.858 59.4479 105.958 59.0508 106.902C58.6602 107.846 58.1165 108.576 57.4199 109.09C56.7233 109.598 55.9323 109.852 55.0469 109.852C54.1549 109.852 53.3607 109.598 52.6641 109.09C51.9674 108.576 51.4206 107.846 51.0234 106.902C50.6328 105.958 50.4375 104.858 50.4375 103.602C50.4375 102.352 50.6328 101.258 51.0234 100.32C51.4206 99.3763 51.9674 98.6504 52.6641 98.1426C53.3607 97.6283 54.1549 97.3711 55.0469 97.3711ZM55.0469 99.3242C54.5456 99.3242 54.1029 99.4935 53.7188 99.832C53.3411 100.171 53.0482 100.662 52.8398 101.307C52.6315 101.951 52.5273 102.716 52.5273 103.602C52.5273 104.493 52.6315 105.262 52.8398 105.906C53.0482 106.551 53.3411 107.046 53.7188 107.391C54.1029 107.729 54.5456 107.898 55.0469 107.898C55.5417 107.898 55.9779 107.729 56.3555 107.391C56.7331 107.046 57.026 106.551 57.2344 105.906C57.4427 105.262 57.5469 104.493 57.5469 103.602C57.5469 102.716 57.4427 101.954 57.2344 101.316C57.026 100.672 56.7331 100.18 56.3555 99.8418C55.9779 99.4967 55.5417 99.3242 55.0469 99.3242ZM76.2773 98.5039C76.2773 99.4089 76.5508 100.291 77.0977 101.15C77.651 102.01 78.4128 102.752 79.3828 103.377C80.3529 103.995 81.4401 104.409 82.6445 104.617L81.668 106.434C80.1901 106.121 78.875 105.545 77.7227 104.705C76.5768 103.859 75.7174 102.84 75.1445 101.648C74.5586 102.833 73.6895 103.849 72.5371 104.695C71.3848 105.535 70.0729 106.115 68.6016 106.434L67.6445 104.617C68.8359 104.402 69.9102 103.986 70.8672 103.367C71.8307 102.742 72.5859 102 73.1328 101.141C73.6862 100.281 73.9661 99.4023 73.9727 98.5039V97.1953H76.2773V98.5039ZM83.2891 111.492H67.1562V109.695H83.2891V111.492ZM98.6016 102.723H86.707V96.8633H88.2305V101.492H98.6016V102.723ZM100.438 106.336H84.5391V105.086H100.438V106.336ZM98.6992 113.152H86.6094V108.113H88.1328V111.883H98.6992V113.152ZM122.684 105.75H106.883V104.48H113.426V100.965H114.93V104.48H122.684V105.75ZM120.672 113.582H119.109V109.012H108.562V107.742H120.672V113.582ZM120.672 98.4844C120.672 99.3958 120.646 100.206 120.594 100.916C120.548 101.626 120.431 102.417 120.242 103.289L118.699 103.133C118.901 102.267 119.025 101.499 119.07 100.828C119.122 100.151 119.148 99.3698 119.148 98.4844V98.4258H108.758V97.1758H120.672V98.4844ZM129.832 97.4883C130.737 97.4883 131.541 97.6608 132.244 98.0059C132.954 98.3509 133.507 98.8327 133.904 99.4512C134.301 100.07 134.5 100.776 134.5 101.57C134.5 102.365 134.301 103.071 133.904 103.689C133.507 104.308 132.954 104.79 132.244 105.135C131.541 105.48 130.737 105.652 129.832 105.652C128.927 105.652 128.117 105.48 127.4 105.135C126.691 104.79 126.134 104.308 125.73 103.689C125.333 103.071 125.138 102.365 125.145 101.57C125.138 100.776 125.333 100.07 125.73 99.4512C126.134 98.8327 126.691 98.3509 127.4 98.0059C128.117 97.6608 128.927 97.4883 129.832 97.4883ZM129.832 98.8359C129.22 98.8359 128.67 98.9531 128.182 99.1875C127.7 99.4154 127.322 99.7376 127.049 100.154C126.775 100.564 126.642 101.036 126.648 101.57C126.642 102.104 126.775 102.579 127.049 102.996C127.322 103.406 127.7 103.729 128.182 103.963C128.67 104.191 129.22 104.305 129.832 104.305C130.438 104.305 130.981 104.191 131.463 103.963C131.945 103.729 132.319 103.406 132.586 102.996C132.859 102.579 132.996 102.104 132.996 101.57C132.996 101.036 132.859 100.564 132.586 100.154C132.319 99.7376 131.945 99.4154 131.463 99.1875C130.981 98.9531 130.438 98.8359 129.832 98.8359ZM138.387 113.621H136.863V96.2188H138.387V113.621ZM124.246 108.484C126.499 108.484 128.546 108.449 130.389 108.377C132.238 108.305 134.012 108.146 135.711 107.898L135.828 109.031C134.083 109.357 132.303 109.565 130.486 109.656C128.676 109.747 126.668 109.793 124.461 109.793L124.246 108.484ZM162.352 111.316H146.453V110.047H153.562V105.789H155.066V110.047H162.352V111.316ZM155.105 98.7383C155.105 99.6628 155.424 100.551 156.062 101.404C156.707 102.257 157.527 102.98 158.523 103.572C159.526 104.158 160.542 104.539 161.57 104.715L160.887 105.984C159.988 105.802 159.106 105.486 158.24 105.037C157.374 104.588 156.593 104.028 155.896 103.357C155.206 102.687 154.679 101.948 154.314 101.141C153.95 101.948 153.423 102.687 152.732 103.357C152.042 104.028 151.264 104.588 150.398 105.037C149.539 105.486 148.66 105.802 147.762 105.984L147.078 104.715C148.107 104.539 149.116 104.158 150.105 103.572C151.102 102.98 151.915 102.26 152.547 101.414C153.185 100.561 153.504 99.6693 153.504 98.7383V97.4102H155.105V98.7383ZM178.074 113.621H176.551V96.2188H178.074V113.621ZM172.801 104.012H166.316V108.113C167.872 108.113 169.318 108.068 170.652 107.977C171.993 107.885 173.4 107.723 174.871 107.488L175.027 108.777C173.523 109.018 172.085 109.184 170.711 109.275C169.337 109.36 167.833 109.402 166.199 109.402H164.754V102.762H171.258V99.1094H164.715V97.8398H172.801V104.012ZM196.902 105.496H181.004V104.285H196.902V105.496ZM194.91 110.574H184.48V112.234H195.477V113.348H182.938V109.52H193.387V108.035H182.918V106.883H194.91V110.574ZM194.852 100.34H184.598V101.863H195.164V102.977H183.074V99.2852H193.309V97.8594H183.016V96.7461H194.852V100.34ZM48.5234 135.945H41.3555V137.645C43.0091 137.71 44.2917 137.996 45.2031 138.504C46.1211 139.012 46.5833 139.708 46.5898 140.594C46.5833 141.219 46.3424 141.753 45.8672 142.195C45.3919 142.638 44.7083 142.973 43.8164 143.201C42.9245 143.429 41.8568 143.543 40.6133 143.543C39.3568 143.543 38.2793 143.429 37.3809 143.201C36.4889 142.973 35.8053 142.638 35.3301 142.195C34.8548 141.753 34.6172 141.219 34.6172 140.594C34.6172 139.708 35.0729 139.012 35.9844 138.504C36.8958 137.996 38.1849 137.71 39.8516 137.645V135.945H32.7031V134.695H48.5234V135.945ZM47.0195 128.152H44.3438V131.805H46.9609V133.074H34.2461V131.805H36.8633V128.152H34.1875V126.883H47.0195V128.152ZM40.6133 138.816C39.2135 138.816 38.123 138.973 37.3418 139.285C36.5671 139.591 36.1797 140.027 36.1797 140.594C36.1797 141.16 36.5671 141.6 37.3418 141.912C38.123 142.218 39.2135 142.365 40.6133 142.352C41.5247 142.358 42.3125 142.293 42.9766 142.156C43.6406 142.02 44.1484 141.821 44.5 141.561C44.8516 141.294 45.0273 140.971 45.0273 140.594C45.0273 140.027 44.6367 139.591 43.8555 139.285C43.0807 138.973 42 138.816 40.6133 138.816ZM42.8203 131.805V128.152H38.3867V131.805H42.8203ZM55.9648 128.953C55.9583 129.767 56.1341 130.545 56.4922 131.287C56.8503 132.023 57.3548 132.667 58.0059 133.221C58.6634 133.774 59.4154 134.194 60.2617 134.48L59.4023 135.672C58.4388 135.307 57.5957 134.783 56.873 134.1C56.1504 133.416 55.6035 132.618 55.2324 131.707C54.8613 132.749 54.2917 133.66 53.5234 134.441C52.7552 135.216 51.8503 135.802 50.8086 136.199L49.9688 134.949C50.8542 134.637 51.6322 134.188 52.3027 133.602C52.9798 133.009 53.5039 132.319 53.875 131.531C54.2461 130.737 54.4349 129.897 54.4414 129.012V127.215H55.9648V128.953ZM64.3828 136.512H62.8398V131.219H58.9727V129.949H62.8398V126.219H64.3828V136.512ZM58.6211 137.02C59.8255 137.02 60.8639 137.15 61.7363 137.41C62.6087 137.664 63.276 138.038 63.7383 138.533C64.207 139.021 64.4414 139.611 64.4414 140.301C64.4414 140.984 64.207 141.567 63.7383 142.049C63.276 142.537 62.6087 142.908 61.7363 143.162C60.8639 143.416 59.8255 143.543 58.6211 143.543C57.4167 143.543 56.3783 143.416 55.5059 143.162C54.6335 142.908 53.9629 142.537 53.4941 142.049C53.0319 141.567 52.8008 140.984 52.8008 140.301C52.8008 139.611 53.0319 139.021 53.4941 138.533C53.9629 138.038 54.6335 137.664 55.5059 137.41C56.3783 137.15 57.4167 137.02 58.6211 137.02ZM58.6211 138.23C57.7422 138.23 56.9772 138.315 56.3262 138.484C55.6751 138.647 55.1771 138.885 54.832 139.197C54.487 139.51 54.3177 139.878 54.3242 140.301C54.3177 140.711 54.487 141.069 54.832 141.375C55.1771 141.674 55.6751 141.906 56.3262 142.068C56.9772 142.231 57.7422 142.312 58.6211 142.312C59.5 142.312 60.2617 142.231 60.9062 142.068C61.5573 141.906 62.0553 141.674 62.4004 141.375C62.7454 141.069 62.918 140.711 62.918 140.301C62.918 139.878 62.7454 139.51 62.4004 139.197C62.0553 138.885 61.5573 138.647 60.9062 138.484C60.2617 138.315 59.5 138.23 58.6211 138.23ZM80.7109 133.387H83.6211V134.656H80.7109V143.582H79.1875V126.219H80.7109V133.387ZM77.5078 130.281H67.1758V129.012H71.6484V126.434H73.1719V129.012H77.5078V130.281ZM72.4297 131.727C73.2435 131.727 73.9727 131.896 74.6172 132.234C75.2617 132.573 75.7663 133.045 76.1309 133.65C76.4954 134.256 76.681 134.943 76.6875 135.711C76.681 136.479 76.4954 137.166 76.1309 137.771C75.7663 138.377 75.2617 138.849 74.6172 139.188C73.9727 139.526 73.2435 139.695 72.4297 139.695C71.6094 139.695 70.8737 139.526 70.2227 139.188C69.5781 138.849 69.0736 138.377 68.709 137.771C68.3444 137.166 68.1654 136.479 68.1719 135.711C68.1654 134.943 68.3444 134.256 68.709 133.65C69.0736 133.045 69.5781 132.573 70.2227 132.234C70.8737 131.896 71.6094 131.727 72.4297 131.727ZM72.4297 133.016C71.8958 133.016 71.4141 133.133 70.9844 133.367C70.5612 133.595 70.2292 133.914 69.9883 134.324C69.7474 134.734 69.6302 135.197 69.6367 135.711C69.6302 136.232 69.7474 136.697 69.9883 137.107C70.2292 137.511 70.5612 137.827 70.9844 138.055C71.4141 138.283 71.8958 138.393 72.4297 138.387C72.957 138.393 73.4323 138.283 73.8555 138.055C74.2786 137.827 74.6107 137.511 74.8516 137.107C75.0924 136.697 75.2161 136.232 75.2227 135.711C75.2161 135.197 75.0924 134.734 74.8516 134.324C74.6107 133.914 74.2786 133.595 73.8555 133.367C73.4323 133.133 72.957 133.016 72.4297 133.016ZM99.4219 143.582H97.957V126.219H99.4219V143.582ZM95.7695 142.703H94.3047V134.598H90.623C89.5163 136.72 87.8008 138.465 85.4766 139.832L84.5781 138.719C86.4336 137.625 87.8529 136.316 88.8359 134.793C89.8255 133.263 90.3919 131.57 90.5352 129.715H85.3203V128.445H92.0586C92.0456 130.216 91.7559 131.85 91.1895 133.348H94.3047V126.688H95.7695V142.703ZM120.301 133.387H123.211V134.656H120.301V143.582H118.777V126.219H120.301V133.387ZM117.098 130.281H106.766V129.012H111.238V126.434H112.762V129.012H117.098V130.281ZM112.02 131.727C112.833 131.727 113.562 131.896 114.207 132.234C114.852 132.573 115.356 133.045 115.721 133.65C116.085 134.256 116.271 134.943 116.277 135.711C116.271 136.479 116.085 137.166 115.721 137.771C115.356 138.377 114.852 138.849 114.207 139.188C113.562 139.526 112.833 139.695 112.02 139.695C111.199 139.695 110.464 139.526 109.812 139.188C109.168 138.849 108.663 138.377 108.299 137.771C107.934 137.166 107.755 136.479 107.762 135.711C107.755 134.943 107.934 134.256 108.299 133.65C108.663 133.045 109.168 132.573 109.812 132.234C110.464 131.896 111.199 131.727 112.02 131.727ZM112.02 133.016C111.486 133.016 111.004 133.133 110.574 133.367C110.151 133.595 109.819 133.914 109.578 134.324C109.337 134.734 109.22 135.197 109.227 135.711C109.22 136.232 109.337 136.697 109.578 137.107C109.819 137.511 110.151 137.827 110.574 138.055C111.004 138.283 111.486 138.393 112.02 138.387C112.547 138.393 113.022 138.283 113.445 138.055C113.868 137.827 114.201 137.511 114.441 137.107C114.682 136.697 114.806 136.232 114.812 135.711C114.806 135.197 114.682 134.734 114.441 134.324C114.201 133.914 113.868 133.595 113.445 133.367C113.022 133.133 112.547 133.016 112.02 133.016ZM128.816 127.566C129.611 127.573 130.32 127.798 130.945 128.24C131.57 128.676 132.072 129.298 132.449 130.105H137.02V126.219H138.543V143.621H137.02V136.883H132.557C132.192 137.768 131.684 138.452 131.033 138.934C130.389 139.415 129.65 139.656 128.816 139.656C127.97 139.656 127.215 139.409 126.551 138.914C125.893 138.419 125.379 137.716 125.008 136.805C124.643 135.893 124.461 134.832 124.461 133.621C124.461 132.41 124.643 131.349 125.008 130.438C125.379 129.526 125.893 128.823 126.551 128.328C127.208 127.827 127.964 127.573 128.816 127.566ZM128.816 128.934C128.25 128.94 127.745 129.139 127.303 129.529C126.867 129.913 126.528 130.46 126.287 131.17C126.046 131.873 125.926 132.69 125.926 133.621C125.926 134.552 126.046 135.372 126.287 136.082C126.528 136.785 126.867 137.329 127.303 137.713C127.745 138.097 128.25 138.289 128.816 138.289C129.376 138.289 129.874 138.097 130.311 137.713C130.753 137.329 131.095 136.785 131.336 136.082C131.583 135.372 131.707 134.552 131.707 133.621C131.707 132.69 131.583 131.873 131.336 131.17C131.095 130.46 130.757 129.913 130.32 129.529C129.884 129.139 129.383 128.94 128.816 128.934ZM132.898 131.395C133.068 132.124 133.152 132.866 133.152 133.621C133.152 134.298 133.084 134.962 132.947 135.613H137.02V131.395H132.898ZM48.5234 165.75H32.7227V164.48H39.2656V160.965H40.7695V164.48H48.5234V165.75ZM46.5117 173.582H44.9492V169.012H34.4023V167.742H46.5117V173.582ZM46.5117 158.484C46.5117 159.396 46.4857 160.206 46.4336 160.916C46.388 161.626 46.2708 162.417 46.082 163.289L44.5391 163.133C44.7409 162.267 44.8646 161.499 44.9102 160.828C44.9622 160.151 44.9883 159.37 44.9883 158.484V158.426H34.5977V157.176H46.5117V158.484ZM64.3047 165.594H62.7617V156.238H64.3047V165.594ZM50.0664 163.699C52.3451 163.686 54.3796 163.644 56.1699 163.572C57.9668 163.501 59.6758 163.348 61.2969 163.113L61.4141 164.207C59.7344 164.493 57.9766 164.682 56.1406 164.773C54.3112 164.865 52.3581 164.91 50.2812 164.91L50.0664 163.699ZM64.3047 170.398H54.3242V172.156H64.9297V173.387H52.8008V169.246H62.7812V167.605H52.7617V166.395H64.3047V170.398ZM55.6328 156.648C56.5182 156.648 57.2962 156.766 57.9668 157C58.6374 157.234 59.1549 157.573 59.5195 158.016C59.8841 158.452 60.0664 158.966 60.0664 159.559C60.0664 160.145 59.8841 160.656 59.5195 161.092C59.1549 161.521 58.6374 161.854 57.9668 162.088C57.2962 162.322 56.5182 162.443 55.6328 162.449C54.7409 162.443 53.9629 162.322 53.2988 162.088C52.6348 161.854 52.1204 161.521 51.7559 161.092C51.3978 160.656 51.2188 160.145 51.2188 159.559C51.2188 158.966 51.3978 158.452 51.7559 158.016C52.1204 157.573 52.6348 157.234 53.2988 157C53.9629 156.766 54.7409 156.648 55.6328 156.648ZM55.6328 157.781C55.0404 157.781 54.5195 157.853 54.0703 157.996C53.6211 158.139 53.2728 158.348 53.0254 158.621C52.7845 158.888 52.6641 159.201 52.6641 159.559C52.6641 159.917 52.7845 160.232 53.0254 160.506C53.2728 160.773 53.6178 160.981 54.0605 161.131C54.5098 161.274 55.0339 161.349 55.6328 161.355C56.2188 161.349 56.7298 161.274 57.166 161.131C57.6087 160.981 57.9505 160.773 58.1914 160.506C58.4388 160.232 58.5625 159.917 58.5625 159.559C58.5625 159.201 58.4388 158.888 58.1914 158.621C57.9505 158.348 57.6087 158.139 57.166 157.996C56.7298 157.853 56.2188 157.781 55.6328 157.781ZM82.332 162.625H73.8945V156.941H82.293V158.699H76.0625V160.867H82.332V162.625ZM86.8633 168.719H84.6953V156.082H86.8633V168.719ZM72.2148 164.051C74.3958 164.051 76.4238 164.025 78.2988 163.973C80.1738 163.921 81.9479 163.816 83.6211 163.66L83.7578 165.223C82.2474 165.418 80.5677 165.564 78.7188 165.662V168.543H76.5898V165.74C75.3529 165.773 74.2852 165.789 73.3867 165.789H72.5078L72.2148 164.051ZM82.3906 168.035C82.3906 168.667 82.6185 169.256 83.0742 169.803C83.5299 170.35 84.1908 170.815 85.0566 171.199C85.9225 171.577 86.9479 171.837 88.1328 171.98L87.3125 173.641C85.9062 173.458 84.6823 173.1 83.6406 172.566C82.6055 172.039 81.821 171.372 81.2871 170.564C80.7402 171.378 79.946 172.052 78.9043 172.586C77.8626 173.12 76.6419 173.478 75.2422 173.66L74.4414 171.98C75.6198 171.837 76.6419 171.577 77.5078 171.199C78.3737 170.815 79.0378 170.35 79.5 169.803C79.9622 169.249 80.1966 168.66 80.2031 168.035V167.332H82.3906V168.035ZM103.387 160.184H105.848V161.98H103.387V166.375H101.219V156.082H103.387V160.184ZM92.2148 159.52H96.3359V157.117H98.4844V165.438H90.0664V157.117H92.2148V159.52ZM96.3359 163.719V161.199H92.2148V163.719H96.3359ZM103.504 168.973H94.168V171.766H103.836V173.484H92V167.234H103.504V168.973ZM117.215 159.676H113.445C113.452 160.34 113.624 160.981 113.963 161.6C114.301 162.212 114.799 162.755 115.457 163.23C116.115 163.706 116.902 164.064 117.82 164.305L116.805 166.004C115.789 165.724 114.907 165.298 114.158 164.725C113.416 164.152 112.833 163.468 112.41 162.674C112 163.54 111.421 164.292 110.672 164.93C109.923 165.561 109.031 166.03 107.996 166.336L106.98 164.676C107.885 164.402 108.66 164.008 109.305 163.494C109.949 162.98 110.438 162.394 110.77 161.736C111.102 161.072 111.271 160.385 111.277 159.676H107.508V157.957H111.277V156.023H113.465V157.957H117.215V159.676ZM121.453 166.473H119.266V156.102H121.453V166.473ZM121.453 173.523H109.734V167.273H121.453V173.523ZM111.883 171.766H119.324V169.012H111.883V171.766ZM132.82 160.477H124.109V159.227H127.723V156.746H129.246V159.227H132.82V160.477ZM128.465 161.648C129.188 161.648 129.832 161.818 130.398 162.156C130.971 162.488 131.417 162.954 131.736 163.553C132.062 164.152 132.228 164.832 132.234 165.594C132.228 166.362 132.062 167.049 131.736 167.654C131.417 168.253 130.971 168.725 130.398 169.07C129.832 169.409 129.188 169.578 128.465 169.578C127.749 169.578 127.107 169.409 126.541 169.07C125.975 168.725 125.532 168.25 125.213 167.645C124.894 167.039 124.734 166.355 124.734 165.594C124.734 164.839 124.894 164.161 125.213 163.562C125.532 162.957 125.975 162.488 126.541 162.156C127.107 161.818 127.749 161.648 128.465 161.648ZM128.465 162.938C128.016 162.944 127.609 163.064 127.244 163.299C126.886 163.527 126.606 163.842 126.404 164.246C126.202 164.643 126.102 165.092 126.102 165.594C126.102 166.102 126.202 166.557 126.404 166.961C126.613 167.365 126.896 167.68 127.254 167.908C127.612 168.13 128.016 168.237 128.465 168.23C128.921 168.237 129.331 168.13 129.695 167.908C130.06 167.68 130.346 167.365 130.555 166.961C130.763 166.557 130.867 166.102 130.867 165.594C130.867 165.092 130.763 164.643 130.555 164.246C130.346 163.842 130.06 163.527 129.695 163.299C129.331 163.064 128.921 162.944 128.465 162.938ZM138.934 173.582H137.469V164.812H135.164V172.723H133.719V156.648H135.164V163.543H137.469V156.219H138.934V173.582ZM155.848 158.113H150.35C150.402 158.725 150.714 159.292 151.287 159.812C151.867 160.327 152.605 160.757 153.504 161.102C154.409 161.44 155.366 161.661 156.375 161.766L155.809 162.977C154.845 162.859 153.93 162.648 153.064 162.342C152.199 162.029 151.44 161.629 150.789 161.141C150.138 160.652 149.656 160.099 149.344 159.48C149.038 160.099 148.559 160.652 147.908 161.141C147.264 161.629 146.505 162.029 145.633 162.342C144.767 162.648 143.849 162.859 142.879 162.977L142.312 161.766C143.322 161.661 144.275 161.44 145.174 161.102C146.072 160.757 146.808 160.327 147.381 159.812C147.96 159.292 148.279 158.725 148.338 158.113H142.879V156.844H155.848V158.113ZM144.969 168.719H153.68V166.688H155.203V173.348H143.445V166.688H144.969V168.719ZM153.68 172.117V169.93H144.969V172.117H153.68ZM157.254 165.34H150.086V167.781H148.582V165.34H141.434V164.07H157.254V165.34ZM173.035 173.582H171.512V156.219H173.035V173.582ZM161.355 167.781C164.292 167.768 167.059 167.488 169.656 166.941L169.871 168.25C168.393 168.556 166.954 168.777 165.555 168.914C164.155 169.044 162.723 169.109 161.258 169.109H159.852V157.938H161.355V167.781ZM189.441 163.094H192.352V164.383H189.441V173.621H187.918V156.219H189.441V163.094ZM184.871 159.188H178.289V167.977C179.91 167.977 181.326 167.931 182.537 167.84C183.748 167.749 184.982 167.586 186.238 167.352L186.434 168.68C185.151 168.914 183.891 169.07 182.654 169.148C181.417 169.227 179.91 169.266 178.133 169.266H176.766V157.918H184.871V159.188Z" fill="white"/>
<defs>
<linearGradient id="paint0_linear_1515_5611" x1="137" y1="274" x2="137" y2="0" gradientUnits="userSpaceOnUse">
<stop stop-color="#091F5D"/>
<stop offset="1" stop-color="#06061C"/>
</linearGradient>
</defs>
</svg>
