<svg width="274" height="274" viewBox="0 0 274 274" fill="none" xmlns="http://www.w3.org/2000/svg">
<rect width="274" height="274" rx="54.6798" fill="url(#paint0_linear_1528_13572)"/>
<rect width="274" height="274" rx="40" fill="#452A78"/>
<rect x="25" y="25" width="65" height="39" rx="19.5" fill="white" fill-opacity="0.21"/>
<path d="M55.6094 43.8906V45.2812H45.7031V38.5H55.5V39.9062H47.4219V43.8906H55.6094ZM57.0469 48.1562V49.5938H44.1406V48.1562H57.0469ZM69.7969 46.2344V51.2188H60.3438V46.2344H69.7969ZM62.0781 47.5938V49.8125H68.0781V47.5938H62.0781ZM69.7969 37.2812V45.5781H68.0625V41.6875H65.6562V40.2812H68.0625V37.2812H69.7969ZM64.875 37.9531V42.125H60.2656V43.7031C62.4609 43.6875 64.0781 43.6172 65.9531 43.3281L66.0781 44.7344C64 45.0781 62.2031 45.125 59.6562 45.125H58.5469V40.8125H63.1719V39.3594H58.5156V37.9531H64.875Z" fill="white"/>
<path d="M46.9219 106.102H34.5391V97.625H46.7852V99.3828H36.6875V104.363H46.9219V106.102ZM48.7188 111.492H32.5859V109.695H48.7188V111.492ZM64.6562 113.523H52.8398V107.293H64.6562V113.523ZM55.0078 111.766H62.5078V108.992H55.0078V111.766ZM64.6562 106.473H62.4883V101.609H59.4805V99.8516H62.4883V96.1016H64.6562V106.473ZM58.5039 102.156H52.7422V104.129C54.2266 104.116 55.5059 104.077 56.5801 104.012C57.6543 103.947 58.7448 103.829 59.8516 103.66L60.0078 105.418C58.7969 105.62 57.6022 105.753 56.4238 105.818C55.2454 105.877 53.7643 105.906 51.9805 105.906H50.5938V100.516H56.375V98.6992H50.5547V96.9414H58.5039V102.156ZM83.0938 106.629H67.2734V105.379H83.0938V106.629ZM81.3359 113.211H69.3242V108.152H70.8672V111.922H81.3359V113.211ZM75.1836 96.8438C76.4206 96.8372 77.5013 96.9707 78.4258 97.2441C79.3503 97.5176 80.0632 97.9147 80.5645 98.4355C81.0658 98.9499 81.3164 99.5651 81.3164 100.281C81.3164 100.997 81.0658 101.616 80.5645 102.137C80.0632 102.651 79.3503 103.048 78.4258 103.328C77.5013 103.602 76.4206 103.738 75.1836 103.738C73.9336 103.738 72.8464 103.602 71.9219 103.328C70.9974 103.048 70.2845 102.651 69.7832 102.137C69.2819 101.616 69.0312 100.997 69.0312 100.281C69.0312 99.5651 69.2819 98.9499 69.7832 98.4355C70.2845 97.9147 70.9974 97.5176 71.9219 97.2441C72.8464 96.9707 73.9336 96.8372 75.1836 96.8438ZM75.1836 98.0742C74.2591 98.0742 73.4518 98.1654 72.7617 98.3477C72.0716 98.5234 71.5378 98.7773 71.1602 99.1094C70.7891 99.4414 70.6068 99.832 70.6133 100.281C70.6068 100.73 70.7891 101.121 71.1602 101.453C71.5378 101.785 72.0716 102.042 72.7617 102.225C73.4518 102.4 74.2591 102.488 75.1836 102.488C76.1016 102.488 76.9056 102.4 77.5957 102.225C78.2858 102.042 78.8164 101.785 79.1875 101.453C79.5651 101.121 79.7539 100.73 79.7539 100.281C79.7539 99.832 79.5651 99.4414 79.1875 99.1094C78.8164 98.7773 78.2858 98.5234 77.5957 98.3477C76.9056 98.1654 76.1016 98.0742 75.1836 98.0742ZM97.4883 96.6094C98.7448 96.6094 99.832 96.7396 100.75 97C101.674 97.2604 102.384 97.638 102.879 98.1328C103.374 98.6276 103.621 99.2201 103.621 99.9102C103.621 100.587 103.374 101.17 102.879 101.658C102.384 102.14 101.674 102.511 100.75 102.771C99.832 103.025 98.7448 103.152 97.4883 103.152C96.2318 103.152 95.1413 103.025 94.2168 102.771C93.2923 102.511 92.5794 102.14 92.0781 101.658C91.5833 101.17 91.3359 100.587 91.3359 99.9102C91.3359 99.2201 91.5833 98.6276 92.0781 98.1328C92.5794 97.638 93.2923 97.2604 94.2168 97C95.1413 96.7396 96.2318 96.6094 97.4883 96.6094ZM97.4883 97.8398C96.5573 97.8398 95.7467 97.9245 95.0566 98.0938C94.3665 98.2565 93.8359 98.4941 93.4648 98.8066C93.0938 99.1191 92.9115 99.487 92.918 99.9102C92.9115 100.327 93.0905 100.688 93.4551 100.994C93.8262 101.294 94.3568 101.525 95.0469 101.688C95.737 101.85 96.5508 101.935 97.4883 101.941C98.4128 101.935 99.2168 101.85 99.9004 101.688C100.59 101.525 101.121 101.294 101.492 100.994C101.87 100.688 102.059 100.327 102.059 99.9102C102.059 99.487 101.87 99.1191 101.492 98.8066C101.121 98.4941 100.59 98.2565 99.9004 98.0938C99.2103 97.9245 98.4062 97.8398 97.4883 97.8398ZM103.465 113.348H91.5117V107.645H103.465V113.348ZM93.0352 112.098H101.961V108.875H93.0352V112.098ZM105.398 105.926H89.5781V104.656H105.398V105.926ZM111.746 97.2734C112.612 97.2669 113.39 97.4362 114.08 97.7812C114.777 98.1263 115.32 98.6113 115.711 99.2363C116.108 99.8613 116.31 100.568 116.316 101.355C116.31 102.156 116.108 102.869 115.711 103.494C115.32 104.119 114.78 104.607 114.09 104.959C113.4 105.304 112.618 105.477 111.746 105.477C110.874 105.477 110.089 105.304 109.393 104.959C108.702 104.607 108.162 104.119 107.771 103.494C107.381 102.869 107.189 102.156 107.195 101.355C107.189 100.568 107.381 99.8646 107.771 99.2461C108.162 98.6211 108.702 98.1361 109.393 97.791C110.089 97.4395 110.874 97.2669 111.746 97.2734ZM111.746 98.582C111.167 98.582 110.643 98.6992 110.174 98.9336C109.712 99.168 109.347 99.4967 109.08 99.9199C108.82 100.337 108.693 100.815 108.699 101.355C108.693 101.902 108.82 102.391 109.08 102.82C109.347 103.243 109.712 103.572 110.174 103.807C110.643 104.041 111.167 104.155 111.746 104.148C112.332 104.155 112.856 104.041 113.318 103.807C113.787 103.572 114.152 103.243 114.412 102.82C114.679 102.391 114.812 101.902 114.812 101.355C114.812 100.815 114.679 100.337 114.412 99.9199C114.152 99.4967 113.787 99.168 113.318 98.9336C112.856 98.6992 112.332 98.582 111.746 98.582ZM120.438 100.711H123.055V102H120.438V106.453H118.914V96.2188H120.438V100.711ZM120.438 113.621H118.914V108.602H109.07V107.352H120.438V113.621ZM129.832 97.4883C130.737 97.4883 131.541 97.6608 132.244 98.0059C132.954 98.3509 133.507 98.8327 133.904 99.4512C134.301 100.07 134.5 100.776 134.5 101.57C134.5 102.365 134.301 103.071 133.904 103.689C133.507 104.308 132.954 104.79 132.244 105.135C131.541 105.48 130.737 105.652 129.832 105.652C128.927 105.652 128.117 105.48 127.4 105.135C126.691 104.79 126.134 104.308 125.73 103.689C125.333 103.071 125.138 102.365 125.145 101.57C125.138 100.776 125.333 100.07 125.73 99.4512C126.134 98.8327 126.691 98.3509 127.4 98.0059C128.117 97.6608 128.927 97.4883 129.832 97.4883ZM129.832 98.8359C129.22 98.8359 128.67 98.9531 128.182 99.1875C127.7 99.4154 127.322 99.7376 127.049 100.154C126.775 100.564 126.642 101.036 126.648 101.57C126.642 102.104 126.775 102.579 127.049 102.996C127.322 103.406 127.7 103.729 128.182 103.963C128.67 104.191 129.22 104.305 129.832 104.305C130.438 104.305 130.981 104.191 131.463 103.963C131.945 103.729 132.319 103.406 132.586 102.996C132.859 102.579 132.996 102.104 132.996 101.57C132.996 101.036 132.859 100.564 132.586 100.154C132.319 99.7376 131.945 99.4154 131.463 99.1875C130.981 98.9531 130.438 98.8359 129.832 98.8359ZM138.387 113.621H136.863V96.2188H138.387V113.621ZM124.246 108.484C126.499 108.484 128.546 108.449 130.389 108.377C132.238 108.305 134.012 108.146 135.711 107.898L135.828 109.031C134.083 109.357 132.303 109.565 130.486 109.656C128.676 109.747 126.668 109.793 124.461 109.793L124.246 108.484ZM40.0664 132.586H42.1172V126.395H44.1875V142.879H42.1172V134.344H40.0664V139.188H33.1328V127.996H40.0664V132.586ZM35.1641 137.469H38.0352V129.715H35.1641V137.469ZM47.8203 143.738H45.7305V126.082H47.8203V143.738ZM64.5781 138.855H62.3906V126.102H64.5781V138.855ZM65.0664 143.387H52.8984V137.566H55.0859V141.629H65.0664V143.387ZM54.9492 127.254C55.8346 127.254 56.6387 127.446 57.3613 127.83C58.084 128.208 58.6536 128.732 59.0703 129.402C59.487 130.073 59.6953 130.828 59.6953 131.668C59.6953 132.521 59.487 133.286 59.0703 133.963C58.6536 134.633 58.084 135.158 57.3613 135.535C56.6387 135.913 55.8346 136.102 54.9492 136.102C54.0573 136.102 53.2467 135.913 52.5176 135.535C51.7949 135.158 51.2253 134.633 50.8086 133.963C50.3919 133.286 50.1836 132.521 50.1836 131.668C50.1836 130.828 50.3919 130.073 50.8086 129.402C51.2253 128.732 51.7949 128.208 52.5176 127.83C53.2467 127.446 54.0573 127.254 54.9492 127.254ZM54.9492 129.148C54.4479 129.148 53.9954 129.253 53.5918 129.461C53.1882 129.669 52.8724 129.965 52.6445 130.35C52.4167 130.734 52.306 131.173 52.3125 131.668C52.306 132.176 52.4167 132.622 52.6445 133.006C52.8724 133.39 53.1882 133.686 53.5918 133.895C53.9954 134.103 54.4479 134.207 54.9492 134.207C55.4375 134.207 55.8802 134.103 56.2773 133.895C56.6745 133.686 56.987 133.39 57.2148 133.006C57.4492 132.622 57.5664 132.176 57.5664 131.668C57.5664 131.173 57.4492 130.734 57.2148 130.35C56.987 129.965 56.6745 129.669 56.2773 129.461C55.8802 129.253 55.4375 129.148 54.9492 129.148ZM86.6094 143.758H84.4609V126.082H86.6094V143.758ZM81.1797 134.246H75.1055V137.801C76.5964 137.788 77.9635 137.736 79.207 137.645C80.457 137.553 81.7331 137.397 83.0352 137.176L83.2305 138.953C81.8307 139.201 80.4538 139.367 79.0996 139.451C77.7454 139.536 76.1862 139.578 74.4219 139.578H72.8789V132.527H78.9727V129.383H72.8594V127.625H81.1797V134.246ZM105.301 135.887H89.1875V134.129H105.301V135.887ZM103.504 132.684H91.1602V126.609H103.348V128.348H93.3281V130.965H103.504V132.684ZM103.367 143.465H91.082V137.449H103.367V143.465ZM93.2305 141.746H101.238V139.168H93.2305V141.746ZM114.5 126.531C115.789 126.531 116.893 126.648 117.811 126.883C118.729 127.111 119.428 127.449 119.91 127.898C120.392 128.341 120.633 128.882 120.633 129.52C120.633 130.496 120.099 131.245 119.031 131.766C117.964 132.286 116.453 132.553 114.5 132.566C113.211 132.56 112.104 132.439 111.18 132.205C110.262 131.971 109.559 131.629 109.07 131.18C108.589 130.724 108.348 130.171 108.348 129.52C108.348 128.882 108.589 128.341 109.07 127.898C109.559 127.449 110.262 127.111 111.18 126.883C112.104 126.648 113.211 126.531 114.5 126.531ZM114.5 127.684C113.543 127.684 112.723 127.758 112.039 127.908C111.355 128.051 110.835 128.263 110.477 128.543C110.118 128.816 109.943 129.142 109.949 129.52C109.943 130.118 110.337 130.581 111.131 130.906C111.925 131.232 113.048 131.395 114.5 131.395C115.945 131.395 117.068 131.232 117.869 130.906C118.67 130.581 119.07 130.118 119.07 129.52C119.07 129.142 118.888 128.816 118.523 128.543C118.159 128.27 117.635 128.058 116.951 127.908C116.268 127.758 115.451 127.684 114.5 127.684ZM122.41 134.988H106.59V133.738H122.41V134.988ZM120.379 140.379H110.066V142.176H120.906V143.387H108.543V139.246H118.875V137.664H108.504V136.492H120.379V140.379ZM137.664 128.68C137.658 129.422 137.947 130.132 138.533 130.809C139.119 131.479 139.884 132.046 140.828 132.508C141.772 132.97 142.755 133.276 143.777 133.426L143.211 134.637C142.293 134.48 141.408 134.22 140.555 133.855C139.708 133.491 138.956 133.035 138.299 132.488C137.641 131.935 137.143 131.32 136.805 130.643C136.466 131.32 135.968 131.932 135.311 132.479C134.653 133.025 133.901 133.484 133.055 133.855C132.215 134.22 131.342 134.48 130.438 134.637L129.832 133.426C130.848 133.276 131.827 132.97 132.771 132.508C133.715 132.046 134.48 131.479 135.066 130.809C135.652 130.132 135.945 129.422 135.945 128.68V128.562H130.379V127.312H143.211V128.562H137.664V128.68ZM144.715 137.391H137.527V143.582H136.023V137.391H128.895V136.121H144.715V137.391ZM160.203 135.613H154.832V140.105H162.078V141.395H146.18V140.105H153.328V135.613H148.211V127.645H160.027V128.895H149.754V134.363H160.203V135.613ZM176.902 133.387H179.812V134.656H176.902V143.582H175.379V126.219H176.902V133.387ZM173.699 130.281H163.367V129.012H167.84V126.434H169.363V129.012H173.699V130.281ZM168.621 131.727C169.435 131.727 170.164 131.896 170.809 132.234C171.453 132.573 171.958 133.045 172.322 133.65C172.687 134.256 172.872 134.943 172.879 135.711C172.872 136.479 172.687 137.166 172.322 137.771C171.958 138.377 171.453 138.849 170.809 139.188C170.164 139.526 169.435 139.695 168.621 139.695C167.801 139.695 167.065 139.526 166.414 139.188C165.77 138.849 165.265 138.377 164.9 137.771C164.536 137.166 164.357 136.479 164.363 135.711C164.357 134.943 164.536 134.256 164.9 133.65C165.265 133.045 165.77 132.573 166.414 132.234C167.065 131.896 167.801 131.727 168.621 131.727ZM168.621 133.016C168.087 133.016 167.605 133.133 167.176 133.367C166.753 133.595 166.421 133.914 166.18 134.324C165.939 134.734 165.822 135.197 165.828 135.711C165.822 136.232 165.939 136.697 166.18 137.107C166.421 137.511 166.753 137.827 167.176 138.055C167.605 138.283 168.087 138.393 168.621 138.387C169.148 138.393 169.624 138.283 170.047 138.055C170.47 137.827 170.802 137.511 171.043 137.107C171.284 136.697 171.408 136.232 171.414 135.711C171.408 135.197 171.284 134.734 171.043 134.324C170.802 133.914 170.47 133.595 170.047 133.367C169.624 133.133 169.148 133.016 168.621 133.016ZM194.676 129.715V129.93C194.663 131.362 194.617 132.648 194.539 133.787C194.467 134.92 194.298 136.232 194.031 137.723L192.469 137.547C192.677 136.518 192.827 135.548 192.918 134.637C193.016 133.725 193.074 132.915 193.094 132.205C193.12 131.495 193.133 130.665 193.133 129.715V129.246H182.43V127.977H194.676V129.715ZM196.57 141.121H180.75V139.852H186.961V133.641H188.465V139.852H196.57V141.121ZM46.2773 160.75H48.8945V162.02H46.2773V166.648H44.7539V156.219H46.2773V160.75ZM41.5508 157.508C41.5508 158.96 41.222 160.288 40.5645 161.492C39.9069 162.697 38.9661 163.738 37.7422 164.617C36.5182 165.49 35.0599 166.173 33.3672 166.668L32.7227 165.418C34.1159 165.014 35.3333 164.487 36.375 163.836C37.4167 163.178 38.237 162.42 38.8359 161.561C39.4414 160.701 39.7962 159.773 39.9004 158.777H33.4844V157.508H41.5508ZM40.7891 166.844C41.9479 166.844 42.9538 166.98 43.8066 167.254C44.666 167.521 45.3236 167.905 45.7793 168.406C46.2415 168.908 46.4727 169.5 46.4727 170.184C46.4727 170.88 46.2415 171.482 45.7793 171.99C45.3236 172.492 44.666 172.876 43.8066 173.143C42.9538 173.41 41.9479 173.543 40.7891 173.543C39.6367 173.543 38.6309 173.41 37.7715 173.143C36.9186 172.876 36.2578 172.492 35.7891 171.99C35.3268 171.482 35.099 170.88 35.1055 170.184C35.099 169.5 35.3268 168.908 35.7891 168.406C36.2578 167.905 36.9219 167.521 37.7812 167.254C38.6406 166.98 39.6432 166.844 40.7891 166.844ZM40.7891 168.074C39.9492 168.068 39.2135 168.149 38.582 168.318C37.957 168.488 37.472 168.735 37.127 169.061C36.7884 169.38 36.6224 169.754 36.6289 170.184C36.6224 170.613 36.7884 170.991 37.127 171.316C37.4655 171.635 37.9505 171.88 38.582 172.049C39.2135 172.225 39.9492 172.312 40.7891 172.312C41.6354 172.312 42.3743 172.225 43.0059 172.049C43.6374 171.88 44.1257 171.635 44.4707 171.316C44.8158 170.991 44.9883 170.613 44.9883 170.184C44.9883 169.754 44.8158 169.38 44.4707 169.061C44.1257 168.735 43.6374 168.488 43.0059 168.318C42.3743 168.149 41.6354 168.068 40.7891 168.074ZM66.1406 160.164H63.5625V162.605H66.1406V163.914H63.5625V166.551H62.0391V156.219H63.5625V158.914H66.1406V160.164ZM63.5625 173.582H62.0391V168.621H52.1953V167.352H63.5625V173.582ZM54.8711 157.273C55.737 157.267 56.515 157.436 57.2051 157.781C57.9017 158.126 58.4453 158.611 58.8359 159.236C59.2331 159.861 59.4349 160.568 59.4414 161.355C59.4349 162.156 59.2331 162.869 58.8359 163.494C58.4453 164.119 57.9049 164.607 57.2148 164.959C56.5247 165.304 55.7435 165.477 54.8711 165.477C53.9987 165.477 53.2142 165.304 52.5176 164.959C51.8275 164.607 51.2871 164.119 50.8965 163.494C50.5059 162.869 50.3138 162.156 50.3203 161.355C50.3138 160.568 50.5059 159.865 50.8965 159.246C51.2871 158.621 51.8275 158.136 52.5176 157.791C53.2142 157.439 53.9987 157.267 54.8711 157.273ZM54.8711 158.582C54.2917 158.582 53.7676 158.699 53.2988 158.934C52.8366 159.168 52.472 159.497 52.2051 159.92C51.9447 160.337 51.8177 160.815 51.8242 161.355C51.8177 161.902 51.9447 162.391 52.2051 162.82C52.472 163.243 52.8366 163.572 53.2988 163.807C53.7676 164.041 54.2917 164.155 54.8711 164.148C55.457 164.155 55.9811 164.041 56.4434 163.807C56.9121 163.572 57.2767 163.243 57.5371 162.82C57.804 162.391 57.9375 161.902 57.9375 161.355C57.9375 160.815 57.804 160.337 57.5371 159.92C57.2767 159.497 56.9121 159.168 56.4434 158.934C55.9811 158.699 55.457 158.582 54.8711 158.582ZM75.1836 156.531C76.4727 156.531 77.5762 156.648 78.4941 156.883C79.4121 157.111 80.112 157.449 80.5938 157.898C81.0755 158.341 81.3164 158.882 81.3164 159.52C81.3164 160.496 80.7826 161.245 79.7148 161.766C78.6471 162.286 77.1367 162.553 75.1836 162.566C73.8945 162.56 72.7878 162.439 71.8633 162.205C70.9453 161.971 70.2422 161.629 69.7539 161.18C69.2721 160.724 69.0312 160.171 69.0312 159.52C69.0312 158.882 69.2721 158.341 69.7539 157.898C70.2422 157.449 70.9453 157.111 71.8633 156.883C72.7878 156.648 73.8945 156.531 75.1836 156.531ZM75.1836 157.684C74.2266 157.684 73.4062 157.758 72.7227 157.908C72.0391 158.051 71.5182 158.263 71.1602 158.543C70.8021 158.816 70.6263 159.142 70.6328 159.52C70.6263 160.118 71.0202 160.581 71.8145 160.906C72.6087 161.232 73.7318 161.395 75.1836 161.395C76.6289 161.395 77.752 161.232 78.5527 160.906C79.3535 160.581 79.7539 160.118 79.7539 159.52C79.7539 159.142 79.5716 158.816 79.207 158.543C78.8424 158.27 78.3184 158.058 77.6348 157.908C76.9512 157.758 76.1341 157.684 75.1836 157.684ZM83.0938 164.988H67.2734V163.738H83.0938V164.988ZM81.0625 170.379H70.75V172.176H81.5898V173.387H69.2266V169.246H79.5586V167.664H69.1875V166.492H81.0625V170.379ZM105.477 171.355H89.5781V170.066H96.7461V165.848H98.2891V170.066H105.477V171.355ZM98.2891 159.52C98.2891 160.405 98.6081 161.251 99.2461 162.059C99.8841 162.859 100.701 163.536 101.697 164.09C102.693 164.637 103.699 164.995 104.715 165.164L104.09 166.375C103.185 166.199 102.296 165.9 101.424 165.477C100.558 165.047 99.7799 164.513 99.0898 163.875C98.3997 163.237 97.8757 162.531 97.5176 161.756C97.1595 162.537 96.6354 163.25 95.9453 163.895C95.2617 164.539 94.487 165.079 93.6211 165.516C92.7617 165.952 91.8893 166.264 91.0039 166.453L90.3594 165.223C91.3555 165.047 92.3451 164.679 93.3281 164.119C94.3112 163.559 95.1185 162.872 95.75 162.059C96.388 161.245 96.707 160.398 96.707 159.52V159.09H90.8867V157.801H104.109V159.09H98.2891V159.52ZM112.879 158.914C112.879 159.598 113.058 160.262 113.416 160.906C113.781 161.551 114.285 162.124 114.93 162.625C115.574 163.126 116.31 163.51 117.137 163.777L116.375 164.988C115.398 164.663 114.539 164.181 113.797 163.543C113.061 162.898 112.505 162.153 112.127 161.307C111.736 162.244 111.154 163.074 110.379 163.797C109.604 164.513 108.712 165.047 107.703 165.398L106.941 164.188C107.781 163.895 108.533 163.475 109.197 162.928C109.868 162.381 110.392 161.756 110.77 161.053C111.147 160.35 111.336 159.63 111.336 158.895V158.406H107.41V157.137H116.766V158.406H112.879V158.914ZM121.238 165.203H119.715V161.375H116.219V160.105H119.715V156.219H121.238V165.203ZM121.238 170.223H111.551V172.156H121.902V173.387H110.027V169.051H119.715V167.312H109.988V166.062H121.238V170.223ZM137.723 160.672H140.34V161.98H137.723V166.316H136.199V156.219H137.723V160.672ZM128.27 168.934H136.199V167.078H137.723V173.348H126.746V167.078H128.27V168.934ZM136.199 172.117V170.145H128.27V172.117H136.199ZM134.539 159.285H124.188V158.016H128.602V156.062H130.125V158.016H134.539V159.285ZM129.363 160.086C130.19 160.086 130.916 160.213 131.541 160.467C132.173 160.714 132.661 161.069 133.006 161.531C133.357 161.987 133.536 162.521 133.543 163.133C133.536 163.745 133.357 164.282 133.006 164.744C132.661 165.2 132.173 165.555 131.541 165.809C130.916 166.056 130.19 166.18 129.363 166.18C128.53 166.18 127.794 166.056 127.156 165.809C126.525 165.555 126.036 165.2 125.691 164.744C125.346 164.282 125.177 163.745 125.184 163.133C125.177 162.521 125.346 161.987 125.691 161.531C126.036 161.069 126.525 160.714 127.156 160.467C127.794 160.213 128.53 160.086 129.363 160.086ZM129.363 161.277C128.823 161.271 128.344 161.346 127.928 161.502C127.518 161.652 127.199 161.87 126.971 162.156C126.749 162.443 126.642 162.768 126.648 163.133C126.642 163.504 126.749 163.833 126.971 164.119C127.199 164.399 127.518 164.617 127.928 164.773C128.344 164.93 128.823 165.008 129.363 165.008C129.897 165.008 130.369 164.93 130.779 164.773C131.196 164.617 131.518 164.399 131.746 164.119C131.974 163.833 132.091 163.504 132.098 163.133C132.091 162.762 131.971 162.436 131.736 162.156C131.508 161.87 131.189 161.652 130.779 161.502C130.369 161.346 129.897 161.271 129.363 161.277ZM155.75 173.582H154.227V156.219H155.75V173.582ZM144.07 167.781C147.007 167.768 149.773 167.488 152.371 166.941L152.586 168.25C151.108 168.556 149.669 168.777 148.27 168.914C146.87 169.044 145.438 169.109 143.973 169.109H142.566V157.938H144.07V167.781ZM172.156 163.094H175.066V164.383H172.156V173.621H170.633V156.219H172.156V163.094ZM167.586 159.188H161.004V167.977C162.625 167.977 164.041 167.931 165.252 167.84C166.463 167.749 167.697 167.586 168.953 167.352L169.148 168.68C167.866 168.914 166.606 169.07 165.369 169.148C164.132 169.227 162.625 169.266 160.848 169.266H159.48V157.918H167.586V159.188Z" fill="white"/>
<defs>
<linearGradient id="paint0_linear_1528_13572" x1="137" y1="274" x2="137" y2="0" gradientUnits="userSpaceOnUse">
<stop stop-color="#091F5D"/>
<stop offset="1" stop-color="#06061C"/>
</linearGradient>
</defs>
</svg>
