<svg width="314" height="310" viewBox="0 0 314 310" fill="none" xmlns="http://www.w3.org/2000/svg">
<rect x="16" y="16" width="274" height="274" rx="54.6798" fill="url(#paint0_linear_1528_13588)"/>
<g filter="url(#filter0_d_1528_13588)">
<rect x="16" y="16" width="274" height="274" rx="40" fill="#1C1C26"/>
</g>
<rect x="41" y="41" width="65" height="39" rx="19.5" fill="white" fill-opacity="0.21"/>
<path d="M62.5781 54.6875H65.0781L68.4375 62.9062H68.5781L71.9375 54.6875H74.4375V66H72.4844V58.2188H72.375L69.2344 65.9688H67.7812L64.6406 58.1875H64.5469V66H62.5781V54.6875ZM76.5312 66V54.6875H80.7812C83.375 54.6875 84.7656 56.1406 84.7656 58.2969C84.7656 59.8359 84.0625 60.9766 82.7344 61.5156L85.1719 66H82.9062L80.6875 61.8594H78.5625V66H76.5312ZM78.5625 60.1562H80.4688C82 60.1562 82.6875 59.5 82.6875 58.2969C82.6875 57.0938 82 56.3906 80.4688 56.3906H78.5625V60.1562Z" fill="white"/>
<path d="M64.7188 127.609H48.5859V125.832H55.5391V122.395H50.3633V113.254H52.5312V116.145H60.7148V113.254H62.8828V122.395H57.6875V125.832H64.7188V127.609ZM60.7148 120.637V117.883H52.5312V120.637H60.7148ZM75.0898 112.883C75.0833 114.445 74.7969 115.806 74.2305 116.965C73.6641 118.117 72.7884 119.09 71.6035 119.885C70.4251 120.673 68.9049 121.294 67.043 121.75L66.2617 120.09C68.7747 119.504 70.5553 118.605 71.6035 117.395L66.6133 117.766L66.2812 116.105L72.4922 115.871C72.6289 115.487 72.7233 115.057 72.7754 114.582H67.1797V112.883H75.0898ZM80.6562 121.086H78.4883V117.805H75.1289V116.027H78.4883V112.082H80.6562V121.086ZM80.6562 126.379H71.1836V127.805H81.125V129.523H69.0547V124.797H78.5078V123.488H69.0352V121.789H80.6562V126.379ZM91.1836 112.355C92.5247 112.355 93.6673 112.473 94.6113 112.707C95.5618 112.941 96.2878 113.286 96.7891 113.742C97.2904 114.191 97.5443 114.738 97.5508 115.383C97.5443 116.359 96.9876 117.108 95.8809 117.629C94.7741 118.15 93.2083 118.417 91.1836 118.43C89.1523 118.417 87.5833 118.15 86.4766 117.629C85.3698 117.108 84.8164 116.359 84.8164 115.383C84.8164 114.738 85.0671 114.191 85.5684 113.742C86.0697 113.286 86.7956 112.941 87.7461 112.707C88.6966 112.473 89.8424 112.355 91.1836 112.355ZM91.1836 113.957C89.8424 113.957 88.8236 114.081 88.127 114.328C87.4303 114.569 87.0885 114.921 87.1016 115.383C87.0951 115.865 87.4336 116.223 88.1172 116.457C88.8008 116.691 89.8229 116.809 91.1836 116.809C92.5638 116.809 93.5957 116.691 94.2793 116.457C94.9629 116.223 95.3047 115.865 95.3047 115.383C95.3047 114.921 94.9564 114.569 94.2598 114.328C93.5632 114.081 92.5378 113.957 91.1836 113.957ZM99.25 121.105H83.1562V119.367H99.25V121.105ZM97.2383 126.613H87.1992V127.922H97.7266V129.582H85.0703V125.07H95.1094V123.898H85.0508V122.297H97.2383V126.613ZM120.383 129.738H118.312V112.082H120.383V129.738ZM116.789 128.879H114.738V119.992H112.199V118.234H114.738V112.414H116.789V128.879ZM110.637 116.906C110.637 117.941 110.764 118.934 111.018 119.885C111.278 120.835 111.675 121.698 112.209 122.473C112.749 123.247 113.423 123.866 114.23 124.328L112.941 125.93C112.147 125.454 111.473 124.82 110.92 124.025C110.367 123.225 109.93 122.303 109.611 121.262C109.292 122.388 108.846 123.391 108.273 124.27C107.701 125.142 107.01 125.832 106.203 126.34L104.875 124.719C105.695 124.224 106.379 123.563 106.926 122.736C107.479 121.91 107.886 120.998 108.146 120.002C108.413 118.999 108.547 117.967 108.547 116.906V115.734H105.48V113.977H113.488V115.734H110.637V116.906ZM128.195 113.176C129.12 113.176 129.95 113.358 130.686 113.723C131.421 114.081 131.997 114.585 132.414 115.236C132.837 115.881 133.052 116.613 133.059 117.434C133.052 118.15 132.889 118.801 132.57 119.387C132.251 119.966 131.809 120.448 131.242 120.832C130.676 121.21 130.025 121.464 129.289 121.594V124.172C130.988 124.087 132.544 123.944 133.957 123.742L134.133 125.305C132.382 125.63 130.591 125.842 128.762 125.939C126.939 126.037 124.96 126.086 122.824 126.086L122.551 124.309C124.497 124.309 126.021 124.292 127.121 124.26V121.604C126.385 121.473 125.731 121.216 125.158 120.832C124.592 120.448 124.149 119.966 123.83 119.387C123.511 118.801 123.352 118.15 123.352 117.434C123.352 116.613 123.56 115.881 123.977 115.236C124.4 114.585 124.979 114.081 125.715 113.723C126.451 113.358 127.277 113.176 128.195 113.176ZM128.195 115.051C127.681 115.051 127.219 115.148 126.809 115.344C126.398 115.533 126.076 115.809 125.842 116.174C125.614 116.532 125.5 116.952 125.5 117.434C125.5 117.915 125.617 118.339 125.852 118.703C126.086 119.061 126.405 119.341 126.809 119.543C127.219 119.738 127.681 119.836 128.195 119.836C128.716 119.836 129.182 119.738 129.592 119.543C130.008 119.341 130.334 119.058 130.568 118.693C130.809 118.329 130.93 117.909 130.93 117.434C130.93 116.952 130.809 116.532 130.568 116.174C130.334 115.809 130.008 115.533 129.592 115.344C129.182 115.148 128.716 115.051 128.195 115.051ZM137.18 129.758H135.012V112.082H137.18V129.758ZM153.449 117.961H156.066V119.25H153.449V125.246H151.926V112.238H153.449V117.961ZM150.266 115.617H139.914V114.367H144.328V112.238H145.852V114.367H150.266V115.617ZM145.09 116.574C145.91 116.574 146.633 116.708 147.258 116.975C147.889 117.242 148.381 117.619 148.732 118.107C149.084 118.596 149.263 119.165 149.27 119.816C149.263 120.461 149.084 121.024 148.732 121.506C148.381 121.988 147.889 122.362 147.258 122.629C146.633 122.889 145.91 123.02 145.09 123.02C144.263 123.02 143.531 122.889 142.893 122.629C142.261 122.362 141.77 121.988 141.418 121.506C141.073 121.024 140.904 120.461 140.91 119.816C140.904 119.165 141.073 118.596 141.418 118.107C141.77 117.619 142.261 117.242 142.893 116.975C143.531 116.708 144.263 116.574 145.09 116.574ZM145.09 117.785C144.549 117.785 144.071 117.87 143.654 118.039C143.244 118.202 142.925 118.439 142.697 118.752C142.476 119.058 142.368 119.413 142.375 119.816C142.368 120.22 142.476 120.575 142.697 120.881C142.925 121.18 143.244 121.411 143.654 121.574C144.071 121.737 144.549 121.815 145.09 121.809C145.624 121.815 146.096 121.737 146.506 121.574C146.923 121.411 147.245 121.18 147.473 120.881C147.701 120.575 147.818 120.22 147.824 119.816C147.818 119.413 147.701 119.058 147.473 118.752C147.245 118.439 146.923 118.202 146.506 118.039C146.096 117.87 145.624 117.785 145.09 117.785ZM154.25 129.211H142.59V124.211H144.094V127.922H154.25V129.211ZM178.43 120.441H175.617V129.582H174.094V112.219H175.617V119.152H178.43V120.441ZM164.426 123.879C165.786 123.872 167.118 123.807 168.42 123.684C169.722 123.56 171.053 123.358 172.414 123.078L172.609 124.387C171.197 124.673 169.813 124.875 168.459 124.992C167.111 125.109 165.721 125.168 164.289 125.168H162.902V113.938H164.426V123.879ZM188.078 118.586H192.336V112.219H193.859V129.621H192.336V119.855H188.078V125.188H180.168V113.957H188.078V118.586ZM181.691 123.957H186.594V115.168H181.691V123.957ZM202.961 117.551C202.961 118.508 203.173 119.462 203.596 120.412C204.019 121.356 204.589 122.199 205.305 122.941C206.027 123.677 206.815 124.23 207.668 124.602L206.809 125.812C205.786 125.344 204.865 124.637 204.045 123.693C203.225 122.743 202.613 121.672 202.209 120.48C201.805 121.757 201.193 122.912 200.373 123.947C199.559 124.976 198.658 125.741 197.668 126.242L196.75 125.031C197.57 124.634 198.335 124.035 199.045 123.234C199.761 122.434 200.334 121.532 200.764 120.529C201.193 119.52 201.411 118.527 201.418 117.551V115.285H197.316V114.016H207.102V115.285H202.961V117.551ZM211.066 129.582H209.523V112.219H211.066V129.582ZM53.8594 147.16C53.8594 148.085 54.0059 149.009 54.2988 149.934C54.5918 150.858 55.0117 151.701 55.5586 152.463C56.112 153.225 56.763 153.827 57.5117 154.27L56.6328 155.461C55.819 154.966 55.1126 154.286 54.5137 153.42C53.9212 152.548 53.4655 151.568 53.1465 150.48C52.821 151.652 52.3424 152.707 51.7109 153.645C51.0794 154.582 50.3372 155.311 49.4844 155.832L48.5078 154.68C49.2891 154.224 49.9727 153.602 50.5586 152.814C51.1445 152.02 51.5938 151.138 51.9062 150.168C52.2188 149.191 52.375 148.208 52.375 147.219V143.859H53.8594V147.16ZM63.5859 159.582H62.1016V142.219H63.5859V159.582ZM59.9922 158.703H58.5469V149.758H55.5977V148.449H58.5469V142.59H59.9922V158.703ZM71.9258 145.441C71.9258 146.275 72.1048 147.085 72.4629 147.873C72.821 148.661 73.3223 149.361 73.9668 149.973C74.6113 150.578 75.3503 151.047 76.1836 151.379L75.3242 152.57C74.3737 152.173 73.5371 151.597 72.8145 150.842C72.0983 150.087 71.5579 149.214 71.1934 148.225C70.8223 149.292 70.2591 150.233 69.5039 151.047C68.7552 151.854 67.8763 152.466 66.8672 152.883L66.0273 151.652C66.8802 151.32 67.6387 150.839 68.3027 150.207C68.9668 149.576 69.4844 148.846 69.8555 148.02C70.2266 147.193 70.4154 146.333 70.4219 145.441V143.215H71.9258V145.441ZM80.3828 155.207H78.8398V149.641H75.2656V148.391H78.8398V146.086H75.2656V144.816H78.8398V142.238H80.3828V155.207ZM80.7734 159.211H69.1523V153.859H70.6953V157.922H80.7734V159.211ZM91.1836 142.531C92.4727 142.531 93.5762 142.648 94.4941 142.883C95.4121 143.111 96.112 143.449 96.5938 143.898C97.0755 144.341 97.3164 144.882 97.3164 145.52C97.3164 146.496 96.7826 147.245 95.7148 147.766C94.6471 148.286 93.1367 148.553 91.1836 148.566C89.8945 148.56 88.7878 148.439 87.8633 148.205C86.9453 147.971 86.2422 147.629 85.7539 147.18C85.2721 146.724 85.0312 146.171 85.0312 145.52C85.0312 144.882 85.2721 144.341 85.7539 143.898C86.2422 143.449 86.9453 143.111 87.8633 142.883C88.7878 142.648 89.8945 142.531 91.1836 142.531ZM91.1836 143.684C90.2266 143.684 89.4062 143.758 88.7227 143.908C88.0391 144.051 87.5182 144.263 87.1602 144.543C86.8021 144.816 86.6263 145.142 86.6328 145.52C86.6263 146.118 87.0202 146.581 87.8145 146.906C88.6087 147.232 89.7318 147.395 91.1836 147.395C92.6289 147.395 93.752 147.232 94.5527 146.906C95.3535 146.581 95.7539 146.118 95.7539 145.52C95.7539 145.142 95.5716 144.816 95.207 144.543C94.8424 144.27 94.3184 144.058 93.6348 143.908C92.9512 143.758 92.1341 143.684 91.1836 143.684ZM99.0938 150.988H83.2734V149.738H99.0938V150.988ZM97.0625 156.379H86.75V158.176H97.5898V159.387H85.2266V155.246H95.5586V153.664H85.1875V152.492H97.0625V156.379ZM121.398 154.016H114.23V159.621H112.727V154.016H105.578V152.727H121.398V154.016ZM114.25 145.656C114.25 146.353 114.54 147.02 115.119 147.658C115.699 148.29 116.46 148.827 117.404 149.27C118.348 149.712 119.341 150.005 120.383 150.148L119.816 151.379C118.918 151.242 118.052 151.005 117.219 150.666C116.392 150.327 115.653 149.908 115.002 149.406C114.357 148.905 113.856 148.345 113.498 147.727C113.14 148.352 112.632 148.915 111.975 149.416C111.324 149.917 110.581 150.337 109.748 150.676C108.915 151.008 108.046 151.242 107.141 151.379L106.574 150.148C107.616 150.005 108.609 149.715 109.553 149.279C110.497 148.837 111.262 148.299 111.848 147.668C112.434 147.03 112.727 146.359 112.727 145.656V145.637H107.121V144.387H112.727V142.219H114.23V144.387H119.875V145.637H114.25V145.656ZM138.684 151.145H131.516V152.766H136.652V156.516H126.34V158.215H137.18V159.387H124.816V155.422H135.148V153.918H124.777V152.766H130.012V151.145H122.883V149.953H138.684V151.145ZM131.516 143.742H137.082V144.953H131.633C131.724 145.513 132.056 146.011 132.629 146.447C133.202 146.877 133.941 147.222 134.846 147.482C135.751 147.743 136.743 147.909 137.824 147.98L137.355 149.152C135.826 149.022 134.471 148.723 133.293 148.254C132.121 147.785 131.281 147.154 130.773 146.359C130.266 147.154 129.423 147.785 128.244 148.254C127.066 148.723 125.708 149.022 124.172 149.152L123.723 147.98C124.797 147.909 125.786 147.743 126.691 147.482C127.596 147.222 128.332 146.877 128.898 146.447C129.471 146.011 129.807 145.513 129.904 144.953H124.504V143.742H130.012V142.121H131.516V143.742ZM153.586 149.387H156.496V150.656H153.586V159.582H152.062V142.219H153.586V149.387ZM150.383 146.281H140.051V145.012H144.523V142.434H146.047V145.012H150.383V146.281ZM145.305 147.727C146.118 147.727 146.848 147.896 147.492 148.234C148.137 148.573 148.641 149.045 149.006 149.65C149.37 150.256 149.556 150.943 149.562 151.711C149.556 152.479 149.37 153.166 149.006 153.771C148.641 154.377 148.137 154.849 147.492 155.188C146.848 155.526 146.118 155.695 145.305 155.695C144.484 155.695 143.749 155.526 143.098 155.188C142.453 154.849 141.949 154.377 141.584 153.771C141.219 153.166 141.04 152.479 141.047 151.711C141.04 150.943 141.219 150.256 141.584 149.65C141.949 149.045 142.453 148.573 143.098 148.234C143.749 147.896 144.484 147.727 145.305 147.727ZM145.305 149.016C144.771 149.016 144.289 149.133 143.859 149.367C143.436 149.595 143.104 149.914 142.863 150.324C142.622 150.734 142.505 151.197 142.512 151.711C142.505 152.232 142.622 152.697 142.863 153.107C143.104 153.511 143.436 153.827 143.859 154.055C144.289 154.283 144.771 154.393 145.305 154.387C145.832 154.393 146.307 154.283 146.73 154.055C147.154 153.827 147.486 153.511 147.727 153.107C147.967 152.697 148.091 152.232 148.098 151.711C148.091 151.197 147.967 150.734 147.727 150.324C147.486 149.914 147.154 149.595 146.73 149.367C146.307 149.133 145.832 149.016 145.305 149.016ZM162.102 143.566C162.896 143.573 163.605 143.798 164.23 144.24C164.855 144.676 165.357 145.298 165.734 146.105H170.305V142.219H171.828V159.621H170.305V152.883H165.842C165.477 153.768 164.969 154.452 164.318 154.934C163.674 155.415 162.935 155.656 162.102 155.656C161.255 155.656 160.5 155.409 159.836 154.914C159.178 154.419 158.664 153.716 158.293 152.805C157.928 151.893 157.746 150.832 157.746 149.621C157.746 148.41 157.928 147.349 158.293 146.438C158.664 145.526 159.178 144.823 159.836 144.328C160.493 143.827 161.249 143.573 162.102 143.566ZM162.102 144.934C161.535 144.94 161.031 145.139 160.588 145.529C160.152 145.913 159.813 146.46 159.572 147.17C159.331 147.873 159.211 148.69 159.211 149.621C159.211 150.552 159.331 151.372 159.572 152.082C159.813 152.785 160.152 153.329 160.588 153.713C161.031 154.097 161.535 154.289 162.102 154.289C162.661 154.289 163.16 154.097 163.596 153.713C164.038 153.329 164.38 152.785 164.621 152.082C164.868 151.372 164.992 150.552 164.992 149.621C164.992 148.69 164.868 147.873 164.621 147.17C164.38 146.46 164.042 145.913 163.605 145.529C163.169 145.139 162.668 144.94 162.102 144.934ZM166.184 147.395C166.353 148.124 166.438 148.866 166.438 149.621C166.438 150.298 166.369 150.962 166.232 151.613H170.305V147.395H166.184ZM62.5117 177.199H64.9727V178.996H62.5117V185.09H60.3438V172.102H62.5117V177.199ZM63.2148 189.387H51.2031V183.781H53.3711V187.629H63.2148V189.387ZM51.3398 176.047H55.4609V173.352H57.6094V182.219H49.1914V173.352H51.3398V176.047ZM55.4609 180.5V177.727H51.3398V180.5H55.4609ZM81.9648 183.684H74.9531V189.719H72.8047V183.684H65.8711V181.926H81.9648V183.684ZM80.4805 174.797H75.1777C75.2233 175.441 75.5 176.063 76.0078 176.662C76.5156 177.255 77.2122 177.762 78.0977 178.186C78.9831 178.609 79.9922 178.892 81.125 179.035L80.3438 180.734C78.8464 180.526 77.5345 180.096 76.4082 179.445C75.2884 178.794 74.4583 177.987 73.918 177.023C73.3776 177.98 72.5475 178.788 71.4277 179.445C70.3079 180.096 69.0091 180.526 67.5312 180.734L66.7109 179.035C67.8372 178.892 68.8398 178.609 69.7188 178.186C70.6042 177.762 71.3008 177.255 71.8086 176.662C72.3229 176.063 72.6061 175.441 72.6582 174.797H67.3555V173.078H80.4805V174.797ZM99.1523 181.496H83.2539V180.285H99.1523V181.496ZM97.1602 186.574H86.7305V188.234H97.7266V189.348H85.1875V185.52H95.6367V184.035H85.168V182.883H97.1602V186.574ZM97.1016 176.34H86.8477V177.863H97.4141V178.977H85.3242V175.285H95.5586V173.859H85.2656V172.746H97.1016V176.34ZM110.754 175.676C110.754 176.314 110.897 176.942 111.184 177.561C111.477 178.179 111.893 178.736 112.434 179.23C112.974 179.725 113.605 180.109 114.328 180.383L113.527 181.555C112.707 181.236 111.997 180.783 111.398 180.197C110.806 179.611 110.35 178.938 110.031 178.176C109.699 179.035 109.224 179.807 108.605 180.49C107.987 181.167 107.264 181.685 106.438 182.043L105.598 180.852C106.34 180.526 106.988 180.083 107.541 179.523C108.101 178.957 108.531 178.339 108.83 177.668C109.136 176.991 109.289 176.327 109.289 175.676V173.312H110.754V175.676ZM120.324 182.961H118.859V178.176H116.555V182.414H115.109V172.57H116.555V176.906H118.859V172.238H120.324V182.961ZM114.582 183.352C115.78 183.352 116.815 183.475 117.688 183.723C118.566 183.964 119.24 184.318 119.709 184.787C120.184 185.249 120.422 185.806 120.422 186.457C120.422 187.102 120.184 187.655 119.709 188.117C119.24 188.579 118.566 188.931 117.688 189.172C116.815 189.419 115.78 189.543 114.582 189.543C113.384 189.543 112.346 189.419 111.467 189.172C110.588 188.931 109.914 188.579 109.445 188.117C108.983 187.655 108.755 187.102 108.762 186.457C108.755 185.806 108.983 185.249 109.445 184.787C109.914 184.318 110.585 183.964 111.457 183.723C112.336 183.475 113.378 183.352 114.582 183.352ZM114.582 184.523C113.703 184.523 112.938 184.602 112.287 184.758C111.636 184.908 111.138 185.129 110.793 185.422C110.448 185.715 110.279 186.06 110.285 186.457C110.279 186.848 110.448 187.186 110.793 187.473C111.138 187.759 111.633 187.977 112.277 188.127C112.928 188.277 113.697 188.352 114.582 188.352C115.461 188.352 116.223 188.277 116.867 188.127C117.512 187.977 118.01 187.759 118.361 187.473C118.713 187.186 118.892 186.848 118.898 186.457C118.892 186.06 118.713 185.715 118.361 185.422C118.01 185.129 117.508 184.908 116.857 184.758C116.213 184.602 115.454 184.523 114.582 184.523ZM128.84 174.953C128.833 175.767 129.009 176.545 129.367 177.287C129.725 178.023 130.23 178.667 130.881 179.221C131.538 179.774 132.29 180.194 133.137 180.48L132.277 181.672C131.314 181.307 130.471 180.783 129.748 180.1C129.025 179.416 128.479 178.618 128.107 177.707C127.736 178.749 127.167 179.66 126.398 180.441C125.63 181.216 124.725 181.802 123.684 182.199L122.844 180.949C123.729 180.637 124.507 180.188 125.178 179.602C125.855 179.009 126.379 178.319 126.75 177.531C127.121 176.737 127.31 175.897 127.316 175.012V173.215H128.84V174.953ZM137.258 182.512H135.715V177.219H131.848V175.949H135.715V172.219H137.258V182.512ZM131.496 183.02C132.701 183.02 133.739 183.15 134.611 183.41C135.484 183.664 136.151 184.038 136.613 184.533C137.082 185.021 137.316 185.611 137.316 186.301C137.316 186.984 137.082 187.567 136.613 188.049C136.151 188.537 135.484 188.908 134.611 189.162C133.739 189.416 132.701 189.543 131.496 189.543C130.292 189.543 129.253 189.416 128.381 189.162C127.508 188.908 126.838 188.537 126.369 188.049C125.907 187.567 125.676 186.984 125.676 186.301C125.676 185.611 125.907 185.021 126.369 184.533C126.838 184.038 127.508 183.664 128.381 183.41C129.253 183.15 130.292 183.02 131.496 183.02ZM131.496 184.23C130.617 184.23 129.852 184.315 129.201 184.484C128.55 184.647 128.052 184.885 127.707 185.197C127.362 185.51 127.193 185.878 127.199 186.301C127.193 186.711 127.362 187.069 127.707 187.375C128.052 187.674 128.55 187.906 129.201 188.068C129.852 188.231 130.617 188.312 131.496 188.312C132.375 188.312 133.137 188.231 133.781 188.068C134.432 187.906 134.93 187.674 135.275 187.375C135.62 187.069 135.793 186.711 135.793 186.301C135.793 185.878 135.62 185.51 135.275 185.197C134.93 184.885 134.432 184.647 133.781 184.484C133.137 184.315 132.375 184.23 131.496 184.23ZM153.723 176.672H156.34V177.98H153.723V182.316H152.199V172.219H153.723V176.672ZM144.27 184.934H152.199V183.078H153.723V189.348H142.746V183.078H144.27V184.934ZM152.199 188.117V186.145H144.27V188.117H152.199ZM150.539 175.285H140.188V174.016H144.602V172.062H146.125V174.016H150.539V175.285ZM145.363 176.086C146.19 176.086 146.916 176.213 147.541 176.467C148.173 176.714 148.661 177.069 149.006 177.531C149.357 177.987 149.536 178.521 149.543 179.133C149.536 179.745 149.357 180.282 149.006 180.744C148.661 181.2 148.173 181.555 147.541 181.809C146.916 182.056 146.19 182.18 145.363 182.18C144.53 182.18 143.794 182.056 143.156 181.809C142.525 181.555 142.036 181.2 141.691 180.744C141.346 180.282 141.177 179.745 141.184 179.133C141.177 178.521 141.346 177.987 141.691 177.531C142.036 177.069 142.525 176.714 143.156 176.467C143.794 176.213 144.53 176.086 145.363 176.086ZM145.363 177.277C144.823 177.271 144.344 177.346 143.928 177.502C143.518 177.652 143.199 177.87 142.971 178.156C142.749 178.443 142.642 178.768 142.648 179.133C142.642 179.504 142.749 179.833 142.971 180.119C143.199 180.399 143.518 180.617 143.928 180.773C144.344 180.93 144.823 181.008 145.363 181.008C145.897 181.008 146.369 180.93 146.779 180.773C147.196 180.617 147.518 180.399 147.746 180.119C147.974 179.833 148.091 179.504 148.098 179.133C148.091 178.762 147.971 178.436 147.736 178.156C147.508 177.87 147.189 177.652 146.779 177.502C146.369 177.346 145.897 177.271 145.363 177.277ZM171.75 189.582H170.227V172.219H171.75V189.582ZM160.07 183.781C163.007 183.768 165.773 183.488 168.371 182.941L168.586 184.25C167.108 184.556 165.669 184.777 164.27 184.914C162.87 185.044 161.438 185.109 159.973 185.109H158.566V173.938H160.07V183.781ZM188.156 179.094H191.066V180.383H188.156V189.621H186.633V172.219H188.156V179.094ZM183.586 175.188H177.004V183.977C178.625 183.977 180.041 183.931 181.252 183.84C182.463 183.749 183.697 183.586 184.953 183.352L185.148 184.68C183.866 184.914 182.606 185.07 181.369 185.148C180.132 185.227 178.625 185.266 176.848 185.266H175.48V173.918H183.586V175.188Z" fill="white"/>
<defs>
<filter id="filter0_d_1528_13588" x="0" y="0" width="314" height="314" filterUnits="userSpaceOnUse" color-interpolation-filters="sRGB">
<feFlood flood-opacity="0" result="BackgroundImageFix"/>
<feColorMatrix in="SourceAlpha" type="matrix" values="0 0 0 0 0 0 0 0 0 0 0 0 0 0 0 0 0 0 127 0" result="hardAlpha"/>
<feOffset dx="4" dy="4"/>
<feGaussianBlur stdDeviation="10"/>
<feComposite in2="hardAlpha" operator="out"/>
<feColorMatrix type="matrix" values="0 0 0 0 0.294118 0 0 0 0 0.65098 0 0 0 0 0.945098 0 0 0 0.45 0"/>
<feBlend mode="normal" in2="BackgroundImageFix" result="effect1_dropShadow_1528_13588"/>
<feBlend mode="normal" in="SourceGraphic" in2="effect1_dropShadow_1528_13588" result="shape"/>
</filter>
<linearGradient id="paint0_linear_1528_13588" x1="153" y1="290" x2="153" y2="16" gradientUnits="userSpaceOnUse">
<stop stop-color="#091F5D"/>
<stop offset="1" stop-color="#06061C"/>
</linearGradient>
</defs>
</svg>
