<svg width="424" height="49" viewBox="0 0 424 49" fill="none" xmlns="http://www.w3.org/2000/svg">
<path fill-rule="evenodd" clip-rule="evenodd" d="M33.2411 5.13091C33.9608 3.66764 32.8958 1.95703 31.2651 1.95703H18.7838C17.9444 1.95703 17.1781 2.43414 16.8077 3.18729L14.7732 7.32416C14.0536 8.78742 15.1186 10.498 16.7492 10.498H29.2306C30.0699 10.498 30.8362 10.0209 31.2066 9.26777L33.2411 5.13091ZM29.5204 16.3997C29.8908 15.6466 30.6571 15.1695 31.4964 15.1695H43.9778C45.6084 15.1695 46.6734 16.8801 45.9538 18.3433L45.2335 19.8079C44.5139 21.2712 45.5789 22.9818 47.2095 22.9818H56.9793C58.61 22.9818 59.675 24.6924 58.9553 26.1557L56.9208 30.2926C56.5504 31.0457 55.7841 31.5228 54.9448 31.5228H41.1337C40.2944 31.5228 39.5281 31.9999 39.1577 32.7531L36.5493 38.0567C36.1789 38.8099 35.4126 39.287 34.5733 39.287H21.2438C20.4045 39.287 19.6381 39.7641 19.2677 40.5173L16.6622 45.8151C16.2918 46.5683 15.5255 47.0454 14.6862 47.0454H2.20486C0.574208 47.0454 -0.490804 45.3348 0.228829 43.8715L2.26333 39.7347C2.63373 38.9815 3.40006 38.5044 4.23936 38.5044H17.5689C18.4082 38.5044 19.1745 38.0273 19.5449 37.2741L20.8125 34.6967C21.5321 33.2334 20.4671 31.5228 18.8365 31.5228H9.96521C8.33456 31.5228 7.26955 29.8122 7.98918 28.3489L10.0237 24.2121C10.3941 23.4589 11.1604 22.9818 11.9997 22.9818H24.9123C25.7516 22.9818 26.5179 22.5047 26.8883 21.7516L29.5204 16.3997ZM27.0546 24.9407C27.425 24.1876 28.1914 23.7105 29.0307 23.7105H39.2317C40.8623 23.7105 41.9273 25.4211 41.2077 26.8843L39.9136 29.5157C39.5432 30.2689 38.7769 30.746 37.9376 30.746H27.7365C26.1059 30.746 25.0409 29.0354 25.7605 27.5721L27.0546 24.9407Z" fill="white"/>
<mask id="path-2-outside-1_2124_10513" maskUnits="userSpaceOnUse" x="102.184" y="5" width="321" height="36" fill="black">
<rect fill="white" x="102.184" y="5" width="321" height="36"/>
<path d="M104.181 39V7.224H108.357L127.989 33.96V7.224H131.589V39H127.413L107.781 12.168V39H104.181ZM153.496 39.384C151.096 39.384 148.904 38.968 146.92 38.136C144.936 37.304 143.224 36.136 141.784 34.632C140.376 33.128 139.288 31.4 138.52 29.448C137.752 27.464 137.368 25.352 137.368 23.112C137.368 20.84 137.752 18.728 138.52 16.776C139.288 14.824 140.376 13.096 141.784 11.592C143.224 10.088 144.936 8.92 146.92 8.088C148.904 7.256 151.096 6.84 153.496 6.84C155.896 6.84 158.088 7.256 160.072 8.088C162.056 8.92 163.752 10.088 165.16 11.592C166.6 13.096 167.704 14.824 168.472 16.776C169.24 18.728 169.624 20.84 169.624 23.112C169.624 25.352 169.24 27.464 168.472 29.448C167.704 31.4 166.6 33.128 165.16 34.632C163.752 36.136 162.056 37.304 160.072 38.136C158.088 38.968 155.896 39.384 153.496 39.384ZM153.496 35.88C156.088 35.88 158.312 35.32 160.168 34.2C162.056 33.048 163.496 31.512 164.488 29.592C165.512 27.64 166.024 25.48 166.024 23.112C166.024 20.712 165.512 18.552 164.488 16.632C163.496 14.712 162.056 13.192 160.168 12.072C158.312 10.92 156.088 10.344 153.496 10.344C150.936 10.344 148.712 10.92 146.824 12.072C144.936 13.192 143.48 14.712 142.456 16.632C141.464 18.552 140.968 20.712 140.968 23.112C140.968 25.48 141.464 27.64 142.456 29.592C143.48 31.512 144.936 33.048 146.824 34.2C148.712 35.32 150.936 35.88 153.496 35.88ZM181.254 39L171.366 7.224H175.158L183.318 33.912L191.862 7.224H195.99L204.534 33.912L212.694 7.224H216.486L206.598 39H202.518L193.926 12.312L185.334 39H181.254ZM231.025 39V7.224H245.329C248.721 7.224 251.393 8.152 253.345 10.008C255.297 11.832 256.273 14.312 256.273 17.448C256.273 20.584 255.297 23.08 253.345 24.936C251.393 26.76 248.721 27.672 245.329 27.672H234.625V39H231.025ZM234.625 24.312H245.089C247.585 24.312 249.473 23.704 250.753 22.488C252.033 21.272 252.673 19.592 252.673 17.448C252.673 15.336 252.033 13.672 250.753 12.456C249.473 11.24 247.585 10.632 245.089 10.632H234.625V24.312ZM261.165 39V7.224H264.765V35.544H282.093V39H261.165ZM283.015 39L296.503 7.224H301.015L314.503 39H310.519L306.631 29.784H290.887L286.999 39H283.015ZM292.279 26.472H305.239L298.759 10.968L292.279 26.472ZM324.765 39V26.424L311.421 7.224H315.789L326.541 22.68L337.293 7.224H341.661L328.365 26.424V39H324.765ZM345.681 39V7.224H349.281V39H345.681ZM357.072 39V7.224H361.248L380.88 33.96V7.224H384.48V39H380.304L360.672 12.168V39H357.072ZM405.811 39.384C402.579 39.384 399.795 38.664 397.459 37.224C395.155 35.752 393.379 33.784 392.131 31.32C390.883 28.856 390.259 26.12 390.259 23.112C390.259 20.104 390.899 17.368 392.179 14.904C393.459 12.44 395.267 10.488 397.603 9.048C399.971 7.576 402.739 6.84 405.907 6.84C409.331 6.84 412.291 7.688 414.787 9.384C417.315 11.048 419.171 13.208 420.355 15.864H416.419C415.459 14.168 414.115 12.824 412.387 11.832C410.691 10.84 408.627 10.344 406.195 10.344C403.635 10.344 401.427 10.92 399.571 12.072C397.715 13.192 396.291 14.712 395.299 16.632C394.339 18.552 393.859 20.712 393.859 23.112C393.859 25.48 394.339 27.64 395.299 29.592C396.259 31.512 397.651 33.048 399.475 34.2C401.331 35.32 403.539 35.88 406.099 35.88C408.019 35.88 409.827 35.464 411.523 34.632C413.251 33.8 414.643 32.6 415.699 31.032C416.787 29.464 417.331 27.576 417.331 25.368H405.715V22.104H420.643V39H417.331V33.384C416.659 34.408 415.795 35.384 414.739 36.312C413.683 37.208 412.403 37.944 410.899 38.52C409.427 39.096 407.731 39.384 405.811 39.384Z"/>
</mask>
<path d="M104.181 39V7.224H108.357L127.989 33.96V7.224H131.589V39H127.413L107.781 12.168V39H104.181ZM153.496 39.384C151.096 39.384 148.904 38.968 146.92 38.136C144.936 37.304 143.224 36.136 141.784 34.632C140.376 33.128 139.288 31.4 138.52 29.448C137.752 27.464 137.368 25.352 137.368 23.112C137.368 20.84 137.752 18.728 138.52 16.776C139.288 14.824 140.376 13.096 141.784 11.592C143.224 10.088 144.936 8.92 146.92 8.088C148.904 7.256 151.096 6.84 153.496 6.84C155.896 6.84 158.088 7.256 160.072 8.088C162.056 8.92 163.752 10.088 165.16 11.592C166.6 13.096 167.704 14.824 168.472 16.776C169.24 18.728 169.624 20.84 169.624 23.112C169.624 25.352 169.24 27.464 168.472 29.448C167.704 31.4 166.6 33.128 165.16 34.632C163.752 36.136 162.056 37.304 160.072 38.136C158.088 38.968 155.896 39.384 153.496 39.384ZM153.496 35.88C156.088 35.88 158.312 35.32 160.168 34.2C162.056 33.048 163.496 31.512 164.488 29.592C165.512 27.64 166.024 25.48 166.024 23.112C166.024 20.712 165.512 18.552 164.488 16.632C163.496 14.712 162.056 13.192 160.168 12.072C158.312 10.92 156.088 10.344 153.496 10.344C150.936 10.344 148.712 10.92 146.824 12.072C144.936 13.192 143.48 14.712 142.456 16.632C141.464 18.552 140.968 20.712 140.968 23.112C140.968 25.48 141.464 27.64 142.456 29.592C143.48 31.512 144.936 33.048 146.824 34.2C148.712 35.32 150.936 35.88 153.496 35.88ZM181.254 39L171.366 7.224H175.158L183.318 33.912L191.862 7.224H195.99L204.534 33.912L212.694 7.224H216.486L206.598 39H202.518L193.926 12.312L185.334 39H181.254ZM231.025 39V7.224H245.329C248.721 7.224 251.393 8.152 253.345 10.008C255.297 11.832 256.273 14.312 256.273 17.448C256.273 20.584 255.297 23.08 253.345 24.936C251.393 26.76 248.721 27.672 245.329 27.672H234.625V39H231.025ZM234.625 24.312H245.089C247.585 24.312 249.473 23.704 250.753 22.488C252.033 21.272 252.673 19.592 252.673 17.448C252.673 15.336 252.033 13.672 250.753 12.456C249.473 11.24 247.585 10.632 245.089 10.632H234.625V24.312ZM261.165 39V7.224H264.765V35.544H282.093V39H261.165ZM283.015 39L296.503 7.224H301.015L314.503 39H310.519L306.631 29.784H290.887L286.999 39H283.015ZM292.279 26.472H305.239L298.759 10.968L292.279 26.472ZM324.765 39V26.424L311.421 7.224H315.789L326.541 22.68L337.293 7.224H341.661L328.365 26.424V39H324.765ZM345.681 39V7.224H349.281V39H345.681ZM357.072 39V7.224H361.248L380.88 33.96V7.224H384.48V39H380.304L360.672 12.168V39H357.072ZM405.811 39.384C402.579 39.384 399.795 38.664 397.459 37.224C395.155 35.752 393.379 33.784 392.131 31.32C390.883 28.856 390.259 26.12 390.259 23.112C390.259 20.104 390.899 17.368 392.179 14.904C393.459 12.44 395.267 10.488 397.603 9.048C399.971 7.576 402.739 6.84 405.907 6.84C409.331 6.84 412.291 7.688 414.787 9.384C417.315 11.048 419.171 13.208 420.355 15.864H416.419C415.459 14.168 414.115 12.824 412.387 11.832C410.691 10.84 408.627 10.344 406.195 10.344C403.635 10.344 401.427 10.92 399.571 12.072C397.715 13.192 396.291 14.712 395.299 16.632C394.339 18.552 393.859 20.712 393.859 23.112C393.859 25.48 394.339 27.64 395.299 29.592C396.259 31.512 397.651 33.048 399.475 34.2C401.331 35.32 403.539 35.88 406.099 35.88C408.019 35.88 409.827 35.464 411.523 34.632C413.251 33.8 414.643 32.6 415.699 31.032C416.787 29.464 417.331 27.576 417.331 25.368H405.715V22.104H420.643V39H417.331V33.384C416.659 34.408 415.795 35.384 414.739 36.312C413.683 37.208 412.403 37.944 410.899 38.52C409.427 39.096 407.731 39.384 405.811 39.384Z" fill="white"/>
<path d="M104.181 39H102.781V40.4H104.181V39ZM104.181 7.224V5.824H102.781V7.224H104.181ZM108.357 7.224L109.485 6.39539L109.066 5.824H108.357V7.224ZM127.989 33.96L126.861 34.7886L129.389 38.232V33.96H127.989ZM127.989 7.224V5.824H126.589V7.224H127.989ZM131.589 7.224H132.989V5.824H131.589V7.224ZM131.589 39V40.4H132.989V39H131.589ZM127.413 39L126.283 39.8267L126.703 40.4H127.413V39ZM107.781 12.168L108.911 11.3413L106.381 7.88363V12.168H107.781ZM107.781 39V40.4H109.181V39H107.781ZM105.581 39V7.224H102.781V39H105.581ZM104.181 8.624H108.357V5.824H104.181V8.624ZM107.229 8.05261L126.861 34.7886L129.117 33.1314L109.485 6.39539L107.229 8.05261ZM129.389 33.96V7.224H126.589V33.96H129.389ZM127.989 8.624H131.589V5.824H127.989V8.624ZM130.189 7.224V39H132.989V7.224H130.189ZM131.589 37.6H127.413V40.4H131.589V37.6ZM128.543 38.1733L108.911 11.3413L106.651 12.9947L126.283 39.8267L128.543 38.1733ZM106.381 12.168V39H109.181V12.168H106.381ZM107.781 37.6H104.181V40.4H107.781V37.6ZM146.92 38.136L146.379 39.4271L146.92 38.136ZM141.784 34.632L140.762 35.5888L140.767 35.5945L140.773 35.6002L141.784 34.632ZM138.52 29.448L137.214 29.9534L137.217 29.9606L138.52 29.448ZM138.52 16.776L137.217 16.2634L138.52 16.776ZM141.784 11.592L140.773 10.6238L140.767 10.6295L140.762 10.6352L141.784 11.592ZM146.92 8.088L146.379 6.79693V6.79693L146.92 8.088ZM160.072 8.088L160.614 6.79693L160.614 6.79693L160.072 8.088ZM165.16 11.592L164.138 12.5488L164.143 12.5545L164.149 12.5602L165.16 11.592ZM168.472 29.448L169.775 29.9606L169.778 29.9534L168.472 29.448ZM165.16 34.632L164.149 33.6638L164.143 33.6695L164.138 33.6752L165.16 34.632ZM160.072 38.136L160.614 39.4271L160.072 38.136ZM160.168 34.2L160.891 35.3987L160.897 35.3951L160.168 34.2ZM164.488 29.592L163.248 28.9416L163.244 28.9494L164.488 29.592ZM164.488 16.632L163.244 17.2746L163.248 17.2828L163.253 17.2908L164.488 16.632ZM160.168 12.072L159.43 13.2615L159.442 13.2689L159.454 13.2761L160.168 12.072ZM146.824 12.072L147.538 13.2761L147.546 13.2716L147.553 13.2671L146.824 12.072ZM142.456 16.632L141.221 15.9732L141.216 15.9812L141.212 15.9894L142.456 16.632ZM142.456 29.592L141.208 30.2263L141.214 30.2386L141.221 30.2508L142.456 29.592ZM146.824 34.2L146.095 35.3951L146.102 35.3996L146.11 35.4041L146.824 34.2ZM153.496 37.984C151.261 37.984 149.255 37.5972 147.462 36.8449L146.379 39.4271C148.553 40.3388 150.932 40.784 153.496 40.784V37.984ZM147.462 36.8449C145.649 36.0847 144.098 35.0245 142.795 33.6638L140.773 35.6002C142.35 37.2475 144.224 38.5233 146.379 39.4271L147.462 36.8449ZM142.806 33.6752C141.521 32.3026 140.527 30.726 139.823 28.9354L137.217 29.9606C138.049 32.074 139.231 33.9534 140.762 35.5888L142.806 33.6752ZM139.826 28.9426C139.123 27.1282 138.768 25.1884 138.768 23.112H135.968C135.968 25.5156 136.381 27.7998 137.214 29.9534L139.826 28.9426ZM138.768 23.112C138.768 21.0008 139.124 19.0642 139.823 17.2886L137.217 16.2634C136.38 18.3918 135.968 20.6792 135.968 23.112H138.768ZM139.823 17.2886C140.527 15.498 141.521 13.9214 142.806 12.5488L140.762 10.6352C139.231 12.2706 138.049 14.15 137.217 16.2634L139.823 17.2886ZM142.795 12.5602C144.098 11.1995 145.649 10.1393 147.462 9.37907L146.379 6.79693C144.224 7.70066 142.35 8.97645 140.773 10.6238L142.795 12.5602ZM147.462 9.37907C149.255 8.62684 151.261 8.24 153.496 8.24V5.44C150.932 5.44 148.553 5.88516 146.379 6.79693L147.462 9.37907ZM153.496 8.24C155.732 8.24 157.737 8.62684 159.531 9.37907L160.614 6.79693C158.439 5.88516 156.061 5.44 153.496 5.44V8.24ZM159.531 9.37907C161.341 10.1382 162.871 11.1952 164.138 12.5488L166.182 10.6352C164.633 8.98077 162.771 7.70178 160.614 6.79693L159.531 9.37907ZM164.149 12.5602C165.462 13.9317 166.467 15.5047 167.169 17.2886L169.775 16.2634C168.941 14.1433 167.738 12.2603 166.171 10.6238L164.149 12.5602ZM167.169 17.2886C167.868 19.0642 168.224 21.0008 168.224 23.112H171.024C171.024 20.6792 170.612 18.3918 169.775 16.2634L167.169 17.2886ZM168.224 23.112C168.224 25.1884 167.869 27.1282 167.167 28.9426L169.778 29.9534C170.611 27.7998 171.024 25.5156 171.024 23.112H168.224ZM167.169 28.9354C166.467 30.7193 165.462 32.2923 164.149 33.6638L166.171 35.6002C167.738 33.9637 168.941 32.0807 169.775 29.9606L167.169 28.9354ZM164.138 33.6752C162.871 35.0288 161.341 36.0858 159.531 36.8449L160.614 39.4271C162.771 38.5222 164.633 37.2432 166.182 35.5888L164.138 33.6752ZM159.531 36.8449C157.737 37.5972 155.732 37.984 153.496 37.984V40.784C156.061 40.784 158.439 40.3388 160.614 39.4271L159.531 36.8449ZM153.496 37.28C156.293 37.28 158.778 36.6741 160.891 35.3987L159.445 33.0013C157.846 33.9659 155.883 34.48 153.496 34.48V37.28ZM160.897 35.3951C162.999 34.1128 164.619 32.388 165.732 30.2346L163.244 28.9494C162.373 30.636 161.113 31.9832 159.439 33.0049L160.897 35.3951ZM165.728 30.2424C166.865 28.075 167.424 25.6893 167.424 23.112H164.624C164.624 25.2707 164.159 27.205 163.248 28.9416L165.728 30.2424ZM167.424 23.112C167.424 20.5063 166.866 18.1162 165.723 15.9732L163.253 17.2908C164.158 18.9878 164.624 20.9177 164.624 23.112H167.424ZM165.732 15.9894C164.617 13.8325 162.992 12.1195 160.882 10.8679L159.454 13.2761C161.12 14.2645 162.375 15.5915 163.244 17.2746L165.732 15.9894ZM160.906 10.8825C158.79 9.56908 156.3 8.944 153.496 8.944V11.744C155.876 11.744 157.834 12.2709 159.43 13.2615L160.906 10.8825ZM153.496 8.944C150.72 8.944 148.235 9.57094 146.095 10.8769L147.553 13.2671C149.189 12.2691 151.152 11.744 153.496 11.744V8.944ZM146.11 10.8679C144.004 12.1174 142.366 13.8251 141.221 15.9732L143.691 17.2908C144.594 15.5989 145.869 14.2666 147.538 13.2761L146.11 10.8679ZM141.212 15.9894C140.107 18.1292 139.568 20.5135 139.568 23.112H142.368C142.368 20.9105 142.821 18.9748 143.7 17.2746L141.212 15.9894ZM139.568 23.112C139.568 25.6821 140.108 28.062 141.208 30.2263L143.704 28.9577C142.82 27.218 142.368 25.2779 142.368 23.112H139.568ZM141.221 30.2508C142.365 32.3954 143.997 34.115 146.095 35.3951L147.553 33.0049C145.875 31.981 144.596 30.6286 143.691 28.9332L141.221 30.2508ZM146.11 35.4041C148.248 36.6723 150.727 37.28 153.496 37.28V34.48C151.145 34.48 149.177 33.9677 147.538 32.9959L146.11 35.4041ZM181.254 39L179.917 39.416L180.223 40.4H181.254V39ZM171.366 7.224V5.824H169.464L170.029 7.63997L171.366 7.224ZM175.158 7.224L176.496 6.81465L176.194 5.824H175.158V7.224ZM183.318 33.912L181.979 34.3214L183.287 38.5996L184.651 34.3389L183.318 33.912ZM191.862 7.224V5.824H190.84L190.528 6.79714L191.862 7.224ZM195.99 7.224L197.323 6.79714L197.011 5.824H195.99V7.224ZM204.534 33.912L203.2 34.3389L204.564 38.5996L205.872 34.3214L204.534 33.912ZM212.694 7.224V5.824H211.658L211.355 6.81465L212.694 7.224ZM216.486 7.224L217.822 7.63997L218.387 5.824H216.486V7.224ZM206.598 39V40.4H207.628L207.934 39.416L206.598 39ZM202.518 39L201.185 39.429L201.498 40.4H202.518V39ZM193.926 12.312L195.258 11.883L193.926 7.74359L192.593 11.883L193.926 12.312ZM185.334 39V40.4H186.354L186.666 39.429L185.334 39ZM182.59 38.584L172.702 6.80802L170.029 7.63997L179.917 39.416L182.59 38.584ZM171.366 8.624H175.158V5.824H171.366V8.624ZM173.819 7.63335L181.979 34.3214L184.656 33.5026L176.496 6.81465L173.819 7.63335ZM184.651 34.3389L193.195 7.65086L190.528 6.79714L181.984 33.4851L184.651 34.3389ZM191.862 8.624H195.99V5.824H191.862V8.624ZM194.656 7.65086L203.2 34.3389L205.867 33.4851L197.323 6.79714L194.656 7.65086ZM205.872 34.3214L214.032 7.63335L211.355 6.81465L203.195 33.5026L205.872 34.3214ZM212.694 8.624H216.486V5.824H212.694V8.624ZM215.149 6.80802L205.261 38.584L207.934 39.416L217.822 7.63997L215.149 6.80802ZM206.598 37.6H202.518V40.4H206.598V37.6ZM203.85 38.571L195.258 11.883L192.593 12.741L201.185 39.429L203.85 38.571ZM192.593 11.883L184.001 38.571L186.666 39.429L195.258 12.741L192.593 11.883ZM185.334 37.6H181.254V40.4H185.334V37.6ZM231.025 39H229.625V40.4H231.025V39ZM231.025 7.224V5.824H229.625V7.224H231.025ZM253.345 10.008L252.38 11.0226L252.389 11.0309L253.345 10.008ZM253.345 24.936L254.301 25.959L254.309 25.9506L253.345 24.936ZM234.625 27.672V26.272H233.225V27.672H234.625ZM234.625 39V40.4H236.025V39H234.625ZM234.625 24.312H233.225V25.712H234.625V24.312ZM250.753 22.488L251.717 23.503L250.753 22.488ZM234.625 10.632V9.232H233.225V10.632H234.625ZM232.425 39V7.224H229.625V39H232.425ZM231.025 8.624H245.329V5.824H231.025V8.624ZM245.329 8.624C248.459 8.624 250.751 9.47383 252.38 11.0226L254.309 8.99341C252.034 6.83017 248.982 5.824 245.329 5.824V8.624ZM252.389 11.0309C254.008 12.5439 254.873 14.6263 254.873 17.448H257.673C257.673 13.9977 256.585 11.1201 254.301 8.98508L252.389 11.0309ZM254.873 17.448C254.873 20.2691 254.008 22.3735 252.38 23.9214L254.309 25.9506C256.585 23.7865 257.673 20.8989 257.673 17.448H254.873ZM252.389 23.9131C250.761 25.4344 248.465 26.272 245.329 26.272V29.072C248.976 29.072 252.025 28.0856 254.301 25.9589L252.389 23.9131ZM245.329 26.272H234.625V29.072H245.329V26.272ZM233.225 27.672V39H236.025V27.672H233.225ZM234.625 37.6H231.025V40.4H234.625V37.6ZM234.625 25.712H245.089V22.912H234.625V25.712ZM245.089 25.712C247.795 25.712 250.086 25.0526 251.717 23.503L249.788 21.473C248.86 22.3554 247.375 22.912 245.089 22.912V25.712ZM251.717 23.503C253.333 21.9674 254.073 19.8873 254.073 17.448H251.273C251.273 19.2967 250.732 20.5766 249.788 21.473L251.717 23.503ZM254.073 17.448C254.073 15.0336 253.329 12.9725 251.717 11.441L249.788 13.471C250.736 14.3714 251.273 15.6384 251.273 17.448H254.073ZM251.717 11.441C250.086 9.89139 247.795 9.232 245.089 9.232V12.032C247.375 12.032 248.86 12.5886 249.788 13.471L251.717 11.441ZM245.089 9.232H234.625V12.032H245.089V9.232ZM233.225 10.632V24.312H236.025V10.632H233.225ZM261.165 39H259.765V40.4H261.165V39ZM261.165 7.224V5.824H259.765V7.224H261.165ZM264.765 7.224H266.165V5.824H264.765V7.224ZM264.765 35.544H263.365V36.944H264.765V35.544ZM282.093 35.544H283.493V34.144H282.093V35.544ZM282.093 39V40.4H283.493V39H282.093ZM262.565 39V7.224H259.765V39H262.565ZM261.165 8.624H264.765V5.824H261.165V8.624ZM263.365 7.224V35.544H266.165V7.224H263.365ZM264.765 36.944H282.093V34.144H264.765V36.944ZM280.693 35.544V39H283.493V35.544H280.693ZM282.093 37.6H261.165V40.4H282.093V37.6ZM283.015 39L281.726 38.453L280.9 40.4H283.015V39ZM296.503 7.224V5.824H295.576L295.214 6.67698L296.503 7.224ZM301.015 7.224L302.304 6.67698L301.942 5.824H301.015V7.224ZM314.503 39V40.4H316.618L315.792 38.453L314.503 39ZM310.519 39L309.229 39.5442L309.59 40.4H310.519V39ZM306.631 29.784L307.921 29.2398L307.56 28.384H306.631V29.784ZM290.887 29.784V28.384H289.958L289.597 29.2398L290.887 29.784ZM286.999 39V40.4H287.928L288.289 39.5442L286.999 39ZM292.279 26.472L290.987 25.9321L290.177 27.872H292.279V26.472ZM305.239 26.472V27.872H307.342L306.531 25.9321L305.239 26.472ZM298.759 10.968L300.051 10.4281L298.759 7.33757L297.467 10.4281L298.759 10.968ZM284.304 39.547L297.792 7.77102L295.214 6.67698L281.726 38.453L284.304 39.547ZM296.503 8.624H301.015V5.824H296.503V8.624ZM299.726 7.77102L313.214 39.547L315.792 38.453L302.304 6.67698L299.726 7.77102ZM314.503 37.6H310.519V40.4H314.503V37.6ZM311.809 38.4558L307.921 29.2398L305.341 30.3282L309.229 39.5442L311.809 38.4558ZM306.631 28.384H290.887V31.184H306.631V28.384ZM289.597 29.2398L285.709 38.4558L288.289 39.5442L292.177 30.3282L289.597 29.2398ZM286.999 37.6H283.015V40.4H286.999V37.6ZM292.279 27.872H305.239V25.072H292.279V27.872ZM306.531 25.9321L300.051 10.4281L297.467 11.5079L303.947 27.0119L306.531 25.9321ZM297.467 10.4281L290.987 25.9321L293.571 27.0119L300.051 11.5079L297.467 10.4281ZM324.765 39H323.365V40.4H324.765V39ZM324.765 26.424H326.165V25.9853L325.915 25.625L324.765 26.424ZM311.421 7.224V5.824H308.743L310.272 8.02298L311.421 7.224ZM315.789 7.224L316.939 6.42451L316.521 5.824H315.789V7.224ZM326.541 22.68L325.392 23.4795L326.541 25.1316L327.691 23.4795L326.541 22.68ZM337.293 7.224V5.824H336.562L336.144 6.42451L337.293 7.224ZM341.661 7.224L342.812 8.02104L344.334 5.824H341.661V7.224ZM328.365 26.424L327.214 25.627L326.965 25.9866V26.424H328.365ZM328.365 39V40.4H329.765V39H328.365ZM326.165 39V26.424H323.365V39H326.165ZM325.915 25.625L312.571 6.42501L310.272 8.02298L323.616 27.223L325.915 25.625ZM311.421 8.624H315.789V5.824H311.421V8.624ZM314.64 8.02349L325.392 23.4795L327.691 21.8805L316.939 6.42451L314.64 8.02349ZM327.691 23.4795L338.443 8.02349L336.144 6.42451L325.392 21.8805L327.691 23.4795ZM337.293 8.624H341.661V5.824H337.293V8.624ZM340.51 6.42695L327.214 25.627L329.516 27.221L342.812 8.02104L340.51 6.42695ZM326.965 26.424V39H329.765V26.424H326.965ZM328.365 37.6H324.765V40.4H328.365V37.6ZM345.681 39H344.281V40.4H345.681V39ZM345.681 7.224V5.824H344.281V7.224H345.681ZM349.281 7.224H350.681V5.824H349.281V7.224ZM349.281 39V40.4H350.681V39H349.281ZM347.081 39V7.224H344.281V39H347.081ZM345.681 8.624H349.281V5.824H345.681V8.624ZM347.881 7.224V39H350.681V7.224H347.881ZM349.281 37.6H345.681V40.4H349.281V37.6ZM357.072 39H355.672V40.4H357.072V39ZM357.072 7.224V5.824H355.672V7.224H357.072ZM361.248 7.224L362.376 6.39539L361.956 5.824H361.248V7.224ZM380.88 33.96L379.751 34.7886L382.28 38.232V33.96H380.88ZM380.88 7.224V5.824H379.48V7.224H380.88ZM384.48 7.224H385.88V5.824H384.48V7.224ZM384.48 39V40.4H385.88V39H384.48ZM380.304 39L379.174 39.8267L379.593 40.4H380.304V39ZM360.672 12.168L361.801 11.3413L359.272 7.88363V12.168H360.672ZM360.672 39V40.4H362.072V39H360.672ZM358.472 39V7.224H355.672V39H358.472ZM357.072 8.624H361.248V5.824H357.072V8.624ZM360.119 8.05261L379.751 34.7886L382.008 33.1314L362.376 6.39539L360.119 8.05261ZM382.28 33.96V7.224H379.48V33.96H382.28ZM380.88 8.624H384.48V5.824H380.88V8.624ZM383.08 7.224V39H385.88V7.224H383.08ZM384.48 37.6H380.304V40.4H384.48V37.6ZM381.433 38.1733L361.801 11.3413L359.542 12.9947L379.174 39.8267L381.433 38.1733ZM359.272 12.168V39H362.072V12.168H359.272ZM360.672 37.6H357.072V40.4H360.672V37.6ZM397.459 37.224L396.705 38.4038L396.714 38.4098L396.724 38.4158L397.459 37.224ZM392.131 31.32L390.882 31.9526L392.131 31.32ZM392.179 14.904L393.421 15.5494L392.179 14.904ZM397.603 9.048L398.337 10.2398L398.342 10.237L397.603 9.048ZM414.787 9.384L414 10.542L414.008 10.5477L414.017 10.5534L414.787 9.384ZM420.355 15.864V17.264H422.512L421.633 15.294L420.355 15.864ZM416.419 15.864L415.2 16.5536L415.602 17.264H416.419V15.864ZM412.387 11.832L411.68 13.0405L411.69 13.0462L412.387 11.832ZM399.571 12.072L400.294 13.2707L400.302 13.2661L400.309 13.2615L399.571 12.072ZM395.299 16.632L394.055 15.9894L394.051 15.9976L394.047 16.0059L395.299 16.632ZM395.299 29.592L394.042 30.2099L394.047 30.2181L395.299 29.592ZM399.475 34.2L398.727 35.3837L398.739 35.3913L398.751 35.3987L399.475 34.2ZM411.523 34.632L410.915 33.3706L410.906 33.3751L411.523 34.632ZM415.699 31.032L414.548 30.2339L414.543 30.2419L414.538 30.25L415.699 31.032ZM417.331 25.368H418.731V23.968H417.331V25.368ZM405.715 25.368H404.315V26.768H405.715V25.368ZM405.715 22.104V20.704H404.315V22.104H405.715ZM420.643 22.104H422.043V20.704H420.643V22.104ZM420.643 39V40.4H422.043V39H420.643ZM417.331 39H415.931V40.4H417.331V39ZM417.331 33.384H418.731V28.699L416.16 32.6159L417.331 33.384ZM414.739 36.312L415.645 37.3795L415.654 37.3717L415.663 37.3636L414.739 36.312ZM410.899 38.52L410.398 37.2126L410.389 37.2163L410.899 38.52ZM405.811 37.984C402.791 37.984 400.272 37.3135 398.193 36.0322L396.724 38.4158C399.318 40.0145 402.366 40.784 405.811 40.784V37.984ZM398.212 36.0442C396.122 34.7085 394.516 32.9304 393.38 30.6874L390.882 31.9526C392.242 34.6376 394.188 36.7955 396.705 38.4038L398.212 36.0442ZM393.38 30.6874C392.24 28.4366 391.659 25.9202 391.659 23.112H388.859C388.859 26.3198 389.526 29.2754 390.882 31.9526L393.38 30.6874ZM391.659 23.112C391.659 20.3095 392.253 17.7977 393.421 15.5494L390.936 14.2586C389.544 16.9383 388.859 19.8985 388.859 23.112H391.659ZM393.421 15.5494C394.586 13.3073 396.22 11.5452 398.337 10.2398L396.868 7.85624C394.314 9.43075 392.332 11.5727 390.936 14.2586L393.421 15.5494ZM398.342 10.237C400.459 8.92097 402.964 8.24 405.907 8.24V5.44C402.514 5.44 399.483 6.23103 396.864 7.859L398.342 10.237ZM405.907 8.24C409.089 8.24 411.766 9.0243 414 10.542L415.574 8.22602C412.815 6.3517 409.572 5.44 405.907 5.44V8.24ZM414.017 10.5534C416.331 12.0766 418.006 14.0326 419.076 16.434L421.633 15.294C420.336 12.3834 418.298 10.0194 415.556 8.21459L414.017 10.5534ZM420.355 14.464H416.419V17.264H420.355V14.464ZM417.637 15.1744C416.551 13.2549 415.024 11.7319 413.084 10.6178L411.69 13.0462C413.205 13.9161 414.367 15.0811 415.2 16.5536L417.637 15.1744ZM413.094 10.6235C411.138 9.4795 408.817 8.944 406.195 8.944V11.744C408.437 11.744 410.244 12.2005 411.68 13.0405L413.094 10.6235ZM406.195 8.944C403.419 8.944 400.946 9.57073 398.832 10.8825L400.309 13.2615C401.908 12.2693 403.85 11.744 406.195 11.744V8.944ZM398.847 10.8733C396.771 12.1266 395.166 13.8387 394.055 15.9894L396.543 17.2746C397.415 15.5853 398.659 14.2574 400.294 13.2707L398.847 10.8733ZM394.047 16.0059C392.978 18.1422 392.459 20.5206 392.459 23.112H395.259C395.259 20.9034 395.699 18.9618 396.551 17.2581L394.047 16.0059ZM392.459 23.112C392.459 25.6749 392.98 28.049 394.042 30.2098L396.555 28.9742C395.698 27.231 395.259 25.2851 395.259 23.112H392.459ZM394.047 30.2181C395.121 32.3677 396.688 34.096 398.727 35.3837L400.222 33.0163C398.613 32 397.396 30.6563 396.551 28.9659L394.047 30.2181ZM398.751 35.3987C400.862 36.6725 403.33 37.28 406.099 37.28V34.48C403.747 34.48 401.799 33.9675 400.198 33.0013L398.751 35.3987ZM406.099 37.28C408.229 37.28 410.248 36.8166 412.139 35.8889L410.906 33.3751C409.405 34.1114 407.809 34.48 406.099 34.48V37.28ZM412.13 35.8934C414.079 34.9552 415.663 33.5913 416.86 31.814L414.538 30.25C413.622 31.6087 412.423 32.6448 410.915 33.3706L412.13 35.8934ZM416.849 31.8301C418.124 29.9925 418.731 27.8151 418.731 25.368H415.931C415.931 27.3369 415.449 28.9355 414.548 30.2339L416.849 31.8301ZM417.331 23.968H405.715V26.768H417.331V23.968ZM407.115 25.368V22.104H404.315V25.368H407.115ZM405.715 23.504H420.643V20.704H405.715V23.504ZM419.243 22.104V39H422.043V22.104H419.243ZM420.643 37.6H417.331V40.4H420.643V37.6ZM418.731 39V33.384H415.931V39H418.731ZM416.16 32.6159C415.567 33.5206 414.79 34.4034 413.815 35.2604L415.663 37.3636C416.8 36.3646 417.751 35.2954 418.501 34.1521L416.16 32.6159ZM413.833 35.2445C412.915 36.0231 411.778 36.6841 410.398 37.2126L411.399 39.8274C413.027 39.2039 414.45 38.3929 415.645 37.3795L413.833 35.2445ZM410.389 37.2163C409.11 37.7166 407.593 37.984 405.811 37.984V40.784C407.869 40.784 409.744 40.4754 411.409 39.8237L410.389 37.2163Z" fill="white" mask="url(#path-2-outside-1_2124_10513)"/>
</svg>
