<svg width="314" height="310" viewBox="0 0 314 310" fill="none" xmlns="http://www.w3.org/2000/svg">
<g filter="url(#filter0_d_1528_13507)">
<rect x="16" y="16" width="274" height="274" rx="54.6798" fill="url(#paint0_linear_1528_13507)"/>
<rect x="16" y="16" width="274" height="274" rx="40" fill="#235CD9"/>
<rect x="41" y="41" width="65" height="39" rx="19.5" fill="white" fill-opacity="0.21"/>
<path d="M73.0469 64.2656V65.6875H60.1406V64.2656H65.7031V61.5156H61.5625V54.2031H63.2969V56.5156H69.8438V54.2031H71.5781V61.5156H67.4219V64.2656H73.0469ZM63.2969 60.1094H69.8438V57.9062H63.2969V60.1094ZM81.3438 53.9062C81.3281 57.625 79.3906 59.9062 74.9062 61L74.2812 59.6719C76.3984 59.1797 77.75 58.4453 78.5625 57.5156L74.5625 57.8125L74.2969 56.4844L79.2656 56.2969C79.3828 55.9688 79.4531 55.625 79.5 55.2656H75.0156V53.9062H81.3438ZM85.7969 53.2656V60.4688H84.0625V57.8438H81.375V56.4219H84.0625V53.2656H85.7969ZM85.7969 61.0312V64.7031H78.2188V65.8438H86.1719V67.2188H76.5156V63.4375H84.0781V62.3906H76.5V61.0312H85.7969Z" fill="white"/>
<path d="M64.7188 127.609H48.5859V125.832H55.5391V122.395H50.3633V113.254H52.5312V116.145H60.7148V113.254H62.8828V122.395H57.6875V125.832H64.7188V127.609ZM60.7148 120.637V117.883H52.5312V120.637H60.7148ZM75.0898 112.883C75.0833 114.445 74.7969 115.806 74.2305 116.965C73.6641 118.117 72.7884 119.09 71.6035 119.885C70.4251 120.673 68.9049 121.294 67.043 121.75L66.2617 120.09C68.7747 119.504 70.5553 118.605 71.6035 117.395L66.6133 117.766L66.2812 116.105L72.4922 115.871C72.6289 115.487 72.7233 115.057 72.7754 114.582H67.1797V112.883H75.0898ZM80.6562 121.086H78.4883V117.805H75.1289V116.027H78.4883V112.082H80.6562V121.086ZM80.6562 126.379H71.1836V127.805H81.125V129.523H69.0547V124.797H78.5078V123.488H69.0352V121.789H80.6562V126.379ZM99.0938 122.629H83.2734V121.379H99.0938V122.629ZM97.3359 129.211H85.3242V124.152H86.8672V127.922H97.3359V129.211ZM91.1836 112.844C92.4206 112.837 93.5013 112.971 94.4258 113.244C95.3503 113.518 96.0632 113.915 96.5645 114.436C97.0658 114.95 97.3164 115.565 97.3164 116.281C97.3164 116.997 97.0658 117.616 96.5645 118.137C96.0632 118.651 95.3503 119.048 94.4258 119.328C93.5013 119.602 92.4206 119.738 91.1836 119.738C89.9336 119.738 88.8464 119.602 87.9219 119.328C86.9974 119.048 86.2845 118.651 85.7832 118.137C85.2819 117.616 85.0312 116.997 85.0312 116.281C85.0312 115.565 85.2819 114.95 85.7832 114.436C86.2845 113.915 86.9974 113.518 87.9219 113.244C88.8464 112.971 89.9336 112.837 91.1836 112.844ZM91.1836 114.074C90.2591 114.074 89.4518 114.165 88.7617 114.348C88.0716 114.523 87.5378 114.777 87.1602 115.109C86.7891 115.441 86.6068 115.832 86.6133 116.281C86.6068 116.73 86.7891 117.121 87.1602 117.453C87.5378 117.785 88.0716 118.042 88.7617 118.225C89.4518 118.4 90.2591 118.488 91.1836 118.488C92.1016 118.488 92.9056 118.4 93.5957 118.225C94.2858 118.042 94.8164 117.785 95.1875 117.453C95.5651 117.121 95.7539 116.73 95.7539 116.281C95.7539 115.832 95.5651 115.441 95.1875 115.109C94.8164 114.777 94.2858 114.523 93.5957 114.348C92.9056 114.165 92.1016 114.074 91.1836 114.074ZM121.398 121.75H105.598V120.48H112.141V116.965H113.645V120.48H121.398V121.75ZM119.387 129.582H117.824V125.012H107.277V123.742H119.387V129.582ZM119.387 114.484C119.387 115.396 119.361 116.206 119.309 116.916C119.263 117.626 119.146 118.417 118.957 119.289L117.414 119.133C117.616 118.267 117.74 117.499 117.785 116.828C117.837 116.151 117.863 115.37 117.863 114.484V114.426H107.473V113.176H119.387V114.484ZM128.547 113.488C129.452 113.488 130.256 113.661 130.959 114.006C131.669 114.351 132.222 114.833 132.619 115.451C133.016 116.07 133.215 116.776 133.215 117.57C133.215 118.365 133.016 119.071 132.619 119.689C132.222 120.308 131.669 120.79 130.959 121.135C130.256 121.48 129.452 121.652 128.547 121.652C127.642 121.652 126.831 121.48 126.115 121.135C125.406 120.79 124.849 120.308 124.445 119.689C124.048 119.071 123.853 118.365 123.859 117.57C123.853 116.776 124.048 116.07 124.445 115.451C124.849 114.833 125.406 114.351 126.115 114.006C126.831 113.661 127.642 113.488 128.547 113.488ZM128.547 114.836C127.935 114.836 127.385 114.953 126.896 115.188C126.415 115.415 126.037 115.738 125.764 116.154C125.49 116.564 125.357 117.036 125.363 117.57C125.357 118.104 125.49 118.579 125.764 118.996C126.037 119.406 126.415 119.729 126.896 119.963C127.385 120.191 127.935 120.305 128.547 120.305C129.152 120.305 129.696 120.191 130.178 119.963C130.66 119.729 131.034 119.406 131.301 118.996C131.574 118.579 131.711 118.104 131.711 117.57C131.711 117.036 131.574 116.564 131.301 116.154C131.034 115.738 130.66 115.415 130.178 115.188C129.696 114.953 129.152 114.836 128.547 114.836ZM137.102 129.621H135.578V112.219H137.102V129.621ZM122.961 124.484C125.214 124.484 127.261 124.449 129.104 124.377C130.952 124.305 132.727 124.146 134.426 123.898L134.543 125.031C132.798 125.357 131.018 125.565 129.201 125.656C127.391 125.747 125.383 125.793 123.176 125.793L122.961 124.484ZM161.164 122.961H154.348V126.008H152.199V122.961H145.031V121.223H161.164V122.961ZM159.387 129.387H146.984V124.523H149.133V127.629H159.387V129.387ZM149.289 114.641H156.906V112.648H159.055V119.836H147.141V112.648H149.289V114.641ZM156.906 118.117V116.262H149.289V118.117H156.906ZM168.098 112.863C168.983 112.857 169.777 113.01 170.48 113.322C171.184 113.635 171.734 114.074 172.131 114.641C172.528 115.207 172.727 115.852 172.727 116.574C172.727 117.284 172.528 117.922 172.131 118.488C171.734 119.055 171.18 119.494 170.471 119.807C169.768 120.119 168.977 120.272 168.098 120.266C167.225 120.272 166.438 120.119 165.734 119.807C165.038 119.494 164.491 119.058 164.094 118.498C163.703 117.932 163.508 117.29 163.508 116.574C163.508 115.852 163.703 115.207 164.094 114.641C164.491 114.074 165.038 113.635 165.734 113.322C166.431 113.01 167.219 112.857 168.098 112.863ZM168.098 114.621C167.616 114.615 167.186 114.693 166.809 114.855C166.431 115.012 166.135 115.24 165.92 115.539C165.712 115.832 165.611 116.177 165.617 116.574C165.611 116.965 165.712 117.307 165.92 117.6C166.135 117.886 166.431 118.107 166.809 118.264C167.186 118.413 167.616 118.488 168.098 118.488C168.599 118.488 169.042 118.413 169.426 118.264C169.816 118.107 170.119 117.886 170.334 117.6C170.549 117.307 170.656 116.965 170.656 116.574C170.656 116.177 170.549 115.832 170.334 115.539C170.119 115.24 169.816 115.012 169.426 114.855C169.042 114.693 168.599 114.615 168.098 114.621ZM177.102 129.719H174.953V112.102H177.102V129.719ZM162.355 121.477C164.465 121.477 166.477 121.438 168.391 121.359C170.305 121.275 172.108 121.105 173.801 120.852L173.957 122.453C172.564 122.72 171.014 122.919 169.309 123.049V129.191H167.121V123.176C165.923 123.228 164.667 123.254 163.352 123.254C163.195 123.267 162.954 123.273 162.629 123.273L162.355 121.477ZM194.367 129.738H192.18V112.082H194.367V129.738ZM189.094 113.957C189.094 116.763 188.459 119.227 187.189 121.35C185.92 123.465 183.814 125.22 180.871 126.613L179.738 124.875C182.01 123.794 183.719 122.502 184.865 120.998C186.018 119.488 186.691 117.714 186.887 115.676H180.637V113.957H189.094ZM211.906 129.582H210.422V112.219H211.906V129.582ZM208.41 128.703H206.945V120.266H204.709C204.657 121.385 204.471 122.359 204.152 123.186C203.833 124.006 203.4 124.641 202.854 125.09C202.307 125.533 201.678 125.754 200.969 125.754C200.22 125.754 199.562 125.51 198.996 125.021C198.436 124.527 198.003 123.824 197.697 122.912C197.391 122.001 197.238 120.936 197.238 119.719C197.238 118.501 197.391 117.437 197.697 116.525C198.003 115.614 198.436 114.914 198.996 114.426C199.562 113.931 200.22 113.684 200.969 113.684C201.665 113.684 202.284 113.898 202.824 114.328C203.365 114.758 203.794 115.373 204.113 116.174C204.439 116.975 204.634 117.915 204.699 118.996H206.945V112.59H208.41V128.703ZM200.969 115.129C200.5 115.129 200.093 115.314 199.748 115.686C199.403 116.057 199.136 116.59 198.947 117.287C198.765 117.977 198.677 118.788 198.684 119.719C198.677 120.65 198.765 121.46 198.947 122.15C199.136 122.84 199.403 123.371 199.748 123.742C200.1 124.113 200.507 124.296 200.969 124.289C201.431 124.296 201.835 124.113 202.18 123.742C202.531 123.371 202.801 122.84 202.99 122.15C203.179 121.46 203.273 120.65 203.273 119.719C203.273 118.781 203.179 117.967 202.99 117.277C202.801 116.587 202.535 116.057 202.189 115.686C201.844 115.314 201.438 115.129 200.969 115.129ZM63.0586 159.582H61.5156V142.219H63.0586V159.582ZM57.9219 144.113C57.9089 146.737 57.2448 149.094 55.9297 151.184C54.6146 153.267 52.5573 154.979 49.7578 156.32L48.918 155.07C51.2357 153.97 53.0098 152.603 54.2402 150.969C55.4772 149.335 56.1836 147.466 56.3594 145.363H49.7188V144.113H57.9219ZM70.6562 143.566C71.4505 143.573 72.1602 143.798 72.7852 144.24C73.4102 144.676 73.9115 145.298 74.2891 146.105H78.8594V142.219H80.3828V159.621H78.8594V152.883H74.3965C74.0319 153.768 73.5241 154.452 72.873 154.934C72.2285 155.415 71.4896 155.656 70.6562 155.656C69.8099 155.656 69.0547 155.409 68.3906 154.914C67.7331 154.419 67.2188 153.716 66.8477 152.805C66.4831 151.893 66.3008 150.832 66.3008 149.621C66.3008 148.41 66.4831 147.349 66.8477 146.438C67.2188 145.526 67.7331 144.823 68.3906 144.328C69.0482 143.827 69.8034 143.573 70.6562 143.566ZM70.6562 144.934C70.0898 144.94 69.5853 145.139 69.1426 145.529C68.7064 145.913 68.3678 146.46 68.127 147.17C67.8861 147.873 67.7656 148.69 67.7656 149.621C67.7656 150.552 67.8861 151.372 68.127 152.082C68.3678 152.785 68.7064 153.329 69.1426 153.713C69.5853 154.097 70.0898 154.289 70.6562 154.289C71.2161 154.289 71.7142 154.097 72.1504 153.713C72.5931 153.329 72.9349 152.785 73.1758 152.082C73.4232 151.372 73.5469 150.552 73.5469 149.621C73.5469 148.69 73.4232 147.873 73.1758 147.17C72.9349 146.46 72.5964 145.913 72.1602 145.529C71.724 145.139 71.2227 144.94 70.6562 144.934ZM74.7383 147.395C74.9076 148.124 74.9922 148.866 74.9922 149.621C74.9922 150.298 74.9238 150.962 74.7871 151.613H78.8594V147.395H74.7383ZM96.7109 149.387H99.6211V150.656H96.7109V159.582H95.1875V142.219H96.7109V149.387ZM93.5078 146.281H83.1758V145.012H87.6484V142.434H89.1719V145.012H93.5078V146.281ZM88.4297 147.727C89.2435 147.727 89.9727 147.896 90.6172 148.234C91.2617 148.573 91.7663 149.045 92.1309 149.65C92.4954 150.256 92.681 150.943 92.6875 151.711C92.681 152.479 92.4954 153.166 92.1309 153.771C91.7663 154.377 91.2617 154.849 90.6172 155.188C89.9727 155.526 89.2435 155.695 88.4297 155.695C87.6094 155.695 86.8737 155.526 86.2227 155.188C85.5781 154.849 85.0736 154.377 84.709 153.771C84.3444 153.166 84.1654 152.479 84.1719 151.711C84.1654 150.943 84.3444 150.256 84.709 149.65C85.0736 149.045 85.5781 148.573 86.2227 148.234C86.8737 147.896 87.6094 147.727 88.4297 147.727ZM88.4297 149.016C87.8958 149.016 87.4141 149.133 86.9844 149.367C86.5612 149.595 86.2292 149.914 85.9883 150.324C85.7474 150.734 85.6302 151.197 85.6367 151.711C85.6302 152.232 85.7474 152.697 85.9883 153.107C86.2292 153.511 86.5612 153.827 86.9844 154.055C87.4141 154.283 87.8958 154.393 88.4297 154.387C88.957 154.393 89.4323 154.283 89.8555 154.055C90.2786 153.827 90.6107 153.511 90.8516 153.107C91.0924 152.697 91.2161 152.232 91.2227 151.711C91.2161 151.197 91.0924 150.734 90.8516 150.324C90.6107 149.914 90.2786 149.595 89.8555 149.367C89.4323 149.133 88.957 149.016 88.4297 149.016ZM109.172 146.398H113.43V142.219H114.953V159.621H113.43V152.453H109.172V155.188H101.262V143.957H109.172V146.398ZM102.785 153.957H107.688V145.168H102.785V153.957ZM113.43 151.184V147.668H109.172V151.184H113.43ZM130.227 148.586H132.277V142.395H134.348V158.879H132.277V150.344H130.227V155.188H123.293V143.996H130.227V148.586ZM125.324 153.469H128.195V145.715H125.324V153.469ZM137.98 159.738H135.891V142.082H137.98V159.738ZM154.738 154.855H152.551V142.102H154.738V154.855ZM155.227 159.387H143.059V153.566H145.246V157.629H155.227V159.387ZM145.109 143.254C145.995 143.254 146.799 143.446 147.521 143.83C148.244 144.208 148.814 144.732 149.23 145.402C149.647 146.073 149.855 146.828 149.855 147.668C149.855 148.521 149.647 149.286 149.23 149.963C148.814 150.633 148.244 151.158 147.521 151.535C146.799 151.913 145.995 152.102 145.109 152.102C144.217 152.102 143.407 151.913 142.678 151.535C141.955 151.158 141.385 150.633 140.969 149.963C140.552 149.286 140.344 148.521 140.344 147.668C140.344 146.828 140.552 146.073 140.969 145.402C141.385 144.732 141.955 144.208 142.678 143.83C143.407 143.446 144.217 143.254 145.109 143.254ZM145.109 145.148C144.608 145.148 144.156 145.253 143.752 145.461C143.348 145.669 143.033 145.965 142.805 146.35C142.577 146.734 142.466 147.173 142.473 147.668C142.466 148.176 142.577 148.622 142.805 149.006C143.033 149.39 143.348 149.686 143.752 149.895C144.156 150.103 144.608 150.207 145.109 150.207C145.598 150.207 146.04 150.103 146.438 149.895C146.835 149.686 147.147 149.39 147.375 149.006C147.609 148.622 147.727 148.176 147.727 147.668C147.727 147.173 147.609 146.734 147.375 146.35C147.147 145.965 146.835 145.669 146.438 145.461C146.04 145.253 145.598 145.148 145.109 145.148ZM177.16 151.184H175.09V142.102H177.16V151.184ZM173.684 151.086H171.633V147.57H169.699V150.344H162.727V143.156H169.699V145.793H171.633V142.434H173.684V151.086ZM177.16 156.418H167.414V157.805H177.785V159.523H165.227V154.797H174.992V153.566H165.207V151.848H177.16V156.418ZM164.777 148.703H167.688V144.836H164.777V148.703ZM195.48 157.688H179.348V155.891H186.301V153.02H181.262V147.238H191.418V145.051H181.223V143.293H193.566V148.957H183.43V151.242H193.977V153.02H188.449V155.891H195.48V157.688ZM211.32 159.758H209.133V142.082H211.32V159.758ZM206.242 145.461H199.914V153.664C201.633 153.658 203.055 153.618 204.182 153.547C205.308 153.475 206.431 153.339 207.551 153.137L207.766 154.934C206.561 155.155 205.331 155.305 204.074 155.383C202.824 155.461 201.21 155.5 199.23 155.5H197.727V143.684H206.242V145.461ZM229.914 151.496H214.016V150.285H229.914V151.496ZM227.922 156.574H217.492V158.234H228.488V159.348H215.949V155.52H226.398V154.035H215.93V152.883H227.922V156.574ZM227.863 146.34H217.609V147.863H228.176V148.977H216.086V145.285H226.32V143.859H216.027V142.746H227.863V146.34ZM62.2773 176.477H64.8945V177.766H62.2773V182.082H60.7539V172.219H62.2773V176.477ZM57.2188 174.66H51.0469V179.777H51.6914C53.2669 179.777 54.582 179.738 55.6367 179.66C56.6979 179.576 57.7656 179.426 58.8398 179.211L59.0352 180.461C57.8633 180.695 56.6914 180.852 55.5195 180.93C54.3477 181.008 52.7982 181.047 50.8711 181.047H49.5234V173.41H57.2188V174.66ZM62.2773 189.348H51.3203V182.98H62.2773V189.348ZM52.8242 188.098H60.7539V184.23H52.8242V188.098ZM79.582 176.75H82.1797V178.039H79.582V182.59H78.0391V172.219H79.582V176.75ZM73.9961 182.922C75.168 182.922 76.1836 183.055 77.043 183.322C77.9023 183.583 78.5632 183.96 79.0254 184.455C79.4876 184.95 79.7188 185.539 79.7188 186.223C79.7188 186.919 79.4876 187.515 79.0254 188.01C78.5632 188.511 77.9023 188.892 77.043 189.152C76.1901 189.413 75.1745 189.543 73.9961 189.543C72.8112 189.543 71.7858 189.413 70.9199 189.152C70.0605 188.892 69.3965 188.511 68.9277 188.01C68.4655 187.515 68.2344 186.919 68.2344 186.223C68.2344 185.539 68.4655 184.95 68.9277 184.455C69.3965 183.96 70.0638 183.583 70.9297 183.322C71.7956 183.055 72.8177 182.922 73.9961 182.922ZM73.9961 184.191C73.1302 184.185 72.375 184.263 71.7305 184.426C71.0924 184.589 70.6009 184.826 70.2559 185.139C69.9108 185.445 69.7383 185.806 69.7383 186.223C69.7383 186.646 69.9108 187.017 70.2559 187.336C70.6009 187.648 71.0924 187.889 71.7305 188.059C72.375 188.228 73.1302 188.312 73.9961 188.312C74.8555 188.312 75.6042 188.228 76.2422 188.059C76.8802 187.889 77.3717 187.648 77.7168 187.336C78.0618 187.017 78.2344 186.646 78.2344 186.223C78.2344 185.806 78.0618 185.445 77.7168 185.139C77.3717 184.826 76.8802 184.589 76.2422 184.426C75.6042 184.263 74.8555 184.185 73.9961 184.191ZM74.5039 174.816H68.293V179.914C70.1484 179.901 71.6458 179.855 72.7852 179.777C73.9245 179.693 75.0508 179.536 76.1641 179.309L76.3203 180.578C75.1615 180.812 73.9928 180.969 72.8145 181.047C71.6361 181.125 70.0768 181.164 68.1367 181.164H66.7891V173.547H74.5039V174.816ZM96.8477 176.672H99.4648V177.98H96.8477V182.316H95.3242V172.219H96.8477V176.672ZM87.3945 184.934H95.3242V183.078H96.8477V189.348H85.8711V183.078H87.3945V184.934ZM95.3242 188.117V186.145H87.3945V188.117H95.3242ZM93.6641 175.285H83.3125V174.016H87.7266V172.062H89.25V174.016H93.6641V175.285ZM88.4883 176.086C89.3151 176.086 90.041 176.213 90.666 176.467C91.2975 176.714 91.7858 177.069 92.1309 177.531C92.4824 177.987 92.6615 178.521 92.668 179.133C92.6615 179.745 92.4824 180.282 92.1309 180.744C91.7858 181.2 91.2975 181.555 90.666 181.809C90.041 182.056 89.3151 182.18 88.4883 182.18C87.6549 182.18 86.9193 182.056 86.2812 181.809C85.6497 181.555 85.1615 181.2 84.8164 180.744C84.4714 180.282 84.3021 179.745 84.3086 179.133C84.3021 178.521 84.4714 177.987 84.8164 177.531C85.1615 177.069 85.6497 176.714 86.2812 176.467C86.9193 176.213 87.6549 176.086 88.4883 176.086ZM88.4883 177.277C87.9479 177.271 87.4694 177.346 87.0527 177.502C86.6426 177.652 86.3236 177.87 86.0957 178.156C85.8743 178.443 85.7669 178.768 85.7734 179.133C85.7669 179.504 85.8743 179.833 86.0957 180.119C86.3236 180.399 86.6426 180.617 87.0527 180.773C87.4694 180.93 87.9479 181.008 88.4883 181.008C89.0221 181.008 89.4941 180.93 89.9043 180.773C90.321 180.617 90.6432 180.399 90.8711 180.119C91.099 179.833 91.2161 179.504 91.2227 179.133C91.2161 178.762 91.0957 178.436 90.8613 178.156C90.6335 177.87 90.3145 177.652 89.9043 177.502C89.4941 177.346 89.0221 177.271 88.4883 177.277ZM114.875 189.582H113.352V172.219H114.875V189.582ZM103.195 183.781C106.132 183.768 108.898 183.488 111.496 182.941L111.711 184.25C110.233 184.556 108.794 184.777 107.395 184.914C105.995 185.044 104.562 185.109 103.098 185.109H101.691V173.938H103.195V183.781ZM131.281 179.094H134.191V180.383H131.281V189.621H129.758V172.219H131.281V179.094ZM126.711 175.188H120.129V183.977C121.75 183.977 123.166 183.931 124.377 183.84C125.588 183.749 126.822 183.586 128.078 183.352L128.273 184.68C126.991 184.914 125.731 185.07 124.494 185.148C123.257 185.227 121.75 185.266 119.973 185.266H118.605V173.918H126.711V175.188Z" fill="white"/>
</g>
<defs>
<filter id="filter0_d_1528_13507" x="0" y="0" width="314" height="314" filterUnits="userSpaceOnUse" color-interpolation-filters="sRGB">
<feFlood flood-opacity="0" result="BackgroundImageFix"/>
<feColorMatrix in="SourceAlpha" type="matrix" values="0 0 0 0 0 0 0 0 0 0 0 0 0 0 0 0 0 0 127 0" result="hardAlpha"/>
<feOffset dx="4" dy="4"/>
<feGaussianBlur stdDeviation="10"/>
<feComposite in2="hardAlpha" operator="out"/>
<feColorMatrix type="matrix" values="0 0 0 0 0.294118 0 0 0 0 0.65098 0 0 0 0 0.945098 0 0 0 0.17 0"/>
<feBlend mode="normal" in2="BackgroundImageFix" result="effect1_dropShadow_1528_13507"/>
<feBlend mode="normal" in="SourceGraphic" in2="effect1_dropShadow_1528_13507" result="shape"/>
</filter>
<linearGradient id="paint0_linear_1528_13507" x1="153" y1="290" x2="153" y2="16" gradientUnits="userSpaceOnUse">
<stop stop-color="#091F5D"/>
<stop offset="1" stop-color="#06061C"/>
</linearGradient>
</defs>
</svg>
