<svg width="60" height="46" viewBox="0 0 60 46" fill="none" xmlns="http://www.w3.org/2000/svg">
<path fill-rule="evenodd" clip-rule="evenodd" d="M33.2411 3.17388C33.9608 1.71061 32.8958 0 31.2651 0H18.7838C17.9444 0 17.1781 0.477107 16.8077 1.23026L14.7732 5.36712C14.0536 6.83039 15.1186 8.541 16.7492 8.541H29.2306C30.0699 8.541 30.8362 8.06389 31.2066 7.31074L33.2411 3.17388ZM29.5204 14.4427C29.8908 13.6895 30.6571 13.2124 31.4964 13.2124H43.9778C45.6084 13.2124 46.6734 14.923 45.9538 16.3863L45.2335 17.8509C44.5139 19.3142 45.5789 21.0248 47.2095 21.0248H56.9793C58.61 21.0248 59.675 22.7354 58.9553 24.1987L56.9208 28.3355C56.5504 29.0887 55.7841 29.5658 54.9448 29.5658H41.1337C40.2944 29.5658 39.5281 30.0429 39.1577 30.796L36.5493 36.0997C36.1789 36.8529 35.4126 37.33 34.5733 37.33H21.2438C20.4045 37.33 19.6381 37.8071 19.2677 38.5602L16.6622 43.8581C16.2918 44.6113 15.5255 45.0884 14.6862 45.0884H2.20486C0.574208 45.0884 -0.490804 43.3778 0.228829 41.9145L2.26333 37.7776C2.63373 37.0245 3.40006 36.5474 4.23936 36.5474H17.5689C18.4082 36.5474 19.1745 36.0703 19.5449 35.3171L20.8125 32.7397C21.5321 31.2764 20.4671 29.5658 18.8365 29.5658H9.96521C8.33456 29.5658 7.26955 27.8552 7.98918 26.3919L10.0237 22.255C10.3941 21.5019 11.1604 21.0248 11.9997 21.0248H24.9123C25.7516 21.0248 26.5179 20.5477 26.8883 19.7945L29.5204 14.4427ZM27.0546 22.9837C27.425 22.2305 28.1914 21.7534 29.0307 21.7534H39.2317C40.8623 21.7534 41.9273 23.464 41.2077 24.9273L39.9136 27.5587C39.5432 28.3119 38.7769 28.789 37.9376 28.789H27.7365C26.1059 28.789 25.0409 27.0784 25.7605 25.6151L27.0546 22.9837Z" fill="#000068"/>
</svg>
