<svg width="205" height="205" viewBox="0 0 205 205" fill="none" xmlns="http://www.w3.org/2000/svg">
<path fill-rule="evenodd" clip-rule="evenodd" d="M110.734 63.2647C112.22 60.2423 110.021 56.709 106.653 56.709H80.8722C79.1386 56.709 77.5557 57.6945 76.7906 59.2501L72.5883 67.7948C71.1019 70.8172 73.3017 74.3505 76.6699 74.3505H102.45C104.184 74.3505 105.767 73.3651 106.532 71.8094L110.734 63.2647ZM103.047 86.5401C103.812 84.9844 105.395 83.999 107.129 83.999H132.909C136.277 83.999 138.477 87.5323 136.991 90.5547L135.504 93.5782C134.017 96.6006 136.217 100.134 139.585 100.134H159.766C163.134 100.134 165.334 103.667 163.847 106.69L159.645 115.234C158.88 116.79 157.297 117.775 155.564 117.775H127.033C125.299 117.775 123.716 118.761 122.951 120.317L117.565 131.269C116.8 132.825 115.217 133.811 113.483 133.811H85.9555C84.2219 133.811 82.639 134.796 81.8739 136.352L76.4914 147.296C75.7263 148.852 74.1435 149.837 72.4099 149.837H46.6295C43.2613 149.837 41.0616 146.304 42.548 143.282L46.7503 134.737C47.5153 133.181 49.0982 132.196 50.8318 132.196H78.3596C80.0932 132.196 81.676 131.21 82.4411 129.655L85.0593 124.331C86.5457 121.309 84.3459 117.775 80.9778 117.775H62.6563C59.2882 117.775 57.0884 114.242 58.5748 111.22L62.7771 102.675C63.5422 101.119 65.125 100.134 66.8586 100.134H93.5299C95.2635 100.134 96.8463 99.1484 97.6114 97.5928L103.047 86.5401ZM97.9539 104.182C98.719 102.626 100.302 101.641 102.035 101.641H123.107C126.475 101.641 128.675 105.174 127.189 108.196L124.517 113.628C123.752 115.184 122.169 116.169 120.436 116.169H99.3641C95.996 116.169 93.7962 112.636 95.2826 109.613L97.9539 104.182Z" fill="white"/>
</svg>
