<svg width="109" height="49" viewBox="0 0 109 49" fill="none" xmlns="http://www.w3.org/2000/svg">
<rect width="109" height="49" rx="5" fill="url(#paint0_linear_912_9996)"/>
<path d="M34.2344 18.2812C34.2292 19.4271 33.9635 20.4688 33.4375 21.4062C32.9167 22.3385 32.1719 23.1432 31.2031 23.8203C30.2344 24.4974 29.0781 25.026 27.7344 25.4062L27.2188 24.4375C28.3281 24.125 29.2943 23.7161 30.1172 23.2109C30.9401 22.7057 31.5911 22.1224 32.0703 21.4609C32.5495 20.7995 32.8333 20.0781 32.9219 19.2969H27.9375V18.2812H34.2344ZM38.5781 25.3125H37.3438V22H34.2656V20.9688H37.3438V17.3906H38.5781V25.3125ZM38.5781 31.0781H29.5625V25.9062H38.5781V31.0781ZM30.75 30.0781H37.3594V26.8906H30.75V30.0781ZM45.0312 20.0938C45.0312 20.6198 45.1458 21.138 45.375 21.6484C45.6042 22.1536 45.9323 22.6094 46.3594 23.0156C46.7865 23.4219 47.2917 23.7396 47.875 23.9688L47.2188 24.9219C46.5729 24.651 46.013 24.276 45.5391 23.7969C45.0651 23.3125 44.7031 22.7578 44.4531 22.1328C44.1875 22.8255 43.8073 23.4479 43.3125 24C42.8177 24.5469 42.2396 24.9688 41.5781 25.2656L40.9062 24.3125C41.5 24.0521 42.0182 23.6927 42.4609 23.2344C42.9089 22.7708 43.2526 22.2656 43.4922 21.7188C43.737 21.1667 43.8594 20.625 43.8594 20.0938V18.2344H45.0312V20.0938ZM52.6875 25.7812H51.5156V22.0469H49.6719V25.7031H48.5156V17.6406H49.6719V21.0156H51.5156V17.3906H52.6875V25.7812ZM52.6875 31.2656H51.4844V27.5625H43.3281V26.5469H52.6875V31.2656ZM65.4688 23.1094H67.7969V24.125H65.4688V31.2656H64.25V17.375H65.4688V23.1094ZM62.9062 20.625H54.6406V19.6094H58.2188V17.5469H59.4375V19.6094H62.9062V20.625ZM58.8438 21.7812C59.4948 21.7812 60.0781 21.9167 60.5938 22.1875C61.1094 22.4583 61.513 22.8359 61.8047 23.3203C62.0964 23.8047 62.2448 24.3542 62.25 24.9688C62.2448 25.5833 62.0964 26.1328 61.8047 26.6172C61.513 27.1016 61.1094 27.4792 60.5938 27.75C60.0781 28.0208 59.4948 28.1562 58.8438 28.1562C58.1875 28.1562 57.599 28.0208 57.0781 27.75C56.5625 27.4792 56.1589 27.1016 55.8672 26.6172C55.5755 26.1328 55.4323 25.5833 55.4375 24.9688C55.4323 24.3542 55.5755 23.8047 55.8672 23.3203C56.1589 22.8359 56.5625 22.4583 57.0781 22.1875C57.599 21.9167 58.1875 21.7812 58.8438 21.7812ZM58.8438 22.8125C58.4167 22.8125 58.0312 22.9062 57.6875 23.0938C57.349 23.276 57.0833 23.5312 56.8906 23.8594C56.6979 24.1875 56.6042 24.5573 56.6094 24.9688C56.6042 25.3854 56.6979 25.7578 56.8906 26.0859C57.0833 26.4089 57.349 26.6615 57.6875 26.8438C58.0312 27.026 58.4167 27.1146 58.8438 27.1094C59.2656 27.1146 59.6458 27.026 59.9844 26.8438C60.3229 26.6615 60.5885 26.4089 60.7812 26.0859C60.974 25.7578 61.0729 25.3854 61.0781 24.9688C61.0729 24.5573 60.974 24.1875 60.7812 23.8594C60.5885 23.5312 60.3229 23.276 59.9844 23.0938C59.6458 22.9062 59.2656 22.8125 58.8438 22.8125ZM80.0312 31.2656H78.7969V17.375H80.0312V31.2656ZM75.9219 18.8906C75.9115 20.9896 75.3802 22.875 74.3281 24.5469C73.276 26.2135 71.6302 27.5833 69.3906 28.6562L68.7188 27.6562C70.5729 26.776 71.9922 25.6823 72.9766 24.375C73.9661 23.0677 74.5312 21.5729 74.6719 19.8906H69.3594V18.8906H75.9219Z" fill="white"/>
<defs>
<linearGradient id="paint0_linear_912_9996" x1="0" y1="24.5" x2="109" y2="24.5" gradientUnits="userSpaceOnUse">
<stop stop-color="#6F3DA1"/>
<stop offset="1" stop-color="#7185E1"/>
</linearGradient>
</defs>
</svg>
