
<svg width="116" height="49" viewBox="0 0 116 49" fill="none" xmlns="http://www.w3.org/2000/svg">
<rect x="0.5" y="0.5" width="115" height="48" rx="4.5" fill="white"/>
<rect x="0.5" y="0.5" width="115" height="48" rx="4.5" stroke="#190828"/>
<path d="M41.5312 17.2656V22.625H43.7031V24.0469H41.5312V31.4062H39.7969V17.2656H41.5312ZM37.6562 18.6094V20.0156H32.7812V26.5C34.9766 26.5 36.7109 26.3906 38.6562 26.0469L38.8594 27.5156C36.6719 27.8906 34.7656 27.9531 32.2188 27.9531H31.0469V18.6094H37.6562ZM57.1875 24.25V25.6406H51.7344V28.2344H49.9688V25.6406H44.2812V24.25H57.1875ZM55.7656 29.6875V31.1094H45.8594V26.9219H47.6094V29.6875H55.7656ZM50.7188 17.5781C53.7656 17.5781 55.7812 18.6875 55.7812 20.4688C55.7812 22.25 53.7656 23.3438 50.7188 23.3438C47.6719 23.3438 45.6562 22.25 45.6562 20.4688C45.6562 18.6875 47.6719 17.5781 50.7188 17.5781ZM50.7188 18.9531C48.7812 18.9531 47.5156 19.5 47.5312 20.4688C47.5156 21.4062 48.7812 21.9531 50.7188 21.9531C52.6719 21.9531 53.9219 21.4062 53.9219 20.4688C53.9219 19.5 52.6719 18.9531 50.7188 18.9531ZM71.0312 28.3125V29.75H58.125V28.3125H63.6875V26.0156H59.6562V21.3906H67.7812V19.6406H59.625V18.2344H69.5V22.7656H61.3906V24.5938H69.8281V26.0156H65.4062V28.3125H71.0312ZM83.4219 23.8906V25.2812H73.5156V18.5H83.3125V19.9062H75.2344V23.8906H83.4219ZM84.8594 28.1562V29.5938H71.9531V28.1562H84.8594Z" fill="#190828"/>
</svg>
