
<svg width="84" height="84" viewBox="0 0 84 84" fill="none" xmlns="http://www.w3.org/2000/svg">
<path d="M84 42C84 65.196 65.196 84 42 84C18.804 84 0 65.196 0 42C0 18.804 18.804 0 42 0C65.196 0 84 18.804 84 42Z" fill="#F7F7F9"/>
<path fill-rule="evenodd" clip-rule="evenodd" d="M16.7573 75.571C16.2625 74.1069 16 72.5758 16 71C16 60.5066 27.6406 52 42 52C56.3594 52 68 60.5066 68 71C68 72.5758 67.7375 74.1069 67.2427 75.571C77.4197 67.9065 84 55.7217 84 42C84 18.804 65.196 0 42 0C18.804 0 0 18.804 0 42C0 55.7217 6.58026 67.9065 16.7573 75.571ZM58 32C58 40.8366 50.8366 48 42 48C33.1634 48 26 40.8366 26 32C26 23.1634 33.1634 16 42 16C50.8366 16 58 23.1634 58 32Z" fill="#C9C3CE"/>
</svg>
