
<svg width="117" height="49" viewBox="0 0 117 49" fill="none" xmlns="http://www.w3.org/2000/svg">
<rect x="0.5" width="116" height="49" rx="5" fill="url(#paint0_linear_1250_10054)"/>
<path d="M42.8125 31.4062H41.0781V23.6875H38.3594V22.2656H41.0781V17.2656H42.8125V31.4062ZM36.1562 21.0156C36.1562 21.8385 36.2995 22.651 36.5859 23.4531C36.8724 24.2552 37.2865 24.974 37.8281 25.6094C38.3698 26.2396 39.0104 26.7135 39.75 27.0312L38.7188 28.4219C37.9167 28.0417 37.224 27.4844 36.6406 26.75C36.0573 26.0156 35.6068 25.1667 35.2891 24.2031C34.9661 25.224 34.5078 26.1276 33.9141 26.9141C33.3255 27.7005 32.6302 28.2969 31.8281 28.7031L30.7812 27.3438C31.5156 27 32.1536 26.4974 32.6953 25.8359C33.2422 25.1693 33.6589 24.4167 33.9453 23.5781C34.237 22.7396 34.3854 21.8854 34.3906 21.0156V20.0781H31.3594V18.6562H39.1875V20.0781H36.1562V21.0156ZM49.8594 19.8125C49.8594 20.401 49.9844 20.9609 50.2344 21.4922C50.4896 22.0234 50.8672 22.4948 51.3672 22.9062C51.8672 23.3125 52.474 23.625 53.1875 23.8438L52.3594 25.2031C51.5833 24.9635 50.9115 24.6042 50.3438 24.125C49.7812 23.6458 49.3411 23.0807 49.0234 22.4297C48.7057 23.1849 48.25 23.8411 47.6562 24.3984C47.0625 24.9557 46.349 25.375 45.5156 25.6562L44.6406 24.2812C45.3802 24.0365 46.0104 23.6875 46.5312 23.2344C47.0521 22.776 47.4453 22.2526 47.7109 21.6641C47.9766 21.0755 48.1094 20.4635 48.1094 19.8281V19.6562H45.125V18.25H52.7969V19.6562H49.8594V19.8125ZM55.9375 20.6562H57.9062V22.0781H55.9375V25.6875H54.2031V17.2656H55.9375V20.6562ZM51.3438 26C52.3125 26 53.151 26.1068 53.8594 26.3203C54.5729 26.5286 55.1198 26.8333 55.5 27.2344C55.8802 27.6354 56.0729 28.1146 56.0781 28.6719C56.0729 29.2344 55.8776 29.7188 55.4922 30.125C55.112 30.5312 54.5677 30.8411 53.8594 31.0547C53.151 31.2682 52.3125 31.375 51.3438 31.375C50.3646 31.375 49.5156 31.2682 48.7969 31.0547C48.0781 30.8411 47.526 30.5312 47.1406 30.125C46.7552 29.7188 46.5625 29.2344 46.5625 28.6719C46.5625 28.1146 46.7552 27.6354 47.1406 27.2344C47.526 26.8333 48.0781 26.5286 48.7969 26.3203C49.5156 26.1068 50.3646 26 51.3438 26ZM51.3438 27.3594C50.3698 27.3594 49.6172 27.4714 49.0859 27.6953C48.5599 27.9193 48.2969 28.2448 48.2969 28.6719C48.2969 29.1094 48.5599 29.4427 49.0859 29.6719C49.6172 29.901 50.3698 30.0156 51.3438 30.0156C52.3177 30.0156 53.0625 29.901 53.5781 29.6719C54.099 29.4427 54.3594 29.1094 54.3594 28.6719C54.3594 28.2448 54.099 27.9193 53.5781 27.6953C53.0625 27.4714 52.3177 27.3594 51.3438 27.3594ZM69.6875 22.8906H71.8594V24.3281H69.6875V31.3906H67.9688V17.2656H69.6875V22.8906ZM66.875 20.8281H58.5469V19.4375H61.8906V17.4688H63.625V19.4375H66.875V20.8281ZM62.7656 21.75C63.4375 21.75 64.0417 21.8932 64.5781 22.1797C65.1198 22.4609 65.5443 22.8542 65.8516 23.3594C66.1589 23.8646 66.3125 24.4375 66.3125 25.0781C66.3125 25.7188 66.1589 26.2917 65.8516 26.7969C65.5443 27.2969 65.1198 27.6875 64.5781 27.9688C64.0417 28.25 63.4375 28.3906 62.7656 28.3906C62.0833 28.3906 61.4714 28.25 60.9297 27.9688C60.388 27.6875 59.9635 27.2969 59.6562 26.7969C59.349 26.2917 59.1979 25.7188 59.2031 25.0781C59.1979 24.4375 59.349 23.8646 59.6562 23.3594C59.9635 22.8542 60.388 22.4609 60.9297 22.1797C61.4714 21.8932 62.0833 21.75 62.7656 21.75ZM62.7656 23.1719C62.3958 23.1719 62.0651 23.25 61.7734 23.4062C61.487 23.5625 61.263 23.7865 61.1016 24.0781C60.9401 24.3646 60.8594 24.6979 60.8594 25.0781C60.8594 25.4583 60.9401 25.7917 61.1016 26.0781C61.263 26.3594 61.487 26.5781 61.7734 26.7344C62.0651 26.8854 62.3958 26.9583 62.7656 26.9531C63.125 26.9583 63.4453 26.8854 63.7266 26.7344C64.013 26.5781 64.237 26.3594 64.3984 26.0781C64.5651 25.7917 64.651 25.4583 64.6562 25.0781C64.651 24.6979 64.5651 24.3646 64.3984 24.0781C64.237 23.7917 64.013 23.5703 63.7266 23.4141C63.4453 23.2526 63.125 23.1719 62.7656 23.1719ZM84.25 31.3906H82.5V17.2656H84.25V31.3906ZM80.0312 18.7656C80.0312 21.0104 79.5234 22.9818 78.5078 24.6797C77.4922 26.3724 75.8073 27.776 73.4531 28.8906L72.5469 27.5C74.3646 26.6354 75.7318 25.6016 76.6484 24.3984C77.5703 23.1901 78.1094 21.7708 78.2656 20.1406H73.2656V18.7656H80.0312Z" fill="white"/>
<defs>
<linearGradient id="paint0_linear_1250_10054" x1="58.5" y1="0" x2="58.5" y2="49" gradientUnits="userSpaceOnUse">
<stop offset="0.125" stop-color="#9747FF"/>
<stop offset="1" stop-color="#5E00BC"/>
</linearGradient>
</defs>
</svg>
