<svg width="1920" height="600" viewBox="0 0 1920 600" fill="none" xmlns="http://www.w3.org/2000/svg">
<rect width="1920" height="600" fill="#1A1A30"/>
<path d="M324.211 382.312C323.801 380.359 322.121 379.305 320.266 379.305C317.707 379.305 315.715 381.277 315.715 384.93C315.715 388.582 317.707 390.555 320.266 390.555C322.121 390.555 323.781 389.5 324.211 387.566H325.969C325.461 390.457 323.137 392.195 320.266 392.195C316.633 392.195 314.016 389.402 314.016 384.93C314.016 380.457 316.633 377.664 320.266 377.664C323.117 377.664 325.441 379.383 325.969 382.312H324.211ZM340.383 384.93C340.383 389.402 337.746 392.195 334.133 392.195C330.5 392.195 327.883 389.402 327.883 384.93C327.883 380.457 330.5 377.664 334.133 377.664C337.746 377.664 340.383 380.457 340.383 384.93ZM338.684 384.93C338.684 381.277 336.691 379.305 334.133 379.305C331.574 379.305 329.582 381.277 329.582 384.93C329.582 388.582 331.574 390.555 334.133 390.555C336.691 390.555 338.684 388.582 338.684 384.93ZM347.355 392H342.961V377.859H347.531C351.652 377.859 354.094 380.516 354.094 384.91C354.094 389.324 351.652 392 347.355 392ZM344.719 390.438H347.238C350.715 390.438 352.375 388.348 352.375 384.91C352.375 381.492 350.715 379.422 347.414 379.422H344.719V390.438ZM356.672 392V377.859H365.246V379.422H358.43V384.148H364.797V385.691H358.43V390.438H365.344V392H356.672ZM368.02 392V377.859H372.824C376.145 377.859 377.648 379.832 377.648 382.352C377.648 384.852 376.145 386.863 372.844 386.863H369.777V392H368.02ZM369.777 385.301H372.766C375.012 385.301 375.91 384.031 375.91 382.352C375.91 380.652 375.012 379.422 372.746 379.422H369.777V385.301ZM380.109 392V377.859H381.867V390.438H388.43V392H380.109ZM392.258 392H390.422L395.598 377.859H397.453L402.629 392H400.773L399.367 388.016H393.684L392.258 392ZM394.211 386.473H398.82L396.574 380.145H396.457L394.211 386.473ZM401.887 377.859H403.898L407.785 384.422H407.961L411.848 377.859H413.879L408.762 386.199V392H406.984V386.199L401.887 377.859ZM428.957 381.492V382.723H417.062V376.863H418.586V381.492H428.957ZM430.793 385.086V386.336H414.895V385.086H430.793ZM429.055 391.883V393.152H416.965V388.113H418.488V391.883H429.055ZM438.703 392H436.867L442.043 377.859H443.898L449.074 392H447.219L445.812 388.016H440.129L438.703 392ZM440.656 386.473H445.266L443.02 380.145H442.902L440.656 386.473ZM452.746 377.859V392H450.988V377.859H452.746ZM474.387 376.219V393.582H472.844V376.219H474.387ZM469.25 378.113C469.23 383.113 466.906 387.527 461.086 390.32L460.246 389.07C464.943 386.844 467.336 383.514 467.688 379.363H461.047V378.113H469.25ZM490.891 376.238V381.492H493.508V382.781H490.891V388.992H489.367V376.238H490.891ZM491.691 391.922V393.211H480.031V387.742H481.535V391.922H491.691ZM479.562 377.488V380.418H484.621V377.488H486.145V386.062H478.059V377.488H479.562ZM479.562 384.812H484.621V381.629H479.562V384.812ZM500.285 377.488C503.02 377.488 504.953 379.148 504.953 381.57C504.953 383.992 503.02 385.652 500.285 385.652C497.551 385.652 495.578 383.992 495.598 381.57C495.578 379.148 497.551 377.488 500.285 377.488ZM500.285 378.836C498.43 378.836 497.082 379.949 497.102 381.57C497.082 383.191 498.43 384.305 500.285 384.305C502.121 384.305 503.449 383.191 503.449 381.57C503.449 379.949 502.121 378.836 500.285 378.836ZM508.84 376.219V393.621H507.316V376.219H508.84ZM494.699 388.484C497.902 388.484 502.316 388.465 506.164 387.898L506.281 389.031C502.316 389.773 498.039 389.793 494.914 389.793L494.699 388.484ZM532.785 386.316V387.586H525.539V393.582H524.035V387.586H516.887V386.316H532.785ZM530.715 377.195V383.953H518.938V377.195H530.715ZM520.441 378.445V382.742H529.191V378.445H520.441ZM550.09 390.145V391.434H534.191V390.145H538.664V386.844H536.184V381.492H546.574V378.777H536.145V377.508H548.078V382.762H537.707V385.574H548.488V386.844H545.773V390.145H550.09ZM540.168 390.145H544.27V386.844H540.168V390.145ZM572.316 385.477V386.746H556.496V385.477H563.645V383.66C560.314 383.494 558.254 382.234 558.254 380.184C558.254 378.055 560.637 376.746 564.406 376.746C568.137 376.746 570.539 378.055 570.539 380.184C570.539 382.234 568.459 383.494 565.168 383.66V385.477H572.316ZM570.559 391.922V393.211H558.547V388.152H560.09V391.922H570.559ZM564.406 377.996C561.613 377.996 559.816 378.855 559.836 380.184C559.816 381.59 561.613 382.41 564.406 382.41C567.18 382.41 568.977 381.59 568.977 380.184C568.977 378.855 567.18 377.996 564.406 377.996ZM587.219 376.219V383.133H590.129V384.422H587.219V393.621H585.695V376.219H587.219ZM582.355 377.84V384.051H576.027V388.113C579.25 388.113 581.496 388.006 584.133 387.508L584.289 388.777C581.555 389.285 579.23 389.402 575.891 389.422H574.504V382.781H580.832V379.109H574.465V377.84H582.355ZM605.402 376.238V388.934H603.879V376.238H605.402ZM605.949 391.922V393.211H594.191V387.645H595.715V391.922H605.949ZM596.027 377.449C598.625 377.449 600.578 379.207 600.578 381.707C600.578 384.246 598.625 385.984 596.027 385.984C593.43 385.984 591.477 384.246 591.477 381.707C591.477 379.207 593.43 377.449 596.027 377.449ZM596.027 378.797C594.27 378.797 592.961 380.008 592.98 381.707C592.961 383.445 594.27 384.637 596.027 384.637C597.746 384.637 599.074 383.445 599.074 381.707C599.074 380.008 597.746 378.797 596.027 378.797ZM621.281 376.609C625.051 376.609 627.414 377.82 627.414 379.91C627.414 381.961 625.051 383.152 621.281 383.152C617.512 383.152 615.129 381.961 615.129 379.91C615.129 377.82 617.512 376.609 621.281 376.609ZM621.281 377.84C618.469 377.84 616.691 378.621 616.711 379.91C616.691 381.18 618.469 381.922 621.281 381.941C624.055 381.922 625.852 381.18 625.852 379.91C625.852 378.621 624.055 377.84 621.281 377.84ZM627.258 387.645V393.348H615.305V387.645H627.258ZM616.828 388.875V392.098H625.754V388.875H616.828ZM629.191 384.656V385.926H613.371V384.656H629.191ZM635.539 377.273C638.176 377.254 640.09 378.953 640.109 381.355C640.09 383.797 638.176 385.477 635.539 385.477C632.902 385.477 630.969 383.797 630.988 381.355C630.969 378.953 632.902 377.254 635.539 377.273ZM635.539 378.582C633.781 378.582 632.473 379.715 632.492 381.355C632.473 383.016 633.781 384.168 635.539 384.148C637.316 384.168 638.605 383.016 638.605 381.355C638.605 379.715 637.316 378.582 635.539 378.582ZM644.23 376.219V380.711H646.848V382H644.23V386.453H642.707V376.219H644.23ZM644.23 387.352V393.621H642.707V388.602H632.863V387.352H644.23ZM663.82 385.418V386.668H656.75V390.066H655.227V386.668H647.922V385.418H663.82ZM662.043 391.922V393.211H649.953V388.465H651.477V391.922H662.043ZM651.574 376.785V379.012H660.168V376.785H661.691V383.719H650.051V376.785H651.574ZM651.574 382.469H660.168V380.184H651.574V382.469ZM671.145 379.012C671.145 381.414 672.922 383.621 675.441 384.48L674.602 385.711C672.668 384.998 671.164 383.514 670.422 381.668C669.689 383.719 668.127 385.32 666.086 386.121L665.246 384.852C667.883 383.914 669.621 381.629 669.641 378.953V377.117H671.145V379.012ZM679.621 387.449V393.582H678.078V388.68H667.941V387.449H679.621ZM679.621 376.219V386.492H678.078V381.16H674.211V379.871H678.078V376.219H679.621ZM693.645 380.887C693.645 384.031 695.656 387.195 698.176 388.348L697.258 389.598C695.285 388.582 693.654 386.502 692.883 384.031C692.111 386.629 690.48 388.855 688.508 389.91L687.512 388.68C690.051 387.43 692.082 384.09 692.082 380.887V377.723H693.645V380.887ZM701.926 376.219V393.621H700.402V383.406H696.281V382.156H700.402V376.219H701.926ZM719.133 376.219V393.621H717.59V376.219H719.133ZM707.355 377.703V382.293H712.531V377.703H714.035V389.422H705.832V377.703H707.355ZM707.355 388.133H712.531V383.523H707.355V388.133ZM730.754 378.777C730.754 381.746 734.152 384.402 737.18 384.969L736.477 386.258C733.859 385.652 731.096 383.787 729.973 381.219C728.85 383.777 726.096 385.643 723.469 386.258L722.766 384.969C725.773 384.383 729.152 381.766 729.152 378.777V377.449H730.754V378.777ZM738 389.949V391.219H722.102V389.949H738ZM753.723 376.219V385.535H752.199V376.219H753.723ZM743.996 386.414V388.523H752.199V386.414H753.723V393.348H742.473V386.414H743.996ZM743.996 392.098H752.199V389.754H743.996V392.098ZM744.348 377.078C746.984 377.059 748.898 378.68 748.898 381.062C748.898 383.426 746.984 385.047 744.348 385.047C741.711 385.047 739.797 383.426 739.797 381.062C739.797 378.68 741.711 377.059 744.348 377.078ZM744.348 378.367C742.57 378.348 741.281 379.48 741.301 381.062C741.281 382.645 742.57 383.777 744.348 383.777C746.105 383.777 747.395 382.645 747.395 381.062C747.395 379.48 746.105 378.348 744.348 378.367ZM770.988 376.219V393.582H769.465V376.219H770.988ZM759.309 377.938V387.781C761.955 387.771 764.699 387.557 767.609 386.941L767.824 388.25C764.738 388.895 761.984 389.109 759.211 389.109H757.805V377.938H759.309ZM787.395 376.219V383.094H790.305V384.383H787.395V393.621H785.871V376.219H787.395ZM782.824 377.918V379.188H776.242V387.977C779.387 387.977 781.613 387.83 784.191 387.352L784.387 388.68C781.672 389.168 779.387 389.266 776.086 389.266H774.719V377.918H782.824ZM793.078 392.117C792.395 392.117 791.809 391.551 791.828 390.848C791.809 390.164 792.395 389.598 793.078 389.598C793.762 389.598 794.328 390.164 794.328 390.848C794.328 391.551 793.762 392.117 793.078 392.117ZM806.086 377.039C808.42 377.02 810.188 378.377 810.52 380.379H814.152V376.219H815.695V385.535H814.152V381.648H810.539C810.227 383.699 808.439 385.066 806.086 385.066C803.449 385.066 801.574 383.426 801.574 381.043C801.574 378.68 803.449 377.02 806.086 377.039ZM806.086 378.348C804.309 378.328 803.039 379.441 803.039 381.043C803.039 382.625 804.309 383.777 806.086 383.777C807.844 383.777 809.094 382.625 809.094 381.043C809.094 379.441 807.844 378.328 806.086 378.348ZM806.047 386.414V388.621H814.152V386.414H815.695V393.348H804.504V386.414H806.047ZM806.047 392.098H814.152V389.852H806.047V392.098ZM834.484 390.145V391.434H818.586V390.145H825.734V386.863H820.578V381.512H830.969V378.777H820.539V377.508H832.473V382.762H822.102V385.594H832.883V386.863H827.238V390.145H834.484ZM849.895 384.578V385.848H837.902V377.84H849.719V379.109H839.426V384.578H849.895ZM851.77 389.93V391.219H835.871V389.93H851.77ZM866.73 376.238V381.961H869.348V383.25H866.73V389.246H865.207V376.238H866.73ZM863.547 378.367V379.617H853.195V378.367H857.609V376.238H859.133V378.367H863.547ZM858.371 380.574C860.852 380.574 862.531 381.844 862.551 383.816C862.531 385.77 860.852 387.02 858.371 387.02C855.871 387.02 854.172 385.77 854.191 383.816C854.172 381.844 855.871 380.574 858.371 380.574ZM858.371 381.785C856.73 381.785 855.637 382.586 855.656 383.816C855.637 385.047 856.73 385.828 858.371 385.809C859.992 385.828 861.086 385.047 861.105 383.816C861.086 382.586 859.992 381.785 858.371 381.785ZM867.531 391.922V393.211H855.871V388.211H857.375V391.922H867.531ZM883.371 376.609C887.141 376.609 889.504 377.82 889.504 379.91C889.504 381.961 887.141 383.152 883.371 383.152C879.602 383.152 877.219 381.961 877.219 379.91C877.219 377.82 879.602 376.609 883.371 376.609ZM883.371 377.84C880.559 377.84 878.781 378.621 878.801 379.91C878.781 381.18 880.559 381.922 883.371 381.941C886.145 381.922 887.941 381.18 887.941 379.91C887.941 378.621 886.145 377.84 883.371 377.84ZM889.348 387.645V393.348H877.395V387.645H889.348ZM878.918 388.875V392.098H887.844V388.875H878.918ZM891.281 384.656V385.926H875.461V384.656H891.281ZM907.062 376.238V389.422H905.52V387.625H901.926V386.512H905.52V376.238H907.062ZM907.492 391.922V393.211H895.148V388.133H896.691V391.922H907.492ZM892.648 384.285C895.891 384.266 900.227 384.246 903.957 383.777L904.055 384.891C902.502 385.135 900.881 385.291 899.289 385.379V388.816H897.746V385.457C895.988 385.535 894.318 385.545 892.863 385.535L892.648 384.285ZM898.352 376.941C900.891 376.941 902.629 378.152 902.648 379.969C902.629 381.824 900.891 382.977 898.352 382.977C895.793 382.977 894.055 381.824 894.055 379.969C894.055 378.152 895.793 376.941 898.352 376.941ZM898.352 378.113C896.652 378.094 895.5 378.855 895.52 379.969C895.5 381.102 896.652 381.844 898.352 381.844C899.992 381.844 901.164 381.102 901.184 379.969C901.164 378.855 899.992 378.094 898.352 378.113ZM917.941 376.531C921.809 376.531 924.074 377.586 924.074 379.52C924.074 381.492 921.809 382.547 917.941 382.566C914.074 382.547 911.789 381.492 911.789 379.52C911.789 377.586 914.074 376.531 917.941 376.531ZM917.941 377.684C915.051 377.684 913.371 378.387 913.391 379.52C913.371 380.73 915.051 381.395 917.941 381.395C920.812 381.395 922.512 380.73 922.512 379.52C922.512 378.387 920.812 377.684 917.941 377.684ZM925.852 383.738V384.988H910.031V383.738H925.852ZM923.82 386.492V390.379H913.508V392.176H924.348V393.387H911.984V389.246H922.316V387.664H911.945V386.492H923.82ZM948.215 385.418V386.668H941.145V390.066H939.621V386.668H932.316V385.418H948.215ZM946.438 391.922V393.211H934.348V388.465H935.871V391.922H946.438ZM935.969 376.785V379.012H944.562V376.785H946.086V383.719H934.445V376.785H935.969ZM935.969 382.469H944.562V380.184H935.969V382.469ZM955.539 379.012C955.539 381.414 957.316 383.621 959.836 384.48L958.996 385.711C957.062 384.998 955.559 383.514 954.816 381.668C954.084 383.719 952.521 385.32 950.48 386.121L949.641 384.852C952.277 383.914 954.016 381.629 954.035 378.953V377.117H955.539V379.012ZM964.016 387.449V393.582H962.473V388.68H952.336V387.449H964.016ZM964.016 376.219V386.492H962.473V381.16H958.605V379.871H962.473V376.219H964.016ZM980.48 376.16V380.379H983.117V381.648H980.48V385.77H978.957V376.16H980.48ZM980.48 386.668V390.516H970.949V392.215H981.125V393.387H969.445V389.383H978.957V387.82H969.406V386.668H980.48ZM977.297 377.801V379.031H966.945V377.801H971.359V376.043H972.883V377.801H977.297ZM972.121 379.812C974.641 379.812 976.281 380.906 976.301 382.664C976.281 384.422 974.641 385.516 972.121 385.516C969.582 385.516 967.922 384.422 967.941 382.664C967.922 380.906 969.582 379.812 972.121 379.812ZM972.121 380.945C970.48 380.945 969.387 381.629 969.406 382.664C969.387 383.719 970.48 384.363 972.121 384.363C973.762 384.363 974.836 383.719 974.855 382.664C974.836 381.629 973.762 380.945 972.121 380.945ZM997.922 377.84C997.922 380.281 1001.12 382.41 1004.25 382.84L1003.62 384.09C1000.93 383.641 998.264 382.146 997.141 380.008C996.027 382.156 993.352 383.641 990.656 384.09L990.031 382.84C993.156 382.41 996.34 380.32 996.34 377.84V376.844H997.922V377.84ZM1005.03 386.004V387.293H997.844V393.582H996.34V387.293H989.211V386.004H1005.03ZM1020.52 384.363V385.613H1015.15V390.105H1022.39V391.395H1006.5V390.105H1013.64V385.613H1008.53V377.645H1020.34V378.895H1010.07V384.363H1020.52ZM1034.68 387.879C1034.68 389.412 1035.5 391.043 1037.16 391.98C1038.8 390.955 1039.68 389.227 1039.68 387.879V386.922H1041.18V387.879C1041.18 389.656 1042.49 391.453 1044.72 392.215L1043.96 393.348C1042.22 392.732 1041 391.521 1040.4 390.066C1039.87 391.473 1038.8 392.801 1037.2 393.484C1035.51 392.84 1034.44 391.561 1033.92 390.105C1033.3 391.512 1032.1 392.723 1030.44 393.348L1029.66 392.215C1031.85 391.395 1033.18 389.539 1033.2 387.879V386.922H1034.68V387.879ZM1043.14 376.238V386.16H1041.61V376.238H1043.14ZM1033.76 377.254C1036.4 377.254 1038.31 378.895 1038.31 381.316C1038.31 383.699 1036.4 385.34 1033.76 385.34C1031.12 385.34 1029.21 383.699 1029.21 381.316C1029.21 378.895 1031.12 377.254 1033.76 377.254ZM1033.76 378.562C1031.98 378.543 1030.7 379.695 1030.71 381.316C1030.7 382.918 1031.98 384.051 1033.76 384.07C1035.52 384.051 1036.81 382.918 1036.81 381.316C1036.81 379.695 1035.52 378.543 1033.76 378.562ZM1060.01 377.977V379.715C1059.99 381.844 1059.99 384.227 1059.37 387.723L1057.8 387.547C1058.47 384.227 1058.47 381.785 1058.47 379.715V379.246H1047.77V377.977H1060.01ZM1061.91 389.852V391.121H1046.09V389.852H1052.3V383.641H1053.8V389.852H1061.91ZM1066.22 390.691L1064.7 396.004H1063.25L1064.33 390.691H1066.22ZM1087.82 376.238V389.422H1086.28V387.625H1082.69V386.512H1086.28V376.238H1087.82ZM1088.25 391.922V393.211H1075.91V388.133H1077.45V391.922H1088.25ZM1073.41 384.285C1076.65 384.266 1080.99 384.246 1084.72 383.777L1084.82 384.891C1083.26 385.135 1081.64 385.291 1080.05 385.379V388.816H1078.51V385.457C1076.75 385.535 1075.08 385.545 1073.62 385.535L1073.41 384.285ZM1079.11 376.941C1081.65 376.941 1083.39 378.152 1083.41 379.969C1083.39 381.824 1081.65 382.977 1079.11 382.977C1076.55 382.977 1074.82 381.824 1074.82 379.969C1074.82 378.152 1076.55 376.941 1079.11 376.941ZM1079.11 378.113C1077.41 378.094 1076.26 378.855 1076.28 379.969C1076.26 381.102 1077.41 381.844 1079.11 381.844C1080.75 381.844 1081.93 381.102 1081.95 379.969C1081.93 378.855 1080.75 378.094 1079.11 378.113ZM1106.61 384.48V385.75H1090.81V384.48H1097.36V380.965H1098.86V384.48H1106.61ZM1104.6 387.742V393.582H1103.04V389.012H1092.49V387.742H1104.6ZM1104.6 377.176V378.484C1104.6 379.812 1104.6 381.316 1104.17 383.289L1102.63 383.133C1103.08 381.18 1103.08 379.793 1103.08 378.484V378.426H1092.69V377.176H1104.6ZM328.586 406.219V423.582H327.102V406.219H328.586ZM325.09 406.59V422.703H323.625V414.266H321.398C321.232 417.645 319.797 419.754 317.648 419.754C315.383 419.754 313.918 417.41 313.918 413.719C313.918 410.027 315.383 407.684 317.648 407.684C319.758 407.684 321.184 409.725 321.379 412.996H323.625V406.59H325.09ZM317.648 409.129C316.242 409.129 315.344 410.887 315.363 413.719C315.344 416.531 316.242 418.309 317.648 418.289C319.055 418.309 319.953 416.531 319.953 413.719C319.953 410.887 319.055 409.129 317.648 409.129ZM337.102 410.887C337.102 414.031 339.113 417.195 341.633 418.348L340.715 419.598C338.742 418.582 337.111 416.502 336.34 414.031C335.568 416.629 333.938 418.855 331.965 419.91L330.969 418.68C333.508 417.43 335.539 414.09 335.539 410.887V407.723H337.102V410.887ZM345.383 406.219V423.621H343.859V413.406H339.738V412.156H343.859V406.219H345.383ZM358.176 407.273C360.812 407.254 362.727 408.953 362.746 411.355C362.727 413.797 360.812 415.477 358.176 415.477C355.539 415.477 353.605 413.797 353.625 411.355C353.605 408.953 355.539 407.254 358.176 407.273ZM358.176 408.582C356.418 408.582 355.109 409.715 355.129 411.355C355.109 413.016 356.418 414.168 358.176 414.148C359.953 414.168 361.242 413.016 361.242 411.355C361.242 409.715 359.953 408.582 358.176 408.582ZM366.867 406.219V410.711H369.484V412H366.867V416.453H365.344V406.219H366.867ZM366.867 417.352V423.621H365.344V418.602H355.5V417.352H366.867ZM384.934 406.219V423.582H383.391V406.219H384.934ZM379.797 408.113C379.777 413.113 377.453 417.527 371.633 420.32L370.793 419.07C375.49 416.844 377.883 413.514 378.234 409.363H371.594V408.113H379.797ZM390.715 420.691L389.191 426.004H387.746L388.82 420.691H390.715ZM413.898 420.086V421.355H398V420.086H405.148V416.336H399.875V407.449H401.418V410.594H410.441V407.449H411.945V416.336H406.652V420.086H413.898ZM401.418 415.086H410.441V411.844H401.418V415.086ZM424.27 407.078C424.27 411.434 421.75 414.363 416.359 415.789L415.793 414.578C418.693 413.846 420.588 412.664 421.633 411.16L415.969 411.57L415.715 410.34L422.238 410.047C422.463 409.5 422.6 408.914 422.648 408.309H416.594V407.078H424.27ZM429.68 406.219V415.223H428.137V411.688H424.328V410.418H428.137V406.219H429.68ZM429.68 416.004V420.164H419.973V422.117H430.266V423.348H418.469V419.012H428.156V417.234H418.43V416.004H429.68ZM440.48 406.531C444.348 406.531 446.613 407.586 446.613 409.52C446.613 411.492 444.348 412.547 440.48 412.566C436.613 412.547 434.328 411.492 434.328 409.52C434.328 407.586 436.613 406.531 440.48 406.531ZM440.48 407.684C437.59 407.684 435.91 408.387 435.93 409.52C435.91 410.73 437.59 411.395 440.48 411.395C443.352 411.395 445.051 410.73 445.051 409.52C445.051 408.387 443.352 407.684 440.48 407.684ZM448.391 413.738V414.988H432.57V413.738H448.391ZM446.359 416.492V420.379H436.047V422.176H446.887V423.387H434.523V419.246H444.855V417.664H434.484V416.492H446.359ZM468.938 421.922V423.211H456.926V418.211H458.469V421.922H468.938ZM470.754 415.535V416.824H454.875V415.535H462.023V412.586H463.527V415.535H470.754ZM463.547 407.469C463.547 409.93 466.594 412.02 469.641 412.508L469.035 413.719C466.428 413.211 463.859 411.736 462.785 409.637C461.711 411.746 459.162 413.23 456.535 413.719L455.91 412.508C458.957 412 462.004 409.91 462.004 407.469V406.688H463.547V407.469ZM477.961 409.031C477.961 411.395 479.758 413.562 482.277 414.422L481.438 415.633C479.514 414.93 478 413.494 477.238 411.688C476.496 413.729 474.953 415.34 472.922 416.121L472.102 414.891C474.699 413.914 476.438 411.59 476.457 408.914V407.117H477.961V409.031ZM485.734 406.219V410.75H488.352V412.039H485.734V416.785H484.211V406.219H485.734ZM480.168 417.234C483.742 417.234 485.891 418.387 485.891 420.379C485.891 422.41 483.742 423.543 480.168 423.543C476.594 423.543 474.406 422.41 474.406 420.379C474.406 418.387 476.594 417.234 480.168 417.234ZM480.168 418.465C477.551 418.465 475.93 419.188 475.949 420.379C475.93 421.609 477.551 422.312 480.168 422.332C482.805 422.312 484.406 421.609 484.406 420.379C484.406 419.188 482.805 418.465 480.168 418.465ZM492.902 416.414V418.582H496.066V416.414H497.492V423.348H491.457V416.414H492.902ZM492.902 422.137H496.066V419.754H492.902V422.137ZM502.453 417.781C502.434 419.617 503.527 421.531 505.656 422.312L504.855 423.484C503.254 422.84 502.199 421.619 501.672 420.164C501.115 421.59 500.061 422.82 498.527 423.484L497.727 422.312C499.816 421.453 500.93 419.539 500.93 417.781V416.297H502.453V417.781ZM494.23 407C496.555 407 498.332 408.318 498.664 410.32H502.297V406.219H503.84V415.418H502.297V411.59H498.684C498.371 413.641 496.584 414.988 494.23 414.988C491.594 414.988 489.719 413.367 489.719 410.984C489.719 408.621 491.594 407 494.23 407ZM494.23 408.289C492.453 408.289 491.184 409.402 491.184 410.984C491.184 412.586 492.453 413.719 494.23 413.719C495.988 413.719 497.238 412.586 497.238 410.984C497.238 409.402 495.988 408.289 494.23 408.289ZM521.047 406.219V423.621H519.504V406.219H521.047ZM511.809 407.566C514.387 407.586 516.242 409.93 516.242 413.621C516.242 417.312 514.387 419.656 511.809 419.656C509.211 419.656 507.375 417.312 507.375 413.621C507.375 409.93 509.211 407.586 511.809 407.566ZM511.809 408.934C510.07 408.953 508.859 410.789 508.859 413.621C508.859 416.453 510.07 418.289 511.809 418.289C513.547 418.289 514.758 416.453 514.758 413.621C514.758 410.789 513.547 408.953 511.809 408.934ZM544.914 415.418V416.668H537.844V420.066H536.32V416.668H529.016V415.418H544.914ZM543.137 421.922V423.211H531.047V418.465H532.57V421.922H543.137ZM532.668 406.785V409.012H541.262V406.785H542.785V413.719H531.145V406.785H532.668ZM532.668 412.469H541.262V410.184H532.668V412.469ZM560.656 406.219V423.621H559.133V406.219H560.656ZM555.383 407.84V414.012H548.898V418.113C551.779 418.113 554.348 417.986 557.453 417.488L557.609 418.777C554.406 419.285 551.77 419.402 548.781 419.402H547.336V412.762H553.84V409.109H547.297V407.84H555.383ZM566.457 420.691L564.934 426.004H563.488L564.562 420.691H566.457ZM589.562 416.727V418.016H582.395V423.621H580.891V418.016H573.742V416.727H589.562ZM582.414 409.656C582.414 411.824 585.441 413.719 588.547 414.148L587.98 415.379C585.295 414.969 582.766 413.621 581.672 411.727C580.559 413.641 577.99 414.969 575.305 415.379L574.738 414.148C577.824 413.719 580.891 411.844 580.891 409.656V409.637H575.285V408.387H580.891V406.219H582.395V408.387H588.039V409.637H582.414V409.656ZM606.848 413.953V415.145H599.68V416.766H604.816V420.516H594.504V422.215H605.344V423.387H592.98V419.422H603.312V417.918H592.941V416.766H598.176V415.145H591.047V413.953H606.848ZM599.68 406.121V407.742H605.246V408.953H599.797C600.08 410.682 602.795 411.775 605.988 411.98L605.52 413.152C602.619 412.908 600.002 412.01 598.938 410.359C597.873 412.01 595.256 412.908 592.336 413.152L591.887 411.98C595.061 411.775 597.775 410.682 598.078 408.953H592.668V407.742H598.176V406.121H599.68ZM621.887 406.16V410.379H624.523V411.648H621.887V415.77H620.363V406.16H621.887ZM621.887 416.668V420.516H612.355V422.215H622.531V423.387H610.852V419.383H620.363V417.82H610.812V416.668H621.887ZM618.703 407.801V409.031H608.352V407.801H612.766V406.043H614.289V407.801H618.703ZM613.527 409.812C616.047 409.812 617.688 410.906 617.707 412.664C617.688 414.422 616.047 415.516 613.527 415.516C610.988 415.516 609.328 414.422 609.348 412.664C609.328 410.906 610.988 409.812 613.527 409.812ZM613.527 410.945C611.887 410.945 610.793 411.629 610.812 412.664C610.793 413.719 611.887 414.363 613.527 414.363C615.168 414.363 616.242 413.719 616.262 412.664C616.242 411.629 615.168 410.945 613.527 410.945ZM639.328 407.84C639.328 410.281 642.531 412.41 645.656 412.84L645.031 414.09C642.336 413.641 639.67 412.146 638.547 410.008C637.434 412.156 634.758 413.641 632.062 414.09L631.438 412.84C634.562 412.41 637.746 410.32 637.746 407.84V406.844H639.328V407.84ZM646.438 416.004V417.293H639.25V423.582H637.746V417.293H630.617V416.004H646.438ZM658.801 417.879C658.801 419.412 659.621 421.043 661.281 421.98C662.922 420.955 663.801 419.227 663.801 417.879V416.922H665.305V417.879C665.305 419.656 666.613 421.453 668.84 422.215L668.078 423.348C666.34 422.732 665.119 421.521 664.523 420.066C663.986 421.473 662.922 422.801 661.32 423.484C659.631 422.84 658.557 421.561 658.039 420.105C657.424 421.512 656.223 422.723 654.562 423.348L653.781 422.215C655.969 421.395 657.297 419.539 657.316 417.879V416.922H658.801V417.879ZM667.258 406.238V416.16H665.734V406.238H667.258ZM657.883 407.254C660.52 407.254 662.434 408.895 662.434 411.316C662.434 413.699 660.52 415.34 657.883 415.34C655.246 415.34 653.332 413.699 653.332 411.316C653.332 408.895 655.246 407.254 657.883 407.254ZM657.883 408.562C656.105 408.543 654.816 409.695 654.836 411.316C654.816 412.918 656.105 414.051 657.883 414.07C659.641 414.051 660.93 412.918 660.93 411.316C660.93 409.695 659.641 408.543 657.883 408.562ZM673.742 416.648V418.68H682.414V416.648H683.957V423.348H672.219V416.648H673.742ZM673.742 422.117H682.414V419.891H673.742V422.117ZM686.027 414.148V415.418H670.207V414.148H686.027ZM678.918 407.234C678.918 409.383 682.082 411.297 685.129 411.688L684.562 412.918C681.867 412.518 679.23 411.141 678.137 409.188C677.023 411.15 674.367 412.518 671.691 412.918L671.105 411.688C674.191 411.277 677.336 409.441 677.336 407.234V406.414H678.918V407.234ZM701.809 406.219V423.582H700.285V406.219H701.809ZM690.129 407.938V417.781C692.775 417.771 695.52 417.557 698.43 416.941L698.645 418.25C695.559 418.895 692.805 419.109 690.031 419.109H688.625V407.938H690.129ZM718.215 406.219V413.094H721.125V414.383H718.215V423.621H716.691V406.219H718.215ZM713.645 407.918V409.188H707.062V417.977C710.207 417.977 712.434 417.83 715.012 417.352L715.207 418.68C712.492 419.168 710.207 419.266 706.906 419.266H705.539V407.918H713.645ZM723.898 422.117C723.215 422.117 722.629 421.551 722.648 420.848C722.629 420.164 723.215 419.598 723.898 419.598C724.582 419.598 725.148 420.164 725.148 420.848C725.148 421.551 724.582 422.117 723.898 422.117Z" fill="#F9F9F9"/>
<path d="M546.555 247.984V251.695H514.016V247.984H546.555ZM542.648 253.453V261.852H522.727V263.883H543.703V267.281H517.766V258.688H537.727V256.891H517.727V253.453H542.648ZM542.609 232.672V241.031H523.039V242.945H543.234V246.305H518.078V237.867H537.609V236.07H518V232.672H542.609ZM569.445 233.531C574.875 233.492 578.82 236.578 578.82 241.07C578.82 245.523 574.875 248.648 569.445 248.609C564.016 248.648 560.07 245.523 560.109 241.07C560.07 236.578 564.016 233.492 569.445 233.531ZM569.445 237.516C566.789 237.516 564.914 238.805 564.914 241.07C564.914 243.297 566.789 244.586 569.445 244.547C572.18 244.586 574.094 243.297 574.094 241.07C574.094 238.805 572.18 237.516 569.445 237.516ZM587.805 232.086V267.594H582.883V232.086H587.805ZM557.922 250.797C564.211 250.797 573.156 250.641 580.734 249.508L581.047 253.18C578.117 253.766 575.109 254.137 572.141 254.352V266.539H567.18V254.664C564.055 254.801 561.105 254.82 558.547 254.859L557.922 250.797ZM620.617 232.086V242.984H625.422V247.047H620.617V258.609H615.617V232.086H620.617ZM613.508 235.797V239.742H592.414V235.797H600.5V232.008H605.461V235.797H613.508ZM602.961 240.992C608.117 240.992 611.711 243.766 611.711 247.867C611.711 251.969 608.117 254.664 602.961 254.664C597.766 254.664 594.133 251.969 594.133 247.867C594.133 243.766 597.766 240.992 602.961 240.992ZM602.961 244.781C600.578 244.82 598.977 245.914 599.016 247.867C598.977 249.82 600.578 250.875 602.961 250.875C605.344 250.875 606.984 249.82 606.984 247.867C606.984 245.914 605.344 244.82 602.961 244.781ZM621.906 262.984V266.969H597.57V256.578H602.531V262.984H621.906Z" fill="white"/>
<path d="M330.266 292.711C338.156 292.711 343.156 295.328 343.195 299.664C343.156 303.961 338.156 306.578 330.266 306.539C322.414 306.578 317.297 303.961 317.297 299.664C317.297 295.328 322.414 292.711 330.266 292.711ZM330.266 296.578C325.305 296.578 322.453 297.633 322.492 299.664C322.453 301.656 325.305 302.672 330.266 302.672C335.188 302.672 338.039 301.656 338.039 299.664C338.039 297.633 335.188 296.578 330.266 296.578ZM342.609 315.094V327.203H317.805V315.094H342.609ZM322.727 319.039V323.219H337.727V319.039H322.727ZM346.477 308.609V312.594H314.055V308.609H346.477ZM358.625 294C364.133 293.961 368.312 297.633 368.312 302.633C368.312 307.75 364.133 311.344 358.625 311.344C353.078 311.344 348.859 307.75 348.859 302.633C348.859 297.633 353.078 293.961 358.625 294ZM358.625 298.258C355.812 298.258 353.742 299.859 353.781 302.633C353.742 305.484 355.812 307.125 358.625 307.125C361.359 307.125 363.43 305.484 363.469 302.633C363.43 299.859 361.359 298.258 358.625 298.258ZM376.828 292.047V300.406H381.633V304.469H376.828V312.828H371.828V292.047H376.828ZM376.828 314.312V327.633H371.828V318.336H352.883V314.312H376.828ZM424.914 310.289V314.195H411.516V319.938H406.594V314.195H392.375V310.289H424.914ZM421.32 322.984V326.969H396.203V317.125H401.125V322.984H421.32ZM401.477 293.18V296.891H415.734V293.18H420.695V307.789H396.555V293.18H401.477ZM401.477 303.844H415.734V300.602H401.477V303.844ZM440.305 297.594C440.266 302.008 442.766 306.305 448.391 308.102L445.734 312.047C441.906 310.758 439.309 308.199 437.805 304.977C436.223 308.492 433.469 311.246 429.445 312.672L426.75 308.688C432.688 306.773 435.227 302.125 435.266 297.281V293.883H440.305V297.594ZM456.945 314.82V327.594H451.984V318.766H432.531V314.82H456.945ZM456.945 292.047V313.219H451.984V302.75H445.305V298.648H451.984V292.047H456.945ZM501.75 292.047V313.922H496.984V292.047H501.75ZM494.875 292.633V313.883H490.188V312.672H484.836V309.352H490.188V292.633H494.875ZM470.539 305.211C475.188 305.211 482.961 305.094 488.664 304.234L489.016 307.555C486.965 308.004 484.719 308.316 482.453 308.531V313.727H477.688V308.805C475.188 308.902 472.863 308.922 471.008 308.922L470.539 305.211ZM481.281 315.055V317.438H496.789V315.055H501.75V327.203H476.359V315.055H481.281ZM481.281 323.375H496.789V321.227H481.281V323.375ZM479.836 293.258C484.484 293.258 487.688 295.289 487.688 298.57C487.688 301.812 484.484 303.883 479.836 303.922C475.188 303.883 472.023 301.812 472.023 298.57C472.023 295.289 475.188 293.258 479.836 293.258ZM479.836 296.695C477.766 296.695 476.555 297.281 476.555 298.57C476.555 299.859 477.766 300.445 479.836 300.445C481.906 300.445 483.234 299.859 483.234 298.57C483.234 297.281 481.906 296.695 479.836 296.695ZM522.609 294.586C527.336 294.586 530.422 299.469 530.461 307.438C530.422 315.445 527.336 320.367 522.609 320.367C517.922 320.367 514.875 315.445 514.875 307.438C514.875 299.469 517.922 294.586 522.609 294.586ZM522.609 299.273C520.617 299.273 519.445 302.008 519.484 307.438C519.445 312.906 520.617 315.602 522.609 315.562C524.641 315.602 525.852 312.906 525.852 307.438C525.852 302.008 524.641 299.273 522.609 299.273ZM545.383 292.047V327.594H540.617V309.664H537.414V325.953H532.688V292.555H537.414V305.602H540.617V292.047H545.383ZM578.664 293.023V296.734H574.016V301.422H578.43V305.133H552.219V301.422H556.594V296.734H551.984V293.023H578.664ZM581.555 307.008V310.914H549.133V307.008H581.555ZM577.609 312.945V321.734H557.805V323.688H578.547V327.359H552.922V318.336H572.688V316.539H552.883V312.945H577.609ZM561.594 301.422H569.016V296.734H561.594V301.422ZM613.508 292.047V327.672H608.547V292.047H613.508ZM602.492 295.016V308.727H590.773V315.25C596.184 315.23 600.793 314.918 606.008 314.078L606.438 318.102C600.578 319.117 595.305 319.352 588.82 319.352H585.617V304.781H597.414V299.039H585.578V295.016H602.492ZM634.094 296.031C634.074 299.371 633.801 302.535 633.039 305.484H636.867V292.828H641.516V326.031H636.867V309.508H631.633C629.68 313.727 626.359 317.438 620.93 320.523L618.156 317.125C622.668 314.508 625.48 311.559 627.18 308.102L618.898 308.961L618.352 304.742L628.586 304.195C628.898 302.867 629.094 301.48 629.211 300.016H620.109V296.031H634.094ZM649.094 292.047V327.594H644.406V292.047H649.094ZM682.609 292.047V327.672H677.57V292.047H682.609ZM663.312 294.547C668.664 294.547 672.648 299.469 672.648 307.203C672.648 315.016 668.664 319.898 663.312 319.898C657.844 319.898 653.859 315.016 653.898 307.203C653.859 299.469 657.844 294.547 663.312 294.547ZM663.312 299.039C660.539 299.039 658.703 301.93 658.703 307.203C658.703 312.516 660.539 315.367 663.312 315.367C666.008 315.367 667.844 312.516 667.844 307.203C667.844 301.93 666.008 299.039 663.312 299.039ZM700.734 298.18C700.734 303.102 703.156 307.984 708.781 310.055L706.008 313.922C702.277 312.457 699.719 309.664 698.273 306.148C696.711 309.898 693.957 312.828 689.914 314.352L687.258 310.445C693.078 308.375 695.695 303.375 695.695 298.18V294.078H700.734V298.18ZM717.375 292.086V318.453H712.414V307.594H706.32V303.57H712.414V300.719H706.32V296.695H712.414V292.086H717.375ZM718.117 322.984V326.969H693.703V315.914H698.742V322.984H718.117Z" fill="white"/>
<g style="mix-blend-mode:plus-lighter">
<circle cx="1543" cy="312" r="197" fill="url(#paint0_radial_1515_5418)"/>
</g>
<defs>
<radialGradient id="paint0_radial_1515_5418" cx="0" cy="0" r="1" gradientUnits="userSpaceOnUse" gradientTransform="translate(1543 312) rotate(90) scale(197)">
<stop stop-color="#1D4556"/>
<stop offset="1" stop-color="#06061C" stop-opacity="0"/>
</radialGradient>
</defs>
</svg>
