<svg width="116" height="116" viewBox="0 0 116 116" fill="none" xmlns="http://www.w3.org/2000/svg">
<g filter="url(#filter0_b_318_6455)">
<rect x="0.957031" y="0.785156" width="114.869" height="114.869" rx="57.4346" fill="#C7C6C8"/>
</g>
<g filter="url(#filter1_b_318_6455)">
<rect x="10.3164" y="10.145" width="96.1497" height="96.1497" rx="48.0749" fill="#E7E6E9"/>
</g>
<path fill-rule="evenodd" clip-rule="evenodd" d="M65.694 34.7089C65.2656 34.9989 65.1929 35.601 65.5401 35.9845L68.3751 39.1164C68.7308 39.5093 69.3622 39.4582 69.65 39.0132C69.9638 38.528 70.671 38.5206 70.9948 38.9991L72.0163 40.5082C72.0308 40.5296 72.0461 40.5501 72.0621 40.5698L65.3868 44.8046L64.4111 43.3632C64.0725 42.8629 64.351 42.1784 64.9421 42.0533C65.4816 41.9391 65.7738 41.3493 65.5351 40.8521L63.7213 37.0744C63.4963 36.6059 62.9076 36.4467 62.4773 36.738L56.5736 40.734C56.1452 41.024 56.0725 41.6261 56.4197 42.0097L59.2547 45.1416C59.6104 45.5344 60.2418 45.4833 60.5296 45.0383C60.8434 44.5532 61.5506 44.5458 61.8744 45.0242L62.8256 46.4295L56.1531 50.6625L55.2907 49.3884C54.9521 48.888 55.2306 48.2035 55.8217 48.0784C56.3612 47.9643 56.6534 47.3744 56.4147 46.8772L54.6009 43.0995C54.3759 42.631 53.7872 42.4719 53.3569 42.7632L47.4532 46.7592C47.0248 47.0492 46.9521 47.6513 47.2994 48.0348L50.1343 51.1667C50.49 51.5596 51.1214 51.5085 51.4092 51.0635C51.723 50.5783 52.4302 50.5709 52.754 51.0494L53.5919 52.2873L46.9189 56.5207L46.1695 55.4135C45.8308 54.9132 46.1094 54.2286 46.7005 54.1036C47.24 53.9894 47.5322 53.3995 47.2935 52.9024L45.4796 49.1247C45.2547 48.6562 44.666 48.497 44.2356 48.7883L38.332 52.7843C37.9035 53.0743 37.8309 53.6764 38.1781 54.06L41.0131 57.1919C41.3687 57.5847 42.0002 57.5336 42.288 57.0886C42.6017 56.6035 43.3089 56.5961 43.6328 57.0745L44.3577 58.1455L32.5599 65.6301C31.8446 66.0842 31.4411 66.8984 31.513 67.7427L32.1738 75.4991C32.2344 76.2094 31.9582 76.9071 31.4279 77.3835L19.5804 88.028C18.6554 88.859 18.5695 90.279 19.3877 91.2154L24.884 97.5063C25.7112 98.4531 27.1469 98.5514 28.0935 97.7239C32.0536 94.2618 38.8978 88.3039 44.2179 83.7575C48.8784 79.7746 55.4107 80.7214 60.0597 82.4466C61.7664 83.08 64.077 81.8068 64.6575 80.0814C67.2658 72.3287 77.3511 51.6188 83.4146 50.8609C86.1489 50.5191 88.0354 51.7406 89.5607 52.7282C91.4178 53.9307 92.7396 54.7865 94.4044 52.0518C94.7679 51.4546 95.1152 50.9072 95.4362 50.401C97.7928 46.6859 98.7405 45.1918 94.4044 42.5236C89.4774 39.4918 80.8667 34.9841 80.8667 34.9841L74.6067 38.9555C74.5854 38.905 74.5589 38.8559 74.527 38.8088L73.5315 37.3381C73.1929 36.8378 73.4714 36.1532 74.0625 36.0281C74.602 35.914 74.8942 35.3241 74.6555 34.8269L72.8417 31.0492C72.6167 30.5807 72.028 30.4216 71.5977 30.7129L65.694 34.7089Z" fill="#C7C6C8"/>
<defs>
<filter id="filter0_b_318_6455" x="-92.2831" y="-92.455" width="301.349" height="301.349" filterUnits="userSpaceOnUse" color-interpolation-filters="sRGB">
<feFlood flood-opacity="0" result="BackgroundImageFix"/>
<feGaussianBlur in="BackgroundImageFix" stdDeviation="46.6201"/>
<feComposite in2="SourceAlpha" operator="in" result="effect1_backgroundBlur_318_6455"/>
<feBlend mode="normal" in="SourceGraphic" in2="effect1_backgroundBlur_318_6455" result="shape"/>
</filter>
<filter id="filter1_b_318_6455" x="-67.7291" y="-67.9005" width="252.24" height="252.241" filterUnits="userSpaceOnUse" color-interpolation-filters="sRGB">
<feFlood flood-opacity="0" result="BackgroundImageFix"/>
<feGaussianBlur in="BackgroundImageFix" stdDeviation="39.0227"/>
<feComposite in2="SourceAlpha" operator="in" result="effect1_backgroundBlur_318_6455"/>
<feBlend mode="normal" in="SourceGraphic" in2="effect1_backgroundBlur_318_6455" result="shape"/>
</filter>
</defs>
</svg>
