<svg width="1919" height="600" viewBox="0 0 1919 600" fill="none" xmlns="http://www.w3.org/2000/svg">
<rect width="1920" height="600" fill="#1A1A30"/>
<path d="M535.555 235.109V238.82H503.016V235.109H535.555ZM531.648 240.578V248.977H511.727V251.008H532.703V254.406H506.766V245.812H526.727V244.016H506.727V240.578H531.648ZM531.609 219.797V228.156H512.039V230.07H532.234V233.43H507.078V224.992H526.609V223.195H507V219.797H531.609ZM558.445 220.656C563.875 220.617 567.82 223.703 567.82 228.195C567.82 232.648 563.875 235.773 558.445 235.734C553.016 235.773 549.07 232.648 549.109 228.195C549.07 223.703 553.016 220.617 558.445 220.656ZM558.445 224.641C555.789 224.641 553.914 225.93 553.914 228.195C553.914 230.422 555.789 231.711 558.445 231.672C561.18 231.711 563.094 230.422 563.094 228.195C563.094 225.93 561.18 224.641 558.445 224.641ZM576.805 219.211V254.719H571.883V219.211H576.805ZM546.922 237.922C553.211 237.922 562.156 237.766 569.734 236.633L570.047 240.305C567.117 240.891 564.109 241.262 561.141 241.477V253.664H556.18V241.789C553.055 241.926 550.105 241.945 547.547 241.984L546.922 237.922ZM609.617 219.211V230.109H614.422V234.172H609.617V245.734H604.617V219.211H609.617ZM602.508 222.922V226.867H581.414V222.922H589.5V219.133H594.461V222.922H602.508ZM591.961 228.117C597.117 228.117 600.711 230.891 600.711 234.992C600.711 239.094 597.117 241.789 591.961 241.789C586.766 241.789 583.133 239.094 583.133 234.992C583.133 230.891 586.766 228.117 591.961 228.117ZM591.961 231.906C589.578 231.945 587.977 233.039 588.016 234.992C587.977 236.945 589.578 238 591.961 238C594.344 238 595.984 236.945 595.984 234.992C595.984 233.039 594.344 231.945 591.961 231.906ZM610.906 250.109V254.094H586.57V243.703H591.531V250.109H610.906Z" fill="white"/>
<path d="M319.266 282.836C327.156 282.836 332.156 285.453 332.195 289.789C332.156 294.086 327.156 296.703 319.266 296.664C311.414 296.703 306.297 294.086 306.297 289.789C306.297 285.453 311.414 282.836 319.266 282.836ZM319.266 286.703C314.305 286.703 311.453 287.758 311.492 289.789C311.453 291.781 314.305 292.797 319.266 292.797C324.188 292.797 327.039 291.781 327.039 289.789C327.039 287.758 324.188 286.703 319.266 286.703ZM331.609 305.219V317.328H306.805V305.219H331.609ZM311.727 309.164V313.344H326.727V309.164H311.727ZM335.477 298.734V302.719H303.055V298.734H335.477ZM347.625 284.125C353.133 284.086 357.312 287.758 357.312 292.758C357.312 297.875 353.133 301.469 347.625 301.469C342.078 301.469 337.859 297.875 337.859 292.758C337.859 287.758 342.078 284.086 347.625 284.125ZM347.625 288.383C344.812 288.383 342.742 289.984 342.781 292.758C342.742 295.609 344.812 297.25 347.625 297.25C350.359 297.25 352.43 295.609 352.469 292.758C352.43 289.984 350.359 288.383 347.625 288.383ZM365.828 282.172V290.531H370.633V294.594H365.828V302.953H360.828V282.172H365.828ZM365.828 304.438V317.758H360.828V308.461H341.883V304.438H365.828ZM413.914 300.414V304.32H400.516V310.062H395.594V304.32H381.375V300.414H413.914ZM410.32 313.109V317.094H385.203V307.25H390.125V313.109H410.32ZM390.477 283.305V287.016H404.734V283.305H409.695V297.914H385.555V283.305H390.477ZM390.477 293.969H404.734V290.727H390.477V293.969ZM429.305 287.719C429.266 292.133 431.766 296.43 437.391 298.227L434.734 302.172C430.906 300.883 428.309 298.324 426.805 295.102C425.223 298.617 422.469 301.371 418.445 302.797L415.75 298.812C421.688 296.898 424.227 292.25 424.266 287.406V284.008H429.305V287.719ZM445.945 304.945V317.719H440.984V308.891H421.531V304.945H445.945ZM445.945 282.172V303.344H440.984V292.875H434.305V288.773H440.984V282.172H445.945ZM490.75 282.172V304.047H485.984V282.172H490.75ZM483.875 282.758V304.008H479.188V302.797H473.836V299.477H479.188V282.758H483.875ZM459.539 295.336C464.188 295.336 471.961 295.219 477.664 294.359L478.016 297.68C475.965 298.129 473.719 298.441 471.453 298.656V303.852H466.688V298.93C464.188 299.027 461.863 299.047 460.008 299.047L459.539 295.336ZM470.281 305.18V307.562H485.789V305.18H490.75V317.328H465.359V305.18H470.281ZM470.281 313.5H485.789V311.352H470.281V313.5ZM468.836 283.383C473.484 283.383 476.688 285.414 476.688 288.695C476.688 291.938 473.484 294.008 468.836 294.047C464.188 294.008 461.023 291.938 461.023 288.695C461.023 285.414 464.188 283.383 468.836 283.383ZM468.836 286.82C466.766 286.82 465.555 287.406 465.555 288.695C465.555 289.984 466.766 290.57 468.836 290.57C470.906 290.57 472.234 289.984 472.234 288.695C472.234 287.406 470.906 286.82 468.836 286.82ZM511.609 284.711C516.336 284.711 519.422 289.594 519.461 297.562C519.422 305.57 516.336 310.492 511.609 310.492C506.922 310.492 503.875 305.57 503.875 297.562C503.875 289.594 506.922 284.711 511.609 284.711ZM511.609 289.398C509.617 289.398 508.445 292.133 508.484 297.562C508.445 303.031 509.617 305.727 511.609 305.688C513.641 305.727 514.852 303.031 514.852 297.562C514.852 292.133 513.641 289.398 511.609 289.398ZM534.383 282.172V317.719H529.617V299.789H526.414V316.078H521.688V282.68H526.414V295.727H529.617V282.172H534.383ZM567.664 283.148V286.859H563.016V291.547H567.43V295.258H541.219V291.547H545.594V286.859H540.984V283.148H567.664ZM570.555 297.133V301.039H538.133V297.133H570.555ZM566.609 303.07V311.859H546.805V313.812H567.547V317.484H541.922V308.461H561.688V306.664H541.883V303.07H566.609ZM550.594 291.547H558.016V286.859H550.594V291.547ZM602.508 282.172V317.797H597.547V282.172H602.508ZM591.492 285.141V298.852H579.773V305.375C585.184 305.355 589.793 305.043 595.008 304.203L595.438 308.227C589.578 309.242 584.305 309.477 577.82 309.477H574.617V294.906H586.414V289.164H574.578V285.141H591.492ZM623.094 286.156C623.074 289.496 622.801 292.66 622.039 295.609H625.867V282.953H630.516V316.156H625.867V299.633H620.633C618.68 303.852 615.359 307.562 609.93 310.648L607.156 307.25C611.668 304.633 614.48 301.684 616.18 298.227L607.898 299.086L607.352 294.867L617.586 294.32C617.898 292.992 618.094 291.605 618.211 290.141H609.109V286.156H623.094ZM638.094 282.172V317.719H633.406V282.172H638.094ZM671.609 282.172V317.797H666.57V282.172H671.609ZM652.312 284.672C657.664 284.672 661.648 289.594 661.648 297.328C661.648 305.141 657.664 310.023 652.312 310.023C646.844 310.023 642.859 305.141 642.898 297.328C642.859 289.594 646.844 284.672 652.312 284.672ZM652.312 289.164C649.539 289.164 647.703 292.055 647.703 297.328C647.703 302.641 649.539 305.492 652.312 305.492C655.008 305.492 656.844 302.641 656.844 297.328C656.844 292.055 655.008 289.164 652.312 289.164ZM689.734 288.305C689.734 293.227 692.156 298.109 697.781 300.18L695.008 304.047C691.277 302.582 688.719 299.789 687.273 296.273C685.711 300.023 682.957 302.953 678.914 304.477L676.258 300.57C682.078 298.5 684.695 293.5 684.695 288.305V284.203H689.734V288.305ZM706.375 282.211V308.578H701.414V297.719H695.32V293.695H701.414V290.844H695.32V286.82H701.414V282.211H706.375ZM707.117 313.109V317.094H682.703V306.039H687.742V313.109H707.117Z" fill="white"/>
<path d="M313.211 379.188C313.081 378.556 312.82 378.016 312.43 377.566C312.046 377.111 311.577 376.766 311.023 376.531C310.477 376.297 309.891 376.18 309.266 376.18C308.4 376.18 307.622 376.398 306.932 376.834C306.248 377.27 305.708 377.911 305.311 378.758C304.913 379.604 304.715 380.62 304.715 381.805C304.715 382.99 304.913 384.005 305.311 384.852C305.708 385.698 306.248 386.339 306.932 386.775C307.622 387.212 308.4 387.43 309.266 387.43C309.891 387.43 310.477 387.316 311.023 387.088C311.57 386.854 312.036 386.512 312.42 386.062C312.811 385.607 313.074 385.066 313.211 384.441H314.969C314.799 385.385 314.448 386.209 313.914 386.912C313.38 387.609 312.71 388.143 311.902 388.514C311.102 388.885 310.223 389.07 309.266 389.07C308.055 389.07 306.977 388.774 306.033 388.182C305.089 387.589 304.35 386.746 303.816 385.652C303.283 384.552 303.016 383.27 303.016 381.805C303.016 380.34 303.283 379.061 303.816 377.967C304.35 376.867 305.089 376.02 306.033 375.428C306.977 374.835 308.055 374.539 309.266 374.539C310.216 374.539 311.092 374.725 311.893 375.096C312.7 375.467 313.37 376.004 313.904 376.707C314.445 377.404 314.799 378.23 314.969 379.188H313.211ZM329.383 381.805C329.383 383.27 329.116 384.552 328.582 385.652C328.048 386.746 327.306 387.589 326.355 388.182C325.411 388.774 324.337 389.07 323.133 389.07C321.922 389.07 320.844 388.774 319.9 388.182C318.956 387.589 318.217 386.746 317.684 385.652C317.15 384.552 316.883 383.27 316.883 381.805C316.883 380.34 317.15 379.061 317.684 377.967C318.217 376.867 318.956 376.02 319.9 375.428C320.844 374.835 321.922 374.539 323.133 374.539C324.337 374.539 325.411 374.835 326.355 375.428C327.306 376.02 328.048 376.867 328.582 377.967C329.116 379.061 329.383 380.34 329.383 381.805ZM327.684 381.805C327.684 380.62 327.485 379.604 327.088 378.758C326.691 377.911 326.147 377.27 325.457 376.834C324.773 376.398 323.999 376.18 323.133 376.18C322.267 376.18 321.489 376.398 320.799 376.834C320.115 377.27 319.575 377.911 319.178 378.758C318.781 379.604 318.582 380.62 318.582 381.805C318.582 382.99 318.781 384.005 319.178 384.852C319.575 385.698 320.115 386.339 320.799 386.775C321.489 387.212 322.267 387.43 323.133 387.43C323.999 387.43 324.773 387.212 325.457 386.775C326.147 386.339 326.691 385.698 327.088 384.852C327.485 384.005 327.684 382.99 327.684 381.805ZM331.961 388.875V374.734H336.531C337.892 374.734 339.064 375.018 340.047 375.584C341.036 376.144 341.792 376.954 342.312 378.016C342.833 379.07 343.094 380.327 343.094 381.785C343.094 383.257 342.83 384.523 342.303 385.584C341.775 386.645 341.007 387.459 339.998 388.025C338.989 388.592 337.775 388.875 336.355 388.875H331.961ZM336.238 387.312C337.944 387.312 339.227 386.831 340.086 385.867C340.945 384.904 341.375 383.543 341.375 381.785C341.375 380.047 340.955 378.699 340.115 377.742C339.275 376.779 338.042 376.297 336.414 376.297H333.719V387.312H336.238ZM345.672 374.734H354.246V376.297H347.43V381.023H353.797V382.566H347.43V387.312H354.344V388.875H345.672V374.734ZM357.02 374.734H361.824C362.892 374.734 363.787 374.93 364.51 375.32C365.232 375.711 365.77 376.245 366.121 376.922C366.473 377.592 366.648 378.361 366.648 379.227C366.648 380.086 366.473 380.857 366.121 381.541C365.77 382.218 365.232 382.755 364.51 383.152C363.794 383.543 362.905 383.738 361.844 383.738H358.777V388.875H357.02V374.734ZM361.766 382.176C362.833 382.176 363.624 381.909 364.139 381.375C364.653 380.835 364.91 380.118 364.91 379.227C364.91 378.328 364.653 377.615 364.139 377.088C363.624 376.561 362.827 376.297 361.746 376.297H358.777V382.176H361.766ZM369.109 374.734H370.867V387.312H377.43V388.875H369.109V374.734ZM379.422 388.875L384.598 374.734H386.453L391.629 388.875H389.773L388.357 384.891H382.674L381.258 388.875H379.422ZM387.82 383.348L385.574 377.02H385.457L383.211 383.348H387.82ZM392.898 374.734L396.785 381.297H396.961L400.848 374.734H402.879L397.762 383.074V388.875H395.984V383.074L390.887 374.734H392.898ZM417.957 379.598H406.062V373.738H407.586V378.367H417.957V379.598ZM419.793 383.211H403.895V381.961H419.793V383.211ZM418.055 390.027H405.965V384.988H407.488V388.758H418.055V390.027ZM425.867 388.875L431.043 374.734H432.898L438.074 388.875H436.219L434.803 384.891H429.119L427.703 388.875H425.867ZM434.266 383.348L432.02 377.02H431.902L429.656 383.348H434.266ZM441.746 388.875H439.988V374.734H441.746V388.875ZM463.387 390.457H461.844V373.094H463.387V390.457ZM458.25 374.988C458.237 377.612 457.573 379.969 456.258 382.059C454.943 384.142 452.885 385.854 450.086 387.195L449.246 385.945C451.564 384.845 453.338 383.478 454.568 381.844C455.805 380.21 456.512 378.341 456.688 376.238H450.047V374.988H458.25ZM479.891 378.367H482.508V379.656H479.891V385.867H478.367V373.113H479.891V378.367ZM480.691 390.086H469.031V384.617H470.535V388.797H480.691V390.086ZM468.562 377.293H473.621V374.363H475.145V382.938H467.059V374.363H468.562V377.293ZM473.621 381.688V378.504H468.562V381.688H473.621ZM489.285 374.363C490.19 374.363 490.994 374.536 491.697 374.881C492.407 375.226 492.96 375.708 493.357 376.326C493.755 376.945 493.953 377.651 493.953 378.445C493.953 379.24 493.755 379.946 493.357 380.564C492.96 381.183 492.407 381.665 491.697 382.01C490.994 382.355 490.19 382.527 489.285 382.527C488.38 382.527 487.57 382.355 486.854 382.01C486.144 381.665 485.587 381.183 485.184 380.564C484.786 379.946 484.591 379.24 484.598 378.445C484.591 377.651 484.786 376.945 485.184 376.326C485.587 375.708 486.144 375.226 486.854 374.881C487.57 374.536 488.38 374.363 489.285 374.363ZM489.285 375.711C488.673 375.711 488.123 375.828 487.635 376.062C487.153 376.29 486.775 376.613 486.502 377.029C486.229 377.439 486.095 377.911 486.102 378.445C486.095 378.979 486.229 379.454 486.502 379.871C486.775 380.281 487.153 380.604 487.635 380.838C488.123 381.066 488.673 381.18 489.285 381.18C489.891 381.18 490.434 381.066 490.916 380.838C491.398 380.604 491.772 380.281 492.039 379.871C492.312 379.454 492.449 378.979 492.449 378.445C492.449 377.911 492.312 377.439 492.039 377.029C491.772 376.613 491.398 376.29 490.916 376.062C490.434 375.828 489.891 375.711 489.285 375.711ZM497.84 390.496H496.316V373.094H497.84V390.496ZM483.699 385.359C485.952 385.359 487.999 385.324 489.842 385.252C491.691 385.18 493.465 385.021 495.164 384.773L495.281 385.906C493.536 386.232 491.756 386.44 489.939 386.531C488.13 386.622 486.121 386.668 483.914 386.668L483.699 385.359ZM521.785 384.461H514.539V390.457H513.035V384.461H505.887V383.191H521.785V384.461ZM519.715 380.828H507.938V374.07H519.715V380.828ZM509.441 379.617H518.191V375.32H509.441V379.617ZM539.09 388.309H523.191V387.02H527.664V383.719H525.184V378.367H535.574V375.652H525.145V374.383H537.078V379.637H526.707V382.449H537.488V383.719H534.773V387.02H539.09V388.309ZM533.27 387.02V383.719H529.168V387.02H533.27ZM561.316 383.621H545.496V382.352H552.645V380.535C551.538 380.483 550.577 380.311 549.764 380.018C548.956 379.725 548.335 379.327 547.898 378.826C547.469 378.325 547.254 377.736 547.254 377.059C547.254 376.355 547.505 375.747 548.006 375.232C548.507 374.712 549.22 374.314 550.145 374.041C551.069 373.761 552.156 373.621 553.406 373.621C554.643 373.621 555.724 373.761 556.648 374.041C557.573 374.314 558.286 374.712 558.787 375.232C559.288 375.747 559.539 376.355 559.539 377.059C559.539 377.736 559.321 378.325 558.885 378.826C558.449 379.327 557.827 379.725 557.02 380.018C556.219 380.304 555.268 380.477 554.168 380.535V382.352H561.316V383.621ZM559.559 390.086H547.547V385.027H549.09V388.797H559.559V390.086ZM553.406 374.871C552.482 374.871 551.674 374.962 550.984 375.145C550.294 375.32 549.76 375.574 549.383 375.906C549.012 376.238 548.829 376.622 548.836 377.059C548.829 377.521 549.012 377.921 549.383 378.26C549.754 378.592 550.285 378.846 550.975 379.021C551.665 379.197 552.475 379.285 553.406 379.285C554.331 379.285 555.135 379.197 555.818 379.021C556.508 378.846 557.039 378.592 557.41 378.26C557.788 377.921 557.977 377.521 557.977 377.059C557.977 376.622 557.788 376.238 557.41 375.906C557.039 375.574 556.508 375.32 555.818 375.145C555.128 374.962 554.324 374.871 553.406 374.871ZM576.219 380.008H579.129V381.297H576.219V390.496H574.695V373.094H576.219V380.008ZM571.355 380.926H565.027V384.988C566.753 384.988 568.221 384.946 569.432 384.861C570.649 384.777 571.883 384.617 573.133 384.383L573.289 385.652C571.993 385.893 570.717 386.059 569.461 386.15C568.204 386.235 566.681 386.284 564.891 386.297H563.504V379.656H569.832V375.984H563.465V374.715H571.355V380.926ZM594.402 385.809H592.879V373.113H594.402V385.809ZM594.949 390.086H583.191V384.52H584.715V388.797H594.949V390.086ZM585.027 374.324C585.887 374.324 586.661 374.507 587.352 374.871C588.048 375.229 588.592 375.734 588.982 376.385C589.38 377.029 589.578 377.762 589.578 378.582C589.578 379.415 589.38 380.158 588.982 380.809C588.592 381.453 588.048 381.958 587.352 382.322C586.661 382.68 585.887 382.859 585.027 382.859C584.168 382.859 583.39 382.68 582.693 382.322C582.003 381.958 581.46 381.453 581.062 380.809C580.672 380.158 580.477 379.415 580.477 378.582C580.477 377.762 580.672 377.029 581.062 376.385C581.46 375.734 582.003 375.229 582.693 374.871C583.39 374.507 584.168 374.324 585.027 374.324ZM585.027 375.672C584.448 375.672 583.924 375.796 583.455 376.043C582.993 376.29 582.628 376.635 582.361 377.078C582.101 377.521 581.974 378.022 581.98 378.582C581.974 379.148 582.101 379.656 582.361 380.105C582.628 380.548 582.993 380.893 583.455 381.141C583.924 381.388 584.448 381.512 585.027 381.512C585.594 381.512 586.108 381.388 586.57 381.141C587.039 380.893 587.407 380.548 587.674 380.105C587.941 379.656 588.074 379.148 588.074 378.582C588.074 378.029 587.941 377.531 587.674 377.088C587.407 376.645 587.039 376.3 586.57 376.053C586.108 375.799 585.594 375.672 585.027 375.672ZM610.281 373.484C611.538 373.484 612.625 373.615 613.543 373.875C614.467 374.135 615.177 374.513 615.672 375.008C616.167 375.503 616.414 376.095 616.414 376.785C616.414 377.462 616.167 378.045 615.672 378.533C615.177 379.015 614.467 379.386 613.543 379.646C612.625 379.9 611.538 380.027 610.281 380.027C609.025 380.027 607.934 379.9 607.01 379.646C606.085 379.386 605.372 379.015 604.871 378.533C604.376 378.045 604.129 377.462 604.129 376.785C604.129 376.095 604.376 375.503 604.871 375.008C605.372 374.513 606.085 374.135 607.01 373.875C607.934 373.615 609.025 373.484 610.281 373.484ZM610.281 374.715C609.35 374.715 608.54 374.799 607.85 374.969C607.16 375.132 606.629 375.369 606.258 375.682C605.887 375.994 605.704 376.362 605.711 376.785C605.704 377.202 605.883 377.563 606.248 377.869C606.619 378.169 607.15 378.4 607.84 378.562C608.53 378.725 609.344 378.81 610.281 378.816C611.206 378.81 612.01 378.725 612.693 378.562C613.383 378.4 613.914 378.169 614.285 377.869C614.663 377.563 614.852 377.202 614.852 376.785C614.852 376.362 614.663 375.994 614.285 375.682C613.914 375.369 613.383 375.132 612.693 374.969C612.003 374.799 611.199 374.715 610.281 374.715ZM616.258 390.223H604.305V384.52H616.258V390.223ZM605.828 388.973H614.754V385.75H605.828V388.973ZM618.191 382.801H602.371V381.531H618.191V382.801ZM624.539 374.148C625.405 374.142 626.183 374.311 626.873 374.656C627.57 375.001 628.113 375.486 628.504 376.111C628.901 376.736 629.103 377.443 629.109 378.23C629.103 379.031 628.901 379.744 628.504 380.369C628.113 380.994 627.573 381.482 626.883 381.834C626.193 382.179 625.411 382.352 624.539 382.352C623.667 382.352 622.882 382.179 622.186 381.834C621.495 381.482 620.955 380.994 620.564 380.369C620.174 379.744 619.982 379.031 619.988 378.23C619.982 377.443 620.174 376.74 620.564 376.121C620.955 375.496 621.495 375.011 622.186 374.666C622.882 374.314 623.667 374.142 624.539 374.148ZM624.539 375.457C623.96 375.457 623.436 375.574 622.967 375.809C622.505 376.043 622.14 376.372 621.873 376.795C621.613 377.212 621.486 377.69 621.492 378.23C621.486 378.777 621.613 379.266 621.873 379.695C622.14 380.118 622.505 380.447 622.967 380.682C623.436 380.916 623.96 381.03 624.539 381.023C625.125 381.03 625.649 380.916 626.111 380.682C626.58 380.447 626.945 380.118 627.205 379.695C627.472 379.266 627.605 378.777 627.605 378.23C627.605 377.69 627.472 377.212 627.205 376.795C626.945 376.372 626.58 376.043 626.111 375.809C625.649 375.574 625.125 375.457 624.539 375.457ZM633.23 377.586H635.848V378.875H633.23V383.328H631.707V373.094H633.23V377.586ZM633.23 390.496H631.707V385.477H621.863V384.227H633.23V390.496ZM652.82 383.543H645.75V386.941H644.227V383.543H636.922V382.293H652.82V383.543ZM651.043 390.086H638.953V385.34H640.477V388.797H651.043V390.086ZM640.574 375.887H649.168V373.66H650.691V380.594H639.051V373.66H640.574V375.887ZM649.168 379.344V377.059H640.574V379.344H649.168ZM660.145 375.887C660.145 376.674 660.327 377.436 660.691 378.172C661.056 378.901 661.564 379.542 662.215 380.096C662.866 380.649 663.608 381.069 664.441 381.355L663.602 382.586C662.638 382.234 661.792 381.707 661.062 381.004C660.34 380.294 659.793 379.474 659.422 378.543C659.057 379.565 658.497 380.464 657.742 381.238C656.993 382.007 656.108 382.592 655.086 382.996L654.246 381.727C655.118 381.414 655.883 380.965 656.541 380.379C657.205 379.793 657.719 379.109 658.084 378.328C658.449 377.54 658.634 376.707 658.641 375.828V373.992H660.145V375.887ZM668.621 390.457H667.078V385.555H656.941V384.324H668.621V390.457ZM668.621 383.367H667.078V378.035H663.211V376.746H667.078V373.094H668.621V383.367ZM682.645 377.762C682.645 378.79 682.846 379.806 683.25 380.809C683.654 381.811 684.201 382.703 684.891 383.484C685.581 384.259 686.342 384.839 687.176 385.223L686.258 386.473C685.275 385.965 684.396 385.219 683.621 384.236C682.846 383.253 682.267 382.143 681.883 380.906C681.492 382.215 680.91 383.39 680.135 384.432C679.367 385.473 678.491 386.258 677.508 386.785L676.512 385.555C677.352 385.145 678.12 384.529 678.816 383.709C679.513 382.882 680.063 381.948 680.467 380.906C680.877 379.858 681.082 378.81 681.082 377.762V374.598H682.645V377.762ZM690.926 390.496H689.402V380.281H685.281V379.031H689.402V373.094H690.926V390.496ZM708.133 390.496H706.59V373.094H708.133V390.496ZM696.355 379.168H701.531V374.578H703.035V386.297H694.832V374.578H696.355V379.168ZM701.531 385.008V380.398H696.355V385.008H701.531ZM719.754 375.652C719.754 376.596 720.07 377.511 720.701 378.396C721.339 379.275 722.156 380.024 723.152 380.643C724.148 381.255 725.158 381.655 726.18 381.844L725.477 383.133C724.591 382.924 723.719 382.586 722.859 382.117C722 381.648 721.229 381.069 720.545 380.379C719.861 379.689 719.337 378.93 718.973 378.104C718.608 378.924 718.084 379.679 717.4 380.369C716.717 381.059 715.945 381.642 715.086 382.117C714.233 382.586 713.361 382.924 712.469 383.133L711.766 381.844C712.788 381.642 713.794 381.238 714.783 380.633C715.773 380.021 716.58 379.275 717.205 378.396C717.837 377.518 718.152 376.603 718.152 375.652V374.324H719.754V375.652ZM727 388.094H711.102V386.824H727V388.094ZM742.723 382.41H741.199V373.094H742.723V382.41ZM732.996 385.398H741.199V383.289H742.723V390.223H731.473V383.289H732.996V385.398ZM741.199 388.973V386.629H732.996V388.973H741.199ZM733.348 373.953C734.22 373.947 735.001 374.109 735.691 374.441C736.382 374.773 736.922 375.245 737.312 375.857C737.703 376.463 737.898 377.156 737.898 377.938C737.898 378.712 737.703 379.402 737.312 380.008C736.922 380.613 736.382 381.085 735.691 381.424C735.001 381.756 734.22 381.922 733.348 381.922C732.475 381.922 731.694 381.756 731.004 381.424C730.314 381.085 729.773 380.613 729.383 380.008C728.992 379.402 728.797 378.712 728.797 377.938C728.797 377.156 728.992 376.463 729.383 375.857C729.773 375.245 730.314 374.773 731.004 374.441C731.694 374.109 732.475 373.947 733.348 373.953ZM733.348 375.242C732.762 375.236 732.234 375.35 731.766 375.584C731.303 375.812 730.942 376.131 730.682 376.541C730.421 376.951 730.294 377.417 730.301 377.938C730.294 378.458 730.421 378.927 730.682 379.344C730.942 379.754 731.303 380.076 731.766 380.311C732.234 380.538 732.762 380.652 733.348 380.652C733.927 380.652 734.448 380.538 734.91 380.311C735.372 380.076 735.734 379.754 735.994 379.344C736.261 378.927 736.395 378.458 736.395 377.938C736.395 377.417 736.261 376.951 735.994 376.541C735.734 376.131 735.372 375.812 734.91 375.584C734.448 375.35 733.927 375.236 733.348 375.242ZM759.988 390.457H758.465V373.094H759.988V390.457ZM748.309 384.656C751.245 384.643 754.012 384.363 756.609 383.816L756.824 385.125C755.346 385.431 753.908 385.652 752.508 385.789C751.108 385.919 749.676 385.984 748.211 385.984H746.805V374.812H748.309V384.656ZM776.395 379.969H779.305V381.258H776.395V390.496H774.871V373.094H776.395V379.969ZM771.824 376.062H765.242V384.852C766.863 384.852 768.279 384.806 769.49 384.715C770.701 384.624 771.935 384.461 773.191 384.227L773.387 385.555C772.104 385.789 770.844 385.945 769.607 386.023C768.37 386.102 766.863 386.141 765.086 386.141H763.719V374.793H771.824V376.062ZM782.078 388.992C781.85 388.992 781.639 388.937 781.443 388.826C781.255 388.709 781.102 388.553 780.984 388.357C780.874 388.162 780.822 387.951 780.828 387.723C780.822 387.501 780.874 387.296 780.984 387.107C781.102 386.912 781.255 386.759 781.443 386.648C781.639 386.531 781.85 386.473 782.078 386.473C782.299 386.473 782.505 386.531 782.693 386.648C782.889 386.759 783.042 386.912 783.152 387.107C783.27 387.296 783.328 387.501 783.328 387.723C783.328 387.951 783.27 388.162 783.152 388.357C783.042 388.553 782.889 388.709 782.693 388.826C782.505 388.937 782.299 388.992 782.078 388.992ZM795.086 373.914C795.854 373.908 796.554 374.044 797.186 374.324C797.817 374.598 798.335 374.988 798.738 375.496C799.148 376.004 799.409 376.59 799.52 377.254H803.152V373.094H804.695V382.41H803.152V378.523H799.529C799.432 379.201 799.178 379.799 798.768 380.32C798.364 380.835 797.843 381.235 797.205 381.521C796.567 381.801 795.861 381.941 795.086 381.941C794.214 381.941 793.436 381.772 792.752 381.434C792.068 381.095 791.535 380.62 791.15 380.008C790.766 379.396 790.574 378.699 790.574 377.918C790.574 377.137 790.766 376.443 791.15 375.838C791.535 375.226 792.068 374.751 792.752 374.412C793.442 374.074 794.22 373.908 795.086 373.914ZM795.086 375.223C794.5 375.216 793.976 375.327 793.514 375.555C793.051 375.783 792.69 376.102 792.43 376.512C792.169 376.922 792.039 377.391 792.039 377.918C792.039 378.439 792.169 378.908 792.43 379.324C792.69 379.741 793.051 380.066 793.514 380.301C793.976 380.535 794.5 380.652 795.086 380.652C795.665 380.652 796.183 380.535 796.639 380.301C797.094 380.066 797.449 379.741 797.703 379.324C797.964 378.908 798.094 378.439 798.094 377.918C798.094 377.391 797.964 376.922 797.703 376.512C797.449 376.102 797.094 375.783 796.639 375.555C796.183 375.327 795.665 375.216 795.086 375.223ZM795.047 385.496H803.152V383.289H804.695V390.223H793.504V383.289H795.047V385.496ZM803.152 388.973V386.727H795.047V388.973H803.152ZM823.484 388.309H807.586V387.02H814.734V383.738H809.578V378.387H819.969V375.652H809.539V374.383H821.473V379.637H811.102V382.469H821.883V383.738H816.238V387.02H823.484V388.309ZM838.895 382.723H826.902V374.715H838.719V375.984H828.426V381.453H838.895V382.723ZM840.77 388.094H824.871V386.805H840.77V388.094ZM855.73 378.836H858.348V380.125H855.73V386.121H854.207V373.113H855.73V378.836ZM852.547 376.492H842.195V375.242H846.609V373.113H848.133V375.242H852.547V376.492ZM847.371 377.449C848.191 377.449 848.914 377.583 849.539 377.85C850.171 378.117 850.662 378.494 851.014 378.982C851.365 379.471 851.544 380.04 851.551 380.691C851.544 381.336 851.365 381.899 851.014 382.381C850.662 382.863 850.171 383.237 849.539 383.504C848.914 383.764 848.191 383.895 847.371 383.895C846.544 383.895 845.812 383.764 845.174 383.504C844.542 383.237 844.051 382.863 843.699 382.381C843.354 381.899 843.185 381.336 843.191 380.691C843.185 380.04 843.354 379.471 843.699 378.982C844.051 378.494 844.542 378.117 845.174 377.85C845.812 377.583 846.544 377.449 847.371 377.449ZM847.371 378.66C846.831 378.66 846.352 378.745 845.936 378.914C845.525 379.077 845.206 379.314 844.979 379.627C844.757 379.933 844.65 380.288 844.656 380.691C844.65 381.095 844.757 381.45 844.979 381.756C845.206 382.055 845.525 382.286 845.936 382.449C846.352 382.612 846.831 382.69 847.371 382.684C847.905 382.69 848.377 382.612 848.787 382.449C849.204 382.286 849.526 382.055 849.754 381.756C849.982 381.45 850.099 381.095 850.105 380.691C850.099 380.288 849.982 379.933 849.754 379.627C849.526 379.314 849.204 379.077 848.787 378.914C848.377 378.745 847.905 378.66 847.371 378.66ZM856.531 390.086H844.871V385.086H846.375V388.797H856.531V390.086ZM872.371 373.484C873.628 373.484 874.715 373.615 875.633 373.875C876.557 374.135 877.267 374.513 877.762 375.008C878.257 375.503 878.504 376.095 878.504 376.785C878.504 377.462 878.257 378.045 877.762 378.533C877.267 379.015 876.557 379.386 875.633 379.646C874.715 379.9 873.628 380.027 872.371 380.027C871.115 380.027 870.024 379.9 869.1 379.646C868.175 379.386 867.462 379.015 866.961 378.533C866.466 378.045 866.219 377.462 866.219 376.785C866.219 376.095 866.466 375.503 866.961 375.008C867.462 374.513 868.175 374.135 869.1 373.875C870.024 373.615 871.115 373.484 872.371 373.484ZM872.371 374.715C871.44 374.715 870.63 374.799 869.939 374.969C869.249 375.132 868.719 375.369 868.348 375.682C867.977 375.994 867.794 376.362 867.801 376.785C867.794 377.202 867.973 377.563 868.338 377.869C868.709 378.169 869.24 378.4 869.93 378.562C870.62 378.725 871.434 378.81 872.371 378.816C873.296 378.81 874.1 378.725 874.783 378.562C875.473 378.4 876.004 378.169 876.375 377.869C876.753 377.563 876.941 377.202 876.941 376.785C876.941 376.362 876.753 375.994 876.375 375.682C876.004 375.369 875.473 375.132 874.783 374.969C874.093 374.799 873.289 374.715 872.371 374.715ZM878.348 390.223H866.395V384.52H878.348V390.223ZM867.918 388.973H876.844V385.75H867.918V388.973ZM880.281 382.801H864.461V381.531H880.281V382.801ZM896.062 386.297H894.52V384.5H890.926V383.387H894.52V373.113H896.062V386.297ZM896.492 390.086H884.148V385.008H885.691V388.797H896.492V390.086ZM881.648 381.16C884.031 381.147 886.102 381.111 887.859 381.053C889.624 380.994 891.323 380.861 892.957 380.652L893.055 381.766C891.622 381.993 890.034 382.16 888.289 382.264V385.691H886.746V382.342C885.451 382.387 884.135 382.41 882.801 382.41H881.863L881.648 381.16ZM887.352 373.816C888.191 373.816 888.934 373.943 889.578 374.197C890.229 374.445 890.734 374.799 891.092 375.262C891.456 375.717 891.642 376.245 891.648 376.844C891.642 377.456 891.456 377.99 891.092 378.445C890.734 378.895 890.229 379.243 889.578 379.49C888.934 379.731 888.191 379.852 887.352 379.852C886.505 379.852 885.757 379.731 885.105 379.49C884.454 379.243 883.95 378.895 883.592 378.445C883.234 377.99 883.055 377.456 883.055 376.844C883.055 376.245 883.234 375.717 883.592 375.262C883.95 374.799 884.454 374.445 885.105 374.197C885.757 373.943 886.505 373.816 887.352 373.816ZM887.352 374.988C886.792 374.982 886.297 375.057 885.867 375.213C885.438 375.369 885.102 375.59 884.861 375.877C884.627 376.157 884.513 376.479 884.52 376.844C884.513 377.215 884.627 377.544 884.861 377.83C885.096 378.11 885.428 378.328 885.857 378.484C886.294 378.641 886.792 378.719 887.352 378.719C887.892 378.719 888.377 378.641 888.807 378.484C889.236 378.328 889.572 378.11 889.812 377.83C890.053 377.544 890.177 377.215 890.184 376.844C890.177 376.479 890.05 376.157 889.803 375.877C889.562 375.59 889.227 375.369 888.797 375.213C888.374 375.057 887.892 374.982 887.352 374.988ZM906.941 373.406C908.23 373.406 909.334 373.523 910.252 373.758C911.17 373.986 911.87 374.324 912.352 374.773C912.833 375.216 913.074 375.757 913.074 376.395C913.074 377.371 912.54 378.12 911.473 378.641C910.405 379.161 908.895 379.428 906.941 379.441C905.652 379.435 904.546 379.314 903.621 379.08C902.703 378.846 902 378.504 901.512 378.055C901.03 377.599 900.789 377.046 900.789 376.395C900.789 375.757 901.03 375.216 901.512 374.773C902 374.324 902.703 373.986 903.621 373.758C904.546 373.523 905.652 373.406 906.941 373.406ZM906.941 374.559C905.984 374.559 905.164 374.633 904.48 374.783C903.797 374.926 903.276 375.138 902.918 375.418C902.56 375.691 902.384 376.017 902.391 376.395C902.384 376.993 902.778 377.456 903.572 377.781C904.367 378.107 905.49 378.27 906.941 378.27C908.387 378.27 909.51 378.107 910.311 377.781C911.111 377.456 911.512 376.993 911.512 376.395C911.512 376.017 911.329 375.691 910.965 375.418C910.6 375.145 910.076 374.933 909.393 374.783C908.709 374.633 907.892 374.559 906.941 374.559ZM914.852 381.863H899.031V380.613H914.852V381.863ZM912.82 387.254H902.508V389.051H913.348V390.262H900.984V386.121H911.316V384.539H900.945V383.367H912.82V387.254ZM318.582 413.543H311.512V416.941H309.988V413.543H302.684V412.293H318.582V413.543ZM316.805 420.086H304.715V415.34H306.238V418.797H316.805V420.086ZM306.336 405.887H314.93V403.66H316.453V410.594H304.812V403.66H306.336V405.887ZM314.93 409.344V407.059H306.336V409.344H314.93ZM325.906 405.887C325.906 406.674 326.089 407.436 326.453 408.172C326.818 408.901 327.326 409.542 327.977 410.096C328.628 410.649 329.37 411.069 330.203 411.355L329.363 412.586C328.4 412.234 327.553 411.707 326.824 411.004C326.102 410.294 325.555 409.474 325.184 408.543C324.819 409.565 324.259 410.464 323.504 411.238C322.755 412.007 321.87 412.592 320.848 412.996L320.008 411.727C320.88 411.414 321.645 410.965 322.303 410.379C322.967 409.793 323.481 409.109 323.846 408.328C324.21 407.54 324.396 406.707 324.402 405.828V403.992H325.906V405.887ZM334.383 420.457H332.84V415.555H322.703V414.324H334.383V420.457ZM334.383 413.367H332.84V408.035H328.973V406.746H332.84V403.094H334.383V413.367ZM350.848 407.254H353.484V408.523H350.848V412.645H349.324V403.035H350.848V407.254ZM350.848 417.391H341.316V419.09H351.492V420.262H339.812V416.258H349.324V414.695H339.773V413.543H350.848V417.391ZM347.664 405.906H337.312V404.676H341.727V402.918H343.25V404.676H347.664V405.906ZM342.488 406.688C343.322 406.688 344.051 406.805 344.676 407.039C345.307 407.267 345.796 407.596 346.141 408.025C346.486 408.455 346.661 408.96 346.668 409.539C346.661 410.118 346.486 410.623 346.141 411.053C345.796 411.482 345.307 411.814 344.676 412.049C344.051 412.277 343.322 412.391 342.488 412.391C341.648 412.391 340.91 412.277 340.271 412.049C339.64 411.814 339.152 411.482 338.807 411.053C338.468 410.623 338.302 410.118 338.309 409.539C338.302 408.96 338.468 408.455 338.807 408.025C339.152 407.596 339.64 407.267 340.271 407.039C340.91 406.805 341.648 406.688 342.488 406.688ZM342.488 407.82C341.948 407.82 341.469 407.892 341.053 408.035C340.643 408.178 340.324 408.38 340.096 408.641C339.874 408.901 339.767 409.201 339.773 409.539C339.767 409.884 339.874 410.187 340.096 410.447C340.324 410.701 340.643 410.896 341.053 411.033C341.463 411.17 341.941 411.238 342.488 411.238C343.315 411.238 343.976 411.089 344.471 410.789C344.965 410.483 345.216 410.066 345.223 409.539C345.216 409.194 345.099 408.895 344.871 408.641C344.643 408.38 344.324 408.178 343.914 408.035C343.504 407.892 343.029 407.82 342.488 407.82ZM368.289 404.715C368.289 405.496 368.592 406.245 369.197 406.961C369.809 407.677 370.604 408.279 371.58 408.768C372.557 409.256 373.569 409.572 374.617 409.715L373.992 410.965C373.081 410.815 372.199 410.555 371.346 410.184C370.493 409.806 369.731 409.337 369.061 408.777C368.39 408.211 367.872 407.583 367.508 406.893C367.15 407.583 366.632 408.211 365.955 408.777C365.285 409.337 364.523 409.806 363.67 410.184C362.817 410.555 361.935 410.815 361.023 410.965L360.398 409.715C361.453 409.572 362.465 409.259 363.436 408.777C364.406 408.289 365.193 407.69 365.799 406.98C366.404 406.264 366.707 405.509 366.707 404.715V403.719H368.289V404.715ZM375.398 414.168H368.211V420.457H366.707V414.168H359.578V412.879H375.398V414.168ZM390.887 412.488H385.516V416.98H392.762V418.27H376.863V416.98H384.012V412.488H378.895V404.52H390.711V405.77H380.438V411.238H390.887V412.488ZM405.047 414.754C405.047 415.555 405.258 416.326 405.682 417.068C406.111 417.811 406.723 418.406 407.518 418.855C408.045 418.523 408.501 418.126 408.885 417.664C409.269 417.195 409.559 416.71 409.754 416.209C409.949 415.701 410.047 415.216 410.047 414.754V413.797H411.551V414.754C411.551 415.353 411.691 415.939 411.971 416.512C412.257 417.078 412.667 417.589 413.201 418.045C413.735 418.494 414.363 418.842 415.086 419.09L414.324 420.223C413.471 419.923 412.742 419.487 412.137 418.914C411.531 418.341 411.076 417.684 410.77 416.941C410.483 417.684 410.07 418.357 409.529 418.963C408.989 419.568 408.335 420.034 407.566 420.359C406.753 420.047 406.069 419.594 405.516 419.002C404.969 418.416 404.559 417.742 404.285 416.98C403.966 417.703 403.51 418.348 402.918 418.914C402.326 419.48 401.622 419.917 400.809 420.223L400.027 419.09C400.737 418.823 401.355 418.458 401.883 417.996C402.417 417.527 402.827 417.01 403.113 416.443C403.406 415.877 403.556 415.314 403.562 414.754V413.797H405.047V414.754ZM413.504 413.035H411.98V403.113H413.504V413.035ZM404.129 404.129C405.001 404.129 405.783 404.301 406.473 404.646C407.163 404.985 407.703 405.464 408.094 406.082C408.484 406.694 408.68 407.397 408.68 408.191C408.68 408.973 408.484 409.669 408.094 410.281C407.703 410.893 407.163 411.368 406.473 411.707C405.783 412.046 405.001 412.215 404.129 412.215C403.257 412.215 402.475 412.046 401.785 411.707C401.095 411.368 400.555 410.893 400.164 410.281C399.773 409.669 399.578 408.973 399.578 408.191C399.578 407.397 399.773 406.694 400.164 406.082C400.555 405.464 401.095 404.985 401.785 404.646C402.475 404.301 403.257 404.129 404.129 404.129ZM404.129 405.438C403.543 405.431 403.016 405.545 402.547 405.779C402.085 406.014 401.723 406.342 401.463 406.766C401.202 407.182 401.076 407.658 401.082 408.191C401.076 408.719 401.202 409.191 401.463 409.607C401.723 410.024 402.085 410.35 402.547 410.584C403.016 410.818 403.543 410.939 404.129 410.945C404.708 410.939 405.229 410.818 405.691 410.584C406.154 410.35 406.515 410.024 406.775 409.607C407.042 409.191 407.176 408.719 407.176 408.191C407.176 407.658 407.042 407.182 406.775 406.766C406.515 406.342 406.154 406.014 405.691 405.779C405.229 405.545 404.708 405.431 404.129 405.438ZM430.379 406.59V406.805C430.366 408.237 430.32 409.523 430.242 410.662C430.171 411.795 430.001 413.107 429.734 414.598L428.172 414.422C428.38 413.393 428.53 412.423 428.621 411.512C428.719 410.6 428.777 409.79 428.797 409.08C428.823 408.37 428.836 407.54 428.836 406.59V406.121H418.133V404.852H430.379V406.59ZM432.273 417.996H416.453V416.727H422.664V410.516H424.168V416.727H432.273V417.996ZM435.066 422.879H433.621L434.695 417.566H436.59L435.066 422.879ZM458.191 416.297H456.648V414.5H453.055V413.387H456.648V403.113H458.191V416.297ZM458.621 420.086H446.277V415.008H447.82V418.797H458.621V420.086ZM443.777 411.16C446.16 411.147 448.23 411.111 449.988 411.053C451.753 410.994 453.452 410.861 455.086 410.652L455.184 411.766C453.751 411.993 452.163 412.16 450.418 412.264V415.691H448.875V412.342C447.579 412.387 446.264 412.41 444.93 412.41H443.992L443.777 411.16ZM449.48 403.816C450.32 403.816 451.062 403.943 451.707 404.197C452.358 404.445 452.863 404.799 453.221 405.262C453.585 405.717 453.771 406.245 453.777 406.844C453.771 407.456 453.585 407.99 453.221 408.445C452.863 408.895 452.358 409.243 451.707 409.49C451.062 409.731 450.32 409.852 449.48 409.852C448.634 409.852 447.885 409.731 447.234 409.49C446.583 409.243 446.079 408.895 445.721 408.445C445.363 407.99 445.184 407.456 445.184 406.844C445.184 406.245 445.363 405.717 445.721 405.262C446.079 404.799 446.583 404.445 447.234 404.197C447.885 403.943 448.634 403.816 449.48 403.816ZM449.48 404.988C448.921 404.982 448.426 405.057 447.996 405.213C447.566 405.369 447.231 405.59 446.99 405.877C446.756 406.157 446.642 406.479 446.648 406.844C446.642 407.215 446.756 407.544 446.99 407.83C447.225 408.11 447.557 408.328 447.986 408.484C448.423 408.641 448.921 408.719 449.48 408.719C450.021 408.719 450.506 408.641 450.936 408.484C451.365 408.328 451.701 408.11 451.941 407.83C452.182 407.544 452.306 407.215 452.312 406.844C452.306 406.479 452.179 406.157 451.932 405.877C451.691 405.59 451.355 405.369 450.926 405.213C450.503 405.057 450.021 404.982 449.48 404.988ZM476.98 412.625H461.18V411.355H467.723V407.84H469.227V411.355H476.98V412.625ZM474.969 420.457H473.406V415.887H462.859V414.617H474.969V420.457ZM474.969 405.359C474.969 406.271 474.943 407.081 474.891 407.791C474.845 408.501 474.728 409.292 474.539 410.164L472.996 410.008C473.198 409.142 473.322 408.374 473.367 407.703C473.419 407.026 473.445 406.245 473.445 405.359V405.301H463.055V404.051H474.969V405.359ZM493.328 420.457H491.844V403.094H493.328V420.457ZM489.832 419.578H488.367V411.141H486.131C486.079 412.26 485.893 413.234 485.574 414.061C485.255 414.881 484.822 415.516 484.275 415.965C483.729 416.408 483.1 416.629 482.391 416.629C481.642 416.629 480.984 416.385 480.418 415.896C479.858 415.402 479.425 414.699 479.119 413.787C478.813 412.876 478.66 411.811 478.66 410.594C478.66 409.376 478.813 408.312 479.119 407.4C479.425 406.489 479.858 405.789 480.418 405.301C480.984 404.806 481.642 404.559 482.391 404.559C483.087 404.559 483.706 404.773 484.246 405.203C484.786 405.633 485.216 406.248 485.535 407.049C485.861 407.85 486.056 408.79 486.121 409.871H488.367V403.465H489.832V419.578ZM482.391 406.004C481.922 406.004 481.515 406.189 481.17 406.561C480.825 406.932 480.558 407.465 480.369 408.162C480.187 408.852 480.099 409.663 480.105 410.594C480.099 411.525 480.187 412.335 480.369 413.025C480.558 413.715 480.825 414.246 481.17 414.617C481.521 414.988 481.928 415.171 482.391 415.164C482.853 415.171 483.257 414.988 483.602 414.617C483.953 414.246 484.223 413.715 484.412 413.025C484.601 412.335 484.695 411.525 484.695 410.594C484.695 409.656 484.601 408.842 484.412 408.152C484.223 407.462 483.956 406.932 483.611 406.561C483.266 406.189 482.859 406.004 482.391 406.004ZM501.844 407.762C501.844 408.79 502.046 409.806 502.449 410.809C502.853 411.811 503.4 412.703 504.09 413.484C504.78 414.259 505.542 414.839 506.375 415.223L505.457 416.473C504.474 415.965 503.595 415.219 502.82 414.236C502.046 413.253 501.466 412.143 501.082 410.906C500.691 412.215 500.109 413.39 499.334 414.432C498.566 415.473 497.69 416.258 496.707 416.785L495.711 415.555C496.551 415.145 497.319 414.529 498.016 413.709C498.712 412.882 499.262 411.948 499.666 410.906C500.076 409.858 500.281 408.81 500.281 407.762V404.598H501.844V407.762ZM510.125 420.496H508.602V410.281H504.48V409.031H508.602V403.094H510.125V420.496ZM522.918 404.148C523.784 404.142 524.562 404.311 525.252 404.656C525.949 405.001 526.492 405.486 526.883 406.111C527.28 406.736 527.482 407.443 527.488 408.23C527.482 409.031 527.28 409.744 526.883 410.369C526.492 410.994 525.952 411.482 525.262 411.834C524.572 412.179 523.79 412.352 522.918 412.352C522.046 412.352 521.261 412.179 520.564 411.834C519.874 411.482 519.334 410.994 518.943 410.369C518.553 409.744 518.361 409.031 518.367 408.23C518.361 407.443 518.553 406.74 518.943 406.121C519.334 405.496 519.874 405.011 520.564 404.666C521.261 404.314 522.046 404.142 522.918 404.148ZM522.918 405.457C522.339 405.457 521.814 405.574 521.346 405.809C520.883 406.043 520.519 406.372 520.252 406.795C519.992 407.212 519.865 407.69 519.871 408.23C519.865 408.777 519.992 409.266 520.252 409.695C520.519 410.118 520.883 410.447 521.346 410.682C521.814 410.916 522.339 411.03 522.918 411.023C523.504 411.03 524.028 410.916 524.49 410.682C524.959 410.447 525.324 410.118 525.584 409.695C525.851 409.266 525.984 408.777 525.984 408.23C525.984 407.69 525.851 407.212 525.584 406.795C525.324 406.372 524.959 406.043 524.49 405.809C524.028 405.574 523.504 405.457 522.918 405.457ZM531.609 407.586H534.227V408.875H531.609V413.328H530.086V403.094H531.609V407.586ZM531.609 420.496H530.086V415.477H520.242V414.227H531.609V420.496ZM549.676 420.457H548.133V403.094H549.676V420.457ZM544.539 404.988C544.526 407.612 543.862 409.969 542.547 412.059C541.232 414.142 539.174 415.854 536.375 417.195L535.535 415.945C537.853 414.845 539.627 413.478 540.857 411.844C542.094 410.21 542.801 408.341 542.977 406.238H536.336V404.988H544.539ZM553.934 422.879H552.488L553.562 417.566H555.457L553.934 422.879ZM578.641 418.23H562.742V416.961H569.891V413.211H564.617V404.324H566.16V407.469H575.184V404.324H576.688V413.211H571.395V416.961H578.641V418.23ZM575.184 411.961V408.719H566.16V411.961H575.184ZM589.012 403.953C589.012 406.154 588.361 407.98 587.059 409.432C585.757 410.877 583.771 411.954 581.102 412.664L580.535 411.453C583.335 410.743 585.281 409.604 586.375 408.035L580.711 408.445L580.457 407.215L586.98 406.922C587.202 406.375 587.339 405.796 587.391 405.184H581.336V403.953H589.012ZM594.422 412.098H592.879V408.562H589.07V407.293H592.879V403.094H594.422V412.098ZM594.422 417.039H584.715V418.992H595.008V420.223H583.211V415.887H592.898V414.109H583.172V412.879H594.422V417.039ZM605.223 403.406C606.512 403.406 607.615 403.523 608.533 403.758C609.451 403.986 610.151 404.324 610.633 404.773C611.115 405.216 611.355 405.757 611.355 406.395C611.355 407.371 610.822 408.12 609.754 408.641C608.686 409.161 607.176 409.428 605.223 409.441C603.934 409.435 602.827 409.314 601.902 409.08C600.984 408.846 600.281 408.504 599.793 408.055C599.311 407.599 599.07 407.046 599.07 406.395C599.07 405.757 599.311 405.216 599.793 404.773C600.281 404.324 600.984 403.986 601.902 403.758C602.827 403.523 603.934 403.406 605.223 403.406ZM605.223 404.559C604.266 404.559 603.445 404.633 602.762 404.783C602.078 404.926 601.557 405.138 601.199 405.418C600.841 405.691 600.665 406.017 600.672 406.395C600.665 406.993 601.059 407.456 601.854 407.781C602.648 408.107 603.771 408.27 605.223 408.27C606.668 408.27 607.791 408.107 608.592 407.781C609.393 407.456 609.793 406.993 609.793 406.395C609.793 406.017 609.611 405.691 609.246 405.418C608.882 405.145 608.357 404.933 607.674 404.783C606.99 404.633 606.173 404.559 605.223 404.559ZM613.133 411.863H597.312V410.613H613.133V411.863ZM611.102 417.254H600.789V419.051H611.629V420.262H599.266V416.121H609.598V414.539H599.227V413.367H611.102V417.254ZM633.68 420.086H621.668V415.086H623.211V418.797H633.68V420.086ZM635.496 413.699H619.617V412.41H626.766V409.461H628.27V412.41H635.496V413.699ZM628.289 404.344C628.289 405.132 628.579 405.883 629.158 406.6C629.738 407.309 630.496 407.911 631.434 408.406C632.371 408.895 633.354 409.22 634.383 409.383L633.777 410.594C632.892 410.424 632.039 410.151 631.219 409.773C630.398 409.389 629.663 408.921 629.012 408.367C628.367 407.807 627.872 407.189 627.527 406.512C627.176 407.195 626.678 407.817 626.033 408.377C625.395 408.937 624.663 409.406 623.836 409.783C623.016 410.161 622.163 410.431 621.277 410.594L620.652 409.383C621.681 409.214 622.664 408.882 623.602 408.387C624.539 407.892 625.298 407.29 625.877 406.58C626.456 405.87 626.746 405.125 626.746 404.344V403.562H628.289V404.344ZM642.703 405.906C642.703 406.681 642.885 407.43 643.25 408.152C643.621 408.868 644.132 409.5 644.783 410.047C645.441 410.594 646.186 411.01 647.02 411.297L646.18 412.508C645.223 412.156 644.38 411.639 643.65 410.955C642.921 410.265 642.365 409.467 641.98 408.562C641.609 409.591 641.049 410.49 640.301 411.258C639.552 412.026 638.673 412.605 637.664 412.996L636.844 411.766C637.703 411.44 638.458 410.978 639.109 410.379C639.767 409.78 640.278 409.087 640.643 408.299C641.007 407.505 641.193 406.668 641.199 405.789V403.992H642.703V405.906ZM650.477 407.625H653.094V408.914H650.477V413.66H648.953V403.094H650.477V407.625ZM644.91 414.109C646.095 414.109 647.117 414.233 647.977 414.48C648.836 414.728 649.493 415.089 649.949 415.564C650.405 416.033 650.633 416.596 650.633 417.254C650.633 417.924 650.405 418.497 649.949 418.973C649.493 419.448 648.836 419.806 647.977 420.047C647.124 420.294 646.102 420.418 644.91 420.418C643.719 420.418 642.69 420.294 641.824 420.047C640.965 419.799 640.304 419.438 639.842 418.963C639.38 418.494 639.148 417.924 639.148 417.254C639.148 416.596 639.38 416.033 639.842 415.564C640.304 415.089 640.968 414.728 641.834 414.48C642.7 414.233 643.725 414.109 644.91 414.109ZM644.91 415.34C644.044 415.34 643.292 415.418 642.654 415.574C642.016 415.724 641.528 415.945 641.189 416.238C640.851 416.525 640.685 416.863 640.691 417.254C640.685 417.658 640.851 418.006 641.189 418.299C641.528 418.592 642.013 418.813 642.645 418.963C643.283 419.119 644.038 419.201 644.91 419.207C646.238 419.194 647.277 419.018 648.025 418.68C648.774 418.341 649.148 417.866 649.148 417.254C649.148 416.857 648.979 416.515 648.641 416.229C648.302 415.942 647.814 415.724 647.176 415.574C646.538 415.418 645.783 415.34 644.91 415.34ZM657.645 415.457H660.809V413.289H662.234V420.223H656.199V413.289H657.645V415.457ZM660.809 419.012V416.629H657.645V419.012H660.809ZM667.195 414.656C667.189 415.281 667.306 415.893 667.547 416.492C667.794 417.085 668.159 417.618 668.641 418.094C669.129 418.569 669.715 418.934 670.398 419.188L669.598 420.359C668.823 420.047 668.165 419.604 667.625 419.031C667.091 418.458 666.688 417.798 666.414 417.049C666.128 417.785 665.717 418.439 665.184 419.012C664.65 419.591 664.012 420.04 663.27 420.359L662.469 419.188C663.146 418.908 663.725 418.527 664.207 418.045C664.689 417.563 665.053 417.029 665.301 416.443C665.548 415.851 665.672 415.255 665.672 414.656V413.172H667.195V414.656ZM658.973 403.875C659.741 403.875 660.441 404.012 661.072 404.285C661.704 404.559 662.221 404.949 662.625 405.457C663.035 405.958 663.296 406.538 663.406 407.195H667.039V403.094H668.582V412.293H667.039V408.465H663.416C663.318 409.142 663.064 409.738 662.654 410.252C662.251 410.766 661.73 411.163 661.092 411.443C660.454 411.723 659.747 411.863 658.973 411.863C658.1 411.863 657.322 411.697 656.639 411.365C655.955 411.027 655.421 410.555 655.037 409.949C654.653 409.337 654.461 408.641 654.461 407.859C654.461 407.085 654.653 406.395 655.037 405.789C655.421 405.184 655.955 404.715 656.639 404.383C657.322 404.044 658.1 403.875 658.973 403.875ZM658.973 405.164C658.387 405.164 657.863 405.278 657.4 405.506C656.938 405.734 656.577 406.053 656.316 406.463C656.056 406.873 655.926 407.339 655.926 407.859C655.926 408.387 656.056 408.859 656.316 409.275C656.577 409.686 656.938 410.008 657.4 410.242C657.863 410.477 658.387 410.594 658.973 410.594C659.552 410.594 660.07 410.477 660.525 410.242C660.981 410.008 661.336 409.686 661.59 409.275C661.85 408.859 661.98 408.387 661.98 407.859C661.98 407.339 661.85 406.873 661.59 406.463C661.336 406.053 660.981 405.734 660.525 405.506C660.07 405.278 659.552 405.164 658.973 405.164ZM685.789 420.496H684.246V403.094H685.789V420.496ZM676.551 404.441C677.41 404.448 678.175 404.702 678.846 405.203C679.516 405.698 680.04 406.401 680.418 407.312C680.796 408.224 680.984 409.285 680.984 410.496C680.984 411.707 680.796 412.768 680.418 413.68C680.04 414.591 679.516 415.294 678.846 415.789C678.175 416.284 677.41 416.531 676.551 416.531C675.691 416.531 674.923 416.284 674.246 415.789C673.576 415.294 673.051 414.591 672.674 413.68C672.303 412.768 672.117 411.707 672.117 410.496C672.117 409.285 672.303 408.224 672.674 407.312C673.051 406.401 673.576 405.698 674.246 405.203C674.917 404.702 675.685 404.448 676.551 404.441ZM676.551 405.809C675.971 405.815 675.457 406.014 675.008 406.404C674.565 406.788 674.22 407.335 673.973 408.045C673.725 408.748 673.602 409.565 673.602 410.496C673.602 411.427 673.725 412.247 673.973 412.957C674.22 413.66 674.568 414.204 675.018 414.588C675.467 414.972 675.978 415.164 676.551 415.164C677.124 415.164 677.635 414.972 678.084 414.588C678.533 414.204 678.882 413.66 679.129 412.957C679.376 412.247 679.5 411.427 679.5 410.496C679.5 409.565 679.376 408.748 679.129 408.045C678.882 407.335 678.533 406.788 678.084 406.404C677.641 406.014 677.13 405.815 676.551 405.809ZM709.656 413.543H702.586V416.941H701.062V413.543H693.758V412.293H709.656V413.543ZM707.879 420.086H695.789V415.34H697.312V418.797H707.879V420.086ZM697.41 405.887H706.004V403.66H707.527V410.594H695.887V403.66H697.41V405.887ZM706.004 409.344V407.059H697.41V409.344H706.004ZM725.398 420.496H723.875V403.094H725.398V420.496ZM720.125 410.887H713.641V414.988C715.197 414.988 716.642 414.943 717.977 414.852C719.318 414.76 720.724 414.598 722.195 414.363L722.352 415.652C720.848 415.893 719.409 416.059 718.035 416.15C716.661 416.235 715.158 416.277 713.523 416.277H712.078V409.637H718.582V405.984H712.039V404.715H720.125V410.887ZM729.676 422.879H728.23L729.305 417.566H731.199L729.676 422.879ZM754.305 414.891H747.137V420.496H745.633V414.891H738.484V413.602H754.305V414.891ZM747.156 406.531C747.156 407.228 747.446 407.895 748.025 408.533C748.605 409.165 749.367 409.702 750.311 410.145C751.255 410.587 752.247 410.88 753.289 411.023L752.723 412.254C751.824 412.117 750.958 411.88 750.125 411.541C749.298 411.202 748.559 410.783 747.908 410.281C747.264 409.78 746.762 409.22 746.404 408.602C746.046 409.227 745.538 409.79 744.881 410.291C744.23 410.792 743.488 411.212 742.654 411.551C741.821 411.883 740.952 412.117 740.047 412.254L739.48 411.023C740.522 410.88 741.515 410.59 742.459 410.154C743.403 409.712 744.168 409.174 744.754 408.543C745.34 407.905 745.633 407.234 745.633 406.531V406.512H740.027V405.262H745.633V403.094H747.137V405.262H752.781V406.512H747.156V406.531ZM771.59 412.02H764.422V413.641H769.559V417.391H759.246V419.09H770.086V420.262H757.723V416.297H768.055V414.793H757.684V413.641H762.918V412.02H755.789V410.828H771.59V412.02ZM764.422 404.617H769.988V405.828H764.539C764.63 406.388 764.962 406.886 765.535 407.322C766.108 407.752 766.847 408.097 767.752 408.357C768.657 408.618 769.65 408.784 770.73 408.855L770.262 410.027C768.732 409.897 767.378 409.598 766.199 409.129C765.027 408.66 764.188 408.029 763.68 407.234C763.172 408.029 762.329 408.66 761.15 409.129C759.972 409.598 758.615 409.897 757.078 410.027L756.629 408.855C757.703 408.784 758.693 408.618 759.598 408.357C760.503 408.097 761.238 407.752 761.805 407.322C762.378 406.886 762.713 406.388 762.811 405.828H757.41V404.617H762.918V402.996H764.422V404.617ZM786.629 407.254H789.266V408.523H786.629V412.645H785.105V403.035H786.629V407.254ZM786.629 417.391H777.098V419.09H787.273V420.262H775.594V416.258H785.105V414.695H775.555V413.543H786.629V417.391ZM783.445 405.906H773.094V404.676H777.508V402.918H779.031V404.676H783.445V405.906ZM778.27 406.688C779.103 406.688 779.832 406.805 780.457 407.039C781.089 407.267 781.577 407.596 781.922 408.025C782.267 408.455 782.443 408.96 782.449 409.539C782.443 410.118 782.267 410.623 781.922 411.053C781.577 411.482 781.089 411.814 780.457 412.049C779.832 412.277 779.103 412.391 778.27 412.391C777.43 412.391 776.691 412.277 776.053 412.049C775.421 411.814 774.933 411.482 774.588 411.053C774.249 410.623 774.083 410.118 774.09 409.539C774.083 408.96 774.249 408.455 774.588 408.025C774.933 407.596 775.421 407.267 776.053 407.039C776.691 406.805 777.43 406.688 778.27 406.688ZM778.27 407.82C777.729 407.82 777.251 407.892 776.834 408.035C776.424 408.178 776.105 408.38 775.877 408.641C775.656 408.901 775.548 409.201 775.555 409.539C775.548 409.884 775.656 410.187 775.877 410.447C776.105 410.701 776.424 410.896 776.834 411.033C777.244 411.17 777.723 411.238 778.27 411.238C779.096 411.238 779.757 411.089 780.252 410.789C780.747 410.483 780.997 410.066 781.004 409.539C780.997 409.194 780.88 408.895 780.652 408.641C780.424 408.38 780.105 408.178 779.695 408.035C779.285 407.892 778.81 407.82 778.27 407.82ZM804.07 404.715C804.07 405.496 804.373 406.245 804.979 406.961C805.59 407.677 806.385 408.279 807.361 408.768C808.338 409.256 809.35 409.572 810.398 409.715L809.773 410.965C808.862 410.815 807.98 410.555 807.127 410.184C806.274 409.806 805.512 409.337 804.842 408.777C804.171 408.211 803.654 407.583 803.289 406.893C802.931 407.583 802.413 408.211 801.736 408.777C801.066 409.337 800.304 409.806 799.451 410.184C798.598 410.555 797.716 410.815 796.805 410.965L796.18 409.715C797.234 409.572 798.247 409.259 799.217 408.777C800.187 408.289 800.975 407.69 801.58 406.98C802.186 406.264 802.488 405.509 802.488 404.715V403.719H804.07V404.715ZM811.18 414.168H803.992V420.457H802.488V414.168H795.359V412.879H811.18V414.168ZM823.543 414.754C823.543 415.555 823.755 416.326 824.178 417.068C824.607 417.811 825.219 418.406 826.014 418.855C826.541 418.523 826.997 418.126 827.381 417.664C827.765 417.195 828.055 416.71 828.25 416.209C828.445 415.701 828.543 415.216 828.543 414.754V413.797H830.047V414.754C830.047 415.353 830.187 415.939 830.467 416.512C830.753 417.078 831.163 417.589 831.697 418.045C832.231 418.494 832.859 418.842 833.582 419.09L832.82 420.223C831.967 419.923 831.238 419.487 830.633 418.914C830.027 418.341 829.572 417.684 829.266 416.941C828.979 417.684 828.566 418.357 828.025 418.963C827.485 419.568 826.831 420.034 826.062 420.359C825.249 420.047 824.565 419.594 824.012 419.002C823.465 418.416 823.055 417.742 822.781 416.98C822.462 417.703 822.007 418.348 821.414 418.914C820.822 419.48 820.118 419.917 819.305 420.223L818.523 419.09C819.233 418.823 819.852 418.458 820.379 417.996C820.913 417.527 821.323 417.01 821.609 416.443C821.902 415.877 822.052 415.314 822.059 414.754V413.797H823.543V414.754ZM832 413.035H830.477V403.113H832V413.035ZM822.625 404.129C823.497 404.129 824.279 404.301 824.969 404.646C825.659 404.985 826.199 405.464 826.59 406.082C826.98 406.694 827.176 407.397 827.176 408.191C827.176 408.973 826.98 409.669 826.59 410.281C826.199 410.893 825.659 411.368 824.969 411.707C824.279 412.046 823.497 412.215 822.625 412.215C821.753 412.215 820.971 412.046 820.281 411.707C819.591 411.368 819.051 410.893 818.66 410.281C818.27 409.669 818.074 408.973 818.074 408.191C818.074 407.397 818.27 406.694 818.66 406.082C819.051 405.464 819.591 404.985 820.281 404.646C820.971 404.301 821.753 404.129 822.625 404.129ZM822.625 405.438C822.039 405.431 821.512 405.545 821.043 405.779C820.581 406.014 820.219 406.342 819.959 406.766C819.699 407.182 819.572 407.658 819.578 408.191C819.572 408.719 819.699 409.191 819.959 409.607C820.219 410.024 820.581 410.35 821.043 410.584C821.512 410.818 822.039 410.939 822.625 410.945C823.204 410.939 823.725 410.818 824.188 410.584C824.65 410.35 825.011 410.024 825.271 409.607C825.538 409.191 825.672 408.719 825.672 408.191C825.672 407.658 825.538 407.182 825.271 406.766C825.011 406.342 824.65 406.014 824.188 405.779C823.725 405.545 823.204 405.431 822.625 405.438ZM838.484 415.555H847.156V413.523H848.699V420.223H836.961V413.523H838.484V415.555ZM847.156 418.992V416.766H838.484V418.992H847.156ZM850.77 412.293H834.949V411.023H850.77V412.293ZM843.66 404.109C843.66 404.799 843.96 405.464 844.559 406.102C845.158 406.733 845.936 407.27 846.893 407.713C847.856 408.149 848.849 408.432 849.871 408.562L849.305 409.793C848.4 409.656 847.521 409.419 846.668 409.08C845.822 408.735 845.066 408.305 844.402 407.791C843.738 407.277 843.227 406.704 842.869 406.072C842.511 406.704 841.997 407.277 841.326 407.791C840.662 408.305 839.907 408.735 839.061 409.08C838.214 409.419 837.339 409.656 836.434 409.793L835.848 408.562C836.889 408.426 837.889 408.143 838.846 407.713C839.809 407.277 840.587 406.746 841.18 406.121C841.779 405.49 842.078 404.819 842.078 404.109V403.289H843.66V404.109ZM866.551 420.457H865.027V403.094H866.551V420.457ZM854.871 414.656C857.807 414.643 860.574 414.363 863.172 413.816L863.387 415.125C861.909 415.431 860.47 415.652 859.07 415.789C857.671 415.919 856.238 415.984 854.773 415.984H853.367V404.812H854.871V414.656ZM882.957 409.969H885.867V411.258H882.957V420.496H881.434V403.094H882.957V409.969ZM878.387 406.062H871.805V414.852C873.426 414.852 874.842 414.806 876.053 414.715C877.264 414.624 878.497 414.461 879.754 414.227L879.949 415.555C878.667 415.789 877.407 415.945 876.17 416.023C874.933 416.102 873.426 416.141 871.648 416.141H870.281V404.793H878.387V406.062ZM888.641 418.992C888.413 418.992 888.201 418.937 888.006 418.826C887.817 418.709 887.664 418.553 887.547 418.357C887.436 418.162 887.384 417.951 887.391 417.723C887.384 417.501 887.436 417.296 887.547 417.107C887.664 416.912 887.817 416.759 888.006 416.648C888.201 416.531 888.413 416.473 888.641 416.473C888.862 416.473 889.067 416.531 889.256 416.648C889.451 416.759 889.604 416.912 889.715 417.107C889.832 417.296 889.891 417.501 889.891 417.723C889.891 417.951 889.832 418.162 889.715 418.357C889.604 418.553 889.451 418.709 889.256 418.826C889.067 418.937 888.862 418.992 888.641 418.992Z" fill="#F9F9F9"/>
<g clip-path="url(#clip0_2519_1434)">
<path d="M319.266 219.836C327.156 219.836 332.156 222.453 332.195 226.789C332.156 231.086 327.156 233.703 319.266 233.664C311.414 233.703 306.297 231.086 306.297 226.789C306.297 222.453 311.414 219.836 319.266 219.836ZM319.266 223.703C314.305 223.703 311.453 224.758 311.492 226.789C311.453 228.781 314.305 229.797 319.266 229.797C324.188 229.797 327.039 228.781 327.039 226.789C327.039 224.758 324.188 223.703 319.266 223.703ZM331.609 242.219V254.328H306.805V242.219H331.609ZM311.727 246.164V250.344H326.727V246.164H311.727ZM335.477 235.734V239.719H303.055V235.734H335.477ZM347.625 221.125C353.133 221.086 357.312 224.758 357.312 229.758C357.312 234.875 353.133 238.469 347.625 238.469C342.078 238.469 337.859 234.875 337.859 229.758C337.859 224.758 342.078 221.086 347.625 221.125ZM347.625 225.383C344.812 225.383 342.742 226.984 342.781 229.758C342.742 232.609 344.812 234.25 347.625 234.25C350.359 234.25 352.43 232.609 352.469 229.758C352.43 226.984 350.359 225.383 347.625 225.383ZM365.828 219.172V227.531H370.633V231.594H365.828V239.953H360.828V219.172H365.828ZM365.828 241.438V254.758H360.828V245.461H341.883V241.438H365.828ZM411.375 219.211V245.188H406.414V236.75H398.289C396.57 238.566 394.09 239.68 391.336 239.68C385.945 239.68 381.844 235.773 381.883 230.5C381.844 225.148 385.945 221.281 391.336 221.242C394.09 221.262 396.551 222.355 398.289 224.172H406.414V219.211H411.375ZM412.234 250.109V254.094H387.781V242.57H392.781V250.109H412.234ZM391.336 225.695C388.562 225.695 386.57 227.492 386.609 230.5C386.57 233.469 388.562 235.266 391.336 235.266C393.953 235.266 395.984 233.469 395.984 230.5C395.984 227.492 393.953 225.695 391.336 225.695ZM400.438 228.156C400.613 228.898 400.711 229.68 400.711 230.5C400.711 231.281 400.613 232.043 400.438 232.766H406.414V228.156H400.438ZM448.406 238.781V242.766H434.578V254.719H429.656V242.766H415.984V238.781H448.406ZM445.516 221.047V224.953H435.164C435.652 228.43 439.578 231.926 446.883 232.805L445.086 236.711C438.836 235.871 434.363 233.195 432.234 229.523C430.047 233.195 425.613 235.871 419.422 236.711L417.586 232.805C424.773 231.926 428.738 228.43 429.305 224.953H418.914V221.047H445.516ZM463.68 228.859C463.641 234.289 466.531 240.539 472.391 243.234L469.617 247.141C465.652 245.324 462.82 241.691 461.258 237.414C459.656 242.121 456.746 246.105 452.625 248.039L449.734 244.094C455.672 241.32 458.641 234.719 458.68 228.859V226.672H451.141V222.609H470.828V226.672H463.68V228.859ZM478.602 219.172V232.727H483.836V236.906H478.602V254.719H473.602V219.172H478.602ZM319.266 459.836C327.156 459.836 332.156 462.453 332.195 466.789C332.156 471.086 327.156 473.703 319.266 473.664C311.414 473.703 306.297 471.086 306.297 466.789C306.297 462.453 311.414 459.836 319.266 459.836ZM319.266 463.703C314.305 463.703 311.453 464.758 311.492 466.789C311.453 468.781 314.305 469.797 319.266 469.797C324.188 469.797 327.039 468.781 327.039 466.789C327.039 464.758 324.188 463.703 319.266 463.703ZM331.609 482.219V494.328H306.805V482.219H331.609ZM311.727 486.164V490.344H326.727V486.164H311.727ZM335.477 475.734V479.719H303.055V475.734H335.477ZM347.625 461.125C353.133 461.086 357.312 464.758 357.312 469.758C357.312 474.875 353.133 478.469 347.625 478.469C342.078 478.469 337.859 474.875 337.859 469.758C337.859 464.758 342.078 461.086 347.625 461.125ZM347.625 465.383C344.812 465.383 342.742 466.984 342.781 469.758C342.742 472.609 344.812 474.25 347.625 474.25C350.359 474.25 352.43 472.609 352.469 469.758C352.43 466.984 350.359 465.383 347.625 465.383ZM365.828 459.172V467.531H370.633V471.594H365.828V479.953H360.828V459.172H365.828ZM365.828 481.438V494.758H360.828V485.461H341.883V481.438H365.828ZM411.375 459.211V485.188H406.414V476.75H398.289C396.57 478.566 394.09 479.68 391.336 479.68C385.945 479.68 381.844 475.773 381.883 470.5C381.844 465.148 385.945 461.281 391.336 461.242C394.09 461.262 396.551 462.355 398.289 464.172H406.414V459.211H411.375ZM412.234 490.109V494.094H387.781V482.57H392.781V490.109H412.234ZM391.336 465.695C388.562 465.695 386.57 467.492 386.609 470.5C386.57 473.469 388.562 475.266 391.336 475.266C393.953 475.266 395.984 473.469 395.984 470.5C395.984 467.492 393.953 465.695 391.336 465.695ZM400.438 468.156C400.613 468.898 400.711 469.68 400.711 470.5C400.711 471.281 400.613 472.043 400.438 472.766H406.414V468.156H400.438ZM448.406 478.781V482.766H434.578V494.719H429.656V482.766H415.984V478.781H448.406ZM445.516 461.047V464.953H435.164C435.652 468.43 439.578 471.926 446.883 472.805L445.086 476.711C438.836 475.871 434.363 473.195 432.234 469.523C430.047 473.195 425.613 475.871 419.422 476.711L417.586 472.805C424.773 471.926 428.738 468.43 429.305 464.953H418.914V461.047H445.516ZM463.68 468.859C463.641 474.289 466.531 480.539 472.391 483.234L469.617 487.141C465.652 485.324 462.82 481.691 461.258 477.414C459.656 482.121 456.746 486.105 452.625 488.039L449.734 484.094C455.672 481.32 458.641 474.719 458.68 468.859V466.672H451.141V462.609H470.828V466.672H463.68V468.859ZM478.602 459.172V472.727H483.836V476.906H478.602V494.719H473.602V459.172H478.602Z" fill="url(#paint0_linear_2519_1434)"/>
<path d="M323.25 269.242V273.227H316.18C316.219 277.387 318.68 281.645 324.461 283.5L321.922 287.367C317.977 286.098 315.262 283.559 313.719 280.375C312.137 283.852 309.305 286.605 305.164 287.953L302.508 284.125C308.387 282.23 311.062 277.68 311.141 273.227H303.875V269.242H323.25ZM331.258 267.172V275.805H336.062V279.945H331.258V288.617H326.258V267.172H331.258ZM331.258 290.141V302.719H326.258V294.086H307.312V290.141H331.258ZM369.969 283.5V287.484H337.703V283.5H349.812V276.859H354.734V283.5H369.969ZM365.828 290.531V302.719H360.828V294.516H340.984V290.531H365.828ZM366.141 268.93V271.469C366.141 274.125 366.141 277.406 365.281 281.664L360.281 281.195C361.004 277.758 361.121 275.121 361.18 272.836H341.336V268.93H366.141ZM400.242 267.172V280.805H405.281V284.906H400.242V302.641H395.242V267.172H400.242ZM390.75 270.805C390.711 281.43 386.57 290.648 374.617 296.508L371.805 292.68C380.223 288.461 384.734 282.797 385.672 274.867H373.836V270.805H390.75Z" fill="#F5C1FF"/>
<path d="M332.039 331.617V335.602H306.883V318.141H331.766V322.164H311.805V331.617H332.039ZM335.594 342.281V346.383H303.055V342.281H335.594ZM367.586 315.172V350.797H362.625V332.047H356.883V327.984H362.625V315.172H367.586ZM354.891 318.141V331.461H343.836V338.414C348.738 338.375 352.898 338.199 357.469 337.398L357.859 341.461C352.586 342.32 347.742 342.516 341.805 342.516H338.875V327.516H350.047V322.164H338.797V318.141H354.891ZM390.555 318.336V327.477H397.273V315.172H402.195V350.797H397.273V331.5H390.555V342.047H373.523V318.336H390.555ZM378.484 322.203V338.18H385.672V322.203H378.484Z" fill="#F6FF95"/>
<path d="M308.758 366.375V374.617H313.68V366.375H318.211V376.141H321.766V363.758H326.453V397.156H321.766V380.203H318.211V390.281H304.07V366.375H308.758ZM308.758 386.219H313.68V378.562H308.758V386.219ZM333.875 363.172V398.719H329.109V363.172H333.875ZM367.391 363.172V398.797H362.352V363.172H367.391ZM348.094 365.672C353.445 365.672 357.43 370.594 357.43 378.328C357.43 386.141 353.445 391.023 348.094 391.023C342.625 391.023 338.641 386.141 338.68 378.328C338.641 370.594 342.625 365.672 348.094 365.672ZM348.094 370.164C345.32 370.164 343.484 373.055 343.484 378.328C343.484 383.641 345.32 386.492 348.094 386.492C350.789 386.492 352.625 383.641 352.625 378.328C352.625 373.055 350.789 370.164 348.094 370.164ZM386.023 371.219C386.023 377.742 388.992 384.305 395.008 386.844L392.078 390.828C388.016 388.992 385.203 385.457 383.602 381.062C381.98 385.848 379.07 389.715 374.734 391.688L371.727 387.547C377.938 384.93 380.945 378.133 380.984 371.219V365.906H386.023V371.219ZM401.961 363.172V398.797H396.922V363.172H401.961ZM425.477 367.859C425.477 373.055 430.086 378.641 438.133 380.008L435.945 384.148C429.754 382.918 425.145 379.441 422.859 374.852C420.496 379.402 415.887 382.898 409.734 384.148L407.586 380.008C415.477 378.602 420.125 373.016 420.164 367.859V365.281H425.477V367.859ZM439.305 390.242V394.344H406.766V390.242H439.305ZM470.32 381.531V385.477H445.164V365.789H470.047V369.812H450.242V373.562H469.227V377.469H450.242V381.531H470.32ZM473.875 390.516V394.578H441.336V390.516H473.875Z" fill="url(#paint1_linear_2519_1434)"/>
<path d="M335.594 438.516V442.578H303.055V438.516H316.766V431.953H306.492V413.438H311.492V418.945H327V413.438H331.961V431.953H321.727V438.516H335.594ZM311.492 427.969H327V422.93H311.492V427.969ZM356.258 412.695C356.258 422.305 351.492 427.891 340.047 430.586L338.289 426.797C343.211 425.723 346.395 424.141 348.367 422.148L339.148 422.812L338.445 419.102L350.516 418.672C350.75 418.008 350.906 417.305 350.984 416.562H340.242V412.695H356.258ZM367.586 411.172V429.18H362.625V422.852H356.336V418.789H362.625V411.172H367.586ZM367.586 430.508V440.117H348.914V442.422H368.367V446.328H343.992V436.523H362.664V434.336H343.953V430.508H367.586ZM402 411.172V446.797H397.039V411.172H402ZM390.984 414.141V427.852H379.266V434.375C384.676 434.355 389.285 434.043 394.5 433.203L394.93 437.227C389.07 438.242 383.797 438.477 377.312 438.477H374.109V423.906H385.906V418.164H374.07V414.141H390.984ZM425.477 415.859C425.477 421.055 430.086 426.641 438.133 428.008L435.945 432.148C429.754 430.918 425.145 427.441 422.859 422.852C420.496 427.402 415.887 430.898 409.734 432.148L407.586 428.008C415.477 426.602 420.125 421.016 420.164 415.859V413.281H425.477V415.859ZM439.305 438.242V442.344H406.766V438.242H439.305ZM470.32 429.531V433.477H445.164V413.789H470.047V417.812H450.242V421.562H469.227V425.469H450.242V429.531H470.32ZM473.875 438.516V442.578H441.336V438.516H473.875Z" fill="url(#paint2_linear_2519_1434)"/>
</g>
<g style="mix-blend-mode:plus-lighter">
<ellipse cx="1489.5" cy="320" rx="195.5" ry="197" fill="url(#paint3_radial_2519_1434)"/>
</g>
<rect x="1360" y="214" width="200" height="200" rx="20" fill="url(#paint4_linear_2519_1434)"/>
<path fill-rule="evenodd" clip-rule="evenodd" d="M1468.46 276.252C1469.92 273.301 1467.77 269.852 1464.48 269.852H1439.31C1437.62 269.852 1436.08 270.814 1435.33 272.333L1431.23 280.674C1429.78 283.624 1431.92 287.074 1435.21 287.074H1460.38C1462.07 287.074 1463.62 286.112 1464.36 284.593L1468.46 276.252ZM1460.96 298.972C1461.71 297.453 1463.26 296.491 1464.95 296.491H1490.11C1493.4 296.491 1495.55 299.94 1494.1 302.89L1492.65 305.845C1491.2 308.795 1493.34 312.244 1496.63 312.244H1516.33C1519.62 312.244 1521.76 315.693 1520.31 318.644L1516.21 326.985C1515.46 328.503 1513.92 329.465 1512.23 329.465H1484.37C1482.68 329.465 1481.14 330.427 1480.39 331.946L1475.13 342.637C1474.39 344.156 1472.84 345.118 1471.15 345.118H1444.28C1442.58 345.118 1441.04 346.08 1440.29 347.598L1435.04 358.283C1434.29 359.802 1432.74 360.764 1431.05 360.764H1405.89C1402.6 360.764 1400.45 357.314 1401.9 354.364L1406 346.023C1406.75 344.504 1408.3 343.542 1409.99 343.542H1436.86C1438.55 343.542 1440.1 342.58 1440.85 341.062L1443.4 335.865C1444.85 332.914 1442.71 329.465 1439.42 329.465H1421.53C1418.25 329.465 1416.1 326.016 1417.55 323.066L1421.65 314.725C1422.4 313.206 1423.94 312.244 1425.64 312.244H1451.67C1453.37 312.244 1454.91 311.282 1455.66 309.763L1460.96 298.972ZM1455.99 316.193C1456.74 314.674 1458.28 313.712 1459.98 313.712H1480.54C1483.83 313.712 1485.98 317.161 1484.53 320.112L1481.92 325.416C1481.17 326.935 1479.63 327.897 1477.94 327.897H1457.37C1454.08 327.897 1451.93 324.448 1453.38 321.497L1455.99 316.193Z" fill="white"/>
<defs>
<linearGradient id="paint0_linear_2519_1434" x1="363.824" y1="256.704" x2="598.911" y2="280.533" gradientUnits="userSpaceOnUse">
<stop stop-color="#B495FF"/>
<stop offset="1" stop-color="#00EAFF"/>
</linearGradient>
<linearGradient id="paint1_linear_2519_1434" x1="363.824" y1="256.704" x2="598.911" y2="280.533" gradientUnits="userSpaceOnUse">
<stop stop-color="#B495FF"/>
</linearGradient>
<linearGradient id="paint2_linear_2519_1434" x1="363.824" y1="256.704" x2="598.911" y2="280.533" gradientUnits="userSpaceOnUse">
<stop offset="1" stop-color="#00EAFF"/>
</linearGradient>
<radialGradient id="paint3_radial_2519_1434" cx="0" cy="0" r="1" gradientUnits="userSpaceOnUse" gradientTransform="translate(1489.5 320) rotate(90) scale(197 195.5)">
<stop stop-color="#1D4556"/>
<stop offset="1" stop-color="#06061C" stop-opacity="0"/>
</radialGradient>
<linearGradient id="paint4_linear_2519_1434" x1="2029.37" y1="399.383" x2="1465.23" y2="399.383" gradientUnits="userSpaceOnUse">
<stop stop-color="#7185E1"/>
<stop offset="0.43" stop-color="#6F3DA1"/>
<stop offset="1" stop-color="#392E6D"/>
</linearGradient>
<clipPath id="clip0_2519_1434">
<rect width="263" height="44" fill="white" transform="translate(302 213.125)"/>
</clipPath>
</defs>
</svg>
