<svg width="1919" height="980" viewBox="0 0 1919 980" fill="none" xmlns="http://www.w3.org/2000/svg">
<rect width="1920" height="980" fill="#17171E"/>
<path d="M755.473 115.656V127.609H761.239V132.531H755.473V146.219H749.426V115.656H755.473ZM743.848 118.844C743.848 130.375 736.629 138.438 723.833 142.047L721.348 137.312C730.887 134.641 736.301 129.695 737.286 123.719H723.223V118.844H743.848ZM756.926 152.781V157.562H727.723V143.078H733.77V152.781H756.926ZM799.067 115.656V147.062H793.114V136.562H787.676V131.641H793.114V127.938H787.676V123.156H793.114V115.656H799.067ZM786.926 118.703V123.484H783.411V136.422C784.84 136.328 786.247 136.188 787.583 136.047L787.817 140.406C779.848 141.719 770.473 141.906 763.723 141.906L763.114 137.031L767.661 136.984V123.484H764.192V118.703H786.926ZM800.098 152.781V157.562H770.708V144.719H776.708V152.781H800.098ZM773.426 136.891L777.692 136.75V123.484H773.426V136.891ZM838.254 115.656V132.344H844.536V137.266H838.254V158.312H832.348V115.656H838.254ZM829.442 122.031V126.812H804.364V122.031H814.02V116.312H820.02V122.031H829.442ZM817.02 129.203C823.254 129.203 827.895 133.422 827.895 139.375C827.895 145.328 823.254 149.547 817.02 149.547C810.739 149.547 806.098 145.328 806.098 139.375C806.098 133.422 810.739 129.203 817.02 129.203ZM817.02 134.031C814.02 134.078 811.817 136.094 811.817 139.375C811.817 142.703 814.02 144.672 817.02 144.625C820.02 144.672 822.176 142.703 822.176 139.375C822.176 136.094 820.02 134.078 817.02 134.031ZM883.067 115.656V158.312H877.442V115.656H883.067ZM873.973 116.594V156.438H868.395V136.844H861.411C858.973 141.719 855.012 145.938 848.942 149.453L845.567 145.234C854.168 140.125 857.965 133.914 858.786 125.547H847.911V120.719H864.739C864.715 124.773 864.293 128.594 863.286 132.109H868.395V116.594H873.973ZM935.426 115.656V158.312H929.661V136.984H925.676V156.25H920.051V116.359H925.676V132.156H929.661V115.656H935.426ZM906.364 120.391V142.656C909.786 142.586 913.536 142.281 917.661 141.484L918.27 146.641C912.551 147.625 907.676 147.906 903.27 147.906H900.364V120.391H906.364ZM961.864 118.422V137.547H941.379V118.422H961.864ZM947.286 123.203V132.812H955.958V123.203H947.286ZM973.958 115.656V125.219H979.723V130H973.958V139.938H967.958V115.656H973.958ZM973.958 141.719V157.844H946.067V141.719H973.958ZM951.973 146.453V153.062H968.051V146.453H951.973ZM1018.49 115.656V158.312H1012.82V136.891H1008.69V156.25H1003.21V116.359H1008.69V132.109H1012.82V115.656H1018.49ZM998.708 120.578V125.406H988.817V143.594C992.942 143.57 996.598 143.359 1000.72 142.609L1001.15 147.484C995.942 148.469 991.395 148.609 985.77 148.656H982.817V120.578H998.708ZM1062.13 148.656V153.578H1023.08V148.656H1039.54V142.234H1027.58V127.891H1051.72V123.203H1027.54V118.422H1057.63V132.578H1033.58V137.359H1058.61V142.234H1045.49V148.656H1062.13ZM1111.4 115.656V158.406H1105.44V115.656H1111.4ZM1098.18 119.219V135.672H1084.11V143.5C1090.61 143.477 1096.14 143.102 1102.4 142.094L1102.91 146.922C1095.88 148.141 1089.55 148.422 1081.77 148.422H1077.93V130.938H1092.08V124.047H1077.88V119.219H1098.18ZM1152.83 142.703V158.312H1146.83V147.484H1123.49V142.703H1152.83ZM1152.83 115.656V140.688H1146.83V115.656H1152.83ZM1140.13 118.375V138.109H1119.27V118.375H1140.13ZM1125.18 123.156V133.469H1134.18V123.156H1125.18ZM1181.05 121.281C1181.05 127.516 1186.58 134.219 1196.24 135.859L1193.61 140.828C1186.18 139.352 1180.65 135.18 1177.91 129.672C1175.07 135.133 1169.54 139.328 1162.16 140.828L1159.58 135.859C1169.05 134.172 1174.63 127.469 1174.68 121.281V118.188H1181.05V121.281ZM1197.65 148.141V153.062H1158.6V148.141H1197.65Z" fill="white"/>
<path d="M548.642 207.264H562.394V208.896H548.642V207.264ZM546.29 222.264H565.898V223.92H546.29V222.264ZM561.578 207.264H563.522V209.328C563.522 210.208 563.506 211.144 563.474 212.136C563.458 213.128 563.386 214.216 563.258 215.4C563.146 216.568 562.938 217.896 562.634 219.384L560.666 219.168C561.114 217.056 561.378 215.208 561.458 213.624C561.538 212.04 561.578 210.608 561.578 209.328V207.264ZM562.034 212.472V213.984L548.33 214.776L548.018 213.048L562.034 212.472ZM553.922 216.648H555.89V222.864H553.922V216.648ZM570.864 215.568H585.768V217.2H570.864V215.568ZM568.368 222.264H588.048V223.92H568.368V222.264ZM570.864 207.168H585.552V208.8H572.832V216.288H570.864V207.168ZM592.271 205.824H608.183V207.36H592.271V205.824ZM592.343 211.488H608.111V213.024H592.343V211.488ZM595.535 206.4H597.527V212.52H595.535V206.4ZM602.927 206.4H604.919V212.52H602.927V206.4ZM590.447 214.824H610.055V216.432H590.447V214.824ZM592.823 218.328H607.535V223.104H594.815V225.72H592.871V221.664H605.591V219.816H592.823V218.328ZM592.871 225.096H608.183V226.632H592.871V225.096ZM613.245 219.864H614.685C615.997 219.864 617.293 219.832 618.573 219.768C619.869 219.688 621.261 219.52 622.749 219.264L622.917 220.896C621.397 221.168 619.981 221.344 618.669 221.424C617.373 221.488 616.045 221.52 614.685 221.52H613.245V219.864ZM613.197 207.552H620.925V215.088H615.165V220.56H613.245V213.48H619.005V209.184H613.197V207.552ZM629.037 205.152H630.933V226.872H629.037V205.152ZM621.957 212.952H625.485V214.608H621.957V212.952ZM624.645 205.68H626.517V225.72H624.645V205.68ZM650.371 205.152H652.363V226.896H650.371V205.152ZM640.915 206.832C641.987 206.832 642.931 207.144 643.747 207.768C644.579 208.376 645.227 209.248 645.691 210.384C646.171 211.52 646.411 212.856 646.411 214.392C646.411 215.928 646.171 217.264 645.691 218.4C645.227 219.536 644.579 220.416 643.747 221.04C642.931 221.664 641.987 221.976 640.915 221.976C639.843 221.976 638.891 221.664 638.059 221.04C637.227 220.416 636.571 219.536 636.091 218.4C635.627 217.264 635.395 215.928 635.395 214.392C635.395 212.856 635.627 211.52 636.091 210.384C636.571 209.248 637.227 208.376 638.059 207.768C638.891 207.144 639.843 206.832 640.915 206.832ZM640.915 208.608C640.195 208.608 639.563 208.848 639.019 209.328C638.491 209.792 638.075 210.464 637.771 211.344C637.467 212.208 637.315 213.224 637.315 214.392C637.315 215.56 637.467 216.584 637.771 217.464C638.075 218.328 638.491 219 639.019 219.48C639.563 219.96 640.195 220.2 640.915 220.2C641.619 220.2 642.235 219.96 642.763 219.48C643.307 219 643.731 218.328 644.035 217.464C644.339 216.584 644.491 215.56 644.491 214.392C644.491 213.224 644.339 212.208 644.035 211.344C643.731 210.464 643.307 209.792 642.763 209.328C642.235 208.848 641.619 208.608 640.915 208.608ZM663.713 206.736C664.849 206.736 665.849 206.952 666.713 207.384C667.593 207.8 668.281 208.392 668.777 209.16C669.273 209.928 669.521 210.824 669.521 211.848C669.521 212.856 669.273 213.752 668.777 214.536C668.281 215.304 667.593 215.904 666.713 216.336C665.849 216.752 664.849 216.96 663.713 216.96C662.593 216.96 661.593 216.752 660.713 216.336C659.833 215.904 659.137 215.304 658.625 214.536C658.129 213.752 657.881 212.856 657.881 211.848C657.881 210.824 658.129 209.928 658.625 209.16C659.137 208.392 659.833 207.8 660.713 207.384C661.593 206.952 662.593 206.736 663.713 206.736ZM663.713 208.464C662.977 208.464 662.313 208.608 661.721 208.896C661.145 209.168 660.689 209.56 660.353 210.072C660.017 210.584 659.849 211.176 659.849 211.848C659.849 212.52 660.017 213.112 660.353 213.624C660.689 214.136 661.145 214.536 661.721 214.824C662.313 215.096 662.977 215.232 663.713 215.232C664.465 215.232 665.129 215.096 665.705 214.824C666.281 214.536 666.737 214.136 667.073 213.624C667.409 213.112 667.577 212.52 667.577 211.848C667.577 211.176 667.409 210.584 667.073 210.072C666.737 209.56 666.281 209.168 665.705 208.896C665.129 208.608 664.465 208.464 663.713 208.464ZM672.377 205.152H674.369V226.896H672.377V205.152ZM657.065 222.144L656.801 220.464C658.129 220.464 659.585 220.456 661.169 220.44C662.753 220.408 664.385 220.344 666.065 220.248C667.761 220.136 669.393 219.96 670.961 219.72L671.129 221.184C669.497 221.488 667.841 221.712 666.161 221.856C664.497 221.984 662.889 222.064 661.337 222.096C659.785 222.128 658.361 222.144 657.065 222.144ZM691.809 209.449L686.161 225H683.852L690.356 207.938H691.844L691.809 209.449ZM696.543 225L690.883 209.449L690.848 207.938H692.336L698.864 225H696.543ZM696.25 218.684V220.535H686.665V218.684H696.25ZM703.575 207.938V225H701.313V207.938H703.575ZM706.884 215.232H726.564V216.768H706.884V215.232ZM709.236 218.496H724.116V223.128H711.252V225.672H709.284V221.76H722.148V219.936H709.236V218.496ZM709.284 225.144H724.812V226.584H709.284V225.144ZM709.38 205.8H724.044V210.312H711.396V212.664H709.428V208.968H722.076V207.216H709.38V205.8ZM709.428 212.184H724.428V213.624H709.428V212.184ZM750.707 205.152H752.699V226.896H750.707V205.152ZM741.251 206.832C742.323 206.832 743.267 207.144 744.083 207.768C744.915 208.376 745.563 209.248 746.027 210.384C746.507 211.52 746.747 212.856 746.747 214.392C746.747 215.928 746.507 217.264 746.027 218.4C745.563 219.536 744.915 220.416 744.083 221.04C743.267 221.664 742.323 221.976 741.251 221.976C740.179 221.976 739.227 221.664 738.395 221.04C737.563 220.416 736.907 219.536 736.427 218.4C735.963 217.264 735.731 215.928 735.731 214.392C735.731 212.856 735.963 211.52 736.427 210.384C736.907 209.248 737.563 208.376 738.395 207.768C739.227 207.144 740.179 206.832 741.251 206.832ZM741.251 208.608C740.531 208.608 739.899 208.848 739.355 209.328C738.827 209.792 738.411 210.464 738.107 211.344C737.803 212.208 737.651 213.224 737.651 214.392C737.651 215.56 737.803 216.584 738.107 217.464C738.411 218.328 738.827 219 739.355 219.48C739.899 219.96 740.531 220.2 741.251 220.2C741.955 220.2 742.571 219.96 743.099 219.48C743.643 219 744.067 218.328 744.371 217.464C744.675 216.584 744.827 215.56 744.827 214.392C744.827 213.224 744.675 212.208 744.371 211.344C744.067 210.464 743.643 209.792 743.099 209.328C742.571 208.848 741.955 208.608 741.251 208.608ZM761.841 212.52H763.833V216.6H761.841V212.52ZM769.809 212.52H771.777V216.6H769.809V212.52ZM757.017 215.88H776.625V217.488H757.017V215.88ZM766.809 219.144C769.129 219.144 770.945 219.472 772.257 220.128C773.569 220.784 774.225 221.728 774.225 222.96C774.225 224.208 773.569 225.16 772.257 225.816C770.945 226.488 769.129 226.824 766.809 226.824C764.489 226.824 762.665 226.488 761.337 225.816C760.025 225.16 759.369 224.208 759.369 222.96C759.369 221.728 760.025 220.784 761.337 220.128C762.665 219.472 764.489 219.144 766.809 219.144ZM766.809 220.68C765.673 220.68 764.697 220.768 763.881 220.944C763.081 221.12 762.465 221.384 762.033 221.736C761.601 222.072 761.385 222.48 761.385 222.96C761.385 223.472 761.601 223.904 762.033 224.256C762.465 224.592 763.081 224.848 763.881 225.024C764.697 225.2 765.673 225.288 766.809 225.288C767.945 225.288 768.913 225.2 769.713 225.024C770.529 224.848 771.153 224.592 771.585 224.256C772.017 223.904 772.233 223.472 772.233 222.96C772.233 222.48 772.017 222.072 771.585 221.736C771.153 221.384 770.529 221.12 769.713 220.944C768.913 220.768 767.945 220.68 766.809 220.68ZM766.809 205.56C768.377 205.56 769.729 205.72 770.865 206.04C772.017 206.36 772.897 206.824 773.505 207.432C774.129 208.024 774.441 208.744 774.441 209.592C774.441 210.424 774.129 211.144 773.505 211.752C772.897 212.36 772.017 212.824 770.865 213.144C769.729 213.448 768.377 213.6 766.809 213.6C765.241 213.6 763.881 213.448 762.729 213.144C761.593 212.824 760.713 212.36 760.089 211.752C759.481 211.144 759.177 210.424 759.177 209.592C759.177 208.744 759.481 208.024 760.089 207.432C760.713 206.824 761.593 206.36 762.729 206.04C763.881 205.72 765.241 205.56 766.809 205.56ZM766.809 207.12C765.673 207.12 764.681 207.216 763.833 207.408C763.001 207.6 762.353 207.88 761.889 208.248C761.441 208.616 761.217 209.064 761.217 209.592C761.217 210.104 761.441 210.552 761.889 210.936C762.353 211.304 763.001 211.584 763.833 211.776C764.681 211.968 765.673 212.064 766.809 212.064C767.977 212.064 768.977 211.968 769.809 211.776C770.641 211.584 771.281 211.304 771.729 210.936C772.177 210.552 772.401 210.104 772.401 209.592C772.401 209.064 772.177 208.616 771.729 208.248C771.281 207.88 770.641 207.6 769.809 207.408C768.977 207.216 767.977 207.12 766.809 207.12ZM793.807 205.152H795.775V226.872H793.807V205.152ZM795.319 214.08H799.327V215.76H795.319V214.08ZM778.975 208.632H791.767V210.264H778.975V208.632ZM785.479 212.04C786.503 212.04 787.407 212.256 788.191 212.688C788.991 213.12 789.615 213.712 790.063 214.464C790.527 215.2 790.759 216.056 790.759 217.032C790.759 218.008 790.527 218.872 790.063 219.624C789.615 220.376 788.991 220.968 788.191 221.4C787.407 221.816 786.503 222.024 785.479 222.024C784.455 222.024 783.543 221.816 782.743 221.4C781.959 220.968 781.335 220.376 780.871 219.624C780.407 218.872 780.175 218.008 780.175 217.032C780.175 216.056 780.407 215.2 780.871 214.464C781.335 213.712 781.959 213.12 782.743 212.688C783.543 212.256 784.455 212.04 785.479 212.04ZM785.479 213.696C784.823 213.696 784.239 213.84 783.727 214.128C783.215 214.416 782.807 214.808 782.503 215.304C782.215 215.8 782.071 216.376 782.071 217.032C782.071 217.688 782.215 218.272 782.503 218.784C782.807 219.28 783.215 219.672 783.727 219.96C784.239 220.232 784.823 220.368 785.479 220.368C786.119 220.368 786.695 220.232 787.207 219.96C787.719 219.672 788.119 219.28 788.407 218.784C788.711 218.272 788.863 217.688 788.863 217.032C788.863 216.376 788.711 215.8 788.407 215.304C788.119 214.808 787.719 214.416 787.207 214.128C786.695 213.84 786.119 213.696 785.479 213.696ZM784.447 205.416H786.439V209.352H784.447V205.416ZM810.941 210H817.517V211.632H810.941V210ZM810.941 216.864H817.517V218.496H810.941V216.864ZM806.957 206.832C808.013 206.832 808.949 207.144 809.765 207.768C810.581 208.376 811.213 209.248 811.661 210.384C812.125 211.52 812.357 212.856 812.357 214.392C812.357 215.928 812.125 217.264 811.661 218.4C811.213 219.536 810.581 220.416 809.765 221.04C808.949 221.664 808.013 221.976 806.957 221.976C805.917 221.976 804.981 221.664 804.149 221.04C803.333 220.416 802.693 219.536 802.229 218.4C801.781 217.264 801.557 215.928 801.557 214.392C801.557 212.856 801.781 211.52 802.229 210.384C802.693 209.248 803.333 208.376 804.149 207.768C804.981 207.144 805.917 206.832 806.957 206.832ZM806.957 208.608C806.269 208.608 805.661 208.848 805.133 209.328C804.605 209.792 804.189 210.464 803.885 211.344C803.597 212.208 803.453 213.224 803.453 214.392C803.453 215.56 803.597 216.584 803.885 217.464C804.189 218.328 804.605 219 805.133 219.48C805.661 219.96 806.269 220.2 806.957 220.2C807.661 220.2 808.277 219.96 808.805 219.48C809.333 219 809.741 218.328 810.029 217.464C810.333 216.584 810.485 215.56 810.485 214.392C810.485 213.224 810.333 212.208 810.029 211.344C809.741 210.464 809.333 209.792 808.805 209.328C808.277 208.848 807.661 208.608 806.957 208.608ZM817.061 205.152H819.029V226.896H817.061V205.152ZM845.02 205.152H847.012V226.872H845.02V205.152ZM829.732 207.48H842.02V209.112H829.732V207.48ZM829.396 221.496L829.18 219.816C830.524 219.816 831.98 219.808 833.548 219.792C835.132 219.76 836.74 219.704 838.372 219.624C840.004 219.528 841.588 219.384 843.124 219.192L843.244 220.68C841.692 220.92 840.1 221.104 838.468 221.232C836.852 221.344 835.268 221.416 833.716 221.448C832.164 221.48 830.724 221.496 829.396 221.496ZM832.132 208.704H834.076V220.248H832.132V208.704ZM837.676 208.704H839.62V220.248H837.676V208.704ZM867.051 205.152H869.067V226.872H867.051V205.152ZM857.307 210.312H858.915V212.184C858.915 213.336 858.763 214.456 858.459 215.544C858.155 216.616 857.723 217.616 857.163 218.544C856.619 219.472 855.971 220.288 855.219 220.992C854.483 221.696 853.675 222.256 852.795 222.672L851.691 221.136C852.491 220.768 853.227 220.272 853.899 219.648C854.587 219.024 855.179 218.32 855.675 217.536C856.187 216.736 856.587 215.88 856.875 214.968C857.163 214.056 857.307 213.128 857.307 212.184V210.312ZM857.667 210.312H859.275V212.184C859.275 213.08 859.419 213.968 859.707 214.848C859.995 215.712 860.395 216.528 860.907 217.296C861.419 218.048 862.019 218.72 862.707 219.312C863.395 219.904 864.147 220.384 864.963 220.752L863.859 222.288C862.979 221.888 862.163 221.352 861.411 220.68C860.659 219.992 860.003 219.208 859.443 218.328C858.883 217.432 858.443 216.464 858.123 215.424C857.819 214.384 857.667 213.304 857.667 212.184V210.312ZM852.267 208.92H864.219V210.528H852.267V208.92ZM857.283 205.56H859.275V209.808H857.283V205.56ZM881.36 207.938L874.247 226.465H872.383L879.508 207.938H881.36ZM892.611 210.6H896.307V212.232H892.611V210.6ZM884.259 215.304H885.627C886.763 215.304 887.763 215.296 888.627 215.28C889.507 215.248 890.331 215.192 891.099 215.112C891.867 215.016 892.643 214.888 893.427 214.728L893.643 216.312C892.811 216.488 892.003 216.624 891.219 216.72C890.435 216.8 889.595 216.856 888.699 216.888C887.819 216.904 886.795 216.912 885.627 216.912H884.259V215.304ZM884.259 206.568H892.467V208.2H886.179V216.24H884.259V206.568ZM885.579 210.84H891.603V212.4H885.579V210.84ZM899.667 205.152H901.563V218.208H899.667V205.152ZM895.467 205.536H897.363V218.016H895.467V205.536ZM887.307 219.24H901.563V226.584H887.307V219.24ZM899.619 220.848H889.275V224.952H899.619V220.848ZM905.353 222.504H925.033V224.184H905.353V222.504ZM914.137 216.888H916.105V223.248H914.137V216.888ZM907.081 207.24H923.185V208.872H907.081V207.24ZM907.129 215.976H923.137V217.56H907.129V215.976ZM910.441 208.536H912.433V216.24H910.441V208.536ZM917.833 208.536H919.801V216.24H917.833V208.536ZM935.43 207.938L928.317 226.465H926.454L933.579 207.938H935.43ZM953.161 205.152H955.129V226.896H953.161V205.152ZM938.593 219.984H940.393C941.625 219.984 942.809 219.968 943.945 219.936C945.097 219.888 946.257 219.808 947.425 219.696C948.609 219.584 949.841 219.424 951.121 219.216L951.313 220.848C949.361 221.168 947.521 221.384 945.793 221.496C944.065 221.592 942.265 221.64 940.393 221.64H938.593V219.984ZM938.545 207.168H948.577V214.92H940.609V220.608H938.593V213.312H946.561V208.8H938.545V207.168ZM975.311 205.152H977.279V226.896H975.311V205.152ZM969.599 213.216H975.887V214.848H969.599V213.216ZM960.287 206.856H962.279V212.496H968.303V206.856H970.247V221.424H960.287V206.856ZM962.279 214.08V219.792H968.303V214.08H962.279ZM981.501 222.336H1001.18V223.992H981.501V222.336ZM983.805 206.712H985.797V210.72H996.837V206.712H998.805V218.016H983.805V206.712ZM985.797 212.328V216.408H996.837V212.328H985.797ZM1011.58 207.938L1004.47 226.465H1002.6L1009.73 207.938H1011.58ZM1015.85 207.264H1029.6V208.896H1015.85V207.264ZM1013.49 222.264H1033.1V223.92H1013.49V222.264ZM1028.78 207.264H1030.73V209.328C1030.73 210.208 1030.71 211.144 1030.68 212.136C1030.66 213.128 1030.59 214.216 1030.46 215.4C1030.35 216.568 1030.14 217.896 1029.84 219.384L1027.87 219.168C1028.32 217.056 1028.58 215.208 1028.66 213.624C1028.74 212.04 1028.78 210.608 1028.78 209.328V207.264ZM1029.24 212.472V213.984L1015.53 214.776L1015.22 213.048L1029.24 212.472ZM1021.13 216.648H1023.09V222.864H1021.13V216.648ZM1051.44 205.152H1053.4V226.896H1051.44V205.152ZM1047.31 213.48H1051.92V215.136H1047.31V213.48ZM1036.39 220.008H1038.04C1039.32 220.008 1040.5 219.992 1041.57 219.96C1042.64 219.928 1043.68 219.864 1044.69 219.768C1045.7 219.672 1046.73 219.52 1047.79 219.312L1047.96 220.968C1046.87 221.16 1045.81 221.312 1044.79 221.424C1043.78 221.52 1042.72 221.592 1041.62 221.64C1040.53 221.672 1039.34 221.688 1038.04 221.688H1036.39V220.008ZM1036.32 207.168H1046.01V214.776H1038.36V220.536H1036.39V213.144H1044.07V208.8H1036.32V207.168ZM1066.34 206.64H1068.09V208.32C1068.09 209.264 1067.92 210.16 1067.59 211.008C1067.27 211.856 1066.82 212.648 1066.24 213.384C1065.68 214.104 1065.03 214.752 1064.27 215.328C1063.54 215.904 1062.75 216.392 1061.9 216.792C1061.07 217.192 1060.22 217.496 1059.35 217.704L1058.47 216.048C1059.22 215.888 1059.97 215.64 1060.72 215.304C1061.49 214.968 1062.21 214.56 1062.88 214.08C1063.55 213.584 1064.15 213.032 1064.66 212.424C1065.19 211.816 1065.59 211.168 1065.88 210.48C1066.19 209.776 1066.34 209.056 1066.34 208.32V206.64ZM1066.72 206.64H1068.43V208.32C1068.43 209.056 1068.58 209.776 1068.88 210.48C1069.19 211.168 1069.59 211.816 1070.11 212.424C1070.63 213.032 1071.23 213.584 1071.91 214.08C1072.58 214.56 1073.29 214.976 1074.04 215.328C1074.81 215.664 1075.58 215.904 1076.35 216.048L1075.43 217.704C1074.57 217.496 1073.72 217.192 1072.89 216.792C1072.06 216.392 1071.27 215.904 1070.51 215.328C1069.78 214.752 1069.12 214.104 1068.55 213.384C1067.97 212.648 1067.52 211.856 1067.2 211.008C1066.88 210.16 1066.72 209.264 1066.72 208.32V206.64ZM1057.65 222.288H1077.33V223.944H1057.65V222.288ZM1079.7 215.232H1099.38V216.768H1079.7V215.232ZM1082.06 218.496H1096.94V223.128H1084.07V225.672H1082.1V221.76H1094.97V219.936H1082.06V218.496ZM1082.1 225.144H1097.63V226.584H1082.1V225.144ZM1082.2 205.8H1096.86V210.312H1084.22V212.664H1082.25V208.968H1094.9V207.216H1082.2V205.8ZM1082.25 212.184H1097.25V213.624H1082.25V212.184ZM1110.28 224.76H1125.18V226.392H1110.28V224.76ZM1110.28 220.176H1112.27V225.312H1110.28V220.176ZM1107.76 216.792H1127.42V218.424H1107.76V216.792ZM1116.57 213.144H1118.54V217.416H1116.57V213.144ZM1116.54 205.728H1118.25V206.688C1118.25 207.504 1118.1 208.272 1117.79 208.992C1117.5 209.712 1117.09 210.376 1116.54 210.984C1116 211.576 1115.38 212.112 1114.67 212.592C1113.97 213.072 1113.2 213.48 1112.37 213.816C1111.55 214.136 1110.7 214.376 1109.82 214.536L1109.03 212.952C1109.8 212.824 1110.55 212.624 1111.29 212.352C1112.02 212.08 1112.7 211.752 1113.33 211.368C1113.97 210.968 1114.53 210.528 1115.01 210.048C1115.49 209.552 1115.86 209.024 1116.14 208.464C1116.41 207.888 1116.54 207.296 1116.54 206.688V205.728ZM1116.86 205.728H1118.56V206.688C1118.56 207.296 1118.7 207.888 1118.97 208.464C1119.24 209.024 1119.62 209.552 1120.1 210.048C1120.58 210.528 1121.13 210.968 1121.75 211.368C1122.39 211.768 1123.08 212.104 1123.82 212.376C1124.55 212.632 1125.3 212.824 1126.07 212.952L1125.28 214.536C1124.4 214.36 1123.55 214.112 1122.74 213.792C1121.92 213.456 1121.15 213.048 1120.43 212.568C1119.73 212.088 1119.1 211.552 1118.56 210.96C1118.03 210.352 1117.62 209.696 1117.31 208.992C1117.01 208.272 1116.86 207.504 1116.86 206.688V205.728ZM1136.34 215.256H1138.31V219.312H1136.34V215.256ZM1133.25 218.688H1135.21V221.016H1145.53V218.688H1147.5V226.584H1133.25V218.688ZM1135.21 222.576V224.952H1145.53V222.576H1135.21ZM1145.51 205.176H1147.5V217.632H1145.51V205.176ZM1130.13 216.288L1129.86 214.656C1131.22 214.656 1132.7 214.648 1134.3 214.632C1135.9 214.616 1137.53 214.56 1139.2 214.464C1140.88 214.368 1142.5 214.224 1144.07 214.032L1144.19 215.472C1142.57 215.728 1140.94 215.92 1139.29 216.048C1137.65 216.16 1136.04 216.232 1134.47 216.264C1132.9 216.28 1131.45 216.288 1130.13 216.288ZM1136.1 205.68H1137.71V206.76C1137.71 207.816 1137.46 208.784 1136.97 209.664C1136.47 210.528 1135.77 211.28 1134.88 211.92C1133.98 212.544 1132.93 213.008 1131.71 213.312L1130.82 211.776C1131.88 211.52 1132.8 211.152 1133.58 210.672C1134.37 210.176 1134.98 209.592 1135.43 208.92C1135.88 208.248 1136.1 207.528 1136.1 206.76V205.68ZM1136.53 205.68H1138.14V206.76C1138.14 207.496 1138.37 208.184 1138.81 208.824C1139.26 209.448 1139.88 209.992 1140.66 210.456C1141.45 210.904 1142.36 211.24 1143.4 211.464L1142.53 212.976C1141.35 212.704 1140.3 212.28 1139.39 211.704C1138.49 211.112 1137.79 210.4 1137.28 209.568C1136.78 208.72 1136.53 207.784 1136.53 206.76V205.68ZM1168.45 205.152H1170.37V226.872H1168.45V205.152ZM1159.02 214.032H1164.49V215.64H1159.02V214.032ZM1163.94 205.728H1165.81V225.768H1163.94V205.728ZM1159.28 207.912H1161.2C1161.2 209.8 1160.93 211.616 1160.39 213.36C1159.86 215.088 1159 216.704 1157.8 218.208C1156.6 219.696 1155.02 221.024 1153.07 222.192L1151.92 220.752C1153.61 219.728 1155 218.576 1156.09 217.296C1157.18 216 1157.98 214.6 1158.49 213.096C1159.02 211.576 1159.28 209.968 1159.28 208.272V207.912ZM1152.85 207.912H1160.03V209.544H1152.85V207.912ZM1179.95 222.432H1199.63V224.088H1179.95V222.432ZM1188.78 217.176H1190.77V222.984H1188.78V217.176ZM1188.73 207.912H1190.43V209.232C1190.43 210.128 1190.27 210.976 1189.93 211.776C1189.61 212.56 1189.16 213.296 1188.59 213.984C1188.03 214.656 1187.37 215.256 1186.62 215.784C1185.88 216.296 1185.09 216.744 1184.24 217.128C1183.41 217.496 1182.57 217.768 1181.72 217.944L1180.91 216.36C1181.64 216.232 1182.39 216.016 1183.14 215.712C1183.89 215.392 1184.59 215.008 1185.25 214.56C1185.92 214.112 1186.51 213.608 1187.03 213.048C1187.55 212.488 1187.97 211.888 1188.27 211.248C1188.58 210.608 1188.73 209.936 1188.73 209.232V207.912ZM1189.11 207.912H1190.79V209.232C1190.79 209.936 1190.95 210.608 1191.25 211.248C1191.55 211.872 1191.97 212.464 1192.5 213.024C1193.03 213.584 1193.63 214.088 1194.3 214.536C1194.97 214.968 1195.68 215.336 1196.43 215.64C1197.2 215.944 1197.96 216.152 1198.71 216.264L1197.9 217.848C1197.03 217.672 1196.18 217.408 1195.33 217.056C1194.48 216.688 1193.68 216.248 1192.93 215.736C1192.19 215.208 1191.54 214.616 1190.96 213.96C1190.39 213.288 1189.93 212.56 1189.59 211.776C1189.27 210.976 1189.11 210.128 1189.11 209.232V207.912ZM1181.58 207.12H1197.95V208.776H1181.58V207.12ZM1213.62 210H1219.18V211.608H1213.62V210ZM1207.52 207H1209.15V208.464C1209.15 209.664 1208.9 210.808 1208.38 211.896C1207.87 212.984 1207.16 213.944 1206.25 214.776C1205.34 215.592 1204.28 216.208 1203.08 216.624L1202.1 215.064C1202.9 214.792 1203.62 214.432 1204.28 213.984C1204.94 213.52 1205.5 212.992 1205.98 212.4C1206.48 211.808 1206.86 211.176 1207.11 210.504C1207.38 209.832 1207.52 209.152 1207.52 208.464V207ZM1207.88 207H1209.51V208.464C1209.51 209.328 1209.73 210.16 1210.16 210.96C1210.61 211.76 1211.22 212.48 1212.01 213.12C1212.79 213.744 1213.7 214.216 1214.74 214.536L1213.81 216.12C1212.62 215.72 1211.58 215.144 1210.69 214.392C1209.81 213.624 1209.12 212.736 1208.62 211.728C1208.13 210.704 1207.88 209.616 1207.88 208.464V207ZM1202.7 206.28H1214.29V207.912H1202.7V206.28ZM1217.89 205.152H1219.86V216.36H1217.89V205.152ZM1205.89 217.44H1219.86V222.672H1207.9V226.032H1205.94V221.16H1217.89V219.048H1205.89V217.44ZM1205.94 225.048H1220.67V226.632H1205.94V225.048ZM1238.96 205.08H1240.95V217.08H1238.96V205.08ZM1240.09 210.312H1244.17V211.968H1240.09V210.312ZM1227.15 218.184H1240.95V223.032H1229.17V225.648H1227.22V221.592H1238.98V219.672H1227.15V218.184ZM1227.22 225.096H1241.72V226.632H1227.22V225.096ZM1224.15 207.12H1236.97V208.68H1224.15V207.12ZM1230.56 209.64C1232.13 209.64 1233.38 209.96 1234.33 210.6C1235.27 211.224 1235.74 212.088 1235.74 213.192C1235.74 214.28 1235.27 215.144 1234.33 215.784C1233.38 216.424 1232.13 216.744 1230.56 216.744C1228.97 216.744 1227.71 216.424 1226.77 215.784C1225.82 215.144 1225.35 214.28 1225.35 213.192C1225.35 212.088 1225.82 211.224 1226.77 210.6C1227.71 209.96 1228.97 209.64 1230.56 209.64ZM1230.56 211.104C1229.57 211.104 1228.77 211.296 1228.16 211.68C1227.57 212.048 1227.27 212.552 1227.27 213.192C1227.27 213.832 1227.57 214.344 1228.16 214.728C1228.77 215.096 1229.57 215.28 1230.56 215.28C1231.57 215.28 1232.37 215.096 1232.96 214.728C1233.55 214.344 1233.85 213.832 1233.85 213.192C1233.85 212.552 1233.55 212.048 1232.96 211.68C1232.37 211.296 1231.57 211.104 1230.56 211.104ZM1229.57 204.936H1231.57V208.2H1229.57V204.936ZM1260.92 205.92H1262.67V207.144C1262.67 207.976 1262.51 208.76 1262.19 209.496C1261.87 210.216 1261.43 210.88 1260.87 211.488C1260.33 212.096 1259.69 212.64 1258.95 213.12C1258.21 213.6 1257.41 214 1256.55 214.32C1255.7 214.64 1254.83 214.872 1253.93 215.016L1253.12 213.408C1253.92 213.296 1254.69 213.104 1255.45 212.832C1256.21 212.56 1256.93 212.232 1257.58 211.848C1258.24 211.448 1258.81 211 1259.31 210.504C1259.82 210.008 1260.21 209.48 1260.49 208.92C1260.77 208.344 1260.92 207.752 1260.92 207.144V205.92ZM1261.25 205.92H1262.98V207.144C1262.98 207.752 1263.13 208.336 1263.41 208.896C1263.7 209.456 1264.09 209.984 1264.59 210.48C1265.1 210.976 1265.69 211.424 1266.34 211.824C1267 212.224 1267.7 212.56 1268.45 212.832C1269.22 213.104 1270 213.296 1270.78 213.408L1269.99 215.016C1269.09 214.872 1268.22 214.64 1267.37 214.32C1266.53 213.984 1265.73 213.576 1264.97 213.096C1264.24 212.616 1263.59 212.072 1263.03 211.464C1262.49 210.856 1262.05 210.192 1261.73 209.472C1261.41 208.736 1261.25 207.96 1261.25 207.144V205.92ZM1260.92 218.616H1262.89V226.872H1260.92V218.616ZM1252.13 217.368H1271.74V219.024H1252.13V217.368ZM1285.57 218.52H1287.13V219.672C1287.13 220.616 1286.93 221.544 1286.55 222.456C1286.17 223.368 1285.61 224.184 1284.87 224.904C1284.15 225.624 1283.26 226.176 1282.21 226.56L1281.22 225.096C1282.13 224.76 1282.91 224.296 1283.55 223.704C1284.21 223.112 1284.7 222.472 1285.04 221.784C1285.39 221.08 1285.57 220.376 1285.57 219.672V218.52ZM1286.02 218.52H1287.49V219.672C1287.49 220.408 1287.63 221.136 1287.92 221.856C1288.21 222.576 1288.64 223.232 1289.21 223.824C1289.81 224.416 1290.53 224.888 1291.37 225.24L1290.56 226.752C1289.5 226.336 1288.64 225.76 1287.97 225.024C1287.31 224.288 1286.82 223.456 1286.5 222.528C1286.18 221.584 1286.02 220.632 1286.02 219.672V218.52ZM1293.61 218.52H1295.07V219.672C1295.07 220.52 1294.9 221.408 1294.57 222.336C1294.25 223.264 1293.75 224.128 1293.08 224.928C1292.42 225.712 1291.58 226.32 1290.56 226.752L1289.69 225.24C1290.56 224.84 1291.28 224.328 1291.85 223.704C1292.43 223.064 1292.86 222.392 1293.15 221.688C1293.45 220.968 1293.61 220.296 1293.61 219.672V218.52ZM1293.99 218.52H1295.55V219.672C1295.55 220.424 1295.72 221.152 1296.05 221.856C1296.41 222.56 1296.9 223.2 1297.54 223.776C1298.2 224.336 1298.98 224.776 1299.89 225.096L1298.91 226.56C1297.85 226.176 1296.96 225.64 1296.22 224.952C1295.49 224.248 1294.93 223.448 1294.54 222.552C1294.17 221.64 1293.99 220.68 1293.99 219.672V218.52ZM1295.96 205.176H1297.95V217.56H1295.96V205.176ZM1286.31 206.424C1287.41 206.424 1288.39 206.64 1289.24 207.072C1290.09 207.504 1290.75 208.104 1291.23 208.872C1291.73 209.624 1291.97 210.504 1291.97 211.512C1291.97 212.504 1291.73 213.376 1291.23 214.128C1290.75 214.88 1290.09 215.472 1289.24 215.904C1288.39 216.336 1287.41 216.552 1286.31 216.552C1285.22 216.552 1284.25 216.336 1283.38 215.904C1282.53 215.472 1281.86 214.88 1281.37 214.128C1280.89 213.376 1280.65 212.504 1280.65 211.512C1280.65 210.504 1280.89 209.624 1281.37 208.872C1281.86 208.104 1282.53 207.504 1283.38 207.072C1284.25 206.64 1285.22 206.424 1286.31 206.424ZM1286.31 208.104C1285.61 208.104 1284.97 208.248 1284.41 208.536C1283.85 208.824 1283.41 209.224 1283.07 209.736C1282.75 210.232 1282.59 210.824 1282.59 211.512C1282.59 212.184 1282.75 212.776 1283.07 213.288C1283.41 213.784 1283.85 214.176 1284.41 214.464C1284.97 214.752 1285.61 214.896 1286.31 214.896C1287.03 214.896 1287.67 214.752 1288.23 214.464C1288.79 214.176 1289.23 213.784 1289.55 213.288C1289.87 212.776 1290.03 212.184 1290.03 211.512C1290.03 210.824 1289.87 210.232 1289.55 209.736C1289.23 209.224 1288.79 208.824 1288.23 208.536C1287.67 208.248 1287.03 208.104 1286.31 208.104ZM1304.72 218.184H1306.68V220.68H1317.32V218.184H1319.28V226.584H1304.72V218.184ZM1306.68 222.24V224.976H1317.32V222.24H1306.68ZM1302.24 215.04H1321.85V216.672H1302.24V215.04ZM1311.03 205.392H1312.76V206.376C1312.76 207.128 1312.6 207.84 1312.28 208.512C1311.96 209.168 1311.52 209.776 1310.96 210.336C1310.41 210.88 1309.77 211.368 1309.04 211.8C1308.32 212.232 1307.53 212.592 1306.68 212.88C1305.85 213.168 1304.99 213.384 1304.09 213.528L1303.35 211.944C1304.13 211.832 1304.89 211.656 1305.63 211.416C1306.38 211.176 1307.08 210.888 1307.74 210.552C1308.4 210.2 1308.97 209.808 1309.47 209.376C1309.96 208.928 1310.35 208.456 1310.62 207.96C1310.89 207.448 1311.03 206.92 1311.03 206.376V205.392ZM1311.36 205.392H1313.07V206.376C1313.07 206.904 1313.2 207.424 1313.48 207.936C1313.76 208.432 1314.16 208.904 1314.65 209.352C1315.15 209.784 1315.72 210.176 1316.36 210.528C1317.01 210.88 1317.71 211.184 1318.44 211.44C1319.2 211.68 1319.96 211.848 1320.72 211.944L1320 213.528C1319.11 213.384 1318.24 213.168 1317.39 212.88C1316.56 212.592 1315.77 212.232 1315.04 211.8C1314.32 211.352 1313.68 210.848 1313.12 210.288C1312.57 209.728 1312.14 209.12 1311.82 208.464C1311.52 207.808 1311.36 207.112 1311.36 206.376V205.392ZM1340.11 205.152H1342.08V226.872H1340.11V205.152ZM1325.69 207.288H1327.66V220.728H1325.69V207.288ZM1325.69 219.552H1327.47C1329.13 219.552 1330.82 219.48 1332.53 219.336C1334.26 219.176 1336.03 218.912 1337.86 218.544L1338.12 220.224C1336.23 220.624 1334.42 220.904 1332.67 221.064C1330.93 221.208 1329.19 221.28 1327.47 221.28H1325.69V219.552ZM1361.09 205.152H1363.08V226.896H1361.09V205.152ZM1362.62 213.72H1366.63V215.376H1362.62V213.72ZM1347.34 219.792H1349.04C1350.37 219.792 1351.58 219.776 1352.69 219.744C1353.81 219.696 1354.88 219.616 1355.9 219.504C1356.94 219.392 1358 219.24 1359.07 219.048L1359.31 220.752C1358.19 220.944 1357.1 221.096 1356.05 221.208C1355.01 221.32 1353.92 221.392 1352.78 221.424C1351.65 221.456 1350.4 221.472 1349.04 221.472H1347.34V219.792ZM1347.34 207.264H1357.39V208.896H1349.3V220.56H1347.34V207.264ZM1368.97 223.852C1368.97 223.484 1369.08 223.176 1369.31 222.926C1369.54 222.668 1369.88 222.539 1370.31 222.539C1370.75 222.539 1371.08 222.668 1371.31 222.926C1371.54 223.176 1371.66 223.484 1371.66 223.852C1371.66 224.211 1371.54 224.516 1371.31 224.766C1371.08 225.016 1370.75 225.141 1370.31 225.141C1369.88 225.141 1369.54 225.016 1369.31 224.766C1369.08 224.516 1368.97 224.211 1368.97 223.852Z" fill="#C9C3CE"/>
<rect x="529" y="333" width="172" height="395" rx="10" fill="url(#paint0_linear_2249_17789)"/>
<path d="M529 661H701V718C701 723.523 696.523 728 691 728H539C533.477 728 529 723.523 529 718V661Z" fill="#2D2D3F"/>
<rect x="569" y="613" width="90" height="18" rx="2" fill="#255ED0"/>
<rect x="569" y="587" width="90" height="18" rx="2" fill="#3F82FF"/>
<rect x="569" y="561" width="90" height="18" rx="2" fill="#00A2FF"/>
<rect x="569" y="535" width="90" height="18" rx="2" fill="#3BC7FA"/>
<rect x="569" y="509" width="90" height="18" rx="2" fill="#68DEFF"/>
<rect x="569" y="483" width="90" height="18" rx="2" fill="#A9F2FF"/>
<rect x="569" y="457" width="90" height="18" rx="2" fill="#2D2D3F"/>
<rect x="569" y="405" width="90" height="18" rx="2" fill="#2D2D3F"/>
<rect x="569" y="431" width="90" height="18" rx="2" fill="#2D2D3F"/>
<rect x="569" y="379" width="90" height="18" rx="2" fill="#2D2D3F"/>
<path d="M578.707 688.504C578.707 691.238 581.383 693.973 585.074 694.617L584.098 696.434C581.139 695.809 578.717 694.021 577.574 691.648C576.402 694.002 573.98 695.799 571.031 696.434L570.074 694.617C573.727 693.953 576.383 691.219 576.402 688.504V687.195H578.707V688.504ZM585.719 699.695V701.492H569.586V699.695H585.719ZM594.703 688.113C594.693 689.773 594.537 691.365 594.137 692.859H596.305V686.512H598.355V702.898H596.305V694.617H593.492C592.506 696.736 590.846 698.621 588.102 700.164L586.871 698.68C589.273 697.312 590.738 695.721 591.598 693.895L587.184 694.344L586.93 692.469L592.223 692.176C592.398 691.443 592.516 690.672 592.574 689.871H587.789V688.113H594.703ZM602.105 686.082V703.738H600.035V686.082H602.105ZM609.156 686.648C611.832 686.648 613.824 688.309 613.844 690.633C613.824 692.977 611.832 694.617 609.156 694.617C606.461 694.617 604.469 692.977 604.469 690.633C604.469 688.309 606.461 686.648 609.156 686.648ZM609.156 688.445C607.672 688.445 606.578 689.285 606.578 690.633C606.578 692 607.672 692.859 609.156 692.859C610.641 692.859 611.734 692 611.734 690.633C611.734 689.285 610.641 688.445 609.156 688.445ZM618.863 686.082V695.008H616.676V686.082H618.863ZM618.863 695.77V700.379H609.312V701.805H619.391V703.523H607.184V698.777H616.695V697.469H607.145V695.77H618.863Z" fill="#B0BBEB"/>
<path d="M640.371 699.715V696.023H636.68V693.855H640.371V690.164H642.52V693.855H646.23V696.023H642.52V699.715H640.371ZM648.574 702V700.164L653.574 695.34C655 693.914 655.742 693.074 655.742 691.883C655.742 690.574 654.707 689.734 653.32 689.734C651.855 689.734 650.918 690.652 650.938 692.078H648.516C648.496 689.402 650.508 687.664 653.34 687.664C656.23 687.664 658.184 689.383 658.184 691.766C658.184 693.367 657.402 694.656 654.629 697.273L652.109 699.773V699.871H658.398V702H648.574Z" fill="#68DEFF"/>
<rect x="759" y="333" width="172" height="395" rx="10" fill="url(#paint1_linear_2249_17789)"/>
<path d="M759 661H931V718C931 723.523 926.523 728 921 728H769C763.477 728 759 723.523 759 718V661Z" fill="#2D2D3F"/>
<rect x="799" y="613" width="90" height="18" rx="2" fill="#255ED0"/>
<rect x="799" y="587" width="90" height="18" rx="2" fill="#3F82FF"/>
<rect x="799" y="561" width="90" height="18" rx="2" fill="#00A1FF"/>
<rect x="799" y="535" width="90" height="18" rx="2" fill="#2D2D3F"/>
<rect x="799" y="509" width="90" height="18" rx="2" fill="#2D2D3F"/>
<rect x="799" y="483" width="90" height="18" rx="2" fill="#2D2D3F"/>
<rect x="799" y="457" width="90" height="18" rx="2" fill="#2D2D3F"/>
<rect x="799" y="405" width="90" height="18" rx="2" fill="#2D2D3F"/>
<rect x="799" y="431" width="90" height="18" rx="2" fill="#2D2D3F"/>
<rect x="799" y="379" width="90" height="18" rx="2" fill="#2D2D3F"/>
<path d="M812.047 687.176V688.934H807.418V690.594H811.383V692.273H807.418V694.09C809.537 694.07 810.992 693.992 812.711 693.68L812.945 695.379C810.914 695.75 809.234 695.828 806.5 695.828H805.328V687.176H812.047ZM819.684 686.082V696.648H817.613V686.082H819.684ZM816.207 686.375V696.512H814.137V692.156H812.145V690.398H814.137V686.375H816.207ZM819.684 697.391V703.523H807.77V697.391H819.684ZM809.938 699.109V701.766H817.535V699.109H809.938ZM838.004 699.871V701.688H821.871V699.871H828.805V696.395H823.258V694.676H825.738V689.402H823.199V687.645H836.598V689.402H834.02V694.676H836.539V696.395H830.953V699.871H838.004ZM827.906 694.676H831.871V689.402H827.906V694.676Z" fill="#B0BBEB"/>
<path d="M863.617 693.914V695.965H857.25V693.914H863.617ZM871.781 687.859V702H869.223V690.34H869.145L865.844 692.449V690.125L869.34 687.859H871.781ZM880.434 702.195C877.035 702.195 875.004 699.559 875.004 694.93C875.004 690.32 877.035 687.664 880.434 687.664C883.812 687.664 885.863 690.32 885.863 694.93C885.863 699.559 883.832 702.195 880.434 702.195ZM880.434 700.066C882.211 700.066 883.305 698.328 883.305 694.93C883.305 691.551 882.191 689.773 880.434 689.773C878.676 689.773 877.562 691.551 877.562 694.93C877.562 698.328 878.656 700.066 880.434 700.066Z" fill="#68DEFF"/>
<rect x="990" y="333" width="172" height="395" rx="10" fill="url(#paint2_linear_2249_17789)"/>
<path d="M989 661H1162V718C1162 723.523 1157.52 728 1152 728H999C993.477 728 989 723.523 989 718V661Z" fill="#2D2D3F"/>
<rect x="1030" y="613" width="90" height="18" rx="2" fill="#255ED0"/>
<rect x="1030" y="587" width="90" height="18" rx="2" fill="#3F82FF"/>
<rect x="1030" y="561" width="90" height="18" rx="2" fill="#00A1FF"/>
<rect x="1030" y="535" width="90" height="18" rx="2" fill="#3BC7FA"/>
<rect x="1030" y="509" width="90" height="18" rx="2" fill="#68DEFF"/>
<rect x="1030" y="483" width="90" height="18" rx="2" fill="#A9F2FF"/>
<rect x="1030" y="457" width="90" height="18" rx="2" fill="#A9F2FF"/>
<rect x="1030" y="405" width="90" height="18" rx="2" fill="#2D2D3F"/>
<rect x="1030" y="431" width="90" height="18" rx="2" fill="#A9F2FF"/>
<rect x="1030" y="379" width="90" height="18" rx="2" fill="#2D2D3F"/>
<path d="M1042.29 686.082V703.758H1040.14V686.082H1042.29ZM1036.86 687.625V694.246H1030.79V697.801C1033.57 697.781 1035.97 697.645 1038.72 697.176L1038.91 698.953C1035.91 699.48 1033.27 699.578 1030.11 699.578H1028.56V692.527H1034.66V689.383H1028.54V687.625H1036.86ZM1059.68 686.082V703.758H1057.53V694.188H1053.93V699.48H1045.54V687.449H1047.72V691.844H1051.8V687.449H1053.93V692.41H1057.53V686.082H1059.68ZM1047.72 697.742H1051.8V693.543H1047.72V697.742ZM1078.29 699.734V701.531H1062.16V699.734H1078.29ZM1066.1 687.273V690.301H1074.29V687.273H1076.45V696.59H1063.93V687.273H1066.1ZM1066.1 694.891H1074.29V692H1066.1V694.891Z" fill="#B0BBEB"/>
<path d="M1104.91 687.859V702H1102.36V690.34H1102.28L1098.98 692.449V690.125L1102.47 687.859H1104.91ZM1109.13 702.156C1108.29 702.156 1107.61 701.473 1107.61 700.633C1107.61 699.812 1108.29 699.129 1109.13 699.129C1109.93 699.129 1110.64 699.812 1110.64 700.633C1110.64 701.473 1109.93 702.156 1109.13 702.156ZM1117.67 702.195C1114.27 702.195 1112.24 699.559 1112.24 694.93C1112.24 690.32 1114.27 687.664 1117.67 687.664C1121.05 687.664 1123.1 690.32 1123.1 694.93C1123.1 699.559 1121.07 702.195 1117.67 702.195ZM1117.67 700.066C1119.45 700.066 1120.54 698.328 1120.54 694.93C1120.54 691.551 1119.43 689.773 1117.67 689.773C1115.91 689.773 1114.8 691.551 1114.8 694.93C1114.8 698.328 1115.89 700.066 1117.67 700.066Z" fill="#68DEFF"/>
<rect x="1220" y="333" width="172" height="395" rx="10" fill="url(#paint3_linear_2249_17789)"/>
<path d="M1220 661H1392V718C1392 723.523 1387.52 728 1382 728H1230C1224.48 728 1220 723.523 1220 718V661Z" fill="#2D2D3F"/>
<rect x="1292" y="379" width="24" height="252" rx="3" fill="#1C1D26"/>
<rect x="1299" y="387" width="10" height="235" rx="1" fill="#17171E"/>
<path d="M1270.94 687.645V689.246C1270.92 691.395 1270.96 693.855 1270.16 697.586L1268.03 697.371C1268.33 695.955 1268.52 694.695 1268.64 693.562L1258.23 694.148L1257.91 692.293L1268.75 691.902C1268.79 690.984 1268.8 690.164 1268.81 689.402H1258.46V687.645H1270.94ZM1272.68 699.773V701.57H1256.59V699.773H1262.52V695.418H1264.67V699.773H1272.68ZM1288.66 686.082V703.758H1286.49V694.363H1283.46V692.586H1286.49V686.082H1288.66ZM1282.45 687.625V694.09H1276.66V697.801C1279.28 697.791 1281.4 697.703 1283.77 697.273L1283.95 699.051C1281.31 699.52 1278.97 699.617 1275.92 699.617H1274.52V692.332H1280.32V689.383H1274.46V687.625H1282.45ZM1300.28 688.504C1300.28 691.238 1302.95 693.973 1306.64 694.617L1305.67 696.434C1302.71 695.809 1300.29 694.021 1299.14 691.648C1297.97 694.002 1295.55 695.799 1292.6 696.434L1291.64 694.617C1295.3 693.953 1297.95 691.219 1297.97 688.504V687.195H1300.28V688.504ZM1307.29 699.695V701.492H1291.16V699.695H1307.29Z" fill="#B0BBEB"/>
<path d="M1340.93 694.93C1340.93 699.5 1338.15 702.195 1334.44 702.195C1330.73 702.195 1327.96 699.48 1327.96 694.93C1327.96 690.359 1330.73 687.664 1334.44 687.664C1338.15 687.664 1340.93 690.359 1340.93 694.93ZM1338.37 694.93C1338.37 691.707 1336.75 689.949 1334.44 689.949C1332.14 689.949 1330.52 691.707 1330.52 694.93C1330.52 698.152 1332.14 699.91 1334.44 699.91C1336.75 699.91 1338.37 698.152 1338.37 694.93ZM1354.81 687.859V702H1352.55L1345.85 692.332H1345.73V702H1343.19V687.859H1345.5L1352.16 697.527H1352.29V687.859H1354.81Z" fill="#68DEFF"/>
<g filter="url(#filter0_d_2249_17789)">
<rect x="1266" y="388" width="78" height="37" rx="5" fill="url(#paint4_linear_2249_17789)"/>
<rect x="1266.5" y="388.5" width="77" height="36" rx="4.5" stroke="url(#paint5_linear_2249_17789)"/>
</g>
<rect x="1273" y="394" width="64" height="25" rx="2" fill="url(#paint6_linear_2249_17789)"/>
<defs>
<filter id="filter0_d_2249_17789" x="1266" y="388" width="86" height="45" filterUnits="userSpaceOnUse" color-interpolation-filters="sRGB">
<feFlood flood-opacity="0" result="BackgroundImageFix"/>
<feColorMatrix in="SourceAlpha" type="matrix" values="0 0 0 0 0 0 0 0 0 0 0 0 0 0 0 0 0 0 127 0" result="hardAlpha"/>
<feOffset dx="4" dy="4"/>
<feGaussianBlur stdDeviation="2"/>
<feComposite in2="hardAlpha" operator="out"/>
<feColorMatrix type="matrix" values="0 0 0 0 0 0 0 0 0 0 0 0 0 0 0 0 0 0 0.25 0"/>
<feBlend mode="normal" in2="BackgroundImageFix" result="effect1_dropShadow_2249_17789"/>
<feBlend mode="normal" in="SourceGraphic" in2="effect1_dropShadow_2249_17789" result="shape"/>
</filter>
<linearGradient id="paint0_linear_2249_17789" x1="615" y1="333" x2="615" y2="728" gradientUnits="userSpaceOnUse">
<stop offset="0.51" stop-color="#1C1C26"/>
<stop offset="1" stop-color="#232D3F"/>
</linearGradient>
<linearGradient id="paint1_linear_2249_17789" x1="845" y1="333" x2="845" y2="728" gradientUnits="userSpaceOnUse">
<stop offset="0.5" stop-color="#1C1C26"/>
<stop offset="1" stop-color="#232D3F"/>
</linearGradient>
<linearGradient id="paint2_linear_2249_17789" x1="1076" y1="333" x2="1076" y2="728" gradientUnits="userSpaceOnUse">
<stop stop-color="#1C1C26"/>
<stop offset="1" stop-color="#232D3F"/>
</linearGradient>
<linearGradient id="paint3_linear_2249_17789" x1="1306" y1="333" x2="1306" y2="728" gradientUnits="userSpaceOnUse">
<stop stop-color="#1C1C26"/>
<stop offset="1" stop-color="#232D3F"/>
</linearGradient>
<linearGradient id="paint4_linear_2249_17789" x1="1266" y1="388.312" x2="1344" y2="424.688" gradientUnits="userSpaceOnUse">
<stop stop-color="#255ED0"/>
<stop offset="0.744551" stop-color="#173C84"/>
<stop offset="1" stop-color="#13306A"/>
</linearGradient>
<linearGradient id="paint5_linear_2249_17789" x1="1268.5" y1="390.5" x2="1348" y2="428" gradientUnits="userSpaceOnUse">
<stop stop-color="#223788"/>
<stop offset="1" stop-color="#383754"/>
</linearGradient>
<linearGradient id="paint6_linear_2249_17789" x1="1347.5" y1="432.5" x2="1274.5" y2="389" gradientUnits="userSpaceOnUse">
<stop stop-color="#0C90E8"/>
<stop offset="1" stop-color="#133687"/>
</linearGradient>
</defs>
</svg>
