<svg width="1122" height="319" viewBox="0 0 1122 319" fill="none" xmlns="http://www.w3.org/2000/svg">
<ellipse cx="172" cy="173" rx="145" ry="146" fill="url(#paint0_radial_2249_17644)" fill-opacity="0.15"/>
<ellipse cx="459" cy="173" rx="145" ry="146" fill="url(#paint1_radial_2249_17644)" fill-opacity="0.15"/>
<ellipse cx="681" cy="173" rx="145" ry="146" fill="url(#paint2_radial_2249_17644)" fill-opacity="0.15"/>
<ellipse cx="962" cy="155" rx="145" ry="146" fill="url(#paint3_radial_2249_17644)" fill-opacity="0.15"/>
<path d="M150.609 52.8285C150.462 51.4242 149.226 50.6068 147.486 50.6068C145.621 50.6068 144.447 51.55 144.447 52.8495C144.447 54.2957 146.019 54.8406 147.214 55.1341L148.681 55.5323C150.63 55.9934 153.04 57.0623 153.061 59.8081C153.04 62.3651 151.007 64.2515 147.423 64.2515C144.028 64.2515 141.89 62.5538 141.743 59.7871H144.049C144.195 61.4429 145.642 62.2394 147.423 62.2394C149.351 62.2394 150.756 61.2543 150.777 59.7661C150.756 58.4457 149.519 57.9007 147.905 57.4815L146.103 56.9995C143.671 56.3288 142.141 55.0921 142.141 52.9752C142.141 50.3553 144.489 48.6156 147.549 48.6156C150.63 48.6156 152.789 50.3762 152.852 52.8285H150.609ZM165.805 53.7717C165.427 51.8224 163.814 50.7325 161.885 50.7325C159.265 50.7325 157.316 52.7447 157.316 56.4126C157.316 60.1015 159.286 62.0927 161.885 62.0927C163.793 62.0927 165.407 61.0237 165.805 59.0954L168.131 59.1164C167.649 62.1136 165.197 64.2096 161.864 64.2096C157.903 64.2096 155.031 61.2543 155.031 56.4126C155.031 51.55 157.924 48.6156 161.864 48.6156C165.071 48.6156 167.607 50.502 168.131 53.7717H165.805ZM171.82 64H169.368L174.817 48.8252H177.479L182.95 64H180.498L179.114 59.9967H173.204L171.82 64ZM173.874 58.0684H178.443L176.201 51.5919H176.096L173.874 58.0684ZM184.878 64V48.8252H187.184V62.0088H194.037V64H184.878ZM196.406 64V48.8252H205.922V50.8164H198.711V55.4065H205.419V57.3767H198.711V62.0088H206.005V64H196.406Z" fill="#C9C3CE"/>
<rect x="35" y="92" width="278" height="170" rx="17.8856" fill="url(#paint4_radial_2249_17644)" fill-opacity="0.06"/>
<path d="M101.412 189V163.709H118.075V168.04H106.652V174.188H116.992V178.52H106.652V189H101.412ZM131 189L132.048 182.677H127.052L126.004 189H122.092L123.14 182.677H119.647L120.31 178.8H123.769L124.572 173.909H121.114L121.743 169.997H125.236L126.249 163.709H130.161L129.148 169.997H134.109L135.122 163.709H139.034L138.021 169.997H141.48L140.816 173.909H137.358L136.554 178.8H140.047L139.384 182.677H135.925L134.877 189H131ZM127.681 178.8H132.677L133.48 173.909H128.485L127.681 178.8ZM152.099 163.709H158.597L165.618 180.861H165.898L172.919 163.709H179.417V189H174.317V172.442H174.107L167.505 188.895H164.011L157.409 172.372H157.199V189H152.099V163.709ZM182.665 183.69C182.665 179.463 186.089 178.066 189.722 177.856C191.084 177.769 193.634 177.647 194.438 177.612V176.075C194.403 174.503 193.32 173.56 191.399 173.56C189.652 173.56 188.534 174.363 188.255 175.656H183.329C183.644 172.372 186.508 169.787 191.538 169.787C195.66 169.787 199.573 171.638 199.573 176.215V189H194.682V186.38H194.543C193.599 188.127 191.818 189.349 188.988 189.349C185.355 189.349 182.665 187.463 182.665 183.69ZM187.626 183.55C187.626 185.018 188.814 185.786 190.455 185.786C192.796 185.786 194.473 184.214 194.438 182.223V180.826C193.652 180.861 191.451 180.983 190.56 181.07C188.779 181.245 187.626 182.083 187.626 183.55ZM203.52 170.031H208.69V189.943C208.69 194.31 206.001 196.126 201.564 196.126L200.516 196.091V192.039C200.796 192.039 200.97 192.074 201.215 192.074C202.892 192.074 203.52 191.306 203.52 189.873V170.031ZM206.07 167.551C204.498 167.551 203.241 166.364 203.241 164.931C203.241 163.464 204.498 162.276 206.07 162.276C207.607 162.276 208.865 163.464 208.865 164.931C208.865 166.364 207.607 167.551 206.07 167.551ZM221.231 189.384C215.502 189.384 211.939 185.437 211.939 179.568C211.939 173.699 215.502 169.787 221.231 169.787C226.96 169.787 230.558 173.699 230.558 179.568C230.558 185.437 226.96 189.384 221.231 189.384ZM221.266 185.367C223.921 185.367 225.283 182.887 225.283 179.568C225.283 176.215 223.921 173.734 221.266 173.734C218.576 173.734 217.179 176.215 217.179 179.568C217.179 182.887 218.576 185.367 221.266 185.367ZM233.807 189V170.031H238.802V173.315H239.012C239.711 170.975 241.457 169.752 243.588 169.752C244.112 169.752 244.776 169.822 245.23 169.927V174.538C244.741 174.398 243.763 174.258 243.029 174.258C240.689 174.258 238.977 175.9 238.977 178.206V189H233.807Z" fill="url(#paint5_linear_2249_17644)"/>
<path d="M435.54 64V48.8252H441.095C444.322 48.8252 445.894 50.5648 445.894 52.8075C445.894 54.6939 444.742 55.658 443.337 56.0144V56.1611C444.846 56.2449 446.481 57.5654 446.481 59.9129C446.481 62.2394 444.888 64 441.346 64H435.54ZM441.137 62.0298C443.316 62.0298 444.197 61.0656 444.197 59.8081C444.197 58.3618 443.044 57.1881 441.22 57.1881H437.846V62.0298H441.137ZM440.906 55.3856C442.436 55.3856 443.631 54.4424 443.631 52.9962C443.631 51.7386 442.771 50.7954 440.948 50.7954H437.846V55.3856H440.906ZM448.955 64V48.8252H454.362C457.883 48.8252 459.623 50.9421 459.623 53.7507C459.623 56.5384 457.883 58.6762 454.362 58.6762H451.26V64H448.955ZM451.26 56.706H454.132C456.374 56.706 457.296 55.4485 457.296 53.7507C457.296 52.032 456.374 50.7954 454.132 50.7954H451.26V56.706ZM462.054 48.8252H464.863L469.663 60.5836H469.851L474.651 48.8252H477.46V64H475.259V53.0381H475.112L470.669 63.979H468.845L464.381 53.0171H464.255V64H462.054V48.8252Z" fill="#C9C3CE"/>
<rect x="347" y="92" width="219" height="170" rx="17.8856" fill="#1C1C26" fill-opacity="0.47"/>
<rect x="347" y="92" width="219" height="170" rx="17.8856" fill="url(#paint6_radial_2249_17644)" fill-opacity="0.06"/>
<path d="M436.601 164.099V189.391H431.326V169.095H431.186L425.388 172.728V168.082L431.641 164.099H436.601ZM452.286 189.74C445.963 189.74 442.12 185.024 442.12 176.745C442.12 168.466 445.963 163.75 452.286 163.75C458.609 163.75 462.451 168.501 462.451 176.745C462.451 185.059 458.609 189.74 452.286 189.74ZM452.286 185.408C455.22 185.408 457.107 182.579 457.072 176.745C457.072 170.981 455.22 168.047 452.286 168.047C449.352 168.047 447.5 170.981 447.5 176.745C447.465 182.579 449.352 185.408 452.286 185.408ZM475.9 189.74C469.578 189.74 465.735 185.024 465.735 176.745C465.735 168.466 469.578 163.75 475.9 163.75C482.223 163.75 486.066 168.501 486.066 176.745C486.066 185.059 482.223 189.74 475.9 189.74ZM475.9 185.408C478.835 185.408 480.721 182.579 480.686 176.745C480.686 170.981 478.835 168.047 475.9 168.047C472.966 168.047 471.115 170.981 471.115 176.745C471.08 182.579 472.966 185.408 475.9 185.408Z" fill="url(#paint7_linear_2249_17644)"/>
<path d="M682.479 53.625C681.913 51.8224 680.551 50.7325 678.538 50.7325C675.981 50.7325 674.011 52.7447 674.011 56.4126C674.011 60.0805 675.96 62.0927 678.643 62.0927C681.064 62.0927 682.667 60.5626 682.709 58.1313H678.979V56.224H684.952V57.9427C684.952 61.7783 682.311 64.2096 678.622 64.2096C674.514 64.2096 671.727 61.2124 671.727 56.4126C671.727 51.5709 674.598 48.6156 678.517 48.6156C681.808 48.6156 684.323 50.6696 684.847 53.625H682.479ZM687.614 64V48.8252H697.13V50.8164H689.92V55.4065H696.627V57.3767H689.92V62.0088H697.213V64H687.614ZM712.2 48.8252V64H710.083L702.391 52.9123H702.265V64H699.959V48.8252H702.097L709.789 59.9338H709.936V48.8252H712.2ZM715.302 64V48.8252H720.709C724.231 48.8252 725.97 50.7954 725.97 53.583C725.97 55.6266 725.048 57.1776 723.203 57.8588L726.557 64H723.937L720.856 58.278H720.709H717.607V64H715.302ZM717.607 56.2868H720.479C722.721 56.2868 723.644 55.3017 723.644 53.583C723.644 51.8643 722.721 50.7954 720.479 50.7954H717.607V56.2868ZM728.527 64V48.8252H738.043V50.8164H730.833V55.4065H737.54V57.3767H730.833V62.0088H738.127V64H728.527Z" fill="#C9C3CE"/>
<rect x="600.5" y="92" width="170" height="170" rx="17.8856" fill="#1C1C26" fill-opacity="0.47"/>
<rect x="600" y="92" width="210" height="170" rx="17.8856" fill="url(#paint8_radial_2249_17644)" fill-opacity="0.06"/>
<path d="M707.771 162.381V165.874H705.186V173.315C706.443 173.228 707.684 173.106 708.889 172.966L709.203 176.25C702.88 177.298 695.579 177.437 690.27 177.437L689.78 173.804L693.239 173.769V165.874H690.619V162.381H707.771ZM715.177 160.425V167.272H719.473V170.975H715.177V178.101H710.705V160.425H715.177ZM698.758 179.289V182.083H710.705V179.289H715.177V191.864H694.287V179.289H698.758ZM698.758 188.301H710.705V185.542H698.758V188.301ZM697.536 173.699L700.889 173.595V165.874H697.536V173.699Z" fill="url(#paint9_linear_2249_17644)"/>
<path d="M973.694 47.3999C977.823 47.3999 980.401 48.7414 980.401 51.005C980.401 53.2267 977.823 54.5472 973.694 54.5472C969.586 54.5472 966.987 53.2267 966.987 51.005C966.987 48.7414 969.586 47.3999 973.694 47.3999ZM973.694 48.9719C970.801 48.9719 969.02 49.7055 969.041 51.005C969.02 52.2626 970.801 52.9752 973.694 52.9962C976.565 52.9752 978.347 52.2626 978.347 51.005C978.347 49.7055 976.565 48.9719 973.694 48.9719ZM980.17 59.2841V65.551H967.196V59.2841H980.17ZM969.167 60.877V63.9371H978.242V60.877H969.167ZM982.266 55.9934V57.6073H965.142V55.9934H982.266ZM989.435 50.5439C989.435 52.6608 990.734 54.7777 993.165 55.7209L992.096 57.251C990.378 56.5593 989.162 55.2598 988.491 53.6878C987.789 55.438 986.511 56.9471 984.698 57.7331L983.608 56.203C986.144 55.0921 987.506 52.6608 987.506 50.5439V48.1335H989.435V50.5439ZM999.705 47.0227V58.3618H997.818V53.4573H995.618V58.257H993.773V47.3371H995.618V51.8015H997.818V47.0227H999.705ZM999.705 59.347V65.7816H997.735V60.9608H986.94V59.347H999.705Z" fill="#C9C3CE"/>
<rect x="844" y="92" width="223" height="170" rx="17.8856" fill="#1C1C26" fill-opacity="0.47"/>
<rect x="844" y="92" width="278" height="170" rx="17.8856" fill="url(#paint10_radial_2249_17644)" fill-opacity="0.06"/>
<path d="M907.912 161.997V165.944H914.409V161.997H918.881V176.18H903.475V161.997H907.912ZM907.912 172.686H914.409V169.263H907.912V172.686ZM927.754 160.425V166.783H932.051V170.451H927.754V177.298H923.282V160.425H927.754ZM916.121 178.625V186.729H909.833V188.616C914.095 188.598 915.981 188.493 918.147 187.952L918.601 191.236C915.947 191.795 913.781 191.899 907.563 191.899H905.467V183.62H911.824V181.944H905.397V178.625H916.121ZM927.754 178.625V192.039H923.352V182.118H917.484V178.625H927.754ZM959.647 163.185V166.189C959.647 170.171 959.647 174.643 958.355 181.385L953.884 180.931C955.089 174.922 955.141 170.451 955.176 166.713H936.452V163.185H959.647ZM962.442 184.703V188.336H933.448V184.703H943.823V173.769H948.259V184.703H962.442ZM1001.6 176.18V179.778H972.607V176.18H984.834V173.49H976.31V161.193H980.712V164.093H993.462V161.193H997.899V173.49H989.305V176.18H1001.6ZM998.073 181.944V192.214H993.637V185.472H975.821V181.944H998.073ZM980.712 169.997H993.462V167.377H980.712V169.997ZM1021.51 162.172V165.735H1015.19C1015.31 169.211 1017.57 172.686 1022.63 174.154L1020.54 177.577C1016.92 176.546 1014.42 174.398 1012.99 171.673C1011.58 174.712 1008.99 177.105 1005.2 178.241L1002.93 174.712C1008.12 173.175 1010.54 169.455 1010.68 165.735H1004.19V162.172H1021.51ZM1028.74 160.425V167.202H1033.04V170.835H1028.74V177.926H1024.27V160.425H1028.74ZM1012.33 179.219V182.118H1024.27V179.219H1028.74V191.864H1007.85V179.219H1012.33ZM1012.33 188.301H1024.27V185.542H1012.33V188.301ZM1059.66 160.425V168.25H1063.96V171.988H1059.66V179.603H1055.19V160.425H1059.66ZM1059.66 181V191.864H1038.87V181H1059.66ZM1043.28 184.494V188.301H1055.26V184.494H1043.28ZM1053.3 163.289V166.818H1034.44V163.289H1041.67V160.25H1046.11V163.289H1053.3ZM1043.87 167.796C1048.48 167.796 1051.7 170.136 1051.7 173.49C1051.7 176.948 1048.48 179.254 1043.87 179.254C1039.19 179.254 1035.98 176.948 1035.98 173.49C1035.98 170.136 1039.19 167.796 1043.87 167.796ZM1043.87 171.149C1041.74 171.149 1040.31 171.988 1040.34 173.49C1040.31 175.097 1041.74 175.97 1043.87 175.97C1046 175.97 1047.47 175.097 1047.47 173.49C1047.47 171.988 1046 171.149 1043.87 171.149Z" fill="url(#paint11_linear_2249_17644)"/>
<defs>
<radialGradient id="paint0_radial_2249_17644" cx="0" cy="0" r="1" gradientUnits="userSpaceOnUse" gradientTransform="translate(172 173) rotate(90) scale(146 145)">
<stop stop-color="#855DC5"/>
<stop offset="1" stop-color="#17181E"/>
</radialGradient>
<radialGradient id="paint1_radial_2249_17644" cx="0" cy="0" r="1" gradientUnits="userSpaceOnUse" gradientTransform="translate(459 173) rotate(90) scale(146 145)">
<stop stop-color="#855DC5"/>
<stop offset="1" stop-color="#17181E"/>
</radialGradient>
<radialGradient id="paint2_radial_2249_17644" cx="0" cy="0" r="1" gradientUnits="userSpaceOnUse" gradientTransform="translate(681 173) rotate(90) scale(146 145)">
<stop stop-color="#855DC5"/>
<stop offset="1" stop-color="#17181E"/>
</radialGradient>
<radialGradient id="paint3_radial_2249_17644" cx="0" cy="0" r="1" gradientUnits="userSpaceOnUse" gradientTransform="translate(962 155) rotate(90) scale(146 145)">
<stop stop-color="#855DC5"/>
<stop offset="1" stop-color="#17181E"/>
</radialGradient>
<radialGradient id="paint4_radial_2249_17644" cx="0" cy="0" r="1" gradientUnits="userSpaceOnUse" gradientTransform="translate(174 177) rotate(90) scale(85 139)">
<stop stop-color="#999999" stop-opacity="0"/>
<stop offset="1" stop-color="white"/>
</radialGradient>
<linearGradient id="paint5_linear_2249_17644" x1="122.604" y1="155" x2="246.154" y2="162.229" gradientUnits="userSpaceOnUse">
<stop stop-color="white"/>
<stop offset="0.665" stop-color="#7F9DFF"/>
<stop offset="0.805" stop-color="#9B97E8"/>
<stop offset="1" stop-color="#DFBFFF"/>
</linearGradient>
<radialGradient id="paint6_radial_2249_17644" cx="0" cy="0" r="1" gradientUnits="userSpaceOnUse" gradientTransform="translate(456.5 177) rotate(90) scale(85 109.5)">
<stop stop-color="#999999" stop-opacity="0"/>
<stop offset="1" stop-color="white"/>
</radialGradient>
<linearGradient id="paint7_linear_2249_17644" x1="427.453" y1="155.391" x2="497.571" y2="157.876" gradientUnits="userSpaceOnUse">
<stop stop-color="white"/>
<stop offset="0.665" stop-color="#7F9DFF"/>
<stop offset="0.805" stop-color="#9B97E8"/>
<stop offset="1" stop-color="#DFBFFF"/>
</linearGradient>
<radialGradient id="paint8_radial_2249_17644" cx="0" cy="0" r="1" gradientUnits="userSpaceOnUse" gradientTransform="translate(705 177) rotate(90) scale(85 105)">
<stop stop-color="#999999" stop-opacity="0"/>
<stop offset="1" stop-color="white"/>
</radialGradient>
<linearGradient id="paint9_linear_2249_17644" x1="682.536" y1="155" x2="736.992" y2="156.498" gradientUnits="userSpaceOnUse">
<stop stop-color="white"/>
<stop offset="0.665" stop-color="#7F9DFF"/>
<stop offset="0.805" stop-color="#9B97E8"/>
<stop offset="1" stop-color="#DFBFFF"/>
</linearGradient>
<radialGradient id="paint10_radial_2249_17644" cx="0" cy="0" r="1" gradientUnits="userSpaceOnUse" gradientTransform="translate(983 177) rotate(90) scale(85 139)">
<stop stop-color="#999999" stop-opacity="0"/>
<stop offset="1" stop-color="white"/>
</radialGradient>
<linearGradient id="paint11_linear_2249_17644" x1="928.78" y1="155" x2="1062.88" y2="164.121" gradientUnits="userSpaceOnUse">
<stop stop-color="white"/>
<stop offset="0.665" stop-color="#7F9DFF"/>
<stop offset="0.805" stop-color="#9B97E8"/>
<stop offset="1" stop-color="#DFBFFF"/>
</linearGradient>
</defs>
</svg>
