<svg width="811" height="219" viewBox="0 0 811 219" fill="none" xmlns="http://www.w3.org/2000/svg">
<path d="M69.0152 21V5.82519H71.3208V13.0563H71.5094L77.8602 5.82519H80.7526L74.6324 12.658L80.7736 21H77.986L73.1023 14.23L71.3208 16.2841V21H69.0152ZM86.5375 21.2306C83.184 21.2306 81.1299 18.925 81.1299 15.3828C81.1299 11.8825 83.2259 9.47218 86.3908 9.47218C88.9898 9.47218 91.4421 11.0861 91.4421 15.1942V15.9906H83.3516C83.4145 18.1495 84.6826 19.3861 86.5585 19.3861C87.837 19.3861 88.6544 18.8412 89.0317 18.1495H91.2954C90.7923 19.9939 89.0317 21.2306 86.5375 21.2306ZM83.3726 14.3139H89.2413C89.2413 12.5742 88.1304 11.3166 86.4117 11.3166C84.6197 11.3166 83.4564 12.7 83.3726 14.3139ZM94.6908 25.2758C94.2297 25.2758 93.7896 25.2548 93.4961 25.2129V23.3475C93.7476 23.3684 94.1878 23.3894 94.5022 23.3894C95.1938 23.3894 95.7807 23.3265 96.3047 21.9013L96.5772 21.1467L92.4062 9.6189H94.7956L97.6671 18.4429H97.7928L100.664 9.6189H103.075L98.3797 22.5091C97.73 24.3116 96.5562 25.2758 94.6908 25.2758Z" fill="#C9C3CE"/>
<rect x="0.5" y="49" width="170" height="170" rx="17.8856" fill="url(#paint0_radial_1515_5521)" fill-opacity="0.06"/>
<path d="M66.1444 146.391V121.099H82.8073V125.431H71.3843V131.579H81.7244V135.911H71.3843V146.391H66.1444ZM95.7324 146.391L96.7804 140.068H91.785L90.7371 146.391H86.8246L87.8726 140.068H84.3793L85.043 136.19H88.5014L89.3048 131.3H85.8465L86.4753 127.387H89.9685L90.9816 121.099H94.8941L93.881 127.387H98.8415L99.8545 121.099H103.767L102.754 127.387H106.212L105.549 131.3H102.09L101.287 136.19H104.78L104.116 140.068H100.658L99.61 146.391H95.7324ZM92.4138 136.19H97.4092L98.2127 131.3H93.2173L92.4138 136.19Z" fill="url(#paint1_linear_1515_5521)"/>
<path d="M281.919 9.82849C281.772 8.42419 280.536 7.60677 278.796 7.60677C276.93 7.60677 275.757 8.54995 275.757 9.84945C275.757 11.2957 277.329 11.8406 278.523 12.1341L279.991 12.5323C281.94 12.9934 284.35 14.0623 284.371 16.8081C284.35 19.3651 282.317 21.2515 278.733 21.2515C275.338 21.2515 273.2 19.5538 273.053 16.7871H275.358C275.505 18.4429 276.951 19.2394 278.733 19.2394C280.661 19.2394 282.066 18.2543 282.087 16.7661C282.066 15.4457 280.829 14.9007 279.215 14.4815L277.413 13.9995C274.981 13.3288 273.451 12.0921 273.451 9.97521C273.451 7.35525 275.799 5.6156 278.859 5.6156C281.94 5.6156 284.099 7.37621 284.162 9.82849H281.919ZM291.476 21.2306C288.165 21.2306 286.153 18.7783 286.153 15.3618C286.153 11.8825 288.228 9.47218 291.435 9.47218C294.034 9.47218 295.92 11.0022 296.15 13.3078H293.971C293.74 12.2389 292.881 11.3376 291.476 11.3376C289.632 11.3376 288.395 12.8676 288.395 15.299C288.395 17.7932 289.611 19.3232 291.476 19.3232C292.734 19.3232 293.698 18.6316 293.971 17.3949H296.15C295.899 19.5957 294.159 21.2306 291.476 21.2306ZM297.743 17.7932C297.743 15.1942 299.944 14.5235 301.998 14.3767C302.753 14.3243 304.461 14.23 304.995 14.2091L304.974 13.3078C304.974 12.0293 304.199 11.2747 302.669 11.2747C301.348 11.2747 300.552 11.8825 300.321 12.7209H298.1C298.309 10.8346 300.07 9.47218 302.753 9.47218C304.555 9.47218 307.217 10.1429 307.217 13.4336V21H305.037V19.449H304.954C304.513 20.3083 303.465 21.2515 301.579 21.2515C299.42 21.2515 297.743 20.0149 297.743 17.7932ZM299.923 17.8141C299.923 18.904 300.824 19.4699 302.082 19.4699C303.906 19.4699 304.995 18.2543 304.995 16.8919V15.8439L302.313 16.0326C300.845 16.1374 299.923 16.6823 299.923 17.8141ZM312.164 5.82519V21H309.921V5.82519H312.164ZM319.793 21.2306C316.439 21.2306 314.385 18.925 314.385 15.3828C314.385 11.8825 316.481 9.47218 319.646 9.47218C322.245 9.47218 324.698 11.0861 324.698 15.1942V15.9906H316.607C316.67 18.1495 317.938 19.3861 319.814 19.3861C321.092 19.3861 321.91 18.8412 322.287 18.1495H324.551C324.048 19.9939 322.287 21.2306 319.793 21.2306ZM316.628 14.3139H322.497C322.497 12.5742 321.386 11.3166 319.667 11.3166C317.875 11.3166 316.712 12.7 316.628 14.3139Z" fill="#C9C3CE"/>
<rect x="213.833" y="49" width="170" height="170" rx="17.8856" fill="url(#paint2_radial_1515_5521)" fill-opacity="0.47"/>
<path d="M252.475 121.099H258.973L265.994 138.251H266.274L273.295 121.099H279.793V146.391H274.692V129.832H274.483L267.88 146.286H264.387L257.785 129.763H257.575V146.391H252.475V121.099ZM283.041 141.081C283.041 136.854 286.465 135.457 290.098 135.247C291.46 135.16 294.01 135.037 294.814 135.003V133.465C294.779 131.894 293.696 130.95 291.774 130.95C290.028 130.95 288.91 131.754 288.631 133.046H283.705C284.019 129.763 286.884 127.178 291.914 127.178C296.036 127.178 299.949 129.029 299.949 133.605V146.391H295.058V143.771H294.918C293.975 145.517 292.194 146.74 289.364 146.74C285.731 146.74 283.041 144.854 283.041 141.081ZM288.002 140.941C288.002 142.408 289.189 143.177 290.831 143.177C293.172 143.177 294.849 141.605 294.814 139.614V138.216C294.028 138.251 291.827 138.374 290.936 138.461C289.154 138.636 288.002 139.474 288.002 140.941ZM303.896 127.422H309.066V147.334C309.066 151.7 306.376 153.517 301.94 153.517L300.892 153.482V149.43C301.171 149.43 301.346 149.465 301.591 149.465C303.267 149.465 303.896 148.696 303.896 147.264V127.422ZM306.446 124.942C304.874 124.942 303.617 123.754 303.617 122.322C303.617 120.855 304.874 119.667 306.446 119.667C307.983 119.667 309.241 120.855 309.241 122.322C309.241 123.754 307.983 124.942 306.446 124.942ZM321.607 146.775C315.878 146.775 312.315 142.827 312.315 136.959C312.315 131.09 315.878 127.178 321.607 127.178C327.336 127.178 330.934 131.09 330.934 136.959C330.934 142.827 327.336 146.775 321.607 146.775ZM321.642 142.758C324.297 142.758 325.659 140.277 325.659 136.959C325.659 133.605 324.297 131.125 321.642 131.125C318.952 131.125 317.555 133.605 317.555 136.959C317.555 140.277 318.952 142.758 321.642 142.758ZM334.183 146.391V127.422H339.178V130.706H339.388C340.087 128.365 341.833 127.143 343.964 127.143C344.488 127.143 345.152 127.213 345.606 127.317V131.928C345.117 131.789 344.139 131.649 343.405 131.649C341.065 131.649 339.353 133.291 339.353 135.596V146.391H334.183Z" fill="url(#paint3_linear_1515_5521)"/>
<path d="M491.207 21V5.82519H496.761C499.989 5.82519 501.561 7.56485 501.561 9.80753C501.561 11.6939 500.408 12.658 499.004 13.0144V13.1611C500.513 13.2449 502.148 14.5654 502.148 16.9129C502.148 19.2394 500.555 21 497.013 21H491.207ZM496.803 19.0298C498.983 19.0298 499.863 18.0656 499.863 16.8081C499.863 15.3618 498.711 14.1881 496.887 14.1881H493.513V19.0298H496.803ZM496.573 12.3856C498.103 12.3856 499.297 11.4424 499.297 9.99617C499.297 8.73859 498.438 7.7954 496.615 7.7954H493.513V12.3856H496.573ZM504.621 21V5.82519H510.029C513.55 5.82519 515.29 7.94212 515.29 10.7507C515.29 13.5384 513.55 15.6762 510.029 15.6762H506.927V21H504.621ZM506.927 13.706H509.798C512.041 13.706 512.963 12.4485 512.963 10.7507C512.963 9.03202 512.041 7.7954 509.798 7.7954H506.927V13.706ZM517.721 5.82519H520.53L525.329 17.5836H525.518L530.318 5.82519H533.126V21H530.926V10.0381H530.779L526.335 20.979H524.512L520.047 10.0171H519.922V21H517.721V5.82519Z" fill="#C9C3CE"/>
<rect x="427.167" y="49" width="170" height="170" rx="17.8856" fill="#1C1C26" fill-opacity="0.47"/>
<rect x="427.167" y="49" width="170" height="170" rx="17.8856" fill="url(#paint4_radial_1515_5521)" fill-opacity="0.06"/>
<path d="M492.445 121.099V146.391H487.17V126.095H487.03L481.231 129.728V125.082L487.484 121.099H492.445ZM508.129 146.74C501.807 146.74 497.964 142.024 497.964 133.745C497.964 125.466 501.807 120.75 508.129 120.75C514.452 120.75 518.295 125.501 518.295 133.745C518.295 142.059 514.452 146.74 508.129 146.74ZM508.129 142.408C511.064 142.408 512.95 139.579 512.915 133.745C512.915 127.981 511.064 125.047 508.129 125.047C505.195 125.047 503.344 127.981 503.344 133.745C503.309 139.579 505.195 142.408 508.129 142.408ZM531.744 146.74C525.421 146.74 521.579 142.024 521.579 133.745C521.579 125.466 525.421 120.75 531.744 120.75C538.067 120.75 541.909 125.501 541.909 133.745C541.909 142.059 538.067 146.74 531.744 146.74ZM531.744 142.408C534.678 142.408 536.565 139.579 536.53 133.745C536.53 127.981 534.678 125.047 531.744 125.047C528.81 125.047 526.958 127.981 526.958 133.745C526.923 139.579 528.81 142.408 531.744 142.408Z" fill="url(#paint5_linear_1515_5521)"/>
<path d="M716.194 4.39994C720.323 4.39994 722.901 5.74136 722.901 8.005C722.901 10.2267 720.323 11.5472 716.194 11.5472C712.086 11.5472 709.487 10.2267 709.487 8.005C709.487 5.74136 712.086 4.39994 716.194 4.39994ZM716.194 5.97191C713.301 5.97191 711.52 6.7055 711.541 8.005C711.52 9.26258 713.301 9.97521 716.194 9.99617C719.065 9.97521 720.847 9.26258 720.847 8.005C720.847 6.7055 719.065 5.97191 716.194 5.97191ZM722.67 16.2841V22.551H709.696V16.2841H722.67ZM711.667 17.877V20.9371H720.742V17.877H711.667ZM724.766 12.9934V14.6073H707.642V12.9934H724.766ZM731.474 4.92393C734.345 4.92393 736.42 6.7055 736.441 9.28354C736.42 11.9035 734.345 13.6851 731.474 13.6641C728.602 13.6851 726.485 11.9035 726.506 9.28354C726.485 6.7055 728.602 4.92393 731.474 4.92393ZM731.474 6.57974C729.713 6.57974 728.434 7.66965 728.455 9.28354C728.434 10.9184 729.713 12.0083 731.474 12.0083C733.234 12.0083 734.492 10.9184 734.513 9.28354C734.492 7.66965 733.234 6.57974 731.474 6.57974ZM740.947 4.0017V8.19364H743.672V9.82849H740.947V14.1671H738.956V4.0017H740.947ZM730.887 15.0475V17.2063H738.956V15.0475H740.947V22.551H728.916V15.0475H730.887ZM730.887 20.9371H738.956V18.7573H730.887V20.9371Z" fill="#C9C3CE"/>
<rect x="640.5" y="49" width="170" height="170" rx="17.8856" fill="#1C1C26" fill-opacity="0.47"/>
<rect x="640.5" y="49" width="170" height="170" rx="17.8856" fill="url(#paint6_radial_1515_5521)" fill-opacity="0.06"/>
<path d="M705.778 121.099V146.391H700.503V126.095H700.363L694.565 129.728V125.082L700.818 121.099H705.778ZM721.463 146.74C715.14 146.74 711.297 142.024 711.297 133.745C711.297 125.466 715.14 120.75 721.463 120.75C727.786 120.75 731.628 125.501 731.628 133.745C731.628 142.059 727.786 146.74 721.463 146.74ZM721.463 142.408C724.397 142.408 726.284 139.579 726.249 133.745C726.249 127.981 724.397 125.047 721.463 125.047C718.528 125.047 716.677 127.981 716.677 133.745C716.642 139.579 718.528 142.408 721.463 142.408ZM745.077 146.74C738.755 146.74 734.912 142.024 734.912 133.745C734.912 125.466 738.755 120.75 745.077 120.75C751.4 120.75 755.243 125.501 755.243 133.745C755.243 142.059 751.4 146.74 745.077 146.74ZM745.077 142.408C748.012 142.408 749.898 139.579 749.863 133.745C749.863 127.981 748.012 125.047 745.077 125.047C742.143 125.047 740.292 127.981 740.292 133.745C740.257 139.579 742.143 142.408 745.077 142.408Z" fill="url(#paint7_linear_1515_5521)"/>
<defs>
<radialGradient id="paint0_radial_1515_5521" cx="0" cy="0" r="1" gradientUnits="userSpaceOnUse" gradientTransform="translate(85.5 134) rotate(90) scale(85)">
<stop stop-color="#999999" stop-opacity="0"/>
<stop offset="1" stop-color="white"/>
</radialGradient>
<linearGradient id="paint1_linear_1515_5521" x1="69.9234" y1="112.391" x2="107.953" y2="113.121" gradientUnits="userSpaceOnUse">
<stop stop-color="white"/>
<stop offset="0.665" stop-color="#7F9DFF"/>
<stop offset="0.805" stop-color="#9B97E8"/>
<stop offset="1" stop-color="#DFBFFF"/>
</linearGradient>
<radialGradient id="paint2_radial_1515_5521" cx="0" cy="0" r="1" gradientUnits="userSpaceOnUse" gradientTransform="translate(298.833 134) rotate(180) scale(85)">
<stop stop-color="#8C8C8C" stop-opacity="0"/>
<stop offset="1" stop-color="white" stop-opacity="0.13"/>
</radialGradient>
<linearGradient id="paint3_linear_1515_5521" x1="265.319" y1="112.391" x2="346.926" y2="115.759" gradientUnits="userSpaceOnUse">
<stop stop-color="white"/>
<stop offset="0.665" stop-color="#7F9DFF"/>
<stop offset="0.805" stop-color="#9B97E8"/>
<stop offset="1" stop-color="#DFBFFF"/>
</linearGradient>
<radialGradient id="paint4_radial_1515_5521" cx="0" cy="0" r="1" gradientUnits="userSpaceOnUse" gradientTransform="translate(512.167 134) rotate(90) scale(85)">
<stop stop-color="#999999" stop-opacity="0"/>
<stop offset="1" stop-color="white"/>
</radialGradient>
<linearGradient id="paint5_linear_1515_5521" x1="489.619" y1="112.391" x2="544.075" y2="113.889" gradientUnits="userSpaceOnUse">
<stop stop-color="white"/>
<stop offset="0.665" stop-color="#7F9DFF"/>
<stop offset="0.805" stop-color="#9B97E8"/>
<stop offset="1" stop-color="#DFBFFF"/>
</linearGradient>
<radialGradient id="paint6_radial_1515_5521" cx="0" cy="0" r="1" gradientUnits="userSpaceOnUse" gradientTransform="translate(725.5 134) rotate(90) scale(85)">
<stop stop-color="#999999" stop-opacity="0"/>
<stop offset="1" stop-color="white"/>
</radialGradient>
<linearGradient id="paint7_linear_1515_5521" x1="702.952" y1="112.391" x2="757.409" y2="113.889" gradientUnits="userSpaceOnUse">
<stop stop-color="white"/>
<stop offset="0.665" stop-color="#7F9DFF"/>
<stop offset="0.805" stop-color="#9B97E8"/>
<stop offset="1" stop-color="#DFBFFF"/>
</linearGradient>
</defs>
</svg>
