
<svg xmlns="http://www.w3.org/2000/svg" width="36" height="36" viewBox="0 0 36 36" fill="none">
  <rect width="36" height="36" rx="3.6" fill="#F9F8FA"/>
  <g style="mix-blend-mode:hard-light">
    <path fill-rule="evenodd" clip-rule="evenodd" d="M19.6253 12.0646C19.8606 11.5862 19.5124 11.0269 18.9792 11.0269H14.8983C14.6239 11.0269 14.3733 11.1829 14.2522 11.4291L13.587 12.7817C13.3517 13.2602 13.6999 13.8195 14.2331 13.8195H18.314C18.5885 13.8195 18.839 13.6635 18.9601 13.4172L19.6253 12.0646ZM18.4089 15.7486C18.53 15.5023 18.7805 15.3463 19.0549 15.3463H23.1359C23.6691 15.3463 24.0173 15.9056 23.782 16.3841L23.5463 16.8633C23.3111 17.3417 23.6593 17.901 24.1924 17.901H27.387C27.9201 17.901 28.2684 18.4603 28.0331 18.9388L27.3679 20.2914C27.2467 20.5376 26.9962 20.6936 26.7218 20.6936H22.2057C21.9312 20.6936 21.6807 20.8496 21.5596 21.0959L20.7069 22.8297C20.5857 23.076 20.3352 23.232 20.0608 23.232H15.7028C15.4284 23.232 15.1779 23.388 15.0567 23.6343L14.2047 25.3668C14.0836 25.613 13.833 25.769 13.5586 25.769H9.47763C8.94446 25.769 8.59624 25.2097 8.83153 24.7313L9.49675 23.3787C9.61785 23.1324 9.86841 22.9764 10.1428 22.9764H14.5008C14.7752 22.9764 15.0257 22.8204 15.1469 22.5742L15.5613 21.7314C15.7966 21.2529 15.4484 20.6936 14.9152 20.6936H12.0151C11.4819 20.6936 11.1337 20.1343 11.369 19.6559L12.0342 18.3033C12.1553 18.057 12.4058 17.901 12.6803 17.901H16.902C17.1764 17.901 17.427 17.745 17.5481 17.4988L18.4089 15.7486ZM17.6029 18.5412C17.724 18.2949 17.9745 18.1389 18.2489 18.1389H21.5843C22.1174 18.1389 22.4657 18.6982 22.2304 19.1767L21.8072 20.0371C21.6861 20.2834 21.4355 20.4394 21.1611 20.4394H17.8258C17.2926 20.4394 16.9444 19.8801 17.1797 19.4016L17.6029 18.5412Z" fill="url(#paint0_linear_533_10792)"/>
    <path fill-rule="evenodd" clip-rule="evenodd" d="M19.6253 12.0646C19.8606 11.5862 19.5124 11.0269 18.9792 11.0269H14.8983C14.6239 11.0269 14.3733 11.1829 14.2522 11.4291L13.587 12.7817C13.3517 13.2602 13.6999 13.8195 14.2331 13.8195H18.314C18.5885 13.8195 18.839 13.6635 18.9601 13.4172L19.6253 12.0646ZM18.4089 15.7486C18.53 15.5023 18.7805 15.3463 19.0549 15.3463H23.1359C23.6691 15.3463 24.0173 15.9056 23.782 16.3841L23.5463 16.8633C23.3111 17.3417 23.6593 17.901 24.1924 17.901H27.387C27.9201 17.901 28.2684 18.4603 28.0331 18.9388L27.3679 20.2914C27.2467 20.5376 26.9962 20.6936 26.7218 20.6936H22.2057C21.9312 20.6936 21.6807 20.8496 21.5596 21.0959L20.7069 22.8297C20.5857 23.076 20.3352 23.232 20.0608 23.232H15.7028C15.4284 23.232 15.1779 23.388 15.0567 23.6343L14.2047 25.3668C14.0836 25.613 13.833 25.769 13.5586 25.769H9.47763C8.94446 25.769 8.59624 25.2097 8.83153 24.7313L9.49675 23.3787C9.61785 23.1324 9.86841 22.9764 10.1428 22.9764H14.5008C14.7752 22.9764 15.0257 22.8204 15.1469 22.5742L15.5613 21.7314C15.7966 21.2529 15.4484 20.6936 14.9152 20.6936H12.0151C11.4819 20.6936 11.1337 20.1343 11.369 19.6559L12.0342 18.3033C12.1553 18.057 12.4058 17.901 12.6803 17.901H16.902C17.1764 17.901 17.427 17.745 17.5481 17.4988L18.4089 15.7486ZM17.6029 18.5412C17.724 18.2949 17.9745 18.1389 18.2489 18.1389H21.5843C22.1174 18.1389 22.4657 18.6982 22.2304 19.1767L21.8072 20.0371C21.6861 20.2834 21.4355 20.4394 21.1611 20.4394H17.8258C17.2926 20.4394 16.9444 19.8801 17.1797 19.4016L17.6029 18.5412Z" fill="black" fill-opacity="0.2"/>
    <path fill-rule="evenodd" clip-rule="evenodd" d="M19.6253 12.0646C19.8606 11.5862 19.5124 11.0269 18.9792 11.0269H14.8983C14.6239 11.0269 14.3733 11.1829 14.2522 11.4291L13.587 12.7817C13.3517 13.2602 13.6999 13.8195 14.2331 13.8195H18.314C18.5885 13.8195 18.839 13.6635 18.9601 13.4172L19.6253 12.0646ZM18.4089 15.7486C18.53 15.5023 18.7805 15.3463 19.0549 15.3463H23.1359C23.6691 15.3463 24.0173 15.9056 23.782 16.3841L23.5463 16.8633C23.3111 17.3417 23.6593 17.901 24.1924 17.901H27.387C27.9201 17.901 28.2684 18.4603 28.0331 18.9388L27.3679 20.2914C27.2467 20.5376 26.9962 20.6936 26.7218 20.6936H22.2057C21.9312 20.6936 21.6807 20.8496 21.5596 21.0959L20.7069 22.8297C20.5857 23.076 20.3352 23.232 20.0608 23.232H15.7028C15.4284 23.232 15.1779 23.388 15.0567 23.6343L14.2047 25.3668C14.0836 25.613 13.833 25.769 13.5586 25.769H9.47763C8.94446 25.769 8.59624 25.2097 8.83153 24.7313L9.49675 23.3787C9.61785 23.1324 9.86841 22.9764 10.1428 22.9764H14.5008C14.7752 22.9764 15.0257 22.8204 15.1469 22.5742L15.5613 21.7314C15.7966 21.2529 15.4484 20.6936 14.9152 20.6936H12.0151C11.4819 20.6936 11.1337 20.1343 11.369 19.6559L12.0342 18.3033C12.1553 18.057 12.4058 17.901 12.6803 17.901H16.902C17.1764 17.901 17.427 17.745 17.5481 17.4988L18.4089 15.7486ZM17.6029 18.5412C17.724 18.2949 17.9745 18.1389 18.2489 18.1389H21.5843C22.1174 18.1389 22.4657 18.6982 22.2304 19.1767L21.8072 20.0371C21.6861 20.2834 21.4355 20.4394 21.1611 20.4394H17.8258C17.2926 20.4394 16.9444 19.8801 17.1797 19.4016L17.6029 18.5412Z" fill="url(#paint1_linear_533_10792)" fill-opacity="0.2"/>
    <path fill-rule="evenodd" clip-rule="evenodd" d="M19.6253 12.0646C19.8606 11.5862 19.5124 11.0269 18.9792 11.0269H14.8983C14.6239 11.0269 14.3733 11.1829 14.2522 11.4291L13.587 12.7817C13.3517 13.2602 13.6999 13.8195 14.2331 13.8195H18.314C18.5885 13.8195 18.839 13.6635 18.9601 13.4172L19.6253 12.0646ZM18.4089 15.7486C18.53 15.5023 18.7805 15.3463 19.0549 15.3463H23.1359C23.6691 15.3463 24.0173 15.9056 23.782 16.3841L23.5463 16.8633C23.3111 17.3417 23.6593 17.901 24.1924 17.901H27.387C27.9201 17.901 28.2684 18.4603 28.0331 18.9388L27.3679 20.2914C27.2467 20.5376 26.9962 20.6936 26.7218 20.6936H22.2057C21.9312 20.6936 21.6807 20.8496 21.5596 21.0959L20.7069 22.8297C20.5857 23.076 20.3352 23.232 20.0608 23.232H15.7028C15.4284 23.232 15.1779 23.388 15.0567 23.6343L14.2047 25.3668C14.0836 25.613 13.833 25.769 13.5586 25.769H9.47763C8.94446 25.769 8.59624 25.2097 8.83153 24.7313L9.49675 23.3787C9.61785 23.1324 9.86841 22.9764 10.1428 22.9764H14.5008C14.7752 22.9764 15.0257 22.8204 15.1469 22.5742L15.5613 21.7314C15.7966 21.2529 15.4484 20.6936 14.9152 20.6936H12.0151C11.4819 20.6936 11.1337 20.1343 11.369 19.6559L12.0342 18.3033C12.1553 18.057 12.4058 17.901 12.6803 17.901H16.902C17.1764 17.901 17.427 17.745 17.5481 17.4988L18.4089 15.7486ZM17.6029 18.5412C17.724 18.2949 17.9745 18.1389 18.2489 18.1389H21.5843C22.1174 18.1389 22.4657 18.6982 22.2304 19.1767L21.8072 20.0371C21.6861 20.2834 21.4355 20.4394 21.1611 20.4394H17.8258C17.2926 20.4394 16.9444 19.8801 17.1797 19.4016L17.6029 18.5412Z" fill="black" fill-opacity="0.2"/>
    <path fill-rule="evenodd" clip-rule="evenodd" d="M19.6253 12.0646C19.8606 11.5862 19.5124 11.0269 18.9792 11.0269H14.8983C14.6239 11.0269 14.3733 11.1829 14.2522 11.4291L13.587 12.7817C13.3517 13.2602 13.6999 13.8195 14.2331 13.8195H18.314C18.5885 13.8195 18.839 13.6635 18.9601 13.4172L19.6253 12.0646ZM18.4089 15.7486C18.53 15.5023 18.7805 15.3463 19.0549 15.3463H23.1359C23.6691 15.3463 24.0173 15.9056 23.782 16.3841L23.5463 16.8633C23.3111 17.3417 23.6593 17.901 24.1924 17.901H27.387C27.9201 17.901 28.2684 18.4603 28.0331 18.9388L27.3679 20.2914C27.2467 20.5376 26.9962 20.6936 26.7218 20.6936H22.2057C21.9312 20.6936 21.6807 20.8496 21.5596 21.0959L20.7069 22.8297C20.5857 23.076 20.3352 23.232 20.0608 23.232H15.7028C15.4284 23.232 15.1779 23.388 15.0567 23.6343L14.2047 25.3668C14.0836 25.613 13.833 25.769 13.5586 25.769H9.47763C8.94446 25.769 8.59624 25.2097 8.83153 24.7313L9.49675 23.3787C9.61785 23.1324 9.86841 22.9764 10.1428 22.9764H14.5008C14.7752 22.9764 15.0257 22.8204 15.1469 22.5742L15.5613 21.7314C15.7966 21.2529 15.4484 20.6936 14.9152 20.6936H12.0151C11.4819 20.6936 11.1337 20.1343 11.369 19.6559L12.0342 18.3033C12.1553 18.057 12.4058 17.901 12.6803 17.901H16.902C17.1764 17.901 17.427 17.745 17.5481 17.4988L18.4089 15.7486ZM17.6029 18.5412C17.724 18.2949 17.9745 18.1389 18.2489 18.1389H21.5843C22.1174 18.1389 22.4657 18.6982 22.2304 19.1767L21.8072 20.0371C21.6861 20.2834 21.4355 20.4394 21.1611 20.4394H17.8258C17.2926 20.4394 16.9444 19.8801 17.1797 19.4016L17.6029 18.5412Z" fill="black" fill-opacity="0.2"/>
    <path fill-rule="evenodd" clip-rule="evenodd" d="M19.6253 12.0646C19.8606 11.5862 19.5124 11.0269 18.9792 11.0269H14.8983C14.6239 11.0269 14.3733 11.1829 14.2522 11.4291L13.587 12.7817C13.3517 13.2602 13.6999 13.8195 14.2331 13.8195H18.314C18.5885 13.8195 18.839 13.6635 18.9601 13.4172L19.6253 12.0646ZM18.4089 15.7486C18.53 15.5023 18.7805 15.3463 19.0549 15.3463H23.1359C23.6691 15.3463 24.0173 15.9056 23.782 16.3841L23.5463 16.8633C23.3111 17.3417 23.6593 17.901 24.1924 17.901H27.387C27.9201 17.901 28.2684 18.4603 28.0331 18.9388L27.3679 20.2914C27.2467 20.5376 26.9962 20.6936 26.7218 20.6936H22.2057C21.9312 20.6936 21.6807 20.8496 21.5596 21.0959L20.7069 22.8297C20.5857 23.076 20.3352 23.232 20.0608 23.232H15.7028C15.4284 23.232 15.1779 23.388 15.0567 23.6343L14.2047 25.3668C14.0836 25.613 13.833 25.769 13.5586 25.769H9.47763C8.94446 25.769 8.59624 25.2097 8.83153 24.7313L9.49675 23.3787C9.61785 23.1324 9.86841 22.9764 10.1428 22.9764H14.5008C14.7752 22.9764 15.0257 22.8204 15.1469 22.5742L15.5613 21.7314C15.7966 21.2529 15.4484 20.6936 14.9152 20.6936H12.0151C11.4819 20.6936 11.1337 20.1343 11.369 19.6559L12.0342 18.3033C12.1553 18.057 12.4058 17.901 12.6803 17.901H16.902C17.1764 17.901 17.427 17.745 17.5481 17.4988L18.4089 15.7486ZM17.6029 18.5412C17.724 18.2949 17.9745 18.1389 18.2489 18.1389H21.5843C22.1174 18.1389 22.4657 18.6982 22.2304 19.1767L21.8072 20.0371C21.6861 20.2834 21.4355 20.4394 21.1611 20.4394H17.8258C17.2926 20.4394 16.9444 19.8801 17.1797 19.4016L17.6029 18.5412Z" fill="black" fill-opacity="0.2"/>
  </g>
  <g style="mix-blend-mode:hard-light">
    <path fill-rule="evenodd" clip-rule="evenodd" d="M20.274 11.7404C20.5093 11.2619 20.1611 10.7026 19.6279 10.7026H15.547C15.2725 10.7026 15.022 10.8586 14.9009 11.1049L14.2357 12.4575C14.0004 12.9359 14.3486 13.4952 14.8817 13.4952H18.9627C19.2371 13.4952 19.4877 13.3393 19.6088 13.093L20.274 11.7404ZM19.0575 15.4244C19.1786 15.1781 19.4292 15.0221 19.7036 15.0221H23.7846C24.3178 15.0221 24.666 15.5814 24.4307 16.0599L24.195 16.539C23.9597 17.0175 24.308 17.5768 24.8411 17.5768H28.0357C28.5688 17.5768 28.917 18.1361 28.6818 18.6145L28.0165 19.9672C27.8954 20.2134 27.6449 20.3694 27.3704 20.3694H22.8543C22.5799 20.3694 22.3294 20.5254 22.2083 20.7717L21.3555 22.5055C21.2344 22.7518 20.9839 22.9078 20.7094 22.9078H16.3515C16.0771 22.9078 15.8265 23.0638 15.7054 23.31L14.8534 25.0426C14.7323 25.2888 14.4817 25.4448 14.2073 25.4448H10.1263C9.59314 25.4448 9.24492 24.8855 9.48021 24.4071L10.1454 23.0545C10.2665 22.8082 10.5171 22.6522 10.7915 22.6522H15.1494C15.4239 22.6522 15.6744 22.4962 15.7955 22.2499L16.21 21.4072C16.4453 20.9287 16.0971 20.3694 15.5639 20.3694H12.6637C12.1306 20.3694 11.7823 19.8101 12.0176 19.3317L12.6829 17.979C12.804 17.7328 13.0545 17.5768 13.3289 17.5768H17.5507C17.8251 17.5768 18.0757 17.4208 18.1968 17.1745L19.0575 15.4244ZM18.2515 18.217C18.3726 17.9707 18.6232 17.8147 18.8976 17.8147H22.233C22.7661 17.8147 23.1143 18.374 22.879 18.8525L22.4559 19.7129C22.3348 19.9592 22.0842 20.1152 21.8098 20.1152H18.4745C17.9413 20.1152 17.5931 19.5559 17.8284 19.0774L18.2515 18.217Z" fill="url(#paint2_linear_533_10792)"/>
    <path fill-rule="evenodd" clip-rule="evenodd" d="M20.274 11.7404C20.5093 11.2619 20.1611 10.7026 19.6279 10.7026H15.547C15.2725 10.7026 15.022 10.8586 14.9009 11.1049L14.2357 12.4575C14.0004 12.9359 14.3486 13.4952 14.8817 13.4952H18.9627C19.2371 13.4952 19.4877 13.3393 19.6088 13.093L20.274 11.7404ZM19.0575 15.4244C19.1786 15.1781 19.4292 15.0221 19.7036 15.0221H23.7846C24.3178 15.0221 24.666 15.5814 24.4307 16.0599L24.195 16.539C23.9597 17.0175 24.308 17.5768 24.8411 17.5768H28.0357C28.5688 17.5768 28.917 18.1361 28.6818 18.6145L28.0165 19.9672C27.8954 20.2134 27.6449 20.3694 27.3704 20.3694H22.8543C22.5799 20.3694 22.3294 20.5254 22.2083 20.7717L21.3555 22.5055C21.2344 22.7518 20.9839 22.9078 20.7094 22.9078H16.3515C16.0771 22.9078 15.8265 23.0638 15.7054 23.31L14.8534 25.0426C14.7323 25.2888 14.4817 25.4448 14.2073 25.4448H10.1263C9.59314 25.4448 9.24492 24.8855 9.48021 24.4071L10.1454 23.0545C10.2665 22.8082 10.5171 22.6522 10.7915 22.6522H15.1494C15.4239 22.6522 15.6744 22.4962 15.7955 22.2499L16.21 21.4072C16.4453 20.9287 16.0971 20.3694 15.5639 20.3694H12.6637C12.1306 20.3694 11.7823 19.8101 12.0176 19.3317L12.6829 17.979C12.804 17.7328 13.0545 17.5768 13.3289 17.5768H17.5507C17.8251 17.5768 18.0757 17.4208 18.1968 17.1745L19.0575 15.4244ZM18.2515 18.217C18.3726 17.9707 18.6232 17.8147 18.8976 17.8147H22.233C22.7661 17.8147 23.1143 18.374 22.879 18.8525L22.4559 19.7129C22.3348 19.9592 22.0842 20.1152 21.8098 20.1152H18.4745C17.9413 20.1152 17.5931 19.5559 17.8284 19.0774L18.2515 18.217Z" fill="black" fill-opacity="0.2"/>
    <path fill-rule="evenodd" clip-rule="evenodd" d="M20.274 11.7404C20.5093 11.2619 20.1611 10.7026 19.6279 10.7026H15.547C15.2725 10.7026 15.022 10.8586 14.9009 11.1049L14.2357 12.4575C14.0004 12.9359 14.3486 13.4952 14.8817 13.4952H18.9627C19.2371 13.4952 19.4877 13.3393 19.6088 13.093L20.274 11.7404ZM19.0575 15.4244C19.1786 15.1781 19.4292 15.0221 19.7036 15.0221H23.7846C24.3178 15.0221 24.666 15.5814 24.4307 16.0599L24.195 16.539C23.9597 17.0175 24.308 17.5768 24.8411 17.5768H28.0357C28.5688 17.5768 28.917 18.1361 28.6818 18.6145L28.0165 19.9672C27.8954 20.2134 27.6449 20.3694 27.3704 20.3694H22.8543C22.5799 20.3694 22.3294 20.5254 22.2083 20.7717L21.3555 22.5055C21.2344 22.7518 20.9839 22.9078 20.7094 22.9078H16.3515C16.0771 22.9078 15.8265 23.0638 15.7054 23.31L14.8534 25.0426C14.7323 25.2888 14.4817 25.4448 14.2073 25.4448H10.1263C9.59314 25.4448 9.24492 24.8855 9.48021 24.4071L10.1454 23.0545C10.2665 22.8082 10.5171 22.6522 10.7915 22.6522H15.1494C15.4239 22.6522 15.6744 22.4962 15.7955 22.2499L16.21 21.4072C16.4453 20.9287 16.0971 20.3694 15.5639 20.3694H12.6637C12.1306 20.3694 11.7823 19.8101 12.0176 19.3317L12.6829 17.979C12.804 17.7328 13.0545 17.5768 13.3289 17.5768H17.5507C17.8251 17.5768 18.0757 17.4208 18.1968 17.1745L19.0575 15.4244ZM18.2515 18.217C18.3726 17.9707 18.6232 17.8147 18.8976 17.8147H22.233C22.7661 17.8147 23.1143 18.374 22.879 18.8525L22.4559 19.7129C22.3348 19.9592 22.0842 20.1152 21.8098 20.1152H18.4745C17.9413 20.1152 17.5931 19.5559 17.8284 19.0774L18.2515 18.217Z" fill="url(#paint3_linear_533_10792)" fill-opacity="0.2"/>
  </g>
  <g style="mix-blend-mode:hard-light">
    <path fill-rule="evenodd" clip-rule="evenodd" d="M19.6253 11.4162C19.8606 10.9377 19.5124 10.3784 18.9792 10.3784H14.8983C14.6239 10.3784 14.3733 10.5344 14.2522 10.7807L13.587 12.1333C13.3517 12.6117 13.6999 13.171 14.2331 13.171H18.314C18.5885 13.171 18.839 13.015 18.9601 12.7688L19.6253 11.4162ZM18.4089 15.1001C18.53 14.8539 18.7805 14.6979 19.0549 14.6979H23.1359C23.6691 14.6979 24.0173 15.2572 23.782 15.7356L23.5463 16.2148C23.3111 16.6933 23.6593 17.2526 24.1924 17.2526H27.387C27.9201 17.2526 28.2684 17.8119 28.0331 18.2903L27.3679 19.6429C27.2467 19.8892 26.9962 20.0452 26.7218 20.0452H22.2057C21.9312 20.0452 21.6807 20.2012 21.5596 20.4474L20.7069 22.1813C20.5857 22.4276 20.3352 22.5836 20.0608 22.5836H15.7028C15.4284 22.5836 15.1779 22.7396 15.0567 22.9858L14.2047 24.7183C14.0836 24.9646 13.833 25.1206 13.5586 25.1206H9.47763C8.94446 25.1206 8.59624 24.5613 8.83153 24.0828L9.49675 22.7302C9.61785 22.484 9.86841 22.328 10.1428 22.328H14.5008C14.7752 22.328 15.0257 22.172 15.1469 21.9257L15.5613 21.0829C15.7966 20.6045 15.4484 20.0452 14.9152 20.0452H12.0151C11.4819 20.0452 11.1337 19.4859 11.369 19.0074L12.0342 17.6548C12.1553 17.4086 12.4058 17.2526 12.6803 17.2526H16.902C17.1764 17.2526 17.427 17.0966 17.5481 16.8503L18.4089 15.1001ZM17.6029 17.8927C17.724 17.6465 17.9745 17.4905 18.2489 17.4905H21.5843C22.1174 17.4905 22.4657 18.0498 22.2304 18.5282L21.8072 19.3887C21.6861 19.635 21.4355 19.7909 21.1611 19.7909H17.8258C17.2926 19.7909 16.9444 19.2316 17.1797 18.7532L17.6029 17.8927Z" fill="url(#paint4_linear_533_10792)"/>
    <path fill-rule="evenodd" clip-rule="evenodd" d="M19.6253 11.4162C19.8606 10.9377 19.5124 10.3784 18.9792 10.3784H14.8983C14.6239 10.3784 14.3733 10.5344 14.2522 10.7807L13.587 12.1333C13.3517 12.6117 13.6999 13.171 14.2331 13.171H18.314C18.5885 13.171 18.839 13.015 18.9601 12.7688L19.6253 11.4162ZM18.4089 15.1001C18.53 14.8539 18.7805 14.6979 19.0549 14.6979H23.1359C23.6691 14.6979 24.0173 15.2572 23.782 15.7356L23.5463 16.2148C23.3111 16.6933 23.6593 17.2526 24.1924 17.2526H27.387C27.9201 17.2526 28.2684 17.8119 28.0331 18.2903L27.3679 19.6429C27.2467 19.8892 26.9962 20.0452 26.7218 20.0452H22.2057C21.9312 20.0452 21.6807 20.2012 21.5596 20.4474L20.7069 22.1813C20.5857 22.4276 20.3352 22.5836 20.0608 22.5836H15.7028C15.4284 22.5836 15.1779 22.7396 15.0567 22.9858L14.2047 24.7183C14.0836 24.9646 13.833 25.1206 13.5586 25.1206H9.47763C8.94446 25.1206 8.59624 24.5613 8.83153 24.0828L9.49675 22.7302C9.61785 22.484 9.86841 22.328 10.1428 22.328H14.5008C14.7752 22.328 15.0257 22.172 15.1469 21.9257L15.5613 21.0829C15.7966 20.6045 15.4484 20.0452 14.9152 20.0452H12.0151C11.4819 20.0452 11.1337 19.4859 11.369 19.0074L12.0342 17.6548C12.1553 17.4086 12.4058 17.2526 12.6803 17.2526H16.902C17.1764 17.2526 17.427 17.0966 17.5481 16.8503L18.4089 15.1001ZM17.6029 17.8927C17.724 17.6465 17.9745 17.4905 18.2489 17.4905H21.5843C22.1174 17.4905 22.4657 18.0498 22.2304 18.5282L21.8072 19.3887C21.6861 19.635 21.4355 19.7909 21.1611 19.7909H17.8258C17.2926 19.7909 16.9444 19.2316 17.1797 18.7532L17.6029 17.8927Z" fill="black" fill-opacity="0.2"/>
    <path fill-rule="evenodd" clip-rule="evenodd" d="M19.6253 11.4162C19.8606 10.9377 19.5124 10.3784 18.9792 10.3784H14.8983C14.6239 10.3784 14.3733 10.5344 14.2522 10.7807L13.587 12.1333C13.3517 12.6117 13.6999 13.171 14.2331 13.171H18.314C18.5885 13.171 18.839 13.015 18.9601 12.7688L19.6253 11.4162ZM18.4089 15.1001C18.53 14.8539 18.7805 14.6979 19.0549 14.6979H23.1359C23.6691 14.6979 24.0173 15.2572 23.782 15.7356L23.5463 16.2148C23.3111 16.6933 23.6593 17.2526 24.1924 17.2526H27.387C27.9201 17.2526 28.2684 17.8119 28.0331 18.2903L27.3679 19.6429C27.2467 19.8892 26.9962 20.0452 26.7218 20.0452H22.2057C21.9312 20.0452 21.6807 20.2012 21.5596 20.4474L20.7069 22.1813C20.5857 22.4276 20.3352 22.5836 20.0608 22.5836H15.7028C15.4284 22.5836 15.1779 22.7396 15.0567 22.9858L14.2047 24.7183C14.0836 24.9646 13.833 25.1206 13.5586 25.1206H9.47763C8.94446 25.1206 8.59624 24.5613 8.83153 24.0828L9.49675 22.7302C9.61785 22.484 9.86841 22.328 10.1428 22.328H14.5008C14.7752 22.328 15.0257 22.172 15.1469 21.9257L15.5613 21.0829C15.7966 20.6045 15.4484 20.0452 14.9152 20.0452H12.0151C11.4819 20.0452 11.1337 19.4859 11.369 19.0074L12.0342 17.6548C12.1553 17.4086 12.4058 17.2526 12.6803 17.2526H16.902C17.1764 17.2526 17.427 17.0966 17.5481 16.8503L18.4089 15.1001ZM17.6029 17.8927C17.724 17.6465 17.9745 17.4905 18.2489 17.4905H21.5843C22.1174 17.4905 22.4657 18.0498 22.2304 18.5282L21.8072 19.3887C21.6861 19.635 21.4355 19.7909 21.1611 19.7909H17.8258C17.2926 19.7909 16.9444 19.2316 17.1797 18.7532L17.6029 17.8927Z" fill="url(#paint5_linear_533_10792)" fill-opacity="0.2"/>
    <path fill-rule="evenodd" clip-rule="evenodd" d="M19.6253 11.4162C19.8606 10.9377 19.5124 10.3784 18.9792 10.3784H14.8983C14.6239 10.3784 14.3733 10.5344 14.2522 10.7807L13.587 12.1333C13.3517 12.6117 13.6999 13.171 14.2331 13.171H18.314C18.5885 13.171 18.839 13.015 18.9601 12.7688L19.6253 11.4162ZM18.4089 15.1001C18.53 14.8539 18.7805 14.6979 19.0549 14.6979H23.1359C23.6691 14.6979 24.0173 15.2572 23.782 15.7356L23.5463 16.2148C23.3111 16.6933 23.6593 17.2526 24.1924 17.2526H27.387C27.9201 17.2526 28.2684 17.8119 28.0331 18.2903L27.3679 19.6429C27.2467 19.8892 26.9962 20.0452 26.7218 20.0452H22.2057C21.9312 20.0452 21.6807 20.2012 21.5596 20.4474L20.7069 22.1813C20.5857 22.4276 20.3352 22.5836 20.0608 22.5836H15.7028C15.4284 22.5836 15.1779 22.7396 15.0567 22.9858L14.2047 24.7183C14.0836 24.9646 13.833 25.1206 13.5586 25.1206H9.47763C8.94446 25.1206 8.59624 24.5613 8.83153 24.0828L9.49675 22.7302C9.61785 22.484 9.86841 22.328 10.1428 22.328H14.5008C14.7752 22.328 15.0257 22.172 15.1469 21.9257L15.5613 21.0829C15.7966 20.6045 15.4484 20.0452 14.9152 20.0452H12.0151C11.4819 20.0452 11.1337 19.4859 11.369 19.0074L12.0342 17.6548C12.1553 17.4086 12.4058 17.2526 12.6803 17.2526H16.902C17.1764 17.2526 17.427 17.0966 17.5481 16.8503L18.4089 15.1001ZM17.6029 17.8927C17.724 17.6465 17.9745 17.4905 18.2489 17.4905H21.5843C22.1174 17.4905 22.4657 18.0498 22.2304 18.5282L21.8072 19.3887C21.6861 19.635 21.4355 19.7909 21.1611 19.7909H17.8258C17.2926 19.7909 16.9444 19.2316 17.1797 18.7532L17.6029 17.8927Z" fill="#BAFFFE" fill-opacity="0.2"/>
  </g>
  <defs>
    <linearGradient id="paint0_linear_533_10792" x1="22.9102" y1="10.9284" x2="12.0454" y2="22.9284" gradientUnits="userSpaceOnUse">
      <stop stop-color="#7185E1"/>
      <stop offset="1" stop-color="#6F3DA1"/>
    </linearGradient>
    <linearGradient id="paint1_linear_533_10792" x1="24.694" y1="15.7932" x2="8.80212" y2="25.8473" gradientUnits="userSpaceOnUse">
      <stop stop-color="white" stop-opacity="0"/>
      <stop offset="1"/>
    </linearGradient>
    <linearGradient id="paint2_linear_533_10792" x1="23.5589" y1="10.6041" x2="12.694" y2="22.6041" gradientUnits="userSpaceOnUse">
      <stop stop-color="#7185E1"/>
      <stop offset="1" stop-color="#6F3DA1"/>
    </linearGradient>
    <linearGradient id="paint3_linear_533_10792" x1="25.3427" y1="15.469" x2="9.45081" y2="25.5231" gradientUnits="userSpaceOnUse">
      <stop stop-color="white" stop-opacity="0"/>
      <stop offset="1"/>
    </linearGradient>
    <linearGradient id="paint4_linear_533_10792" x1="22.9102" y1="10.2799" x2="12.0454" y2="22.2799" gradientUnits="userSpaceOnUse">
      <stop stop-color="#7185E1"/>
      <stop offset="1" stop-color="#6F3DA1"/>
    </linearGradient>
    <linearGradient id="paint5_linear_533_10792" x1="24.694" y1="15.1448" x2="8.80212" y2="25.1988" gradientUnits="userSpaceOnUse">
      <stop stop-color="white" stop-opacity="0"/>
      <stop offset="1"/>
    </linearGradient>
  </defs>
</svg>