<svg width="863" height="395" viewBox="0 0 863 395" fill="none" xmlns="http://www.w3.org/2000/svg">
<rect width="172" height="395" rx="10" fill="url(#paint0_linear_2249_17799)"/>
<path d="M0 328H172V385C172 390.523 167.523 395 162 395H10C4.47716 395 0 390.523 0 385V328Z" fill="#2D2D3F"/>
<rect x="40" y="280" width="90" height="18" rx="2" fill="#255ED0"/>
<rect x="40" y="254" width="90" height="18" rx="2" fill="#3F82FF"/>
<rect x="40" y="228" width="90" height="18" rx="2" fill="#00A2FF"/>
<rect x="40" y="202" width="90" height="18" rx="2" fill="#3BC7FA"/>
<rect x="40" y="176" width="90" height="18" rx="2" fill="#68DEFF"/>
<rect x="40" y="150" width="90" height="18" rx="2" fill="#A9F2FF"/>
<rect x="40" y="124" width="90" height="18" rx="2" fill="#2D2D3F"/>
<rect x="40" y="72" width="90" height="18" rx="2" fill="#2D2D3F"/>
<rect x="40" y="98" width="90" height="18" rx="2" fill="#2D2D3F"/>
<rect x="40" y="46" width="90" height="18" rx="2" fill="#2D2D3F"/>
<path d="M49.707 355.504C49.707 358.238 52.3828 360.973 56.0742 361.617L55.0977 363.434C52.1387 362.809 49.7168 361.021 48.5742 358.648C47.4023 361.002 44.9805 362.799 42.0312 363.434L41.0742 361.617C44.7266 360.953 47.3828 358.219 47.4023 355.504V354.195H49.707V355.504ZM56.7188 366.695V368.492H40.5859V366.695H56.7188ZM65.7031 355.113C65.6934 356.773 65.5371 358.365 65.1367 359.859H67.3047V353.512H69.3555V369.898H67.3047V361.617H64.4922C63.5059 363.736 61.8457 365.621 59.1016 367.164L57.8711 365.68C60.2734 364.312 61.7383 362.721 62.5977 360.895L58.1836 361.344L57.9297 359.469L63.2227 359.176C63.3984 358.443 63.5156 357.672 63.5742 356.871H58.7891V355.113H65.7031ZM73.1055 353.082V370.738H71.0352V353.082H73.1055ZM80.1562 353.648C82.832 353.648 84.8242 355.309 84.8438 357.633C84.8242 359.977 82.832 361.617 80.1562 361.617C77.4609 361.617 75.4688 359.977 75.4688 357.633C75.4688 355.309 77.4609 353.648 80.1562 353.648ZM80.1562 355.445C78.6719 355.445 77.5781 356.285 77.5781 357.633C77.5781 359 78.6719 359.859 80.1562 359.859C81.6406 359.859 82.7344 359 82.7344 357.633C82.7344 356.285 81.6406 355.445 80.1562 355.445ZM89.8633 353.082V362.008H87.6758V353.082H89.8633ZM89.8633 362.77V367.379H80.3125V368.805H90.3906V370.523H78.1836V365.777H87.6953V364.469H78.1445V362.77H89.8633Z" fill="#B0BBEB"/>
<path d="M111.371 366.715V363.023H107.68V360.855H111.371V357.164H113.52V360.855H117.23V363.023H113.52V366.715H111.371ZM119.574 369V367.164L124.574 362.34C126 360.914 126.742 360.074 126.742 358.883C126.742 357.574 125.707 356.734 124.32 356.734C122.855 356.734 121.918 357.652 121.938 359.078H119.516C119.496 356.402 121.508 354.664 124.34 354.664C127.23 354.664 129.184 356.383 129.184 358.766C129.184 360.367 128.402 361.656 125.629 364.273L123.109 366.773V366.871H129.398V369H119.574Z" fill="#68DEFF"/>
<rect x="230" width="172" height="395" rx="10" fill="url(#paint1_linear_2249_17799)"/>
<path d="M230 328H402V385C402 390.523 397.523 395 392 395H240C234.477 395 230 390.523 230 385V328Z" fill="#2D2D3F"/>
<rect x="270" y="280" width="90" height="18" rx="2" fill="#255ED0"/>
<rect x="270" y="254" width="90" height="18" rx="2" fill="#3F82FF"/>
<rect x="270" y="228" width="90" height="18" rx="2" fill="#00A1FF"/>
<rect x="270" y="202" width="90" height="18" rx="2" fill="#2D2D3F"/>
<rect x="270" y="176" width="90" height="18" rx="2" fill="#2D2D3F"/>
<rect x="270" y="150" width="90" height="18" rx="2" fill="#2D2D3F"/>
<rect x="270" y="124" width="90" height="18" rx="2" fill="#2D2D3F"/>
<rect x="270" y="72" width="90" height="18" rx="2" fill="#2D2D3F"/>
<rect x="270" y="98" width="90" height="18" rx="2" fill="#2D2D3F"/>
<rect x="270" y="46" width="90" height="18" rx="2" fill="#2D2D3F"/>
<path d="M283.047 354.176V355.934H278.418V357.594H282.383V359.273H278.418V361.09C280.537 361.07 281.992 360.992 283.711 360.68L283.945 362.379C281.914 362.75 280.234 362.828 277.5 362.828H276.328V354.176H283.047ZM290.684 353.082V363.648H288.613V353.082H290.684ZM287.207 353.375V363.512H285.137V359.156H283.145V357.398H285.137V353.375H287.207ZM290.684 364.391V370.523H278.77V364.391H290.684ZM280.938 366.109V368.766H288.535V366.109H280.938ZM309.004 366.871V368.688H292.871V366.871H299.805V363.395H294.258V361.676H296.738V356.402H294.199V354.645H307.598V356.402H305.02V361.676H307.539V363.395H301.953V366.871H309.004ZM298.906 361.676H302.871V356.402H298.906V361.676Z" fill="#B0BBEB"/>
<path d="M334.617 360.914V362.965H328.25V360.914H334.617ZM342.781 354.859V369H340.223V357.34H340.145L336.844 359.449V357.125L340.34 354.859H342.781ZM351.434 369.195C348.035 369.195 346.004 366.559 346.004 361.93C346.004 357.32 348.035 354.664 351.434 354.664C354.812 354.664 356.863 357.32 356.863 361.93C356.863 366.559 354.832 369.195 351.434 369.195ZM351.434 367.066C353.211 367.066 354.305 365.328 354.305 361.93C354.305 358.551 353.191 356.773 351.434 356.773C349.676 356.773 348.562 358.551 348.562 361.93C348.562 365.328 349.656 367.066 351.434 367.066Z" fill="#68DEFF"/>
<rect x="461" width="172" height="395" rx="10" fill="url(#paint2_linear_2249_17799)"/>
<path d="M460 328H633V385C633 390.523 628.523 395 623 395H470C464.477 395 460 390.523 460 385V328Z" fill="#2D2D3F"/>
<rect x="501" y="280" width="90" height="18" rx="2" fill="#255ED0"/>
<rect x="501" y="254" width="90" height="18" rx="2" fill="#3F82FF"/>
<rect x="501" y="228" width="90" height="18" rx="2" fill="#00A1FF"/>
<rect x="501" y="202" width="90" height="18" rx="2" fill="#3BC7FA"/>
<rect x="501" y="176" width="90" height="18" rx="2" fill="#68DEFF"/>
<rect x="501" y="150" width="90" height="18" rx="2" fill="#A9F2FF"/>
<rect x="501" y="124" width="90" height="18" rx="2" fill="#A9F2FF"/>
<rect x="501" y="72" width="90" height="18" rx="2" fill="#2D2D3F"/>
<rect x="501" y="98" width="90" height="18" rx="2" fill="#A9F2FF"/>
<rect x="501" y="46" width="90" height="18" rx="2" fill="#2D2D3F"/>
<path d="M513.293 353.082V370.758H511.145V353.082H513.293ZM507.863 354.625V361.246H501.789V364.801C504.572 364.781 506.975 364.645 509.719 364.176L509.914 365.953C506.906 366.48 504.27 366.578 501.105 366.578H499.562V359.527H505.656V356.383H499.543V354.625H507.863ZM530.676 353.082V370.758H528.527V361.188H524.934V366.48H516.535V354.449H518.723V358.844H522.805V354.449H524.934V359.41H528.527V353.082H530.676ZM518.723 364.742H522.805V360.543H518.723V364.742ZM549.289 366.734V368.531H533.156V366.734H549.289ZM537.102 354.273V357.301H545.285V354.273H547.453V363.59H534.934V354.273H537.102ZM537.102 361.891H545.285V359H537.102V361.891Z" fill="#B0BBEB"/>
<path d="M575.914 354.859V369H573.355V357.34H573.277L569.977 359.449V357.125L573.473 354.859H575.914ZM580.133 369.156C579.293 369.156 578.609 368.473 578.609 367.633C578.609 366.812 579.293 366.129 580.133 366.129C580.934 366.129 581.637 366.812 581.637 367.633C581.637 368.473 580.934 369.156 580.133 369.156ZM588.668 369.195C585.27 369.195 583.238 366.559 583.238 361.93C583.238 357.32 585.27 354.664 588.668 354.664C592.047 354.664 594.098 357.32 594.098 361.93C594.098 366.559 592.066 369.195 588.668 369.195ZM588.668 367.066C590.445 367.066 591.539 365.328 591.539 361.93C591.539 358.551 590.426 356.773 588.668 356.773C586.91 356.773 585.797 358.551 585.797 361.93C585.797 365.328 586.891 367.066 588.668 367.066Z" fill="#68DEFF"/>
<rect x="691" width="172" height="395" rx="10" fill="url(#paint3_linear_2249_17799)"/>
<path d="M691 328H863V385C863 390.523 858.523 395 853 395H701C695.477 395 691 390.523 691 385V328Z" fill="#2D2D3F"/>
<rect x="763" y="46" width="24" height="252" rx="3" fill="#1C1D26"/>
<rect x="770" y="54" width="10" height="235" rx="1" fill="#17171E"/>
<path d="M741.941 354.645V356.246C741.922 358.395 741.961 360.855 741.16 364.586L739.031 364.371C739.334 362.955 739.52 361.695 739.637 360.562L729.227 361.148L728.914 359.293L739.754 358.902C739.793 357.984 739.803 357.164 739.812 356.402H729.461V354.645H741.941ZM743.68 366.773V368.57H727.586V366.773H733.523V362.418H735.672V366.773H743.68ZM759.656 353.082V370.758H757.488V361.363H754.461V359.586H757.488V353.082H759.656ZM753.445 354.625V361.09H747.664V364.801C750.281 364.791 752.4 364.703 754.773 364.273L754.949 366.051C752.312 366.52 749.969 366.617 746.922 366.617H745.516V359.332H751.316V356.383H745.457V354.625H753.445ZM771.277 355.504C771.277 358.238 773.953 360.973 777.645 361.617L776.668 363.434C773.709 362.809 771.287 361.021 770.145 358.648C768.973 361.002 766.551 362.799 763.602 363.434L762.645 361.617C766.297 360.953 768.953 358.219 768.973 355.504V354.195H771.277V355.504ZM778.289 366.695V368.492H762.156V366.695H778.289Z" fill="#B0BBEB"/>
<path d="M811.926 361.93C811.926 366.5 809.152 369.195 805.441 369.195C801.73 369.195 798.957 366.48 798.957 361.93C798.957 357.359 801.73 354.664 805.441 354.664C809.152 354.664 811.926 357.359 811.926 361.93ZM809.367 361.93C809.367 358.707 807.746 356.949 805.441 356.949C803.137 356.949 801.516 358.707 801.516 361.93C801.516 365.152 803.137 366.91 805.441 366.91C807.746 366.91 809.367 365.152 809.367 361.93ZM825.812 354.859V369H823.547L816.848 359.332H816.73V369H814.191V354.859H816.496L823.156 364.527H823.293V354.859H825.812Z" fill="#68DEFF"/>
<g filter="url(#filter0_d_2249_17799)">
<rect x="737" y="55" width="78" height="37" rx="5" fill="url(#paint4_linear_2249_17799)"/>
<rect x="737.5" y="55.5" width="77" height="36" rx="4.5" stroke="url(#paint5_linear_2249_17799)"/>
</g>
<rect x="744" y="61" width="64" height="25" rx="2" fill="url(#paint6_linear_2249_17799)"/>
<defs>
<filter id="filter0_d_2249_17799" x="737" y="55" width="86" height="45" filterUnits="userSpaceOnUse" color-interpolation-filters="sRGB">
<feFlood flood-opacity="0" result="BackgroundImageFix"/>
<feColorMatrix in="SourceAlpha" type="matrix" values="0 0 0 0 0 0 0 0 0 0 0 0 0 0 0 0 0 0 127 0" result="hardAlpha"/>
<feOffset dx="4" dy="4"/>
<feGaussianBlur stdDeviation="2"/>
<feComposite in2="hardAlpha" operator="out"/>
<feColorMatrix type="matrix" values="0 0 0 0 0 0 0 0 0 0 0 0 0 0 0 0 0 0 0.25 0"/>
<feBlend mode="normal" in2="BackgroundImageFix" result="effect1_dropShadow_2249_17799"/>
<feBlend mode="normal" in="SourceGraphic" in2="effect1_dropShadow_2249_17799" result="shape"/>
</filter>
<linearGradient id="paint0_linear_2249_17799" x1="86" y1="0" x2="86" y2="395" gradientUnits="userSpaceOnUse">
<stop offset="0.51" stop-color="#1C1C26"/>
<stop offset="1" stop-color="#232D3F"/>
</linearGradient>
<linearGradient id="paint1_linear_2249_17799" x1="316" y1="0" x2="316" y2="395" gradientUnits="userSpaceOnUse">
<stop offset="0.5" stop-color="#1C1C26"/>
<stop offset="1" stop-color="#232D3F"/>
</linearGradient>
<linearGradient id="paint2_linear_2249_17799" x1="547" y1="0" x2="547" y2="395" gradientUnits="userSpaceOnUse">
<stop stop-color="#1C1C26"/>
<stop offset="1" stop-color="#232D3F"/>
</linearGradient>
<linearGradient id="paint3_linear_2249_17799" x1="777" y1="0" x2="777" y2="395" gradientUnits="userSpaceOnUse">
<stop stop-color="#1C1C26"/>
<stop offset="1" stop-color="#232D3F"/>
</linearGradient>
<linearGradient id="paint4_linear_2249_17799" x1="737" y1="55.3117" x2="815" y2="91.6883" gradientUnits="userSpaceOnUse">
<stop stop-color="#255ED0"/>
<stop offset="0.744551" stop-color="#173C84"/>
<stop offset="1" stop-color="#13306A"/>
</linearGradient>
<linearGradient id="paint5_linear_2249_17799" x1="739.5" y1="57.5" x2="819" y2="95" gradientUnits="userSpaceOnUse">
<stop stop-color="#223788"/>
<stop offset="1" stop-color="#383754"/>
</linearGradient>
<linearGradient id="paint6_linear_2249_17799" x1="818.5" y1="99.5" x2="745.5" y2="56" gradientUnits="userSpaceOnUse">
<stop stop-color="#0C90E8"/>
<stop offset="1" stop-color="#133687"/>
</linearGradient>
</defs>
</svg>
