<svg width="284" height="187" viewBox="0 0 284 187" fill="none" xmlns="http://www.w3.org/2000/svg">
<g filter="url(#filter0_bd_1354_6910)">
<g clip-path="url(#clip0_1354_6910)">
<rect x="6.5" y="6" width="263" height="167" rx="17.8" fill="white"/>
<g opacity="0.5" filter="url(#filter1_b_1354_6910)">
<path d="M-14.5 89.5766C-14.5 89.5766 -0.542069 89.4458 8.91425 85.5327C16.2157 82.5113 20.0008 77.1049 23.4924 72.1177C27.6561 66.1708 31.4021 60.82 40.1951 60.82C48.0493 60.82 52.353 66.22 57.1191 72.2002C61.0733 77.162 65.3461 82.5234 72.2296 85.5327C73.6602 86.1581 75.1915 86.6869 76.7605 87.1339C80.8 88.2849 85.2266 88.0702 88.7792 85.8293C90.8184 84.5431 92.8907 82.8157 94.7888 80.4958C100.34 73.7118 103.218 61.5724 105.872 50.3741L105.872 50.3729L105.873 50.3707C109.039 37.0163 111.887 25 118.573 25C124.544 25 127.816 37.1251 131.44 50.5544L131.441 50.5562L131.441 50.5576C134.448 61.6992 137.696 73.7382 142.929 80.4958C143.412 81.1187 143.909 81.699 144.418 82.2394C147.637 85.661 152.858 86.1216 156.997 83.9009C164.902 79.6604 169 72.0724 172.78 65.0728C177.288 56.7263 181.344 49.2163 190.864 49.2163C199.367 49.2163 204.026 56.795 209.186 65.1889C213.467 72.1524 218.093 79.6772 225.545 83.9009C227.552 85.0378 230.077 84.873 231.744 83.2794C234.96 80.2044 236.976 76.032 238.867 72.1177C241.74 66.1708 244.325 60.82 250.393 60.82C255.813 60.82 258.783 66.2198 262.072 72.2002C264.801 77.162 267.75 82.5234 272.5 85.5327C278.6 89.3973 287.796 89.5771 288.55 89.5771C288.684 89.5771 278.919 89.7079 272.393 93.6211C267.354 96.6424 264.742 102.049 262.333 107.036C259.46 112.983 256.874 118.334 250.806 118.334C245.386 118.334 242.417 112.934 239.128 106.954C237.02 103.121 234.781 99.0508 231.683 96.0096C230.007 94.3643 227.448 94.1425 225.378 95.2528C217.473 99.4933 213.375 107.081 209.595 114.081C205.087 122.427 201.032 129.937 191.512 129.937C183.008 129.937 178.349 122.359 173.189 113.965C168.908 107.001 164.282 99.4766 156.83 95.2528C152.886 93.0176 147.859 93.4655 144.635 96.6534C144.015 97.2671 143.405 97.9339 142.812 98.6585C137.261 105.442 134.383 117.582 131.729 128.78L131.728 128.781L131.728 128.784C128.562 142.138 125.714 154.154 119.028 154.154C113.056 154.154 109.784 142.029 106.161 128.6L106.16 128.598L106.16 128.597C103.153 117.455 99.9046 105.416 94.6712 98.6585C92.8842 96.351 90.8905 94.6295 88.9028 93.3452C85.3852 91.0725 80.9664 90.8811 76.9267 91.9851C75.2646 92.4394 73.6255 92.9793 72.0748 93.6211C64.7735 96.6424 60.9884 102.049 57.4968 107.036C53.3331 112.983 49.587 118.334 40.794 118.334C32.9399 118.334 28.6368 112.934 23.8708 106.954L23.8701 106.954C19.9159 101.992 15.6431 96.6304 8.75964 93.6211C-0.0800257 89.7565 -14.5 89.5766 -14.5 89.5766Z" fill="url(#paint0_linear_1354_6910)" fill-opacity="0.9"/>
<path d="M-14.5 89.5766C-14.5 89.5766 -0.542069 89.4458 8.91425 85.5327C16.2157 82.5113 20.0008 77.1049 23.4924 72.1177C27.6561 66.1708 31.4021 60.82 40.1951 60.82C48.0493 60.82 52.353 66.22 57.1191 72.2002C61.0733 77.162 65.3461 82.5234 72.2296 85.5327C73.6602 86.1581 75.1915 86.6869 76.7605 87.1339C80.8 88.2849 85.2266 88.0702 88.7792 85.8293C90.8184 84.5431 92.8907 82.8157 94.7888 80.4958C100.34 73.7118 103.218 61.5724 105.872 50.3741L105.872 50.3729L105.873 50.3707C109.039 37.0163 111.887 25 118.573 25C124.544 25 127.816 37.1251 131.44 50.5544L131.441 50.5562L131.441 50.5576C134.448 61.6992 137.696 73.7382 142.929 80.4958C143.412 81.1187 143.909 81.699 144.418 82.2394C147.637 85.661 152.858 86.1216 156.997 83.9009C164.902 79.6604 169 72.0724 172.78 65.0728C177.288 56.7263 181.344 49.2163 190.864 49.2163C199.367 49.2163 204.026 56.795 209.186 65.1889C213.467 72.1524 218.093 79.6772 225.545 83.9009C227.552 85.0378 230.077 84.873 231.744 83.2794C234.96 80.2044 236.976 76.032 238.867 72.1177C241.74 66.1708 244.325 60.82 250.393 60.82C255.813 60.82 258.783 66.2198 262.072 72.2002C264.801 77.162 267.75 82.5234 272.5 85.5327C278.6 89.3973 287.796 89.5771 288.55 89.5771C288.684 89.5771 278.919 89.7079 272.393 93.6211C267.354 96.6424 264.742 102.049 262.333 107.036C259.46 112.983 256.874 118.334 250.806 118.334C245.386 118.334 242.417 112.934 239.128 106.954C237.02 103.121 234.781 99.0508 231.683 96.0096C230.007 94.3643 227.448 94.1425 225.378 95.2528C217.473 99.4933 213.375 107.081 209.595 114.081C205.087 122.427 201.032 129.937 191.512 129.937C183.008 129.937 178.349 122.359 173.189 113.965C168.908 107.001 164.282 99.4766 156.83 95.2528C152.886 93.0176 147.859 93.4655 144.635 96.6534C144.015 97.2671 143.405 97.9339 142.812 98.6585C137.261 105.442 134.383 117.582 131.729 128.78L131.728 128.781L131.728 128.784C128.562 142.138 125.714 154.154 119.028 154.154C113.056 154.154 109.784 142.029 106.161 128.6L106.16 128.598L106.16 128.597C103.153 117.455 99.9046 105.416 94.6712 98.6585C92.8842 96.351 90.8905 94.6295 88.9028 93.3452C85.3852 91.0725 80.9664 90.8811 76.9267 91.9851C75.2646 92.4394 73.6255 92.9793 72.0748 93.6211C64.7735 96.6424 60.9884 102.049 57.4968 107.036C53.3331 112.983 49.587 118.334 40.794 118.334C32.9399 118.334 28.6368 112.934 23.8708 106.954L23.8701 106.954C19.9159 101.992 15.6431 96.6304 8.75964 93.6211C-0.0615959 89.7645 -14.5 89.5766 -14.5 89.5766Z" fill="url(#paint1_linear_1354_6910)" fill-opacity="0.9"/>
</g>
<g style="mix-blend-mode:plus-darker" opacity="0.5" filter="url(#filter2_b_1354_6910)">
<path d="M278.918 89.3133C278.918 89.3133 266.361 89.2499 257.853 87.3512C251.284 85.8853 247.879 83.2622 244.738 80.8424C240.992 77.9571 237.621 75.3609 229.711 75.3609C222.645 75.3609 218.773 77.981 214.485 80.8825C210.927 83.2899 207.083 85.8912 200.89 87.3512C197.912 88.0534 195.049 88.5632 191.305 88.2269C186.943 87.8351 184.001 87.1525 180.595 84.9074C175.601 81.6159 173.011 75.7254 170.623 70.2921L170.623 70.291C167.775 63.8116 165.212 57.9814 159.197 57.9814C153.825 57.9814 150.881 63.8653 147.62 70.381C144.916 75.7868 141.993 81.6287 137.284 84.9074C137.04 85.0778 136.758 85.2531 136.451 85.4296C132.862 87.4972 128.502 88.0255 124.628 86.5595C121.376 85.3291 113.829 80.8204 110.428 77.4243C106.373 73.3747 102.724 69.7309 94.1597 69.7309C86.5093 69.7309 82.3178 73.408 77.6754 77.4806C69.6781 84.4962 57.834 81.8284 48.0924 77.5534C45.1284 76.2527 42.3909 75.3609 40.6029 75.3609C35.7267 75.3609 33.0549 77.9808 30.0958 80.8825C27.6409 83.2899 24.9882 85.8912 20.7148 87.3512C15.2267 89.2263 6.95273 89.3136 6.27487 89.3136C6.15454 89.3136 14.9398 89.377 20.8108 91.2756C25.3438 92.7416 27.6937 95.3647 29.8615 97.7844C32.4464 100.67 34.7721 103.266 40.2313 103.266C41.973 103.266 45.0072 102.201 48.3233 100.699C57.9825 96.3248 69.8046 93.7101 77.3076 101.203C81.3631 105.252 85.012 108.896 93.5765 108.896C101.227 108.896 105.418 105.219 110.061 101.146C113.912 97.7676 117.035 94.5658 121.537 92.5735C122.229 92.2673 122.949 92.0284 123.669 91.8427C128.257 90.6593 133.434 91.1121 137.39 93.7197C142.384 97.0112 144.973 102.902 147.362 108.335L147.362 108.336C150.21 114.815 152.773 120.646 158.788 120.646C164.16 120.646 167.104 114.762 170.364 108.246C173.069 102.84 175.992 96.9985 180.701 93.7197C181.339 93.2753 182.166 92.8767 183.081 92.5232C188.752 90.3338 195.097 89.9515 201.03 91.2756C207.598 92.7416 211.004 95.3647 214.145 97.7844C217.891 100.67 221.261 103.266 229.172 103.266C236.238 103.266 240.11 100.646 244.398 97.7444C247.955 95.337 251.799 92.7357 257.992 91.2756C265.945 89.4006 278.918 89.3133 278.918 89.3133Z" fill="url(#paint2_linear_1354_6910)" fill-opacity="0.3"/>
<path d="M278.918 89.3133C278.918 89.3133 266.361 89.2499 257.853 87.3512C251.284 85.8853 247.879 83.2622 244.738 80.8424C240.992 77.9571 237.621 75.3609 229.711 75.3609C222.645 75.3609 218.773 77.981 214.485 80.8825C210.927 83.2899 207.083 85.8912 200.89 87.3512C197.912 88.0534 195.049 88.5632 191.305 88.2269C186.943 87.8351 184.001 87.1525 180.595 84.9074C175.601 81.6159 173.011 75.7254 170.623 70.2921L170.623 70.291C167.775 63.8116 165.212 57.9814 159.197 57.9814C153.825 57.9814 150.881 63.8653 147.62 70.381C144.916 75.7868 141.993 81.6287 137.284 84.9074C137.04 85.0778 136.758 85.2531 136.451 85.4296C132.862 87.4972 128.502 88.0255 124.628 86.5595C121.376 85.3291 113.829 80.8204 110.428 77.4243C106.373 73.3747 102.724 69.7309 94.1597 69.7309C86.5093 69.7309 82.3178 73.408 77.6754 77.4806C69.6781 84.4962 57.834 81.8284 48.0924 77.5534C45.1284 76.2527 42.3909 75.3609 40.6029 75.3609C35.7267 75.3609 33.0549 77.9808 30.0958 80.8825C27.6409 83.2899 24.9882 85.8912 20.7148 87.3512C15.2267 89.2263 6.95273 89.3136 6.27487 89.3136C6.15454 89.3136 14.9398 89.377 20.8108 91.2756C25.3438 92.7416 27.6937 95.3647 29.8615 97.7844C32.4464 100.67 34.7721 103.266 40.2313 103.266C41.973 103.266 45.0072 102.201 48.3233 100.699C57.9825 96.3248 69.8046 93.7101 77.3076 101.203C81.3631 105.252 85.012 108.896 93.5765 108.896C101.227 108.896 105.418 105.219 110.061 101.146C113.912 97.7676 117.035 94.5658 121.537 92.5735C122.229 92.2673 122.949 92.0284 123.669 91.8427C128.257 90.6593 133.434 91.1121 137.39 93.7197C142.384 97.0112 144.973 102.902 147.362 108.335L147.362 108.336C150.21 114.815 152.773 120.646 158.788 120.646C164.16 120.646 167.104 114.762 170.364 108.246C173.069 102.84 175.992 96.9985 180.701 93.7197C181.339 93.2753 182.166 92.8767 183.081 92.5232C188.752 90.3338 195.097 89.9515 201.03 91.2756C207.598 92.7416 211.004 95.3647 214.145 97.7844C217.891 100.67 221.261 103.266 229.172 103.266C236.238 103.266 240.11 100.646 244.398 97.7444C247.955 95.337 251.799 92.7357 257.992 91.2756C265.928 89.4045 278.918 89.3133 278.918 89.3133Z" fill="url(#paint3_linear_1354_6910)" fill-opacity="0.3"/>
</g>
</g>
</g>
<defs>
<filter id="filter0_bd_1354_6910" x="-2.4" y="-2.9" width="285.9" height="189.9" filterUnits="userSpaceOnUse" color-interpolation-filters="sRGB">
<feFlood flood-opacity="0" result="BackgroundImageFix"/>
<feGaussianBlur in="BackgroundImageFix" stdDeviation="4.45"/>
<feComposite in2="SourceAlpha" operator="in" result="effect1_backgroundBlur_1354_6910"/>
<feColorMatrix in="SourceAlpha" type="matrix" values="0 0 0 0 0 0 0 0 0 0 0 0 0 0 0 0 0 0 127 0" result="hardAlpha"/>
<feOffset dx="4" dy="4"/>
<feGaussianBlur stdDeviation="5"/>
<feComposite in2="hardAlpha" operator="out"/>
<feColorMatrix type="matrix" values="0 0 0 0 0 0 0 0 0 0 0 0 0 0 0 0 0 0 0.1 0"/>
<feBlend mode="normal" in2="effect1_backgroundBlur_1354_6910" result="effect2_dropShadow_1354_6910"/>
<feBlend mode="normal" in="SourceGraphic" in2="effect2_dropShadow_1354_6910" result="shape"/>
</filter>
<filter id="filter1_b_1354_6910" x="-18.06" y="21.44" width="310.171" height="136.274" filterUnits="userSpaceOnUse" color-interpolation-filters="sRGB">
<feFlood flood-opacity="0" result="BackgroundImageFix"/>
<feGaussianBlur in="BackgroundImageFix" stdDeviation="1.78"/>
<feComposite in2="SourceAlpha" operator="in" result="effect1_backgroundBlur_1354_6910"/>
<feBlend mode="normal" in="SourceGraphic" in2="effect1_backgroundBlur_1354_6910" result="shape"/>
</filter>
<filter id="filter2_b_1354_6910" x="3.60344" y="55.3114" width="277.985" height="68.0041" filterUnits="userSpaceOnUse" color-interpolation-filters="sRGB">
<feFlood flood-opacity="0" result="BackgroundImageFix"/>
<feGaussianBlur in="BackgroundImageFix" stdDeviation="1.335"/>
<feComposite in2="SourceAlpha" operator="in" result="effect1_backgroundBlur_1354_6910"/>
<feBlend mode="normal" in="SourceGraphic" in2="effect1_backgroundBlur_1354_6910" result="shape"/>
</filter>
<linearGradient id="paint0_linear_1354_6910" x1="-202" y1="102" x2="266.5" y2="94" gradientUnits="userSpaceOnUse">
<stop stop-color="#8371E1" stop-opacity="0"/>
<stop offset="1" stop-color="#8371E1"/>
</linearGradient>
<linearGradient id="paint1_linear_1354_6910" x1="-202" y1="102" x2="266.5" y2="94" gradientUnits="userSpaceOnUse">
<stop stop-color="#8371E1" stop-opacity="0"/>
<stop offset="1" stop-color="#8371E1"/>
</linearGradient>
<linearGradient id="paint2_linear_1354_6910" x1="142.596" y1="120.646" x2="142.596" y2="57.9814" gradientUnits="userSpaceOnUse">
<stop stop-color="#CFBEE0"/>
<stop offset="0.46" stop-color="#7185E1"/>
<stop offset="1" stop-color="#B79ED0"/>
</linearGradient>
<linearGradient id="paint3_linear_1354_6910" x1="142.596" y1="120.646" x2="142.596" y2="57.9814" gradientUnits="userSpaceOnUse">
<stop stop-color="#CFBEE0"/>
<stop offset="0.46" stop-color="#7185E1"/>
<stop offset="1" stop-color="#B79ED0"/>
</linearGradient>
<clipPath id="clip0_1354_6910">
<rect x="6.5" y="6" width="263" height="167" rx="17.8" fill="white"/>
</clipPath>
</defs>
</svg>
