<svg xmlns="http://www.w3.org/2000/svg" width="56px" height="56px" viewBox="0 0 56 56" fill="none">
  <rect width="56px" height="56px" rx="5.6" fill="url(#paint0_linear_464_1335)"/>
  <path fill-rule="evenodd" clip-rule="evenodd" d="M30.3693 17.4305C30.7755 16.6044 30.1743 15.6387 29.2537 15.6387H22.2072C21.7334 15.6387 21.3007 15.908 21.0916 16.3332L19.943 18.6687C19.5367 19.4948 20.138 20.4606 21.0586 20.4606H28.1051C28.5789 20.4606 29.0116 20.1912 29.2207 19.766L30.3693 17.4305ZM28.2695 23.7924C28.4786 23.3672 28.9112 23.0978 29.3851 23.0978H36.4315C37.3521 23.0978 37.9534 24.0636 37.5471 24.8897L37.1403 25.717C36.734 26.5431 37.3353 27.5088 38.2559 27.5088H43.7705C44.6911 27.5088 45.2924 28.4746 44.8861 29.3007L43.7375 31.6362C43.5284 32.0614 43.0958 32.3307 42.6219 32.3307H34.8242C34.3503 32.3307 33.9177 32.6001 33.7086 33.0253L32.2362 36.0191C32.0271 36.4443 31.5945 36.7137 31.1206 36.7137H23.5964C23.1225 36.7137 22.6899 36.983 22.4808 37.4082L21.0094 40.4001C20.8003 40.8253 20.3676 41.0946 19.8938 41.0946H12.8473C11.9267 41.0946 11.3255 40.1289 11.7317 39.3028L12.8803 36.9673C13.0894 36.5421 13.5221 36.2727 13.9959 36.2727H21.5202C21.994 36.2727 22.4267 36.0034 22.6358 35.5782L23.3516 34.1226C23.7579 33.2965 23.1567 32.3307 22.2361 32.3307H17.2283C16.3077 32.3307 15.7064 31.365 16.1127 30.5389L17.2613 28.2034C17.4704 27.7782 17.903 27.5088 18.3769 27.5088H25.6677C26.1416 27.5088 26.5742 27.2395 26.7833 26.8143L28.2695 23.7924ZM26.8765 28.6143C27.0856 28.1891 27.5182 27.9198 27.9921 27.9198H33.7511C34.6717 27.9198 35.273 28.8855 34.8667 29.7116L34.1361 31.1972C33.927 31.6224 33.4943 31.8918 33.0205 31.8918H27.2615C26.3409 31.8918 25.7396 30.926 26.1459 30.0999L26.8765 28.6143Z" fill="white"/>
  <defs>
    <linearGradient id="paint0_linear_464_1335" x1="187.423" y1="51.9072" x2="29.4658" y2="51.9072" gradientUnits="userSpaceOnUse">
      <stop stop-color="#7185E1"/>
      <stop offset="0.43" stop-color="#6F3DA1"/>
      <stop offset="1" stop-color="#392E6D"/>
    </linearGradient>
  </defs>
</svg>